G04 EAGLE Gerber RS-274X export*
G75*
%MOMM*%
%FSLAX34Y34*%
%LPD*%
%IN*%
%IPPOS*%
%AMOC8*
5,1,8,0,0,1.08239X$1,22.5*%
G01*
G04 Define Apertures*
%ADD10C,0.254000*%
D10*
X0Y284480D02*
X69650Y284480D01*
X69650Y413260D01*
X0Y413260D01*
X0Y284480D01*
X38551Y367710D02*
X38096Y367770D01*
X37653Y367889D01*
X37229Y368064D01*
X36831Y368294D01*
X36467Y368573D01*
X36143Y368897D01*
X35864Y369261D01*
X35634Y369659D01*
X35459Y370083D01*
X35340Y370526D01*
X35280Y370981D01*
X35280Y371439D01*
X35340Y371894D01*
X35459Y372337D01*
X35634Y372761D01*
X35864Y373159D01*
X36143Y373523D01*
X36467Y373847D01*
X36831Y374126D01*
X37229Y374356D01*
X37653Y374531D01*
X38096Y374650D01*
X38551Y374710D01*
X39009Y374710D01*
X39464Y374650D01*
X39907Y374531D01*
X40331Y374356D01*
X40729Y374126D01*
X41093Y373847D01*
X41417Y373523D01*
X41696Y373159D01*
X41926Y372761D01*
X42101Y372337D01*
X42220Y371894D01*
X42280Y371439D01*
X42280Y370981D01*
X42220Y370526D01*
X42101Y370083D01*
X41926Y369659D01*
X41696Y369261D01*
X41417Y368897D01*
X41093Y368573D01*
X40729Y368294D01*
X40331Y368064D01*
X39907Y367889D01*
X39464Y367770D01*
X39009Y367710D01*
X38551Y367710D01*
X38551Y326210D02*
X38096Y326270D01*
X37653Y326389D01*
X37229Y326564D01*
X36831Y326794D01*
X36467Y327073D01*
X36143Y327397D01*
X35864Y327761D01*
X35634Y328159D01*
X35459Y328583D01*
X35340Y329026D01*
X35280Y329481D01*
X35280Y329939D01*
X35340Y330394D01*
X35459Y330837D01*
X35634Y331261D01*
X35864Y331659D01*
X36143Y332023D01*
X36467Y332347D01*
X36831Y332626D01*
X37229Y332856D01*
X37653Y333031D01*
X38096Y333150D01*
X38551Y333210D01*
X39009Y333210D01*
X39464Y333150D01*
X39907Y333031D01*
X40331Y332856D01*
X40729Y332626D01*
X41093Y332347D01*
X41417Y332023D01*
X41696Y331659D01*
X41926Y331261D01*
X42101Y330837D01*
X42220Y330394D01*
X42280Y329939D01*
X42280Y329481D01*
X42220Y329026D01*
X42101Y328583D01*
X41926Y328159D01*
X41696Y327761D01*
X41417Y327397D01*
X41093Y327073D01*
X40729Y326794D01*
X40331Y326564D01*
X39907Y326389D01*
X39464Y326270D01*
X39009Y326210D01*
X38551Y326210D01*
M02*
