G04 EAGLE Gerber RS-274X export*
G75*
%MOMM*%
%FSLAX34Y34*%
%LPD*%
%INSilkscreen Top*%
%IPPOS*%
%AMOC8*
5,1,8,0,0,1.08239X$1,22.5*%
G01*
G04 Define Apertures*
%ADD10C,0.200000*%
%ADD11C,0.152400*%
G36*
X81534Y357162D02*
X80001Y357162D01*
X80001Y358318D01*
X79980Y358615D01*
X79919Y358879D01*
X79816Y359110D01*
X79672Y359308D01*
X79492Y359468D01*
X79285Y359582D01*
X79048Y359650D01*
X78784Y359673D01*
X78517Y359650D01*
X78283Y359582D01*
X78080Y359469D01*
X77910Y359310D01*
X77774Y359110D01*
X77677Y358872D01*
X77619Y358597D01*
X77600Y358285D01*
X77600Y356629D01*
X81534Y356629D01*
X81534Y357162D01*
G37*
G36*
X79150Y360260D02*
X79406Y360320D01*
X79632Y360420D01*
X79828Y360559D01*
X79987Y360731D01*
X80100Y360930D01*
X80168Y361156D01*
X80191Y361408D01*
X80181Y361566D01*
X80153Y361718D01*
X80105Y361864D01*
X80039Y362003D01*
X79956Y362128D01*
X79862Y362234D01*
X79755Y362319D01*
X79635Y362385D01*
X79987Y362365D01*
X80295Y362317D01*
X80560Y362241D01*
X80783Y362137D01*
X80959Y362006D01*
X81084Y361850D01*
X81160Y361671D01*
X81179Y361572D01*
X81185Y361466D01*
X81177Y361344D01*
X81154Y361232D01*
X81116Y361132D01*
X81062Y361043D01*
X80993Y360966D01*
X80909Y360900D01*
X80809Y360845D01*
X80694Y360802D01*
X80769Y360322D01*
X80970Y360391D01*
X81142Y360481D01*
X81284Y360590D01*
X81396Y360719D01*
X81481Y360870D01*
X81541Y361043D01*
X81578Y361239D01*
X81590Y361458D01*
X81581Y361624D01*
X81556Y361780D01*
X81513Y361927D01*
X81454Y362064D01*
X81377Y362190D01*
X81284Y362308D01*
X81173Y362415D01*
X81045Y362512D01*
X80902Y362599D01*
X80744Y362674D01*
X80571Y362738D01*
X80384Y362790D01*
X80181Y362830D01*
X79965Y362859D01*
X79487Y362882D01*
X79031Y362861D01*
X78635Y362798D01*
X78300Y362692D01*
X78156Y362623D01*
X78027Y362544D01*
X77913Y362455D01*
X77814Y362355D01*
X77731Y362246D01*
X77662Y362127D01*
X77609Y361998D01*
X77571Y361858D01*
X77549Y361709D01*
X77541Y361550D01*
X77563Y361259D01*
X77629Y361001D01*
X77740Y360777D01*
X77894Y360587D01*
X78087Y360435D01*
X78313Y360327D01*
X78572Y360262D01*
X78865Y360241D01*
X79150Y360260D01*
G37*
G36*
X80799Y353434D02*
X81009Y353519D01*
X81186Y353629D01*
X81332Y353765D01*
X81445Y353926D01*
X81525Y354112D01*
X81574Y354324D01*
X81590Y354561D01*
X81569Y354816D01*
X81508Y355043D01*
X81405Y355241D01*
X81262Y355410D01*
X81082Y355546D01*
X80873Y355642D01*
X80632Y355701D01*
X80361Y355720D01*
X77600Y355720D01*
X77600Y354433D01*
X78035Y354433D01*
X78035Y355189D01*
X80372Y355189D01*
X80553Y355179D01*
X80711Y355148D01*
X80846Y355095D01*
X80957Y355022D01*
X81045Y354930D01*
X81107Y354824D01*
X81145Y354701D01*
X81157Y354564D01*
X81146Y354437D01*
X81112Y354321D01*
X81055Y354216D01*
X80976Y354123D01*
X80876Y354043D01*
X80758Y353978D01*
X80623Y353930D01*
X80470Y353897D01*
X80557Y353374D01*
X80799Y353434D01*
G37*
%LPC*%
G36*
X78027Y357162D02*
X78027Y358221D01*
X78039Y358435D01*
X78074Y358621D01*
X78134Y358779D01*
X78217Y358908D01*
X78325Y359008D01*
X78456Y359079D01*
X78610Y359122D01*
X78789Y359137D01*
X78974Y359123D01*
X79135Y359081D01*
X79271Y359011D01*
X79382Y358913D01*
X79468Y358788D01*
X79530Y358634D01*
X79567Y358453D01*
X79579Y358243D01*
X79579Y357162D01*
X78027Y357162D01*
G37*
G36*
X78665Y360765D02*
X78487Y360804D01*
X78330Y360869D01*
X78196Y360961D01*
X78088Y361075D01*
X78010Y361209D01*
X77964Y361362D01*
X77949Y361533D01*
X77967Y361707D01*
X78021Y361862D01*
X78111Y361999D01*
X78238Y362117D01*
X78394Y362212D01*
X78573Y362280D01*
X78776Y362321D01*
X79001Y362335D01*
X79114Y362328D01*
X79221Y362308D01*
X79415Y362227D01*
X79576Y362100D01*
X79695Y361933D01*
X79770Y361738D01*
X79794Y361528D01*
X79779Y361358D01*
X79732Y361207D01*
X79654Y361075D01*
X79544Y360961D01*
X79408Y360869D01*
X79250Y360804D01*
X79068Y360765D01*
X78865Y360752D01*
X78665Y360765D01*
G37*
%LPD*%
G36*
X76408Y291849D02*
X71600Y291849D01*
X71600Y295475D01*
X71583Y295953D01*
X71535Y296405D01*
X71454Y296831D01*
X71341Y297232D01*
X71196Y297607D01*
X71018Y297957D01*
X70808Y298281D01*
X70566Y298580D01*
X70296Y298848D01*
X70004Y299080D01*
X69690Y299276D01*
X69353Y299437D01*
X68994Y299562D01*
X68612Y299651D01*
X68208Y299705D01*
X67781Y299723D01*
X67351Y299705D01*
X66946Y299652D01*
X66566Y299563D01*
X66211Y299438D01*
X65881Y299278D01*
X65575Y299082D01*
X65295Y298851D01*
X65039Y298584D01*
X64812Y298285D01*
X64614Y297956D01*
X64447Y297598D01*
X64310Y297211D01*
X64204Y296795D01*
X64128Y296349D01*
X64082Y295874D01*
X64067Y295370D01*
X64067Y290176D01*
X76408Y290176D01*
X76408Y291849D01*
G37*
G36*
X73639Y301423D02*
X74014Y301518D01*
X74365Y301642D01*
X74690Y301793D01*
X74990Y301973D01*
X75265Y302182D01*
X75514Y302418D01*
X75738Y302683D01*
X75936Y302974D01*
X76108Y303289D01*
X76253Y303627D01*
X76372Y303989D01*
X76464Y304375D01*
X76530Y304785D01*
X76570Y305218D01*
X76583Y305674D01*
X76569Y306163D01*
X76525Y306624D01*
X76451Y307055D01*
X76349Y307457D01*
X76217Y307830D01*
X76056Y308174D01*
X75866Y308489D01*
X75646Y308775D01*
X75400Y309029D01*
X75129Y309250D01*
X74835Y309437D01*
X74516Y309589D01*
X74174Y309708D01*
X73807Y309793D01*
X73416Y309844D01*
X73001Y309861D01*
X72712Y309849D01*
X72435Y309813D01*
X72171Y309753D01*
X71919Y309668D01*
X71680Y309560D01*
X71454Y309427D01*
X71240Y309271D01*
X71039Y309090D01*
X70854Y308888D01*
X70689Y308667D01*
X70543Y308426D01*
X70417Y308166D01*
X70311Y307887D01*
X70224Y307589D01*
X70158Y307272D01*
X70111Y306936D01*
X70076Y306936D01*
X70002Y307242D01*
X69914Y307529D01*
X69811Y307797D01*
X69694Y308047D01*
X69561Y308278D01*
X69413Y308490D01*
X69250Y308683D01*
X69073Y308858D01*
X68881Y309013D01*
X68675Y309147D01*
X68455Y309261D01*
X68222Y309354D01*
X67975Y309426D01*
X67714Y309478D01*
X67439Y309509D01*
X67150Y309519D01*
X66775Y309503D01*
X66422Y309455D01*
X66090Y309375D01*
X65778Y309262D01*
X65489Y309117D01*
X65220Y308940D01*
X64972Y308731D01*
X64746Y308490D01*
X64544Y308220D01*
X64369Y307924D01*
X64220Y307602D01*
X64099Y307254D01*
X64005Y306881D01*
X63937Y306481D01*
X63897Y306056D01*
X63883Y305604D01*
X63897Y305189D01*
X63936Y304793D01*
X64003Y304417D01*
X64096Y304060D01*
X64215Y303722D01*
X64361Y303403D01*
X64534Y303104D01*
X64733Y302823D01*
X64956Y302567D01*
X65199Y302339D01*
X65464Y302140D01*
X65749Y301968D01*
X66055Y301825D01*
X66382Y301711D01*
X66729Y301625D01*
X67098Y301567D01*
X67220Y303152D01*
X66984Y303187D01*
X66762Y303238D01*
X66553Y303306D01*
X66358Y303392D01*
X66176Y303494D01*
X66008Y303613D01*
X65854Y303748D01*
X65714Y303901D01*
X65589Y304068D01*
X65480Y304248D01*
X65388Y304440D01*
X65313Y304644D01*
X65255Y304861D01*
X65213Y305091D01*
X65188Y305332D01*
X65180Y305587D01*
X65189Y305865D01*
X65215Y306125D01*
X65260Y306368D01*
X65323Y306593D01*
X65404Y306800D01*
X65502Y306990D01*
X65619Y307162D01*
X65753Y307317D01*
X65903Y307453D01*
X66066Y307571D01*
X66242Y307672D01*
X66431Y307753D01*
X66633Y307817D01*
X66848Y307863D01*
X67076Y307890D01*
X67317Y307899D01*
X67560Y307888D01*
X67789Y307854D01*
X68005Y307799D01*
X68207Y307721D01*
X68395Y307620D01*
X68571Y307498D01*
X68732Y307353D01*
X68880Y307185D01*
X69012Y306998D01*
X69127Y306792D01*
X69224Y306568D01*
X69304Y306326D01*
X69366Y306065D01*
X69410Y305787D01*
X69436Y305490D01*
X69445Y305175D01*
X69445Y304317D01*
X70811Y304317D01*
X70811Y305210D01*
X70820Y305565D01*
X70847Y305899D01*
X70891Y306210D01*
X70953Y306501D01*
X71032Y306770D01*
X71129Y307017D01*
X71244Y307243D01*
X71376Y307448D01*
X71524Y307630D01*
X71686Y307787D01*
X71862Y307920D01*
X72052Y308029D01*
X72255Y308114D01*
X72472Y308175D01*
X72704Y308211D01*
X72948Y308223D01*
X73229Y308213D01*
X73491Y308181D01*
X73735Y308128D01*
X73962Y308053D01*
X74171Y307958D01*
X74362Y307841D01*
X74536Y307703D01*
X74691Y307544D01*
X74829Y307367D01*
X74948Y307173D01*
X75049Y306963D01*
X75131Y306737D01*
X75196Y306496D01*
X75242Y306238D01*
X75269Y305964D01*
X75278Y305674D01*
X75270Y305386D01*
X75244Y305113D01*
X75201Y304857D01*
X75141Y304616D01*
X75064Y304392D01*
X74970Y304184D01*
X74859Y303991D01*
X74731Y303815D01*
X74585Y303655D01*
X74423Y303511D01*
X74243Y303384D01*
X74047Y303272D01*
X73833Y303176D01*
X73602Y303096D01*
X73354Y303033D01*
X73089Y302986D01*
X73237Y301356D01*
X73639Y301423D01*
G37*
G36*
X73735Y280099D02*
X74102Y280203D01*
X74444Y280326D01*
X74760Y280469D01*
X75051Y280632D01*
X75317Y280815D01*
X75558Y281017D01*
X75773Y281240D01*
X75963Y281483D01*
X76127Y281745D01*
X76267Y282028D01*
X76381Y282330D01*
X76469Y282652D01*
X76533Y282994D01*
X76571Y283356D01*
X76583Y283738D01*
X76567Y284150D01*
X76519Y284539D01*
X76438Y284905D01*
X76326Y285249D01*
X76181Y285571D01*
X76004Y285870D01*
X75795Y286147D01*
X75554Y286401D01*
X75285Y286629D01*
X74992Y286826D01*
X74674Y286993D01*
X74333Y287130D01*
X73968Y287236D01*
X73579Y287312D01*
X73166Y287358D01*
X72729Y287373D01*
X64067Y287373D01*
X64067Y283336D01*
X65434Y283336D01*
X65434Y285709D01*
X72764Y285709D01*
X73058Y285701D01*
X73332Y285676D01*
X73589Y285635D01*
X73828Y285578D01*
X74048Y285504D01*
X74250Y285413D01*
X74434Y285307D01*
X74599Y285184D01*
X74746Y285046D01*
X74873Y284897D01*
X74981Y284735D01*
X75069Y284562D01*
X75138Y284376D01*
X75186Y284179D01*
X75216Y283969D01*
X75226Y283747D01*
X75217Y283544D01*
X75190Y283349D01*
X75146Y283163D01*
X75083Y282985D01*
X75003Y282817D01*
X74905Y282657D01*
X74790Y282506D01*
X74656Y282363D01*
X74507Y282232D01*
X74344Y282112D01*
X74167Y282005D01*
X73975Y281910D01*
X73770Y281828D01*
X73551Y281757D01*
X73318Y281699D01*
X73071Y281654D01*
X73343Y280016D01*
X73735Y280099D01*
G37*
%LPC*%
G36*
X65407Y291849D02*
X65407Y295168D01*
X65417Y295516D01*
X65445Y295842D01*
X65491Y296145D01*
X65557Y296425D01*
X65641Y296683D01*
X65744Y296919D01*
X65865Y297132D01*
X66005Y297323D01*
X66164Y297491D01*
X66341Y297637D01*
X66537Y297761D01*
X66752Y297862D01*
X66986Y297940D01*
X67238Y297996D01*
X67509Y298030D01*
X67798Y298041D01*
X68099Y298030D01*
X68379Y297997D01*
X68641Y297943D01*
X68883Y297866D01*
X69105Y297767D01*
X69309Y297647D01*
X69493Y297505D01*
X69657Y297340D01*
X69803Y297154D01*
X69928Y296946D01*
X70035Y296716D01*
X70122Y296465D01*
X70190Y296191D01*
X70238Y295895D01*
X70267Y295578D01*
X70277Y295238D01*
X70277Y291849D01*
X65407Y291849D01*
G37*
%LPD*%
G36*
X27132Y397431D02*
X22324Y397431D01*
X22324Y401057D01*
X22307Y401535D01*
X22259Y401987D01*
X22178Y402413D01*
X22065Y402814D01*
X21920Y403190D01*
X21742Y403539D01*
X21532Y403863D01*
X21290Y404162D01*
X21020Y404430D01*
X20728Y404662D01*
X20414Y404859D01*
X20077Y405019D01*
X19718Y405144D01*
X19336Y405234D01*
X18932Y405287D01*
X18505Y405305D01*
X18075Y405287D01*
X17670Y405234D01*
X17290Y405145D01*
X16935Y405020D01*
X16605Y404860D01*
X16299Y404665D01*
X16019Y404433D01*
X15763Y404166D01*
X15536Y403867D01*
X15338Y403539D01*
X15171Y403181D01*
X15034Y402793D01*
X14928Y402377D01*
X14852Y401931D01*
X14806Y401456D01*
X14791Y400952D01*
X14791Y395758D01*
X27132Y395758D01*
X27132Y397431D01*
G37*
G36*
X27132Y415329D02*
X25792Y415329D01*
X25792Y408892D01*
X25482Y409044D01*
X25167Y409238D01*
X24845Y409473D01*
X24518Y409750D01*
X24177Y410074D01*
X23816Y410449D01*
X23435Y410875D01*
X23033Y411353D01*
X22337Y412194D01*
X21739Y412888D01*
X21238Y413434D01*
X20835Y413832D01*
X20480Y414136D01*
X20125Y414400D01*
X19770Y414624D01*
X19416Y414808D01*
X19060Y414952D01*
X18704Y415055D01*
X18347Y415116D01*
X17988Y415137D01*
X17595Y415121D01*
X17224Y415074D01*
X16877Y414996D01*
X16553Y414886D01*
X16252Y414745D01*
X15974Y414573D01*
X15719Y414369D01*
X15488Y414134D01*
X15281Y413870D01*
X15102Y413578D01*
X14951Y413260D01*
X14827Y412915D01*
X14731Y412543D01*
X14662Y412144D01*
X14621Y411718D01*
X14607Y411265D01*
X14621Y410850D01*
X14662Y410454D01*
X14730Y410078D01*
X14826Y409721D01*
X14949Y409383D01*
X15100Y409064D01*
X15278Y408765D01*
X15483Y408485D01*
X15712Y408228D01*
X15959Y408000D01*
X16225Y407801D01*
X16510Y407629D01*
X16814Y407487D01*
X17137Y407372D01*
X17479Y407286D01*
X17839Y407228D01*
X17988Y408839D01*
X17748Y408876D01*
X17521Y408930D01*
X17308Y409000D01*
X17109Y409088D01*
X16924Y409192D01*
X16752Y409313D01*
X16595Y409451D01*
X16451Y409606D01*
X16323Y409774D01*
X16211Y409954D01*
X16117Y410145D01*
X16040Y410347D01*
X15981Y410560D01*
X15938Y410784D01*
X15912Y411019D01*
X15904Y411265D01*
X15912Y411523D01*
X15939Y411766D01*
X15982Y411995D01*
X16044Y412209D01*
X16123Y412409D01*
X16219Y412594D01*
X16333Y412765D01*
X16464Y412921D01*
X16611Y413060D01*
X16773Y413181D01*
X16949Y413284D01*
X17139Y413367D01*
X17343Y413433D01*
X17561Y413479D01*
X17794Y413507D01*
X18041Y413516D01*
X18407Y413495D01*
X18754Y413430D01*
X19082Y413322D01*
X19389Y413170D01*
X19684Y412984D01*
X19972Y412771D01*
X20253Y412531D01*
X20528Y412264D01*
X21071Y411669D01*
X21614Y411007D01*
X22180Y410307D01*
X22792Y409601D01*
X23119Y409251D01*
X23464Y408908D01*
X23828Y408574D01*
X24211Y408248D01*
X24618Y407939D01*
X25055Y407654D01*
X25522Y407393D01*
X26020Y407158D01*
X27132Y407158D01*
X27132Y415329D01*
G37*
G36*
X24459Y385682D02*
X24826Y385785D01*
X25168Y385908D01*
X25484Y386051D01*
X25775Y386214D01*
X26041Y386397D01*
X26282Y386600D01*
X26497Y386822D01*
X26687Y387065D01*
X26851Y387327D01*
X26991Y387610D01*
X27105Y387912D01*
X27193Y388234D01*
X27257Y388577D01*
X27295Y388939D01*
X27307Y389321D01*
X27291Y389732D01*
X27243Y390121D01*
X27162Y390487D01*
X27050Y390832D01*
X26905Y391153D01*
X26728Y391452D01*
X26519Y391729D01*
X26278Y391983D01*
X26009Y392211D01*
X25716Y392409D01*
X25398Y392576D01*
X25057Y392712D01*
X24692Y392819D01*
X24303Y392895D01*
X23890Y392940D01*
X23453Y392955D01*
X14791Y392955D01*
X14791Y388918D01*
X16158Y388918D01*
X16158Y391291D01*
X23488Y391291D01*
X23782Y391283D01*
X24056Y391258D01*
X24313Y391217D01*
X24552Y391160D01*
X24772Y391086D01*
X24974Y390996D01*
X25158Y390889D01*
X25323Y390766D01*
X25470Y390628D01*
X25597Y390479D01*
X25705Y390317D01*
X25793Y390144D01*
X25862Y389958D01*
X25910Y389761D01*
X25940Y389551D01*
X25950Y389329D01*
X25941Y389126D01*
X25914Y388931D01*
X25870Y388745D01*
X25807Y388567D01*
X25727Y388399D01*
X25629Y388239D01*
X25514Y388088D01*
X25380Y387946D01*
X25231Y387814D01*
X25068Y387694D01*
X24891Y387587D01*
X24699Y387492D01*
X24494Y387410D01*
X24275Y387340D01*
X24042Y387282D01*
X23795Y387236D01*
X24067Y385598D01*
X24459Y385682D01*
G37*
%LPC*%
G36*
X16131Y397431D02*
X16131Y400751D01*
X16141Y401098D01*
X16169Y401424D01*
X16215Y401727D01*
X16281Y402007D01*
X16365Y402266D01*
X16468Y402501D01*
X16589Y402714D01*
X16729Y402905D01*
X16888Y403073D01*
X17065Y403219D01*
X17261Y403343D01*
X17476Y403444D01*
X17710Y403522D01*
X17962Y403578D01*
X18233Y403612D01*
X18522Y403623D01*
X18823Y403612D01*
X19103Y403580D01*
X19365Y403525D01*
X19607Y403448D01*
X19829Y403350D01*
X20033Y403229D01*
X20217Y403087D01*
X20381Y402923D01*
X20527Y402737D01*
X20652Y402529D01*
X20759Y402299D01*
X20846Y402047D01*
X20914Y401773D01*
X20962Y401478D01*
X20991Y401160D01*
X21001Y400821D01*
X21001Y397431D01*
X16131Y397431D01*
G37*
%LPD*%
D10*
X43780Y368460D02*
X43780Y388460D01*
X26780Y388460D01*
X1780Y388460D02*
X-8220Y388460D01*
X-8220Y312460D01*
X1780Y312460D01*
X43780Y312460D02*
X43780Y332460D01*
X43780Y312460D02*
X26780Y312460D01*
D11*
X58120Y303530D02*
X58120Y290830D01*
X51770Y284480D01*
X39070Y284480D01*
X32720Y290830D01*
X39070Y309880D02*
X51770Y309880D01*
X58120Y303530D01*
X39070Y309880D02*
X32720Y303530D01*
X32720Y290830D01*
X51770Y284480D02*
X58120Y278130D01*
X58120Y265430D01*
X51770Y259080D01*
X39070Y259080D01*
X32720Y265430D01*
X32720Y278130D01*
X39070Y284480D01*
X32720Y392430D02*
X32720Y405130D01*
X39070Y411480D01*
X51770Y411480D01*
X58120Y405130D01*
X51770Y386080D02*
X39070Y386080D01*
X32720Y392430D01*
X51770Y386080D02*
X58120Y392430D01*
X58120Y405130D01*
X39070Y411480D02*
X32720Y417830D01*
X32720Y430530D01*
X39070Y436880D01*
X51770Y436880D01*
X58120Y430530D01*
X58120Y417830D01*
X51770Y411480D01*
M02*
