G04 EAGLE Gerber RS-274X export*
G75*
%MOMM*%
%FSLAX34Y34*%
%LPD*%
%INBottom Copper*%
%IPPOS*%
%AMOC8*
5,1,8,0,0,1.08239X$1,22.5*%
G01*
%ADD10R,0.920900X0.970200*%
%ADD11R,0.700000X0.700000*%
%ADD12R,0.700000X0.700000*%
%ADD13C,1.524000*%
%ADD14C,0.304800*%
%ADD15C,0.812800*%
%ADD16C,0.609600*%
%ADD17C,0.152400*%
%ADD18C,0.406400*%

G36*
X155583Y-34206D02*
X155583Y-34206D01*
X155693Y-34194D01*
X155705Y-34189D01*
X155717Y-34187D01*
X155871Y-34120D01*
X156020Y-34034D01*
X156112Y-33959D01*
X156205Y-33884D01*
X156207Y-33881D01*
X156210Y-33878D01*
X156274Y-33777D01*
X156338Y-33677D01*
X156339Y-33673D01*
X156341Y-33670D01*
X156369Y-33554D01*
X156398Y-33438D01*
X156398Y-33435D01*
X156399Y-33431D01*
X156388Y-33311D01*
X156379Y-33193D01*
X156378Y-33190D01*
X156377Y-33186D01*
X156330Y-33078D01*
X156283Y-32967D01*
X156280Y-32963D01*
X156279Y-32960D01*
X156270Y-32951D01*
X156178Y-32836D01*
X156055Y-32713D01*
X154431Y-28792D01*
X154431Y-9308D01*
X156055Y-5387D01*
X159057Y-2386D01*
X162978Y-761D01*
X167222Y-761D01*
X171143Y-2386D01*
X174145Y-5387D01*
X174257Y-5659D01*
X174275Y-5687D01*
X174285Y-5719D01*
X174339Y-5791D01*
X174387Y-5868D01*
X174413Y-5889D01*
X174433Y-5916D01*
X174507Y-5967D01*
X174576Y-6025D01*
X174608Y-6037D01*
X174635Y-6056D01*
X174722Y-6080D01*
X174806Y-6113D01*
X174839Y-6114D01*
X174871Y-6123D01*
X174962Y-6119D01*
X175052Y-6123D01*
X175084Y-6114D01*
X175117Y-6112D01*
X175201Y-6080D01*
X175288Y-6055D01*
X175315Y-6036D01*
X175347Y-6024D01*
X175416Y-5966D01*
X175490Y-5914D01*
X175510Y-5888D01*
X175536Y-5866D01*
X175631Y-5728D01*
X269215Y168199D01*
X269240Y168270D01*
X269273Y168337D01*
X269279Y168386D01*
X269295Y168432D01*
X269296Y168491D01*
X270089Y169825D01*
X270094Y169836D01*
X270105Y169853D01*
X270149Y169935D01*
X270151Y169939D01*
X270154Y169943D01*
X270191Y170056D01*
X270229Y170168D01*
X270229Y170172D01*
X270231Y170176D01*
X270230Y170296D01*
X270231Y170414D01*
X270230Y170418D01*
X270230Y170422D01*
X270184Y170584D01*
X258803Y198438D01*
X258794Y198453D01*
X258785Y198478D01*
X250545Y215776D01*
X250532Y215794D01*
X250467Y215905D01*
X235482Y235909D01*
X234347Y237425D01*
X234330Y237441D01*
X234306Y237475D01*
X233806Y238036D01*
X233796Y238044D01*
X233788Y238055D01*
X233660Y238163D01*
X232414Y238994D01*
X232402Y238999D01*
X232392Y239008D01*
X232240Y239080D01*
X231933Y239186D01*
X231891Y239193D01*
X231852Y239209D01*
X231702Y239226D01*
X231691Y239228D01*
X231688Y239228D01*
X231685Y239228D01*
X44348Y239352D01*
X44322Y239348D01*
X44296Y239350D01*
X44201Y239328D01*
X44105Y239312D01*
X44082Y239300D01*
X44057Y239294D01*
X43974Y239243D01*
X43888Y239197D01*
X43870Y239179D01*
X43847Y239165D01*
X43734Y239041D01*
X30130Y220524D01*
X30120Y220505D01*
X30097Y220476D01*
X11285Y190267D01*
X11273Y190238D01*
X11225Y190149D01*
X3866Y171891D01*
X3852Y171831D01*
X3829Y171773D01*
X3819Y171683D01*
X3812Y171651D01*
X3814Y171634D01*
X3811Y171606D01*
X3811Y166714D01*
X3816Y166681D01*
X3814Y166647D01*
X3847Y166482D01*
X4779Y163572D01*
X4792Y163548D01*
X4835Y163441D01*
X97555Y-7204D01*
X97567Y-7220D01*
X97582Y-7249D01*
X102227Y-14567D01*
X102249Y-14591D01*
X102264Y-14619D01*
X102330Y-14682D01*
X102391Y-14750D01*
X102419Y-14766D01*
X102442Y-14788D01*
X102525Y-14827D01*
X102605Y-14872D01*
X102636Y-14878D01*
X102665Y-14892D01*
X102756Y-14902D01*
X102846Y-14920D01*
X102878Y-14915D01*
X102909Y-14919D01*
X102999Y-14899D01*
X103090Y-14888D01*
X103119Y-14874D01*
X103150Y-14867D01*
X103229Y-14820D01*
X103311Y-14779D01*
X103334Y-14757D01*
X103361Y-14741D01*
X103421Y-14671D01*
X103486Y-14606D01*
X103500Y-14578D01*
X103521Y-14554D01*
X103555Y-14468D01*
X103596Y-14387D01*
X103601Y-14355D01*
X103613Y-14325D01*
X103631Y-14159D01*
X103631Y-9308D01*
X105255Y-5387D01*
X106964Y-3678D01*
X107017Y-3604D01*
X107077Y-3534D01*
X107089Y-3504D01*
X107108Y-3478D01*
X107135Y-3391D01*
X107169Y-3306D01*
X107173Y-3265D01*
X107180Y-3243D01*
X107179Y-3211D01*
X107187Y-3140D01*
X107187Y1620D01*
X107173Y1710D01*
X107165Y1801D01*
X107153Y1831D01*
X107148Y1863D01*
X107105Y1943D01*
X107069Y2027D01*
X107043Y2059D01*
X107032Y2080D01*
X107009Y2102D01*
X106964Y2158D01*
X99236Y9887D01*
X99140Y9955D01*
X99045Y10026D01*
X99039Y10028D01*
X99036Y10031D01*
X99021Y10035D01*
X98888Y10086D01*
X98288Y10241D01*
X97486Y11602D01*
X97478Y11612D01*
X97473Y11623D01*
X97368Y11754D01*
X95483Y13639D01*
X94400Y16254D01*
X94400Y16633D01*
X94381Y16750D01*
X94364Y16866D01*
X94361Y16872D01*
X94361Y16876D01*
X94353Y16890D01*
X94295Y17019D01*
X93453Y18448D01*
X93688Y19354D01*
X93692Y19398D01*
X93705Y19440D01*
X93703Y19520D01*
X93710Y19599D01*
X93700Y19642D01*
X93699Y19686D01*
X93671Y19761D01*
X93653Y19839D01*
X93630Y19876D01*
X93615Y19917D01*
X93565Y19980D01*
X93523Y20047D01*
X93489Y20075D01*
X93461Y20109D01*
X93343Y20195D01*
X93333Y20203D01*
X93330Y20205D01*
X93325Y20208D01*
X93149Y20308D01*
X92672Y20776D01*
X91498Y22768D01*
X96047Y25447D01*
X96062Y25460D01*
X96080Y25468D01*
X96156Y25538D01*
X96236Y25605D01*
X96246Y25622D01*
X96261Y25635D01*
X96310Y25726D01*
X96365Y25814D01*
X96369Y25833D01*
X96379Y25851D01*
X96397Y25953D01*
X96420Y26054D01*
X96418Y26074D01*
X96422Y26093D01*
X96406Y26195D01*
X96396Y26298D01*
X96388Y26317D01*
X96385Y26336D01*
X96316Y26489D01*
X95929Y27147D01*
X95931Y27147D01*
X96318Y26490D01*
X96330Y26475D01*
X96339Y26457D01*
X96409Y26381D01*
X96475Y26301D01*
X96492Y26291D01*
X96506Y26276D01*
X96596Y26227D01*
X96685Y26172D01*
X96704Y26168D01*
X96722Y26158D01*
X96823Y26140D01*
X96924Y26117D01*
X96944Y26119D01*
X96964Y26115D01*
X97066Y26131D01*
X97169Y26141D01*
X97187Y26149D01*
X97207Y26152D01*
X97360Y26221D01*
X101908Y28900D01*
X103081Y26908D01*
X103260Y26264D01*
X103262Y26061D01*
X103269Y26017D01*
X103268Y25974D01*
X103290Y25897D01*
X103304Y25818D01*
X103325Y25780D01*
X103337Y25738D01*
X103383Y25672D01*
X103421Y25602D01*
X103453Y25572D01*
X103478Y25536D01*
X103542Y25488D01*
X103600Y25434D01*
X103640Y25416D01*
X103676Y25390D01*
X103812Y25338D01*
X103824Y25332D01*
X103828Y25332D01*
X103832Y25330D01*
X104738Y25096D01*
X105540Y23734D01*
X105548Y23725D01*
X105553Y23713D01*
X105658Y23582D01*
X118222Y11019D01*
X120330Y8911D01*
X121413Y6296D01*
X121413Y-3140D01*
X121427Y-3230D01*
X121435Y-3321D01*
X121447Y-3350D01*
X121452Y-3382D01*
X121495Y-3463D01*
X121531Y-3547D01*
X121557Y-3579D01*
X121568Y-3600D01*
X121591Y-3622D01*
X121636Y-3678D01*
X123345Y-5387D01*
X124969Y-9308D01*
X124969Y-28792D01*
X123870Y-31444D01*
X123865Y-31468D01*
X123853Y-31490D01*
X123837Y-31588D01*
X123814Y-31684D01*
X123816Y-31708D01*
X123812Y-31733D01*
X123828Y-31830D01*
X123837Y-31929D01*
X123847Y-31951D01*
X123851Y-31976D01*
X123897Y-32063D01*
X123937Y-32153D01*
X123954Y-32172D01*
X123965Y-32193D01*
X124037Y-32262D01*
X124104Y-32335D01*
X124125Y-32346D01*
X124143Y-32364D01*
X124232Y-32406D01*
X124319Y-32453D01*
X124343Y-32458D01*
X124366Y-32468D01*
X124531Y-32496D01*
X129499Y-32773D01*
X129565Y-32766D01*
X129632Y-32769D01*
X129687Y-32753D01*
X129743Y-32747D01*
X129804Y-32719D01*
X129869Y-32700D01*
X129915Y-32668D01*
X129967Y-32644D01*
X130016Y-32598D01*
X130071Y-32560D01*
X130105Y-32514D01*
X130146Y-32475D01*
X130177Y-32416D01*
X130218Y-32362D01*
X130235Y-32308D01*
X130262Y-32258D01*
X130273Y-32192D01*
X130294Y-32129D01*
X130293Y-32072D01*
X130303Y-32016D01*
X130292Y-31950D01*
X130291Y-31883D01*
X130269Y-31805D01*
X130264Y-31773D01*
X130254Y-31755D01*
X130245Y-31721D01*
X129031Y-28792D01*
X129031Y-9308D01*
X130655Y-5387D01*
X133665Y-2377D01*
X133741Y-2330D01*
X133841Y-2270D01*
X133845Y-2266D01*
X133850Y-2262D01*
X133925Y-2172D01*
X134001Y-2083D01*
X134003Y-2078D01*
X134007Y-2073D01*
X134049Y-1964D01*
X134093Y-1855D01*
X134094Y-1848D01*
X134095Y-1843D01*
X134096Y-1825D01*
X134111Y-1689D01*
X134111Y18437D01*
X134101Y18501D01*
X134100Y18567D01*
X134077Y18647D01*
X134072Y18680D01*
X134062Y18697D01*
X134053Y18728D01*
X133095Y21041D01*
X133095Y28314D01*
X133078Y28418D01*
X133066Y28523D01*
X133058Y28539D01*
X133056Y28557D01*
X133006Y28650D01*
X132961Y28745D01*
X132949Y28758D01*
X132940Y28774D01*
X132864Y28847D01*
X132791Y28923D01*
X132775Y28931D01*
X132762Y28943D01*
X132666Y28988D01*
X132573Y29037D01*
X132555Y29039D01*
X132539Y29047D01*
X132434Y29059D01*
X132330Y29075D01*
X132308Y29073D01*
X132295Y29074D01*
X132264Y29068D01*
X132164Y29056D01*
X130692Y28718D01*
X130687Y28716D01*
X130681Y28715D01*
X130574Y28669D01*
X130464Y28625D01*
X130460Y28621D01*
X130455Y28619D01*
X130324Y28514D01*
X125132Y23322D01*
X123167Y21357D01*
X120739Y20352D01*
X119179Y20352D01*
X119062Y20332D01*
X118945Y20315D01*
X118940Y20312D01*
X118936Y20312D01*
X118922Y20304D01*
X118792Y20246D01*
X116501Y18896D01*
X114056Y19529D01*
X112224Y22639D01*
X112216Y22648D01*
X112211Y22659D01*
X112106Y22790D01*
X111682Y23215D01*
X111222Y24325D01*
X111205Y24353D01*
X111175Y24420D01*
X109221Y27736D01*
X109292Y28009D01*
X109293Y28029D01*
X109300Y28047D01*
X109305Y28151D01*
X109314Y28254D01*
X109309Y28273D01*
X109310Y28293D01*
X109281Y28392D01*
X109257Y28493D01*
X109246Y28510D01*
X109241Y28529D01*
X109182Y28614D01*
X109127Y28702D01*
X109111Y28714D01*
X109100Y28731D01*
X109017Y28792D01*
X108937Y28858D01*
X108918Y28865D01*
X108902Y28877D01*
X108745Y28936D01*
X108473Y29007D01*
X106641Y32116D01*
X106633Y32126D01*
X106628Y32137D01*
X106523Y32268D01*
X102439Y36352D01*
X102366Y36405D01*
X102296Y36465D01*
X102266Y36477D01*
X102240Y36496D01*
X102153Y36523D01*
X102068Y36557D01*
X102027Y36561D01*
X102005Y36568D01*
X101972Y36567D01*
X101901Y36575D01*
X88364Y36575D01*
X85937Y37581D01*
X81164Y42353D01*
X81075Y42417D01*
X80989Y42484D01*
X80973Y42491D01*
X80964Y42497D01*
X80937Y42505D01*
X80833Y42547D01*
X79065Y43048D01*
X77336Y46140D01*
X77323Y46157D01*
X77315Y46176D01*
X77210Y46307D01*
X76858Y46659D01*
X76337Y47918D01*
X76321Y47943D01*
X76298Y47998D01*
X74418Y51363D01*
X74672Y52263D01*
X74677Y52307D01*
X74691Y52349D01*
X74691Y52428D01*
X74700Y52508D01*
X74691Y52551D01*
X74691Y52595D01*
X74665Y52670D01*
X74649Y52748D01*
X74626Y52786D01*
X74612Y52828D01*
X74564Y52891D01*
X74523Y52960D01*
X74490Y52988D01*
X74463Y53023D01*
X74347Y53111D01*
X74337Y53120D01*
X74334Y53122D01*
X74330Y53125D01*
X74155Y53229D01*
X73689Y53708D01*
X72561Y55726D01*
X77169Y58301D01*
X77185Y58313D01*
X77203Y58321D01*
X77281Y58390D01*
X77362Y58454D01*
X77372Y58471D01*
X77387Y58484D01*
X77439Y58574D01*
X77495Y58661D01*
X77500Y58680D01*
X77510Y58697D01*
X77530Y58798D01*
X77556Y58899D01*
X77555Y58919D01*
X77558Y58938D01*
X77545Y59041D01*
X77538Y59144D01*
X77530Y59163D01*
X77527Y59182D01*
X77462Y59337D01*
X77090Y60003D01*
X77092Y60004D01*
X77464Y59338D01*
X77476Y59322D01*
X77484Y59304D01*
X77553Y59226D01*
X77617Y59145D01*
X77634Y59134D01*
X77647Y59119D01*
X77736Y59068D01*
X77823Y59012D01*
X77843Y59007D01*
X77860Y58997D01*
X77961Y58976D01*
X78062Y58951D01*
X78082Y58952D01*
X78101Y58948D01*
X78204Y58961D01*
X78307Y58969D01*
X78325Y58977D01*
X78345Y58979D01*
X78500Y59045D01*
X83107Y61620D01*
X84235Y59602D01*
X84399Y58954D01*
X84396Y58751D01*
X84403Y58707D01*
X84400Y58663D01*
X84421Y58586D01*
X84433Y58507D01*
X84453Y58468D01*
X84464Y58426D01*
X84508Y58360D01*
X84545Y58288D01*
X84576Y58258D01*
X84600Y58221D01*
X84663Y58172D01*
X84721Y58117D01*
X84760Y58097D01*
X84795Y58071D01*
X84930Y58016D01*
X84942Y58010D01*
X84945Y58009D01*
X84950Y58007D01*
X85851Y57753D01*
X87579Y54660D01*
X87592Y54644D01*
X87600Y54624D01*
X87705Y54493D01*
X92191Y50008D01*
X92265Y49955D01*
X92334Y49895D01*
X92364Y49883D01*
X92391Y49864D01*
X92478Y49837D01*
X92562Y49803D01*
X92603Y49799D01*
X92626Y49792D01*
X92658Y49793D01*
X92729Y49785D01*
X97296Y49785D01*
X97314Y49788D01*
X97333Y49786D01*
X97435Y49808D01*
X97499Y49818D01*
X97535Y49803D01*
X97647Y49791D01*
X97675Y49785D01*
X97686Y49787D01*
X97702Y49785D01*
X106266Y49785D01*
X108694Y48779D01*
X110659Y46814D01*
X113007Y44466D01*
X113102Y44398D01*
X113198Y44327D01*
X113203Y44325D01*
X113206Y44323D01*
X113221Y44318D01*
X113354Y44267D01*
X114923Y43862D01*
X116755Y40752D01*
X116763Y40742D01*
X116768Y40731D01*
X116813Y40675D01*
X116827Y40651D01*
X116842Y40639D01*
X116873Y40600D01*
X117297Y40176D01*
X117757Y39066D01*
X117774Y39038D01*
X117804Y38971D01*
X118516Y37762D01*
X118583Y37682D01*
X118646Y37599D01*
X118662Y37588D01*
X118674Y37573D01*
X118762Y37518D01*
X118848Y37459D01*
X118867Y37454D01*
X118883Y37444D01*
X118985Y37420D01*
X119085Y37392D01*
X119104Y37393D01*
X119123Y37389D01*
X119227Y37399D01*
X119331Y37404D01*
X119349Y37411D01*
X119368Y37412D01*
X119463Y37455D01*
X119560Y37493D01*
X119575Y37505D01*
X119592Y37513D01*
X119669Y37584D01*
X119749Y37651D01*
X119759Y37667D01*
X119773Y37680D01*
X119823Y37772D01*
X119877Y37860D01*
X119884Y37883D01*
X119891Y37896D01*
X119896Y37928D01*
X119923Y38022D01*
X120141Y39313D01*
X120141Y39379D01*
X120151Y39444D01*
X120141Y39501D01*
X120142Y39559D01*
X120121Y39622D01*
X120110Y39687D01*
X120075Y39761D01*
X120064Y39792D01*
X120052Y39808D01*
X120038Y39838D01*
X118716Y41987D01*
X119285Y44377D01*
X119294Y44496D01*
X119304Y44615D01*
X119303Y44619D01*
X119303Y44623D01*
X119273Y44737D01*
X119245Y44853D01*
X119242Y44857D01*
X119241Y44861D01*
X119176Y44961D01*
X119113Y45061D01*
X119109Y45063D01*
X119107Y45067D01*
X119013Y45141D01*
X118921Y45215D01*
X118917Y45217D01*
X118914Y45219D01*
X118803Y45259D01*
X118691Y45301D01*
X118686Y45301D01*
X118683Y45302D01*
X118669Y45303D01*
X118524Y45315D01*
X118419Y45312D01*
X117768Y45467D01*
X117180Y45785D01*
X116693Y46245D01*
X114904Y49154D01*
X120550Y52628D01*
X120565Y52641D01*
X120583Y52649D01*
X120658Y52721D01*
X120736Y52789D01*
X120746Y52806D01*
X120761Y52820D01*
X120808Y52911D01*
X120861Y53001D01*
X120865Y53020D01*
X120874Y53038D01*
X120890Y53140D01*
X120912Y53241D01*
X120910Y53261D01*
X120913Y53281D01*
X120895Y53383D01*
X120883Y53486D01*
X120875Y53504D01*
X120871Y53523D01*
X120800Y53675D01*
X120001Y54973D01*
X119988Y54988D01*
X119980Y55006D01*
X119908Y55081D01*
X119840Y55159D01*
X119823Y55169D01*
X119809Y55183D01*
X119717Y55231D01*
X119628Y55284D01*
X119609Y55288D01*
X119591Y55297D01*
X119489Y55313D01*
X119388Y55335D01*
X119368Y55332D01*
X119348Y55335D01*
X119246Y55318D01*
X119143Y55306D01*
X119125Y55297D01*
X119106Y55294D01*
X118954Y55222D01*
X113307Y51749D01*
X112261Y53449D01*
X112207Y53512D01*
X112160Y53580D01*
X112127Y53604D01*
X112100Y53635D01*
X112029Y53677D01*
X111962Y53727D01*
X111923Y53739D01*
X111888Y53760D01*
X111807Y53777D01*
X111728Y53803D01*
X111687Y53803D01*
X111647Y53811D01*
X111565Y53801D01*
X111482Y53801D01*
X111431Y53786D01*
X111403Y53782D01*
X111377Y53770D01*
X111321Y53754D01*
X108833Y52723D01*
X100236Y52723D01*
X100128Y52706D01*
X100019Y52692D01*
X100004Y52685D01*
X99993Y52684D01*
X99968Y52670D01*
X99865Y52627D01*
X97469Y51288D01*
X95039Y51976D01*
X93311Y55068D01*
X93298Y55085D01*
X93289Y55104D01*
X93185Y55235D01*
X92833Y55587D01*
X92311Y56846D01*
X92296Y56871D01*
X92273Y56926D01*
X90392Y60291D01*
X90469Y60561D01*
X90471Y60581D01*
X90478Y60600D01*
X90485Y60703D01*
X90497Y60806D01*
X90492Y60825D01*
X90494Y60845D01*
X90467Y60945D01*
X90445Y61046D01*
X90435Y61064D01*
X90430Y61083D01*
X90372Y61169D01*
X90319Y61258D01*
X90304Y61271D01*
X90293Y61287D01*
X90211Y61351D01*
X90133Y61418D01*
X90115Y61426D01*
X90099Y61438D01*
X89943Y61501D01*
X89673Y61578D01*
X87944Y64670D01*
X87931Y64687D01*
X87923Y64706D01*
X87818Y64837D01*
X85266Y67390D01*
X83283Y69372D01*
X83209Y69425D01*
X83140Y69485D01*
X83110Y69497D01*
X83083Y69516D01*
X82996Y69543D01*
X82912Y69577D01*
X82871Y69581D01*
X82848Y69588D01*
X82816Y69587D01*
X82745Y69595D01*
X69806Y69595D01*
X67379Y70601D01*
X58149Y79830D01*
X58115Y79855D01*
X58076Y79904D01*
X57620Y80359D01*
X55655Y82324D01*
X54650Y84752D01*
X54650Y85486D01*
X54630Y85605D01*
X54612Y85723D01*
X54610Y85727D01*
X54610Y85729D01*
X54605Y85738D01*
X54542Y85876D01*
X53191Y88144D01*
X53420Y89051D01*
X53424Y89095D01*
X53437Y89137D01*
X53434Y89216D01*
X53441Y89296D01*
X53431Y89339D01*
X53430Y89382D01*
X53402Y89457D01*
X53383Y89535D01*
X53360Y89572D01*
X53344Y89613D01*
X53294Y89675D01*
X53252Y89743D01*
X53218Y89771D01*
X53190Y89805D01*
X53072Y89889D01*
X53061Y89898D01*
X53058Y89899D01*
X53054Y89902D01*
X52876Y90001D01*
X52397Y90468D01*
X51213Y92453D01*
X55747Y95156D01*
X55763Y95169D01*
X55781Y95177D01*
X55856Y95248D01*
X55936Y95314D01*
X55946Y95331D01*
X55960Y95345D01*
X56010Y95436D01*
X56063Y95524D01*
X56068Y95544D01*
X56077Y95561D01*
X56095Y95663D01*
X56118Y95764D01*
X56115Y95784D01*
X56119Y95804D01*
X56103Y95906D01*
X56092Y96009D01*
X56084Y96027D01*
X56081Y96047D01*
X56012Y96200D01*
X55621Y96855D01*
X55622Y96856D01*
X56013Y96200D01*
X56026Y96185D01*
X56034Y96167D01*
X56105Y96091D01*
X56171Y96012D01*
X56188Y96002D01*
X56202Y95987D01*
X56293Y95938D01*
X56382Y95884D01*
X56401Y95880D01*
X56418Y95871D01*
X56520Y95853D01*
X56621Y95830D01*
X56641Y95832D01*
X56661Y95829D01*
X56763Y95845D01*
X56866Y95856D01*
X56884Y95864D01*
X56904Y95867D01*
X57057Y95936D01*
X61591Y98639D01*
X62774Y96654D01*
X62956Y96010D01*
X62959Y95807D01*
X62967Y95764D01*
X62965Y95720D01*
X62988Y95644D01*
X63002Y95565D01*
X63023Y95527D01*
X63036Y95484D01*
X63082Y95419D01*
X63120Y95349D01*
X63153Y95319D01*
X63178Y95284D01*
X63242Y95237D01*
X63301Y95182D01*
X63341Y95164D01*
X63377Y95139D01*
X63513Y95087D01*
X63526Y95082D01*
X63529Y95081D01*
X63534Y95080D01*
X64441Y94850D01*
X66297Y91737D01*
X66303Y91729D01*
X66307Y91720D01*
X66352Y91664D01*
X66357Y91655D01*
X66363Y91651D01*
X66412Y91589D01*
X66854Y91147D01*
X67300Y90069D01*
X67318Y90041D01*
X67350Y89970D01*
X68275Y88418D01*
X68282Y88410D01*
X68286Y88401D01*
X68391Y88270D01*
X73633Y83028D01*
X73707Y82975D01*
X73776Y82915D01*
X73806Y82903D01*
X73833Y82884D01*
X73920Y82857D01*
X74004Y82823D01*
X74045Y82819D01*
X74068Y82812D01*
X74100Y82813D01*
X74171Y82805D01*
X87674Y82805D01*
X90101Y81799D01*
X92066Y79834D01*
X92534Y79366D01*
X94499Y77401D01*
X94623Y77103D01*
X94629Y77092D01*
X94633Y77080D01*
X94694Y76988D01*
X94752Y76894D01*
X94762Y76886D01*
X94769Y76875D01*
X94857Y76808D01*
X94942Y76737D01*
X94954Y76733D01*
X94963Y76725D01*
X95119Y76662D01*
X96459Y76283D01*
X98187Y73190D01*
X98200Y73174D01*
X98208Y73154D01*
X98313Y73023D01*
X98665Y72671D01*
X99186Y71412D01*
X99202Y71387D01*
X99225Y71332D01*
X101106Y67968D01*
X101029Y67697D01*
X101027Y67677D01*
X101019Y67659D01*
X101013Y67555D01*
X101001Y67452D01*
X101006Y67433D01*
X101004Y67413D01*
X101031Y67313D01*
X101053Y67212D01*
X101063Y67195D01*
X101068Y67176D01*
X101126Y67089D01*
X101178Y67000D01*
X101193Y66987D01*
X101205Y66971D01*
X101286Y66907D01*
X101365Y66840D01*
X101383Y66832D01*
X101399Y66820D01*
X101554Y66757D01*
X101825Y66680D01*
X102025Y66323D01*
X102070Y66266D01*
X102108Y66203D01*
X102146Y66170D01*
X102178Y66130D01*
X102239Y66091D01*
X102295Y66043D01*
X102342Y66024D01*
X102385Y65997D01*
X102455Y65979D01*
X102523Y65951D01*
X102592Y65944D01*
X102623Y65936D01*
X102647Y65938D01*
X102690Y65933D01*
X104468Y65933D01*
X104559Y65948D01*
X104649Y65955D01*
X104679Y65967D01*
X104711Y65973D01*
X104792Y66015D01*
X104876Y66051D01*
X104908Y66077D01*
X104929Y66088D01*
X104951Y66111D01*
X105007Y66156D01*
X108601Y69750D01*
X108631Y69791D01*
X108667Y69825D01*
X108702Y69890D01*
X108745Y69950D01*
X108760Y69998D01*
X108783Y70042D01*
X108796Y70115D01*
X108817Y70185D01*
X108816Y70235D01*
X108824Y70284D01*
X108813Y70357D01*
X108811Y70431D01*
X108794Y70478D01*
X108786Y70527D01*
X108735Y70639D01*
X108727Y70662D01*
X108721Y70669D01*
X108716Y70680D01*
X108486Y71064D01*
X109085Y73447D01*
X109095Y73566D01*
X109106Y73684D01*
X109105Y73688D01*
X109105Y73692D01*
X109077Y73808D01*
X109050Y73923D01*
X109048Y73927D01*
X109047Y73931D01*
X108983Y74031D01*
X108921Y74132D01*
X108917Y74135D01*
X108915Y74138D01*
X108823Y74213D01*
X108731Y74289D01*
X108727Y74291D01*
X108724Y74293D01*
X108611Y74335D01*
X108502Y74378D01*
X108497Y74378D01*
X108493Y74379D01*
X108479Y74380D01*
X108335Y74393D01*
X108230Y74392D01*
X107581Y74555D01*
X106996Y74880D01*
X106516Y75346D01*
X104762Y78277D01*
X110450Y81681D01*
X110466Y81694D01*
X110484Y81702D01*
X110559Y81773D01*
X110638Y81840D01*
X110649Y81857D01*
X110663Y81871D01*
X110712Y81962D01*
X110766Y82050D01*
X110770Y82070D01*
X110780Y82087D01*
X110797Y82190D01*
X110819Y82290D01*
X110817Y82310D01*
X110821Y82330D01*
X110805Y82432D01*
X110794Y82535D01*
X110786Y82553D01*
X110782Y82573D01*
X110713Y82725D01*
X110321Y83380D01*
X110975Y83772D01*
X110991Y83784D01*
X111009Y83793D01*
X111084Y83864D01*
X111163Y83930D01*
X111174Y83947D01*
X111188Y83961D01*
X111237Y84052D01*
X111291Y84141D01*
X111295Y84160D01*
X111305Y84178D01*
X111322Y84280D01*
X111344Y84381D01*
X111342Y84400D01*
X111346Y84420D01*
X111330Y84523D01*
X111319Y84625D01*
X111311Y84643D01*
X111307Y84663D01*
X111238Y84816D01*
X107960Y90293D01*
X111141Y92197D01*
X111225Y92268D01*
X111312Y92337D01*
X111319Y92347D01*
X111328Y92355D01*
X111386Y92450D01*
X111446Y92543D01*
X111450Y92555D01*
X111456Y92566D01*
X111480Y92674D01*
X111508Y92781D01*
X111507Y92794D01*
X111510Y92806D01*
X111498Y92916D01*
X111490Y93027D01*
X111485Y93041D01*
X111484Y93050D01*
X111473Y93075D01*
X111433Y93185D01*
X107311Y101603D01*
X107298Y101621D01*
X107290Y101642D01*
X107227Y101721D01*
X107168Y101804D01*
X107150Y101817D01*
X107137Y101834D01*
X107051Y101889D01*
X106969Y101949D01*
X106948Y101955D01*
X106930Y101967D01*
X106831Y101992D01*
X106735Y102022D01*
X106713Y102022D01*
X106691Y102027D01*
X106590Y102019D01*
X106489Y102017D01*
X106468Y102010D01*
X106446Y102008D01*
X106353Y101969D01*
X106257Y101934D01*
X106240Y101920D01*
X106220Y101912D01*
X106089Y101807D01*
X105893Y101611D01*
X103559Y100645D01*
X103531Y100627D01*
X103461Y100595D01*
X100759Y98985D01*
X100751Y98978D01*
X100742Y98974D01*
X100611Y98869D01*
X94884Y93142D01*
X92919Y91177D01*
X90491Y90172D01*
X78893Y90172D01*
X78775Y90152D01*
X78656Y90134D01*
X78653Y90132D01*
X78650Y90132D01*
X78641Y90127D01*
X78503Y90064D01*
X76236Y88712D01*
X73787Y89332D01*
X71932Y92445D01*
X71925Y92453D01*
X71921Y92462D01*
X71816Y92593D01*
X71374Y93035D01*
X70928Y94113D01*
X70910Y94141D01*
X70878Y94212D01*
X68910Y97514D01*
X68979Y97787D01*
X68980Y97807D01*
X68987Y97825D01*
X68991Y97929D01*
X69000Y98032D01*
X68995Y98051D01*
X68996Y98071D01*
X68966Y98170D01*
X68941Y98271D01*
X68931Y98288D01*
X68925Y98307D01*
X68865Y98391D01*
X68810Y98479D01*
X68795Y98491D01*
X68783Y98508D01*
X68700Y98569D01*
X68619Y98634D01*
X68601Y98641D01*
X68585Y98653D01*
X68427Y98712D01*
X68155Y98781D01*
X66299Y101893D01*
X66292Y101901D01*
X66288Y101911D01*
X66183Y102042D01*
X60753Y107472D01*
X60679Y107525D01*
X60610Y107585D01*
X60580Y107597D01*
X60553Y107616D01*
X60466Y107643D01*
X60382Y107677D01*
X60341Y107681D01*
X60318Y107688D01*
X60286Y107687D01*
X60215Y107695D01*
X46885Y107695D01*
X44458Y108701D01*
X40697Y112461D01*
X40611Y112523D01*
X40526Y112589D01*
X40508Y112597D01*
X40498Y112605D01*
X40468Y112614D01*
X40372Y112654D01*
X38541Y113186D01*
X36844Y116272D01*
X36829Y116290D01*
X36820Y116312D01*
X36715Y116443D01*
X36385Y116773D01*
X35843Y118084D01*
X35827Y118108D01*
X35806Y118159D01*
X33952Y121533D01*
X34213Y122432D01*
X34218Y122475D01*
X34232Y122517D01*
X34233Y122597D01*
X34242Y122676D01*
X34233Y122719D01*
X34234Y122763D01*
X34209Y122839D01*
X34192Y122917D01*
X34170Y122955D01*
X34156Y122996D01*
X34109Y123060D01*
X34068Y123129D01*
X34035Y123158D01*
X34009Y123193D01*
X33893Y123282D01*
X33883Y123291D01*
X33880Y123292D01*
X33876Y123295D01*
X33702Y123400D01*
X33239Y123883D01*
X32126Y125909D01*
X36751Y128452D01*
X36767Y128464D01*
X36786Y128472D01*
X36863Y128539D01*
X36945Y128603D01*
X36956Y128620D01*
X36971Y128633D01*
X37023Y128722D01*
X37080Y128809D01*
X37085Y128828D01*
X37095Y128846D01*
X37116Y128947D01*
X37143Y129047D01*
X37141Y129067D01*
X37145Y129086D01*
X37133Y129189D01*
X37126Y129292D01*
X37118Y129311D01*
X37116Y129331D01*
X37052Y129486D01*
X36318Y130821D01*
X36305Y130837D01*
X36298Y130855D01*
X36230Y130933D01*
X36166Y131014D01*
X36149Y131025D01*
X36136Y131040D01*
X36047Y131093D01*
X35960Y131150D01*
X35941Y131155D01*
X35924Y131165D01*
X35822Y131186D01*
X35722Y131212D01*
X35703Y131211D01*
X35683Y131215D01*
X35580Y131202D01*
X35477Y131195D01*
X35459Y131188D01*
X35439Y131185D01*
X35284Y131121D01*
X30658Y128578D01*
X29545Y130604D01*
X29385Y131253D01*
X29399Y131922D01*
X29586Y132565D01*
X29932Y133137D01*
X30415Y133600D01*
X31802Y134362D01*
X31826Y134381D01*
X31853Y134393D01*
X31922Y134456D01*
X31996Y134514D01*
X32012Y134539D01*
X32034Y134560D01*
X32079Y134641D01*
X32131Y134720D01*
X32138Y134749D01*
X32153Y134775D01*
X32170Y134867D01*
X32193Y134958D01*
X32191Y134988D01*
X32197Y135017D01*
X32183Y135110D01*
X32177Y135203D01*
X32165Y135231D01*
X32161Y135260D01*
X32118Y135344D01*
X32083Y135430D01*
X32063Y135453D01*
X32049Y135480D01*
X31983Y135545D01*
X31921Y135616D01*
X31895Y135631D01*
X31874Y135652D01*
X31727Y135733D01*
X29535Y136641D01*
X23130Y143045D01*
X23050Y143103D01*
X22975Y143165D01*
X22946Y143178D01*
X22931Y143189D01*
X22899Y143198D01*
X22821Y143233D01*
X20782Y143876D01*
X19189Y146937D01*
X19169Y146963D01*
X19157Y146993D01*
X19052Y147124D01*
X18793Y147383D01*
X18167Y148893D01*
X18154Y148914D01*
X18139Y148953D01*
X16384Y152325D01*
X16665Y153217D01*
X16672Y153261D01*
X16687Y153302D01*
X16689Y153382D01*
X16700Y153461D01*
X16692Y153504D01*
X16694Y153548D01*
X16670Y153624D01*
X16656Y153703D01*
X16635Y153741D01*
X16622Y153783D01*
X16576Y153848D01*
X16537Y153918D01*
X16504Y153948D01*
X16479Y153983D01*
X16366Y154074D01*
X16355Y154084D01*
X16352Y154085D01*
X16348Y154088D01*
X16177Y154197D01*
X15725Y154691D01*
X14658Y156741D01*
X19340Y159178D01*
X19356Y159190D01*
X19375Y159197D01*
X19454Y159264D01*
X19537Y159326D01*
X19548Y159342D01*
X19564Y159355D01*
X19618Y159443D01*
X19677Y159528D01*
X19682Y159547D01*
X19693Y159564D01*
X19716Y159665D01*
X19745Y159764D01*
X19744Y159784D01*
X19748Y159804D01*
X19738Y159907D01*
X19733Y160010D01*
X19726Y160029D01*
X19724Y160049D01*
X19664Y160205D01*
X19312Y160882D01*
X19313Y160882D01*
X19665Y160206D01*
X19677Y160190D01*
X19684Y160171D01*
X19750Y160092D01*
X19813Y160009D01*
X19829Y159997D01*
X19842Y159982D01*
X19930Y159928D01*
X20015Y159869D01*
X20034Y159864D01*
X20051Y159853D01*
X20152Y159830D01*
X20251Y159801D01*
X20271Y159802D01*
X20291Y159798D01*
X20394Y159808D01*
X20497Y159812D01*
X20516Y159820D01*
X20536Y159821D01*
X20692Y159882D01*
X25374Y162319D01*
X26441Y160269D01*
X26586Y159616D01*
X26577Y159413D01*
X26583Y159370D01*
X26579Y159326D01*
X26597Y159248D01*
X26606Y159169D01*
X26625Y159129D01*
X26635Y159087D01*
X26678Y159019D01*
X26712Y158947D01*
X26742Y158915D01*
X26766Y158878D01*
X26827Y158827D01*
X26883Y158770D01*
X26922Y158750D01*
X26956Y158722D01*
X27089Y158663D01*
X27101Y158657D01*
X27104Y158656D01*
X27109Y158654D01*
X28001Y158373D01*
X29595Y155311D01*
X29615Y155285D01*
X29627Y155255D01*
X29732Y155124D01*
X35789Y149068D01*
X35863Y149015D01*
X35932Y148955D01*
X35962Y148943D01*
X35989Y148924D01*
X36076Y148897D01*
X36160Y148863D01*
X36201Y148859D01*
X36224Y148852D01*
X36256Y148853D01*
X36327Y148845D01*
X50765Y148845D01*
X53193Y147839D01*
X54009Y147023D01*
X54096Y146960D01*
X54180Y146894D01*
X54198Y146887D01*
X54209Y146879D01*
X54238Y146870D01*
X54335Y146830D01*
X56166Y146298D01*
X57863Y143212D01*
X57877Y143193D01*
X57887Y143172D01*
X57991Y143041D01*
X58321Y142711D01*
X58864Y141400D01*
X58879Y141376D01*
X58900Y141325D01*
X60755Y137951D01*
X60676Y137681D01*
X60674Y137661D01*
X60666Y137643D01*
X60659Y137539D01*
X60647Y137437D01*
X60651Y137417D01*
X60650Y137397D01*
X60676Y137297D01*
X60697Y137196D01*
X60707Y137178D01*
X60712Y137159D01*
X60769Y137073D01*
X60821Y136983D01*
X60836Y136970D01*
X60847Y136954D01*
X60928Y136889D01*
X61006Y136822D01*
X61024Y136814D01*
X61040Y136802D01*
X61195Y136737D01*
X61465Y136659D01*
X61646Y136330D01*
X61693Y136270D01*
X61732Y136205D01*
X61768Y136174D01*
X61798Y136136D01*
X61861Y136095D01*
X61919Y136045D01*
X61963Y136027D01*
X62004Y136001D01*
X62077Y135982D01*
X62147Y135954D01*
X62212Y135946D01*
X62242Y135938D01*
X62267Y135940D01*
X62313Y135935D01*
X70966Y135935D01*
X71056Y135950D01*
X71147Y135957D01*
X71177Y135970D01*
X71209Y135975D01*
X71289Y136017D01*
X71373Y136053D01*
X71406Y136079D01*
X71426Y136090D01*
X71448Y136113D01*
X71504Y136158D01*
X73147Y137801D01*
X73185Y137854D01*
X73231Y137901D01*
X73257Y137953D01*
X73290Y138000D01*
X73310Y138063D01*
X73338Y138122D01*
X73346Y138180D01*
X73363Y138235D01*
X73361Y138301D01*
X73369Y138366D01*
X73358Y138423D01*
X73356Y138481D01*
X73334Y138543D01*
X73321Y138607D01*
X73283Y138681D01*
X73272Y138712D01*
X73260Y138728D01*
X73245Y138757D01*
X73169Y138873D01*
X73667Y141278D01*
X73672Y141398D01*
X73678Y141516D01*
X73677Y141520D01*
X73677Y141524D01*
X73644Y141639D01*
X73612Y141753D01*
X73610Y141756D01*
X73609Y141760D01*
X73541Y141858D01*
X73474Y141956D01*
X73471Y141959D01*
X73468Y141962D01*
X73374Y142033D01*
X73278Y142105D01*
X73274Y142106D01*
X73271Y142109D01*
X73158Y142146D01*
X73045Y142184D01*
X73040Y142184D01*
X73037Y142185D01*
X73023Y142185D01*
X72878Y142193D01*
X72773Y142187D01*
X72118Y142322D01*
X71520Y142623D01*
X71021Y143068D01*
X69145Y145923D01*
X74687Y149563D01*
X74701Y149576D01*
X74719Y149585D01*
X74792Y149659D01*
X74868Y149729D01*
X74877Y149747D01*
X74891Y149761D01*
X74936Y149854D01*
X74986Y149945D01*
X74990Y149964D01*
X74998Y149982D01*
X75011Y150085D01*
X75030Y150187D01*
X75027Y150207D01*
X75029Y150226D01*
X75009Y150327D01*
X74994Y150430D01*
X74985Y150448D01*
X74981Y150467D01*
X74905Y150617D01*
X74486Y151254D01*
X75124Y151673D01*
X75138Y151687D01*
X75156Y151696D01*
X75229Y151770D01*
X75305Y151840D01*
X75314Y151857D01*
X75328Y151871D01*
X75373Y151965D01*
X75423Y152055D01*
X75427Y152075D01*
X75435Y152093D01*
X75448Y152195D01*
X75467Y152297D01*
X75464Y152317D01*
X75466Y152337D01*
X75446Y152438D01*
X75431Y152541D01*
X75422Y152558D01*
X75418Y152578D01*
X75342Y152727D01*
X71837Y158062D01*
X74898Y160073D01*
X75534Y160283D01*
X76190Y160321D01*
X76236Y160331D01*
X76284Y160332D01*
X76356Y160358D01*
X76430Y160375D01*
X76470Y160399D01*
X76515Y160416D01*
X76575Y160463D01*
X76640Y160502D01*
X76671Y160539D01*
X76708Y160568D01*
X76750Y160632D01*
X76799Y160690D01*
X76816Y160734D01*
X76842Y160774D01*
X76861Y160848D01*
X76889Y160919D01*
X76892Y160966D01*
X76904Y161013D01*
X76898Y161088D01*
X76902Y161164D01*
X76890Y161210D01*
X76886Y161258D01*
X76842Y161380D01*
X76836Y161401D01*
X76833Y161407D01*
X76829Y161416D01*
X73258Y168708D01*
X73246Y168726D01*
X73238Y168747D01*
X73175Y168826D01*
X73116Y168909D01*
X73098Y168921D01*
X73084Y168939D01*
X72999Y168994D01*
X72917Y169053D01*
X72896Y169060D01*
X72878Y169072D01*
X72779Y169096D01*
X72682Y169127D01*
X72660Y169126D01*
X72639Y169132D01*
X72538Y169124D01*
X72436Y169122D01*
X72416Y169114D01*
X72394Y169113D01*
X72301Y169073D01*
X72205Y169039D01*
X72188Y169025D01*
X72167Y169016D01*
X72036Y168911D01*
X69534Y166409D01*
X69505Y166369D01*
X69469Y166335D01*
X69434Y166270D01*
X69391Y166210D01*
X69376Y166162D01*
X69353Y166118D01*
X69340Y166045D01*
X69318Y165975D01*
X69320Y165925D01*
X69311Y165876D01*
X69323Y165803D01*
X69325Y165729D01*
X69342Y165682D01*
X69350Y165633D01*
X69401Y165521D01*
X69409Y165498D01*
X69414Y165491D01*
X69419Y165480D01*
X69650Y165096D01*
X69034Y162646D01*
X60988Y157831D01*
X60981Y157824D01*
X60972Y157820D01*
X60841Y157716D01*
X57546Y154421D01*
X55118Y153415D01*
X43166Y153415D01*
X43101Y153405D01*
X43036Y153404D01*
X42963Y153383D01*
X42951Y153382D01*
X42944Y153379D01*
X42923Y153376D01*
X42906Y153366D01*
X42875Y153357D01*
X42855Y153349D01*
X42835Y153337D01*
X42795Y153321D01*
X39423Y151566D01*
X37015Y152326D01*
X35421Y155387D01*
X35402Y155413D01*
X35389Y155443D01*
X35284Y155574D01*
X35025Y155833D01*
X34399Y157343D01*
X34387Y157364D01*
X34371Y157403D01*
X32616Y160775D01*
X32701Y161043D01*
X32704Y161063D01*
X32712Y161081D01*
X32721Y161184D01*
X32736Y161287D01*
X32732Y161306D01*
X32734Y161326D01*
X32710Y161427D01*
X32692Y161529D01*
X32682Y161546D01*
X32677Y161565D01*
X32623Y161653D01*
X32572Y161744D01*
X32558Y161757D01*
X32547Y161774D01*
X32467Y161840D01*
X32391Y161910D01*
X32373Y161918D01*
X32357Y161930D01*
X32204Y161998D01*
X31935Y162083D01*
X30342Y165144D01*
X30322Y165170D01*
X30310Y165200D01*
X30205Y165331D01*
X27421Y168115D01*
X26415Y170542D01*
X26415Y198294D01*
X27421Y200722D01*
X46335Y219636D01*
X46388Y219710D01*
X46448Y219779D01*
X46460Y219810D01*
X46479Y219836D01*
X46505Y219923D01*
X46540Y220008D01*
X46544Y220049D01*
X46551Y220071D01*
X46550Y220103D01*
X46558Y220174D01*
X46558Y221830D01*
X47220Y222492D01*
X47245Y222527D01*
X47278Y222557D01*
X47317Y222627D01*
X47363Y222692D01*
X47376Y222733D01*
X47398Y222772D01*
X47412Y222850D01*
X47436Y222927D01*
X47435Y222970D01*
X47443Y223014D01*
X47431Y223093D01*
X47429Y223172D01*
X47414Y223214D01*
X47408Y223257D01*
X47350Y223390D01*
X47345Y223404D01*
X47343Y223406D01*
X47341Y223411D01*
X47239Y223587D01*
X47066Y224233D01*
X47066Y226544D01*
X52345Y226544D01*
X52364Y226547D01*
X52384Y226545D01*
X52485Y226567D01*
X52587Y226584D01*
X52605Y226593D01*
X52625Y226597D01*
X52714Y226651D01*
X52805Y226699D01*
X52819Y226713D01*
X52836Y226724D01*
X52903Y226802D01*
X52974Y226877D01*
X52983Y226895D01*
X52996Y226910D01*
X53034Y227007D01*
X53078Y227100D01*
X53080Y227120D01*
X53087Y227139D01*
X53106Y227305D01*
X53106Y228068D01*
X53108Y228068D01*
X53108Y227305D01*
X53111Y227286D01*
X53109Y227266D01*
X53131Y227165D01*
X53147Y227063D01*
X53157Y227045D01*
X53161Y227025D01*
X53214Y226936D01*
X53262Y226845D01*
X53277Y226831D01*
X53287Y226814D01*
X53366Y226747D01*
X53441Y226676D01*
X53459Y226667D01*
X53474Y226654D01*
X53570Y226616D01*
X53664Y226572D01*
X53684Y226570D01*
X53702Y226563D01*
X53869Y226544D01*
X59148Y226544D01*
X59148Y224233D01*
X58974Y223587D01*
X58873Y223411D01*
X58857Y223370D01*
X58834Y223333D01*
X58814Y223255D01*
X58786Y223181D01*
X58784Y223137D01*
X58774Y223094D01*
X58780Y223015D01*
X58777Y222935D01*
X58789Y222893D01*
X58793Y222849D01*
X58824Y222776D01*
X58847Y222699D01*
X58872Y222663D01*
X58889Y222623D01*
X58980Y222509D01*
X58988Y222498D01*
X58991Y222496D01*
X58994Y222492D01*
X59656Y221830D01*
X59656Y218668D01*
X59666Y218603D01*
X59667Y218537D01*
X59690Y218457D01*
X59695Y218425D01*
X59704Y218408D01*
X59712Y218383D01*
X59712Y215750D01*
X59703Y215714D01*
X59684Y215674D01*
X59682Y215654D01*
X59674Y215634D01*
X59665Y215551D01*
X59657Y215519D01*
X59659Y215499D01*
X59656Y215467D01*
X59656Y212304D01*
X57870Y210519D01*
X56214Y210519D01*
X56124Y210504D01*
X56033Y210497D01*
X56003Y210484D01*
X55971Y210479D01*
X55890Y210436D01*
X55807Y210400D01*
X55774Y210375D01*
X55754Y210364D01*
X55732Y210340D01*
X55676Y210296D01*
X49459Y204079D01*
X49431Y204040D01*
X49396Y204007D01*
X49360Y203941D01*
X49316Y203879D01*
X49301Y203833D01*
X49279Y203791D01*
X49265Y203717D01*
X49243Y203644D01*
X49244Y203596D01*
X49236Y203549D01*
X49248Y203474D01*
X49250Y203398D01*
X49266Y203353D01*
X49273Y203306D01*
X49308Y203239D01*
X49334Y203167D01*
X49364Y203130D01*
X49386Y203087D01*
X49440Y203034D01*
X49488Y202975D01*
X49528Y202949D01*
X49563Y202916D01*
X49631Y202883D01*
X49695Y202842D01*
X49741Y202831D01*
X49784Y202810D01*
X49860Y202801D01*
X49933Y202782D01*
X49981Y202786D01*
X50029Y202780D01*
X50156Y202800D01*
X50178Y202801D01*
X50184Y202804D01*
X50194Y202805D01*
X50815Y202972D01*
X54231Y202972D01*
X54231Y197103D01*
X48609Y197103D01*
X48609Y200765D01*
X48775Y201386D01*
X48780Y201434D01*
X48794Y201480D01*
X48792Y201555D01*
X48800Y201631D01*
X48789Y201678D01*
X48788Y201726D01*
X48762Y201797D01*
X48745Y201871D01*
X48720Y201911D01*
X48703Y201957D01*
X48656Y202016D01*
X48616Y202080D01*
X48579Y202111D01*
X48549Y202149D01*
X48486Y202190D01*
X48428Y202238D01*
X48383Y202256D01*
X48343Y202282D01*
X48269Y202300D01*
X48198Y202328D01*
X48151Y202330D01*
X48104Y202342D01*
X48028Y202336D01*
X47953Y202339D01*
X47907Y202326D01*
X47859Y202323D01*
X47789Y202293D01*
X47716Y202272D01*
X47677Y202245D01*
X47632Y202226D01*
X47532Y202146D01*
X47513Y202133D01*
X47509Y202128D01*
X47501Y202121D01*
X39848Y194468D01*
X39795Y194394D01*
X39735Y194324D01*
X39723Y194294D01*
X39704Y194268D01*
X39677Y194181D01*
X39643Y194096D01*
X39639Y194055D01*
X39632Y194033D01*
X39633Y194001D01*
X39625Y193929D01*
X39625Y175863D01*
X39627Y175852D01*
X39626Y175844D01*
X39634Y175807D01*
X39641Y175766D01*
X39650Y175668D01*
X39661Y175639D01*
X39664Y175620D01*
X39680Y175591D01*
X39711Y175511D01*
X40748Y173518D01*
X40768Y173492D01*
X40780Y173463D01*
X40885Y173332D01*
X41144Y173073D01*
X41770Y171562D01*
X41783Y171542D01*
X41798Y171502D01*
X43553Y168130D01*
X43468Y167862D01*
X43466Y167842D01*
X43458Y167824D01*
X43448Y167721D01*
X43433Y167619D01*
X43437Y167599D01*
X43435Y167579D01*
X43459Y167479D01*
X43478Y167377D01*
X43487Y167359D01*
X43492Y167340D01*
X43547Y167252D01*
X43597Y167162D01*
X43612Y167148D01*
X43622Y167131D01*
X43702Y167065D01*
X43778Y166996D01*
X43797Y166988D01*
X43812Y166975D01*
X43966Y166907D01*
X44341Y166789D01*
X44404Y166735D01*
X44441Y166720D01*
X44473Y166698D01*
X44554Y166675D01*
X44632Y166643D01*
X44683Y166638D01*
X44710Y166630D01*
X44739Y166631D01*
X44799Y166625D01*
X49366Y166625D01*
X49415Y166633D01*
X49464Y166631D01*
X49535Y166653D01*
X49608Y166664D01*
X49652Y166688D01*
X49700Y166702D01*
X49760Y166745D01*
X49826Y166780D01*
X49860Y166816D01*
X49901Y166844D01*
X49944Y166904D01*
X49995Y166958D01*
X50016Y167003D01*
X50045Y167043D01*
X50088Y167158D01*
X50099Y167181D01*
X50100Y167189D01*
X50104Y167201D01*
X50665Y169434D01*
X50675Y169553D01*
X50686Y169671D01*
X50685Y169675D01*
X50685Y169679D01*
X50657Y169794D01*
X50630Y169910D01*
X50628Y169914D01*
X50627Y169918D01*
X50563Y170018D01*
X50501Y170119D01*
X50497Y170122D01*
X50495Y170125D01*
X50403Y170200D01*
X50311Y170276D01*
X50307Y170278D01*
X50304Y170280D01*
X50191Y170322D01*
X50082Y170365D01*
X50077Y170365D01*
X50073Y170366D01*
X50059Y170367D01*
X49915Y170380D01*
X49810Y170379D01*
X49161Y170542D01*
X48576Y170867D01*
X48096Y171333D01*
X46342Y174264D01*
X52030Y177668D01*
X52046Y177681D01*
X52064Y177689D01*
X52140Y177760D01*
X52218Y177827D01*
X52229Y177844D01*
X52243Y177858D01*
X52292Y177949D01*
X52346Y178037D01*
X52350Y178057D01*
X52360Y178074D01*
X52377Y178177D01*
X52399Y178277D01*
X52397Y178297D01*
X52401Y178317D01*
X52385Y178419D01*
X52374Y178522D01*
X52366Y178540D01*
X52362Y178560D01*
X52293Y178712D01*
X51901Y179367D01*
X51902Y179368D01*
X52294Y178713D01*
X52307Y178698D01*
X52315Y178680D01*
X52386Y178604D01*
X52453Y178525D01*
X52470Y178515D01*
X52484Y178500D01*
X52575Y178451D01*
X52663Y178398D01*
X52683Y178394D01*
X52700Y178384D01*
X52803Y178367D01*
X52903Y178344D01*
X52923Y178346D01*
X52943Y178343D01*
X53045Y178359D01*
X53148Y178370D01*
X53166Y178378D01*
X53186Y178381D01*
X53338Y178451D01*
X59027Y181856D01*
X60781Y178925D01*
X60976Y178240D01*
X60977Y178215D01*
X60997Y178160D01*
X61007Y178103D01*
X61039Y178045D01*
X61061Y177984D01*
X61097Y177938D01*
X61125Y177888D01*
X61174Y177843D01*
X61215Y177792D01*
X61264Y177760D01*
X61306Y177721D01*
X61366Y177694D01*
X61422Y177659D01*
X61478Y177644D01*
X61531Y177621D01*
X61596Y177615D01*
X61660Y177599D01*
X61718Y177603D01*
X61776Y177598D01*
X61840Y177613D01*
X61905Y177618D01*
X61959Y177640D01*
X62015Y177654D01*
X62071Y177688D01*
X62132Y177714D01*
X62196Y177766D01*
X62224Y177783D01*
X62237Y177798D01*
X62263Y177819D01*
X64418Y179974D01*
X64471Y180048D01*
X64531Y180118D01*
X64543Y180148D01*
X64562Y180174D01*
X64589Y180261D01*
X64623Y180346D01*
X64627Y180387D01*
X64634Y180409D01*
X64633Y180441D01*
X64641Y180513D01*
X64641Y188102D01*
X64627Y188192D01*
X64619Y188283D01*
X64607Y188313D01*
X64602Y188345D01*
X64559Y188426D01*
X64523Y188510D01*
X64497Y188542D01*
X64486Y188562D01*
X64463Y188585D01*
X64418Y188641D01*
X63642Y189417D01*
X63546Y189486D01*
X63449Y189557D01*
X63445Y189559D01*
X63442Y189561D01*
X63330Y189595D01*
X63215Y189632D01*
X63211Y189632D01*
X63207Y189633D01*
X63088Y189630D01*
X62969Y189628D01*
X62965Y189627D01*
X62961Y189627D01*
X62849Y189586D01*
X62737Y189546D01*
X62734Y189544D01*
X62730Y189542D01*
X62636Y189468D01*
X62543Y189395D01*
X62540Y189391D01*
X62538Y189389D01*
X62530Y189377D01*
X62444Y189260D01*
X62392Y189169D01*
X61919Y188696D01*
X61339Y188361D01*
X60693Y188188D01*
X56580Y188188D01*
X56480Y188172D01*
X56379Y188161D01*
X56359Y188152D01*
X56337Y188149D01*
X56248Y188101D01*
X56155Y188059D01*
X56139Y188044D01*
X56119Y188033D01*
X56050Y187960D01*
X55976Y187891D01*
X55965Y187871D01*
X55950Y187855D01*
X55907Y187763D01*
X55860Y187674D01*
X55856Y187652D01*
X55846Y187632D01*
X55835Y187532D01*
X55818Y187432D01*
X55822Y187410D01*
X55819Y187388D01*
X55841Y187289D01*
X55857Y187189D01*
X55868Y187164D01*
X55872Y187147D01*
X55888Y187119D01*
X55926Y187036D01*
X57462Y184469D01*
X52427Y181456D01*
X49540Y186280D01*
X50594Y186911D01*
X50644Y186953D01*
X50701Y186988D01*
X50738Y187032D01*
X50782Y187070D01*
X50816Y187126D01*
X50858Y187176D01*
X50879Y187230D01*
X50909Y187280D01*
X50924Y187344D01*
X50948Y187406D01*
X50951Y187463D01*
X50963Y187520D01*
X50956Y187585D01*
X50959Y187651D01*
X50944Y187707D01*
X50938Y187765D01*
X50910Y187825D01*
X50892Y187888D01*
X50859Y187936D01*
X50835Y187988D01*
X50790Y188036D01*
X50753Y188091D01*
X50707Y188126D01*
X50667Y188168D01*
X50609Y188199D01*
X50556Y188238D01*
X50479Y188268D01*
X50450Y188284D01*
X50431Y188287D01*
X50400Y188299D01*
X50169Y188361D01*
X49589Y188696D01*
X49116Y189169D01*
X48782Y189748D01*
X48609Y190395D01*
X48609Y194057D01*
X54992Y194057D01*
X55012Y194060D01*
X55031Y194058D01*
X55133Y194080D01*
X55235Y194097D01*
X55252Y194106D01*
X55272Y194110D01*
X55361Y194163D01*
X55452Y194212D01*
X55466Y194226D01*
X55483Y194236D01*
X55550Y194315D01*
X55621Y194390D01*
X55630Y194408D01*
X55643Y194423D01*
X55682Y194519D01*
X55725Y194613D01*
X55727Y194633D01*
X55735Y194651D01*
X55753Y194818D01*
X55753Y195581D01*
X56516Y195581D01*
X56536Y195584D01*
X56555Y195582D01*
X56657Y195604D01*
X56759Y195621D01*
X56776Y195630D01*
X56796Y195634D01*
X56885Y195687D01*
X56976Y195736D01*
X56990Y195750D01*
X57007Y195760D01*
X57074Y195839D01*
X57145Y195914D01*
X57154Y195932D01*
X57167Y195947D01*
X57206Y196043D01*
X57249Y196137D01*
X57251Y196157D01*
X57259Y196175D01*
X57277Y196342D01*
X57277Y202972D01*
X60693Y202972D01*
X61339Y202799D01*
X61919Y202464D01*
X62392Y201991D01*
X62444Y201900D01*
X62520Y201807D01*
X62594Y201715D01*
X62597Y201713D01*
X62600Y201710D01*
X62702Y201646D01*
X62801Y201582D01*
X62805Y201581D01*
X62808Y201579D01*
X62925Y201551D01*
X63039Y201522D01*
X63043Y201523D01*
X63047Y201522D01*
X63166Y201532D01*
X63284Y201541D01*
X63288Y201543D01*
X63292Y201543D01*
X63402Y201591D01*
X63511Y201638D01*
X63514Y201641D01*
X63518Y201642D01*
X63528Y201652D01*
X63642Y201743D01*
X64579Y202680D01*
X64632Y202754D01*
X64692Y202824D01*
X64704Y202854D01*
X64723Y202880D01*
X64749Y202967D01*
X64784Y203052D01*
X64788Y203093D01*
X64795Y203115D01*
X64794Y203147D01*
X64802Y203218D01*
X64802Y218385D01*
X64815Y218440D01*
X64840Y218501D01*
X64849Y218584D01*
X64856Y218616D01*
X64854Y218635D01*
X64858Y218668D01*
X64858Y221830D01*
X65057Y222029D01*
X65069Y222045D01*
X65084Y222058D01*
X65140Y222145D01*
X65200Y222229D01*
X65206Y222248D01*
X65217Y222265D01*
X65242Y222365D01*
X65273Y222464D01*
X65272Y222484D01*
X65277Y222503D01*
X65269Y222606D01*
X65266Y222710D01*
X65260Y222728D01*
X65258Y222748D01*
X65218Y222843D01*
X65182Y222941D01*
X65170Y222956D01*
X65162Y222975D01*
X65057Y223106D01*
X64858Y223304D01*
X64858Y226467D01*
X64847Y226532D01*
X64847Y226597D01*
X64824Y226677D01*
X64818Y226710D01*
X64809Y226727D01*
X64802Y226751D01*
X64802Y229385D01*
X64815Y229440D01*
X64840Y229501D01*
X64849Y229584D01*
X64856Y229616D01*
X64854Y229635D01*
X64858Y229668D01*
X64858Y232830D01*
X66644Y234616D01*
X69806Y234616D01*
X69871Y234627D01*
X69937Y234627D01*
X70017Y234650D01*
X70049Y234656D01*
X70066Y234665D01*
X70091Y234672D01*
X75518Y234672D01*
X75574Y234659D01*
X75634Y234634D01*
X75717Y234625D01*
X75749Y234618D01*
X75769Y234620D01*
X75801Y234616D01*
X76170Y234616D01*
X76430Y234355D01*
X76483Y234317D01*
X76530Y234271D01*
X76603Y234231D01*
X76630Y234212D01*
X76648Y234206D01*
X76677Y234190D01*
X77942Y233666D01*
X79907Y231701D01*
X82568Y229041D01*
X82626Y228999D01*
X82678Y228949D01*
X82725Y228928D01*
X82768Y228897D01*
X82836Y228876D01*
X82901Y228846D01*
X82953Y228840D01*
X83003Y228825D01*
X83074Y228827D01*
X83146Y228819D01*
X83196Y228830D01*
X83249Y228831D01*
X83316Y228856D01*
X83386Y228871D01*
X83431Y228898D01*
X83480Y228916D01*
X83536Y228960D01*
X83597Y228997D01*
X83631Y229037D01*
X83672Y229069D01*
X83710Y229130D01*
X83757Y229184D01*
X83776Y229232D01*
X83805Y229276D01*
X83822Y229346D01*
X83849Y229412D01*
X83857Y229484D01*
X83865Y229515D01*
X83863Y229538D01*
X83867Y229579D01*
X83867Y229989D01*
X84041Y230635D01*
X84375Y231214D01*
X84848Y231687D01*
X85427Y232022D01*
X86074Y232195D01*
X88385Y232195D01*
X88385Y226916D01*
X88388Y226897D01*
X88386Y226877D01*
X88408Y226776D01*
X88425Y226674D01*
X88434Y226656D01*
X88438Y226637D01*
X88491Y226548D01*
X88540Y226456D01*
X88554Y226443D01*
X88564Y226426D01*
X88643Y226358D01*
X88718Y226287D01*
X88736Y226279D01*
X88751Y226266D01*
X88848Y226227D01*
X88941Y226183D01*
X88961Y226181D01*
X88979Y226174D01*
X89146Y226155D01*
X89909Y226155D01*
X89909Y225392D01*
X89912Y225373D01*
X89910Y225353D01*
X89932Y225252D01*
X89949Y225150D01*
X89958Y225132D01*
X89962Y225113D01*
X90015Y225024D01*
X90064Y224932D01*
X90078Y224919D01*
X90088Y224901D01*
X90167Y224834D01*
X90242Y224763D01*
X90260Y224755D01*
X90275Y224742D01*
X90372Y224703D01*
X90465Y224659D01*
X90485Y224657D01*
X90504Y224650D01*
X90670Y224631D01*
X95949Y224631D01*
X95949Y222320D01*
X95776Y221674D01*
X95674Y221498D01*
X95659Y221457D01*
X95635Y221420D01*
X95615Y221343D01*
X95587Y221268D01*
X95586Y221224D01*
X95575Y221181D01*
X95581Y221102D01*
X95578Y221022D01*
X95591Y220980D01*
X95594Y220936D01*
X95625Y220863D01*
X95648Y220786D01*
X95673Y220750D01*
X95690Y220710D01*
X95781Y220596D01*
X95789Y220585D01*
X95792Y220583D01*
X95795Y220579D01*
X96457Y219917D01*
X96457Y216755D01*
X96467Y216690D01*
X96468Y216625D01*
X96491Y216545D01*
X96497Y216512D01*
X96506Y216495D01*
X96513Y216470D01*
X96513Y213837D01*
X96500Y213782D01*
X96475Y213721D01*
X96466Y213638D01*
X96459Y213606D01*
X96460Y213587D01*
X96457Y213554D01*
X96457Y210392D01*
X94671Y208606D01*
X91509Y208606D01*
X91444Y208595D01*
X91378Y208594D01*
X91298Y208571D01*
X91266Y208566D01*
X91249Y208557D01*
X91224Y208550D01*
X88591Y208550D01*
X88535Y208563D01*
X88474Y208587D01*
X88392Y208596D01*
X88360Y208604D01*
X88340Y208602D01*
X88308Y208606D01*
X85145Y208606D01*
X84264Y209487D01*
X84211Y209525D01*
X84164Y209571D01*
X84091Y209611D01*
X84064Y209630D01*
X84046Y209636D01*
X84017Y209652D01*
X82751Y210176D01*
X79311Y213616D01*
X79253Y213658D01*
X79201Y213708D01*
X79154Y213730D01*
X79111Y213760D01*
X79043Y213781D01*
X78978Y213811D01*
X78926Y213817D01*
X78876Y213832D01*
X78805Y213831D01*
X78733Y213838D01*
X78682Y213827D01*
X78630Y213826D01*
X78563Y213801D01*
X78493Y213786D01*
X78448Y213759D01*
X78399Y213742D01*
X78343Y213697D01*
X78282Y213660D01*
X78248Y213620D01*
X78207Y213588D01*
X78169Y213528D01*
X78122Y213473D01*
X78102Y213425D01*
X78074Y213381D01*
X78057Y213311D01*
X78030Y213245D01*
X78022Y213174D01*
X78014Y213142D01*
X78016Y213119D01*
X78012Y213078D01*
X78012Y202897D01*
X78026Y202807D01*
X78033Y202716D01*
X78046Y202686D01*
X78051Y202654D01*
X78094Y202573D01*
X78130Y202490D01*
X78155Y202457D01*
X78166Y202437D01*
X78190Y202415D01*
X78235Y202359D01*
X78899Y201694D01*
X78899Y189466D01*
X78074Y188641D01*
X78021Y188567D01*
X77961Y188497D01*
X77949Y188467D01*
X77930Y188441D01*
X77903Y188354D01*
X77869Y188269D01*
X77865Y188228D01*
X77858Y188206D01*
X77859Y188174D01*
X77851Y188102D01*
X77851Y187206D01*
X77869Y187091D01*
X77887Y186975D01*
X77889Y186969D01*
X77890Y186963D01*
X77945Y186860D01*
X77998Y186756D01*
X78003Y186751D01*
X78006Y186746D01*
X78090Y186665D01*
X78174Y186583D01*
X78180Y186580D01*
X78184Y186576D01*
X78201Y186568D01*
X78321Y186503D01*
X78397Y186471D01*
X79163Y185705D01*
X79178Y185694D01*
X79198Y185672D01*
X80010Y184956D01*
X80048Y184878D01*
X80073Y184844D01*
X80089Y184805D01*
X80186Y184684D01*
X80191Y184678D01*
X80192Y184677D01*
X80194Y184674D01*
X80240Y184628D01*
X80314Y184575D01*
X80384Y184515D01*
X80414Y184503D01*
X80440Y184484D01*
X80527Y184457D01*
X80612Y184423D01*
X80653Y184419D01*
X80675Y184412D01*
X80707Y184413D01*
X80779Y184405D01*
X83923Y184405D01*
X84017Y184420D01*
X84112Y184429D01*
X84138Y184440D01*
X84166Y184444D01*
X84250Y184489D01*
X84338Y184527D01*
X84358Y184546D01*
X84383Y184560D01*
X84449Y184629D01*
X84520Y184693D01*
X84533Y184717D01*
X84553Y184738D01*
X84593Y184824D01*
X84639Y184908D01*
X84644Y184935D01*
X84656Y184961D01*
X84667Y185056D01*
X84684Y185149D01*
X84680Y185177D01*
X84683Y185205D01*
X84663Y185298D01*
X84650Y185393D01*
X84636Y185425D01*
X84631Y185446D01*
X84614Y185474D01*
X84583Y185547D01*
X84342Y185963D01*
X84169Y186610D01*
X84169Y190272D01*
X90552Y190272D01*
X90572Y190275D01*
X90591Y190273D01*
X90693Y190295D01*
X90795Y190312D01*
X90812Y190321D01*
X90832Y190325D01*
X90921Y190378D01*
X91012Y190427D01*
X91026Y190441D01*
X91043Y190451D01*
X91110Y190530D01*
X91181Y190605D01*
X91190Y190623D01*
X91203Y190638D01*
X91242Y190734D01*
X91285Y190828D01*
X91287Y190848D01*
X91295Y190866D01*
X91313Y191033D01*
X91313Y191796D01*
X92076Y191796D01*
X92096Y191799D01*
X92115Y191797D01*
X92217Y191819D01*
X92319Y191836D01*
X92336Y191845D01*
X92356Y191849D01*
X92445Y191902D01*
X92536Y191951D01*
X92550Y191965D01*
X92567Y191975D01*
X92634Y192054D01*
X92705Y192129D01*
X92714Y192147D01*
X92727Y192162D01*
X92766Y192258D01*
X92809Y192352D01*
X92811Y192372D01*
X92819Y192390D01*
X92837Y192557D01*
X92837Y199187D01*
X96253Y199187D01*
X96899Y199014D01*
X97479Y198679D01*
X97952Y198206D01*
X98004Y198115D01*
X98080Y198022D01*
X98154Y197930D01*
X98157Y197928D01*
X98160Y197925D01*
X98262Y197861D01*
X98361Y197797D01*
X98365Y197796D01*
X98368Y197794D01*
X98485Y197766D01*
X98599Y197737D01*
X98603Y197738D01*
X98607Y197737D01*
X98726Y197747D01*
X98844Y197756D01*
X98848Y197758D01*
X98852Y197758D01*
X98962Y197806D01*
X99071Y197853D01*
X99074Y197856D01*
X99078Y197857D01*
X99088Y197867D01*
X99202Y197958D01*
X99978Y198734D01*
X100031Y198808D01*
X100091Y198878D01*
X100103Y198908D01*
X100122Y198934D01*
X100149Y199021D01*
X100183Y199106D01*
X100187Y199147D01*
X100194Y199169D01*
X100193Y199201D01*
X100201Y199273D01*
X100201Y215066D01*
X101207Y217494D01*
X101436Y217723D01*
X101490Y217797D01*
X101549Y217867D01*
X101561Y217897D01*
X101580Y217923D01*
X101607Y218010D01*
X101641Y218095D01*
X101645Y218136D01*
X101652Y218158D01*
X101651Y218190D01*
X101659Y218261D01*
X101659Y219917D01*
X101858Y220116D01*
X101870Y220132D01*
X101885Y220145D01*
X101942Y220232D01*
X102002Y220316D01*
X102008Y220335D01*
X102018Y220352D01*
X102044Y220452D01*
X102074Y220551D01*
X102074Y220571D01*
X102079Y220590D01*
X102070Y220693D01*
X102068Y220797D01*
X102061Y220816D01*
X102059Y220835D01*
X102019Y220930D01*
X101983Y221028D01*
X101971Y221043D01*
X101963Y221062D01*
X101858Y221193D01*
X101659Y221392D01*
X101659Y224554D01*
X101649Y224619D01*
X101648Y224684D01*
X101625Y224764D01*
X101620Y224797D01*
X101611Y224814D01*
X101603Y224839D01*
X101603Y227472D01*
X101616Y227527D01*
X101641Y227588D01*
X101650Y227671D01*
X101658Y227703D01*
X101656Y227722D01*
X101659Y227755D01*
X101659Y230917D01*
X103445Y232703D01*
X106608Y232703D01*
X106672Y232714D01*
X106738Y232714D01*
X106818Y232738D01*
X106850Y232743D01*
X106868Y232752D01*
X106892Y232759D01*
X109526Y232759D01*
X109581Y232746D01*
X109642Y232722D01*
X109725Y232712D01*
X109757Y232705D01*
X109776Y232707D01*
X109809Y232703D01*
X112971Y232703D01*
X114757Y230917D01*
X114757Y230886D01*
X114760Y230866D01*
X114758Y230847D01*
X114780Y230745D01*
X114797Y230643D01*
X114806Y230626D01*
X114810Y230606D01*
X114863Y230517D01*
X114912Y230426D01*
X114926Y230412D01*
X114936Y230395D01*
X115015Y230328D01*
X115090Y230256D01*
X115108Y230248D01*
X115123Y230235D01*
X115219Y230196D01*
X115313Y230153D01*
X115333Y230151D01*
X115351Y230143D01*
X115518Y230125D01*
X115614Y230125D01*
X118041Y229119D01*
X120668Y226493D01*
X120726Y226451D01*
X120778Y226402D01*
X120825Y226380D01*
X120867Y226349D01*
X120936Y226328D01*
X121001Y226298D01*
X121053Y226292D01*
X121103Y226277D01*
X121174Y226279D01*
X121246Y226271D01*
X121296Y226282D01*
X121348Y226283D01*
X121416Y226308D01*
X121486Y226323D01*
X121531Y226350D01*
X121579Y226368D01*
X121636Y226413D01*
X121697Y226449D01*
X121731Y226489D01*
X121772Y226521D01*
X121810Y226582D01*
X121857Y226636D01*
X121876Y226684D01*
X121905Y226728D01*
X121922Y226798D01*
X121949Y226864D01*
X121957Y226936D01*
X121965Y226967D01*
X121963Y226990D01*
X121967Y227031D01*
X121967Y229964D01*
X122140Y230610D01*
X122475Y231189D01*
X122948Y231662D01*
X123527Y231997D01*
X124174Y232170D01*
X126485Y232170D01*
X126485Y226891D01*
X126488Y226872D01*
X126486Y226852D01*
X126508Y226751D01*
X126525Y226648D01*
X126534Y226631D01*
X126538Y226611D01*
X126591Y226522D01*
X126640Y226431D01*
X126654Y226417D01*
X126664Y226400D01*
X126743Y226333D01*
X126818Y226262D01*
X126836Y226253D01*
X126851Y226240D01*
X126947Y226202D01*
X127041Y226158D01*
X127061Y226156D01*
X127079Y226148D01*
X127246Y226130D01*
X128009Y226130D01*
X128009Y225367D01*
X128012Y225347D01*
X128010Y225328D01*
X128032Y225226D01*
X128049Y225124D01*
X128058Y225107D01*
X128062Y225087D01*
X128115Y224998D01*
X128164Y224907D01*
X128178Y224893D01*
X128188Y224876D01*
X128267Y224809D01*
X128342Y224738D01*
X128360Y224729D01*
X128375Y224716D01*
X128472Y224678D01*
X128565Y224634D01*
X128585Y224632D01*
X128603Y224624D01*
X128770Y224606D01*
X134049Y224606D01*
X134049Y222295D01*
X133876Y221648D01*
X133774Y221473D01*
X133759Y221432D01*
X133735Y221395D01*
X133715Y221317D01*
X133687Y221243D01*
X133686Y221199D01*
X133675Y221156D01*
X133681Y221077D01*
X133678Y220997D01*
X133691Y220955D01*
X133694Y220911D01*
X133725Y220838D01*
X133748Y220761D01*
X133773Y220725D01*
X133790Y220685D01*
X133881Y220571D01*
X133889Y220560D01*
X133892Y220558D01*
X133895Y220554D01*
X134557Y219892D01*
X134557Y216730D01*
X134567Y216665D01*
X134568Y216599D01*
X134591Y216519D01*
X134597Y216487D01*
X134606Y216470D01*
X134613Y216445D01*
X134613Y213812D01*
X134600Y213756D01*
X134575Y213695D01*
X134566Y213613D01*
X134559Y213581D01*
X134560Y213561D01*
X134557Y213529D01*
X134557Y210366D01*
X132771Y208580D01*
X129608Y208580D01*
X129544Y208570D01*
X129478Y208569D01*
X129398Y208546D01*
X129366Y208541D01*
X129348Y208532D01*
X129324Y208524D01*
X120606Y208524D01*
X118179Y209530D01*
X116321Y211388D01*
X116221Y211628D01*
X116170Y211711D01*
X116125Y211797D01*
X116106Y211815D01*
X116092Y211837D01*
X116017Y211899D01*
X115946Y211966D01*
X115922Y211977D01*
X115902Y211994D01*
X115811Y212029D01*
X115723Y212070D01*
X115697Y212072D01*
X115673Y212082D01*
X115575Y212086D01*
X115479Y212097D01*
X115453Y212091D01*
X115427Y212092D01*
X115333Y212065D01*
X115238Y212044D01*
X115216Y212031D01*
X115191Y212024D01*
X115111Y211968D01*
X115027Y211918D01*
X115010Y211898D01*
X114989Y211883D01*
X114931Y211805D01*
X114867Y211731D01*
X114857Y211707D01*
X114842Y211686D01*
X114812Y211594D01*
X114775Y211503D01*
X114772Y211471D01*
X114766Y211452D01*
X114766Y211419D01*
X114757Y211336D01*
X114757Y210392D01*
X113634Y209268D01*
X113581Y209194D01*
X113521Y209125D01*
X113509Y209095D01*
X113490Y209069D01*
X113463Y208982D01*
X113429Y208897D01*
X113425Y208856D01*
X113418Y208834D01*
X113419Y208801D01*
X113411Y208730D01*
X113411Y199273D01*
X113425Y199183D01*
X113433Y199092D01*
X113445Y199062D01*
X113450Y199030D01*
X113493Y198949D01*
X113529Y198865D01*
X113555Y198833D01*
X113566Y198813D01*
X113589Y198790D01*
X113634Y198734D01*
X114459Y197909D01*
X114459Y185672D01*
X114440Y185646D01*
X114391Y185594D01*
X114369Y185547D01*
X114339Y185505D01*
X114318Y185436D01*
X114287Y185371D01*
X114282Y185319D01*
X114266Y185270D01*
X114268Y185198D01*
X114260Y185127D01*
X114271Y185076D01*
X114273Y185024D01*
X114297Y184956D01*
X114313Y184886D01*
X114339Y184841D01*
X114357Y184793D01*
X114402Y184737D01*
X114439Y184675D01*
X114478Y184641D01*
X114511Y184601D01*
X114571Y184562D01*
X114626Y184515D01*
X114674Y184496D01*
X114718Y184468D01*
X114787Y184450D01*
X114854Y184423D01*
X114925Y184415D01*
X114956Y184407D01*
X114980Y184409D01*
X115021Y184405D01*
X123442Y184405D01*
X123489Y184412D01*
X123537Y184411D01*
X123610Y184432D01*
X123684Y184444D01*
X123727Y184467D01*
X123773Y184481D01*
X123835Y184524D01*
X123902Y184560D01*
X123935Y184594D01*
X123974Y184622D01*
X124019Y184683D01*
X124071Y184738D01*
X124091Y184781D01*
X124120Y184820D01*
X124143Y184892D01*
X124175Y184961D01*
X124180Y185008D01*
X124195Y185054D01*
X124193Y185130D01*
X124202Y185205D01*
X124192Y185252D01*
X124191Y185300D01*
X124166Y185372D01*
X124150Y185446D01*
X124125Y185487D01*
X124109Y185532D01*
X124062Y185592D01*
X124023Y185657D01*
X123987Y185688D01*
X123957Y185726D01*
X123853Y185802D01*
X123836Y185817D01*
X123830Y185819D01*
X123822Y185825D01*
X123249Y186156D01*
X122776Y186629D01*
X122442Y187208D01*
X122269Y187855D01*
X122269Y191517D01*
X128652Y191517D01*
X128672Y191520D01*
X128691Y191518D01*
X128793Y191540D01*
X128895Y191557D01*
X128912Y191566D01*
X128932Y191570D01*
X129021Y191623D01*
X129112Y191672D01*
X129126Y191686D01*
X129143Y191696D01*
X129210Y191775D01*
X129281Y191850D01*
X129290Y191868D01*
X129303Y191883D01*
X129342Y191979D01*
X129385Y192073D01*
X129387Y192093D01*
X129395Y192111D01*
X129413Y192278D01*
X129413Y193041D01*
X130176Y193041D01*
X130196Y193044D01*
X130215Y193042D01*
X130317Y193064D01*
X130419Y193081D01*
X130436Y193090D01*
X130456Y193094D01*
X130545Y193147D01*
X130636Y193196D01*
X130650Y193210D01*
X130667Y193220D01*
X130734Y193299D01*
X130805Y193374D01*
X130814Y193392D01*
X130827Y193407D01*
X130866Y193503D01*
X130909Y193597D01*
X130911Y193617D01*
X130919Y193635D01*
X130937Y193802D01*
X130937Y200432D01*
X134353Y200432D01*
X134999Y200259D01*
X135579Y199924D01*
X136052Y199451D01*
X136104Y199360D01*
X136180Y199267D01*
X136254Y199175D01*
X136257Y199173D01*
X136260Y199170D01*
X136361Y199106D01*
X136461Y199042D01*
X136465Y199041D01*
X136468Y199039D01*
X136584Y199011D01*
X136699Y198982D01*
X136703Y198983D01*
X136707Y198982D01*
X136826Y198992D01*
X136944Y199001D01*
X136948Y199003D01*
X136952Y199003D01*
X137062Y199051D01*
X137171Y199098D01*
X137174Y199101D01*
X137178Y199102D01*
X137188Y199112D01*
X137302Y199203D01*
X139056Y200957D01*
X139083Y200963D01*
X139185Y200979D01*
X139202Y200989D01*
X139222Y200993D01*
X139311Y201046D01*
X139402Y201095D01*
X139416Y201109D01*
X139433Y201119D01*
X139500Y201198D01*
X139572Y201273D01*
X139580Y201291D01*
X139593Y201306D01*
X139632Y201402D01*
X139675Y201496D01*
X139677Y201516D01*
X139685Y201534D01*
X139703Y201701D01*
X139703Y216447D01*
X139716Y216502D01*
X139741Y216563D01*
X139750Y216646D01*
X139758Y216678D01*
X139756Y216697D01*
X139759Y216730D01*
X139759Y219892D01*
X139958Y220091D01*
X139970Y220107D01*
X139985Y220120D01*
X140042Y220207D01*
X140102Y220291D01*
X140108Y220310D01*
X140118Y220326D01*
X140144Y220427D01*
X140174Y220526D01*
X140174Y220546D01*
X140178Y220565D01*
X140170Y220668D01*
X140168Y220772D01*
X140161Y220790D01*
X140159Y220810D01*
X140119Y220905D01*
X140083Y221003D01*
X140071Y221018D01*
X140063Y221036D01*
X139958Y221167D01*
X139759Y221366D01*
X139759Y224529D01*
X139749Y224593D01*
X139748Y224659D01*
X139725Y224739D01*
X139720Y224771D01*
X139710Y224789D01*
X139703Y224813D01*
X139703Y227447D01*
X139716Y227502D01*
X139741Y227563D01*
X139750Y227646D01*
X139758Y227678D01*
X139756Y227697D01*
X139759Y227730D01*
X139759Y230892D01*
X141545Y232678D01*
X144708Y232678D01*
X144772Y232688D01*
X144838Y232689D01*
X144918Y232712D01*
X144950Y232718D01*
X144968Y232727D01*
X144992Y232734D01*
X147626Y232734D01*
X147681Y232721D01*
X147742Y232696D01*
X147825Y232687D01*
X147857Y232680D01*
X147876Y232681D01*
X147908Y232678D01*
X151071Y232678D01*
X152857Y230892D01*
X152857Y230886D01*
X152860Y230866D01*
X152858Y230847D01*
X152880Y230745D01*
X152897Y230643D01*
X152906Y230626D01*
X152910Y230606D01*
X152963Y230517D01*
X153012Y230426D01*
X153026Y230412D01*
X153036Y230395D01*
X153115Y230328D01*
X153190Y230256D01*
X153208Y230248D01*
X153223Y230235D01*
X153319Y230196D01*
X153413Y230153D01*
X153433Y230151D01*
X153451Y230143D01*
X153618Y230125D01*
X153714Y230125D01*
X156141Y229119D01*
X156224Y229036D01*
X156283Y228994D01*
X156335Y228945D01*
X156382Y228923D01*
X156424Y228893D01*
X156493Y228871D01*
X156558Y228841D01*
X156609Y228836D01*
X156659Y228820D01*
X156731Y228822D01*
X156802Y228814D01*
X156853Y228825D01*
X156905Y228827D01*
X156972Y228851D01*
X157043Y228866D01*
X157087Y228893D01*
X157136Y228911D01*
X157192Y228956D01*
X157254Y228993D01*
X157287Y229032D01*
X157328Y229065D01*
X157367Y229125D01*
X157414Y229179D01*
X157433Y229228D01*
X157461Y229272D01*
X157479Y229341D01*
X157505Y229408D01*
X157513Y229479D01*
X157521Y229510D01*
X157519Y229533D01*
X157524Y229574D01*
X157524Y229940D01*
X157697Y230586D01*
X158032Y231166D01*
X158505Y231639D01*
X159084Y231973D01*
X159730Y232146D01*
X162041Y232146D01*
X162041Y226868D01*
X162043Y226856D01*
X162043Y226848D01*
X162044Y226841D01*
X162043Y226828D01*
X162065Y226727D01*
X162081Y226625D01*
X162091Y226607D01*
X162095Y226588D01*
X162148Y226499D01*
X162196Y226408D01*
X162211Y226394D01*
X162221Y226377D01*
X162300Y226309D01*
X162375Y226238D01*
X162393Y226230D01*
X162408Y226217D01*
X162504Y226178D01*
X162598Y226135D01*
X162617Y226132D01*
X162636Y226125D01*
X162803Y226106D01*
X163566Y226106D01*
X163566Y225344D01*
X163567Y225333D01*
X163567Y225325D01*
X163568Y225318D01*
X163567Y225304D01*
X163589Y225203D01*
X163605Y225101D01*
X163615Y225083D01*
X163619Y225064D01*
X163672Y224975D01*
X163720Y224884D01*
X163735Y224870D01*
X163745Y224853D01*
X163824Y224785D01*
X163899Y224714D01*
X163917Y224706D01*
X163932Y224693D01*
X164028Y224654D01*
X164122Y224611D01*
X164142Y224608D01*
X164160Y224601D01*
X164327Y224582D01*
X169605Y224582D01*
X169605Y222271D01*
X169432Y221625D01*
X169331Y221449D01*
X169315Y221408D01*
X169292Y221371D01*
X169272Y221294D01*
X169244Y221219D01*
X169242Y221175D01*
X169231Y221133D01*
X169238Y221053D01*
X169235Y220973D01*
X169247Y220931D01*
X169251Y220887D01*
X169282Y220814D01*
X169304Y220737D01*
X169330Y220701D01*
X169347Y220661D01*
X169438Y220548D01*
X169446Y220536D01*
X169449Y220534D01*
X169452Y220530D01*
X170113Y219868D01*
X170113Y216706D01*
X170124Y216641D01*
X170125Y216576D01*
X170148Y216496D01*
X170153Y216463D01*
X170162Y216446D01*
X170169Y216421D01*
X170169Y213788D01*
X170156Y213733D01*
X170132Y213672D01*
X170123Y213589D01*
X170115Y213557D01*
X170117Y213538D01*
X170113Y213505D01*
X170113Y210343D01*
X168328Y208557D01*
X165165Y208557D01*
X165100Y208546D01*
X165035Y208546D01*
X164955Y208522D01*
X164922Y208517D01*
X164905Y208508D01*
X164881Y208501D01*
X159497Y208501D01*
X159442Y208514D01*
X159381Y208538D01*
X159298Y208548D01*
X159266Y208555D01*
X159247Y208553D01*
X159214Y208557D01*
X158802Y208557D01*
X158510Y208848D01*
X158457Y208887D01*
X158410Y208932D01*
X158337Y208973D01*
X158311Y208992D01*
X158292Y208998D01*
X158263Y209013D01*
X157073Y209506D01*
X155108Y211471D01*
X154212Y212367D01*
X154154Y212409D01*
X154102Y212458D01*
X154055Y212480D01*
X154013Y212511D01*
X153944Y212532D01*
X153879Y212562D01*
X153827Y212568D01*
X153778Y212583D01*
X153706Y212581D01*
X153635Y212589D01*
X153584Y212578D01*
X153532Y212577D01*
X153464Y212552D01*
X153394Y212537D01*
X153350Y212510D01*
X153301Y212492D01*
X153245Y212447D01*
X153183Y212411D01*
X153149Y212371D01*
X153109Y212339D01*
X153070Y212278D01*
X153023Y212224D01*
X153004Y212175D01*
X152976Y212132D01*
X152958Y212062D01*
X152931Y211996D01*
X152923Y211924D01*
X152916Y211893D01*
X152917Y211870D01*
X152913Y211829D01*
X152913Y193128D01*
X152617Y192415D01*
X152602Y192351D01*
X152578Y192290D01*
X152569Y192207D01*
X152561Y192175D01*
X152563Y192156D01*
X152559Y192123D01*
X152559Y186926D01*
X151734Y186101D01*
X151681Y186027D01*
X151621Y185957D01*
X151609Y185927D01*
X151590Y185901D01*
X151563Y185814D01*
X151529Y185729D01*
X151525Y185688D01*
X151518Y185666D01*
X151519Y185634D01*
X151511Y185562D01*
X151511Y185166D01*
X151514Y185146D01*
X151512Y185127D01*
X151534Y185025D01*
X151550Y184923D01*
X151560Y184906D01*
X151564Y184886D01*
X151617Y184797D01*
X151666Y184706D01*
X151680Y184692D01*
X151690Y184675D01*
X151769Y184608D01*
X151844Y184536D01*
X151862Y184528D01*
X151877Y184515D01*
X151973Y184476D01*
X152067Y184433D01*
X152087Y184431D01*
X152105Y184423D01*
X152272Y184405D01*
X159002Y184405D01*
X159049Y184412D01*
X159097Y184411D01*
X159170Y184432D01*
X159244Y184444D01*
X159287Y184467D01*
X159333Y184481D01*
X159395Y184524D01*
X159462Y184560D01*
X159495Y184594D01*
X159534Y184622D01*
X159579Y184683D01*
X159631Y184738D01*
X159651Y184781D01*
X159680Y184820D01*
X159703Y184892D01*
X159735Y184961D01*
X159740Y185008D01*
X159755Y185054D01*
X159753Y185130D01*
X159762Y185205D01*
X159752Y185252D01*
X159751Y185300D01*
X159726Y185372D01*
X159710Y185446D01*
X159685Y185487D01*
X159669Y185532D01*
X159622Y185592D01*
X159583Y185657D01*
X159547Y185688D01*
X159517Y185726D01*
X159414Y185802D01*
X159396Y185817D01*
X159390Y185819D01*
X159382Y185825D01*
X158809Y186156D01*
X158336Y186629D01*
X158002Y187208D01*
X157829Y187855D01*
X157829Y191517D01*
X164212Y191517D01*
X164232Y191520D01*
X164251Y191518D01*
X164353Y191540D01*
X164455Y191557D01*
X164472Y191566D01*
X164492Y191570D01*
X164581Y191623D01*
X164672Y191672D01*
X164686Y191686D01*
X164703Y191696D01*
X164770Y191775D01*
X164841Y191850D01*
X164850Y191868D01*
X164863Y191883D01*
X164902Y191979D01*
X164945Y192073D01*
X164947Y192093D01*
X164955Y192111D01*
X164973Y192278D01*
X164973Y193041D01*
X165736Y193041D01*
X165756Y193044D01*
X165775Y193042D01*
X165877Y193064D01*
X165979Y193081D01*
X165996Y193090D01*
X166016Y193094D01*
X166105Y193147D01*
X166196Y193196D01*
X166210Y193210D01*
X166227Y193220D01*
X166294Y193299D01*
X166365Y193374D01*
X166374Y193392D01*
X166387Y193407D01*
X166426Y193503D01*
X166469Y193597D01*
X166471Y193617D01*
X166479Y193635D01*
X166497Y193802D01*
X166497Y200432D01*
X169913Y200432D01*
X170559Y200259D01*
X171139Y199924D01*
X171612Y199451D01*
X171664Y199360D01*
X171740Y199267D01*
X171814Y199175D01*
X171817Y199173D01*
X171820Y199170D01*
X171921Y199106D01*
X172021Y199042D01*
X172025Y199041D01*
X172028Y199039D01*
X172144Y199011D01*
X172259Y198982D01*
X172263Y198983D01*
X172267Y198982D01*
X172386Y198992D01*
X172504Y199001D01*
X172508Y199003D01*
X172512Y199003D01*
X172622Y199051D01*
X172731Y199098D01*
X172734Y199101D01*
X172738Y199102D01*
X172748Y199112D01*
X172862Y199203D01*
X174617Y200958D01*
X174639Y200963D01*
X174741Y200979D01*
X174759Y200989D01*
X174779Y200993D01*
X174868Y201046D01*
X174959Y201095D01*
X174973Y201109D01*
X174990Y201119D01*
X175057Y201198D01*
X175128Y201273D01*
X175137Y201291D01*
X175150Y201306D01*
X175188Y201402D01*
X175232Y201496D01*
X175234Y201516D01*
X175241Y201534D01*
X175260Y201701D01*
X175260Y216423D01*
X175273Y216478D01*
X175297Y216539D01*
X175307Y216622D01*
X175314Y216654D01*
X175312Y216673D01*
X175316Y216706D01*
X175316Y219868D01*
X175515Y220067D01*
X175526Y220084D01*
X175542Y220096D01*
X175598Y220183D01*
X175658Y220267D01*
X175664Y220286D01*
X175675Y220303D01*
X175700Y220403D01*
X175731Y220502D01*
X175730Y220522D01*
X175735Y220541D01*
X175727Y220644D01*
X175724Y220748D01*
X175717Y220767D01*
X175716Y220787D01*
X175676Y220882D01*
X175640Y220979D01*
X175627Y220995D01*
X175620Y221013D01*
X175515Y221144D01*
X175316Y221343D01*
X175316Y224505D01*
X175305Y224570D01*
X175305Y224635D01*
X175282Y224715D01*
X175276Y224748D01*
X175267Y224765D01*
X175260Y224790D01*
X175260Y227423D01*
X175273Y227478D01*
X175297Y227539D01*
X175307Y227622D01*
X175314Y227654D01*
X175312Y227673D01*
X175316Y227706D01*
X175316Y230868D01*
X177102Y232654D01*
X180264Y232654D01*
X180329Y232665D01*
X180395Y232666D01*
X180474Y232689D01*
X180507Y232694D01*
X180524Y232703D01*
X180549Y232710D01*
X183182Y232710D01*
X183237Y232697D01*
X183298Y232673D01*
X183381Y232664D01*
X183413Y232656D01*
X183433Y232658D01*
X183465Y232654D01*
X186628Y232654D01*
X188417Y230865D01*
X188414Y230847D01*
X188436Y230745D01*
X188453Y230643D01*
X188462Y230626D01*
X188467Y230606D01*
X188520Y230517D01*
X188568Y230426D01*
X188583Y230412D01*
X188593Y230395D01*
X188672Y230328D01*
X188747Y230256D01*
X188765Y230248D01*
X188780Y230235D01*
X188876Y230196D01*
X188970Y230153D01*
X188989Y230151D01*
X189008Y230143D01*
X189175Y230125D01*
X189274Y230125D01*
X191701Y229119D01*
X192419Y228402D01*
X192477Y228360D01*
X192529Y228311D01*
X192576Y228289D01*
X192618Y228258D01*
X192687Y228237D01*
X192752Y228207D01*
X192804Y228201D01*
X192853Y228186D01*
X192925Y228188D01*
X192996Y228180D01*
X193047Y228191D01*
X193099Y228192D01*
X193167Y228217D01*
X193237Y228232D01*
X193281Y228259D01*
X193330Y228277D01*
X193386Y228322D01*
X193448Y228358D01*
X193482Y228398D01*
X193522Y228431D01*
X193561Y228491D01*
X193608Y228545D01*
X193627Y228594D01*
X193655Y228637D01*
X193673Y228707D01*
X193700Y228773D01*
X193708Y228845D01*
X193715Y228876D01*
X193714Y228899D01*
X193718Y228940D01*
X193718Y229916D01*
X193891Y230562D01*
X194226Y231142D01*
X194699Y231615D01*
X195278Y231949D01*
X195924Y232122D01*
X198236Y232122D01*
X198236Y226844D01*
X198239Y226824D01*
X198237Y226804D01*
X198259Y226703D01*
X198275Y226601D01*
X198285Y226583D01*
X198289Y226564D01*
X198342Y226475D01*
X198390Y226384D01*
X198405Y226370D01*
X198415Y226353D01*
X198494Y226286D01*
X198569Y226214D01*
X198587Y226206D01*
X198602Y226193D01*
X198698Y226154D01*
X198792Y226111D01*
X198812Y226108D01*
X198830Y226101D01*
X198997Y226083D01*
X199760Y226083D01*
X199760Y225320D01*
X199763Y225300D01*
X199761Y225280D01*
X199783Y225179D01*
X199799Y225077D01*
X199809Y225059D01*
X199813Y225040D01*
X199866Y224951D01*
X199915Y224860D01*
X199929Y224846D01*
X199939Y224829D01*
X200018Y224761D01*
X200093Y224690D01*
X200111Y224682D01*
X200126Y224669D01*
X200222Y224630D01*
X200316Y224587D01*
X200336Y224584D01*
X200354Y224577D01*
X200521Y224558D01*
X205800Y224558D01*
X205800Y222247D01*
X205626Y221601D01*
X205525Y221425D01*
X205509Y221384D01*
X205486Y221347D01*
X205466Y221270D01*
X205438Y221195D01*
X205436Y221151D01*
X205426Y221109D01*
X205432Y221029D01*
X205429Y220949D01*
X205441Y220907D01*
X205445Y220864D01*
X205476Y220790D01*
X205499Y220713D01*
X205524Y220678D01*
X205541Y220637D01*
X205632Y220523D01*
X205640Y220512D01*
X205643Y220510D01*
X205646Y220506D01*
X206308Y219845D01*
X206308Y216682D01*
X206318Y216617D01*
X206319Y216552D01*
X206342Y216472D01*
X206347Y216439D01*
X206356Y216422D01*
X206364Y216398D01*
X206364Y213764D01*
X206351Y213709D01*
X206326Y213648D01*
X206317Y213565D01*
X206309Y213533D01*
X206311Y213514D01*
X206308Y213481D01*
X206308Y210319D01*
X204522Y208533D01*
X202866Y208533D01*
X202776Y208518D01*
X202685Y208511D01*
X202655Y208498D01*
X202623Y208493D01*
X202543Y208450D01*
X202459Y208415D01*
X202427Y208389D01*
X202406Y208378D01*
X202384Y208355D01*
X202328Y208310D01*
X200550Y206532D01*
X198122Y205527D01*
X195495Y205527D01*
X193067Y206532D01*
X191102Y208497D01*
X189769Y209831D01*
X189711Y209872D01*
X189659Y209922D01*
X189611Y209944D01*
X189569Y209974D01*
X189501Y209995D01*
X189436Y210025D01*
X189384Y210031D01*
X189334Y210046D01*
X189262Y210045D01*
X189191Y210052D01*
X189140Y210041D01*
X189088Y210040D01*
X189021Y210015D01*
X188951Y210000D01*
X188906Y209974D01*
X188857Y209956D01*
X188801Y209911D01*
X188740Y209874D01*
X188706Y209834D01*
X188665Y209802D01*
X188626Y209742D01*
X188580Y209687D01*
X188560Y209639D01*
X188532Y209595D01*
X188515Y209526D01*
X188488Y209459D01*
X188480Y209388D01*
X188472Y209356D01*
X188474Y209333D01*
X188469Y209292D01*
X188469Y193125D01*
X188177Y192419D01*
X188162Y192356D01*
X188138Y192295D01*
X188129Y192212D01*
X188121Y192180D01*
X188123Y192161D01*
X188119Y192128D01*
X188119Y190246D01*
X188122Y190226D01*
X188120Y190207D01*
X188142Y190105D01*
X188159Y190003D01*
X188168Y189986D01*
X188173Y189966D01*
X188226Y189877D01*
X188274Y189786D01*
X188288Y189772D01*
X188299Y189755D01*
X188377Y189688D01*
X188452Y189616D01*
X188470Y189608D01*
X188486Y189595D01*
X188582Y189556D01*
X188675Y189513D01*
X188695Y189511D01*
X188714Y189503D01*
X188746Y189500D01*
X189796Y189065D01*
X189841Y189054D01*
X189883Y189035D01*
X189960Y189026D01*
X190036Y189008D01*
X190081Y189013D01*
X190127Y189008D01*
X190203Y189024D01*
X190281Y189032D01*
X190322Y189050D01*
X190367Y189060D01*
X190434Y189100D01*
X190505Y189132D01*
X190539Y189163D01*
X190578Y189186D01*
X190629Y189245D01*
X190686Y189298D01*
X190709Y189338D01*
X190738Y189373D01*
X190767Y189445D01*
X190805Y189513D01*
X190813Y189559D01*
X190830Y189601D01*
X190845Y189737D01*
X190849Y189756D01*
X190848Y189760D01*
X190849Y189768D01*
X190849Y192050D01*
X196471Y192050D01*
X196471Y186182D01*
X195345Y186182D01*
X195274Y186170D01*
X195202Y186168D01*
X195154Y186150D01*
X195102Y186142D01*
X195039Y186108D01*
X194971Y186084D01*
X194931Y186051D01*
X194885Y186027D01*
X194835Y185975D01*
X194779Y185930D01*
X194751Y185886D01*
X194715Y185848D01*
X194685Y185783D01*
X194646Y185723D01*
X194634Y185673D01*
X194612Y185625D01*
X194604Y185554D01*
X194586Y185485D01*
X194590Y185433D01*
X194585Y185381D01*
X194600Y185311D01*
X194606Y185239D01*
X194626Y185191D01*
X194637Y185141D01*
X194674Y185079D01*
X194702Y185013D01*
X194747Y184957D01*
X194763Y184929D01*
X194781Y184914D01*
X194807Y184882D01*
X198360Y181329D01*
X198376Y181317D01*
X198389Y181302D01*
X198476Y181246D01*
X198560Y181185D01*
X198579Y181179D01*
X198595Y181169D01*
X198696Y181143D01*
X198795Y181113D01*
X198815Y181113D01*
X198834Y181109D01*
X198937Y181117D01*
X199041Y181119D01*
X199059Y181126D01*
X199079Y181128D01*
X199174Y181168D01*
X199272Y181204D01*
X199287Y181216D01*
X199306Y181224D01*
X199436Y181329D01*
X202990Y184882D01*
X203032Y184940D01*
X203081Y184992D01*
X203103Y185040D01*
X203133Y185082D01*
X203154Y185150D01*
X203185Y185215D01*
X203190Y185267D01*
X203206Y185317D01*
X203204Y185389D01*
X203212Y185460D01*
X203201Y185511D01*
X203199Y185563D01*
X203175Y185630D01*
X203159Y185700D01*
X203133Y185745D01*
X203115Y185794D01*
X203070Y185850D01*
X203033Y185911D01*
X202994Y185945D01*
X202961Y185986D01*
X202901Y186025D01*
X202846Y186071D01*
X202798Y186091D01*
X202754Y186119D01*
X202685Y186136D01*
X202618Y186163D01*
X202547Y186171D01*
X202516Y186179D01*
X202492Y186177D01*
X202451Y186182D01*
X199517Y186182D01*
X199517Y192811D01*
X199514Y192831D01*
X199516Y192851D01*
X199494Y192952D01*
X199477Y193054D01*
X199468Y193072D01*
X199464Y193091D01*
X199411Y193180D01*
X199362Y193271D01*
X199348Y193285D01*
X199338Y193302D01*
X199259Y193369D01*
X199184Y193441D01*
X199166Y193449D01*
X199151Y193462D01*
X199055Y193501D01*
X198961Y193544D01*
X198941Y193547D01*
X198923Y193554D01*
X198756Y193572D01*
X197993Y193572D01*
X197993Y193574D01*
X198756Y193574D01*
X198776Y193577D01*
X198795Y193575D01*
X198897Y193597D01*
X198999Y193614D01*
X199016Y193623D01*
X199036Y193627D01*
X199125Y193681D01*
X199216Y193729D01*
X199230Y193743D01*
X199247Y193754D01*
X199314Y193832D01*
X199385Y193907D01*
X199394Y193925D01*
X199407Y193941D01*
X199446Y194037D01*
X199489Y194130D01*
X199491Y194150D01*
X199499Y194169D01*
X199517Y194335D01*
X199517Y200965D01*
X202933Y200965D01*
X203579Y200792D01*
X204159Y200457D01*
X204632Y199984D01*
X204684Y199894D01*
X204760Y199800D01*
X204834Y199709D01*
X204837Y199706D01*
X204840Y199703D01*
X204941Y199640D01*
X205041Y199576D01*
X205045Y199575D01*
X205048Y199572D01*
X205164Y199545D01*
X205279Y199516D01*
X205283Y199516D01*
X205287Y199515D01*
X205406Y199526D01*
X205524Y199535D01*
X205528Y199536D01*
X205532Y199537D01*
X205642Y199585D01*
X205751Y199631D01*
X205754Y199634D01*
X205758Y199636D01*
X205768Y199645D01*
X205882Y199736D01*
X207619Y201473D01*
X210693Y201473D01*
X210713Y201476D01*
X210732Y201474D01*
X210834Y201496D01*
X210936Y201513D01*
X210953Y201522D01*
X210973Y201526D01*
X211062Y201580D01*
X211153Y201628D01*
X211167Y201642D01*
X211184Y201653D01*
X211251Y201731D01*
X211322Y201806D01*
X211331Y201824D01*
X211344Y201839D01*
X211383Y201936D01*
X211426Y202029D01*
X211428Y202049D01*
X211436Y202068D01*
X211454Y202234D01*
X211454Y216399D01*
X211467Y216454D01*
X211492Y216515D01*
X211501Y216598D01*
X211508Y216630D01*
X211507Y216650D01*
X211510Y216682D01*
X211510Y219845D01*
X211709Y220043D01*
X211721Y220060D01*
X211736Y220072D01*
X211792Y220159D01*
X211853Y220243D01*
X211858Y220262D01*
X211869Y220279D01*
X211894Y220379D01*
X211925Y220478D01*
X211924Y220498D01*
X211929Y220518D01*
X211921Y220621D01*
X211919Y220724D01*
X211912Y220743D01*
X211910Y220763D01*
X211870Y220857D01*
X211834Y220955D01*
X211822Y220971D01*
X211814Y220989D01*
X211709Y221120D01*
X211510Y221319D01*
X211510Y224481D01*
X211500Y224546D01*
X211499Y224612D01*
X211476Y224691D01*
X211470Y224724D01*
X211461Y224741D01*
X211454Y224766D01*
X211454Y227399D01*
X211461Y227428D01*
X211468Y227444D01*
X211470Y227462D01*
X211492Y227515D01*
X211501Y227598D01*
X211508Y227630D01*
X211507Y227650D01*
X211510Y227682D01*
X211510Y230845D01*
X213296Y232630D01*
X215570Y232630D01*
X215635Y232641D01*
X215701Y232642D01*
X215781Y232665D01*
X215813Y232670D01*
X215830Y232679D01*
X215862Y232688D01*
X217373Y233314D01*
X221644Y233314D01*
X224072Y232309D01*
X247033Y209347D01*
X248039Y206920D01*
X248039Y186792D01*
X248053Y186702D01*
X248061Y186611D01*
X248073Y186581D01*
X248078Y186549D01*
X248121Y186469D01*
X248157Y186385D01*
X248183Y186352D01*
X248194Y186332D01*
X248217Y186310D01*
X248262Y186254D01*
X250488Y184028D01*
X250517Y184007D01*
X250540Y183980D01*
X250680Y183888D01*
X253731Y182334D01*
X254020Y181444D01*
X254040Y181405D01*
X254052Y181362D01*
X254096Y181296D01*
X254133Y181225D01*
X254164Y181194D01*
X254189Y181158D01*
X254252Y181109D01*
X254309Y181054D01*
X254349Y181035D01*
X254384Y181008D01*
X254459Y180982D01*
X254531Y180948D01*
X254575Y180942D01*
X254616Y180928D01*
X254762Y180920D01*
X254775Y180918D01*
X254779Y180919D01*
X254784Y180919D01*
X254987Y180929D01*
X255641Y180790D01*
X257700Y179741D01*
X255304Y175037D01*
X255298Y175019D01*
X255287Y175002D01*
X255261Y174902D01*
X255229Y174803D01*
X255229Y174783D01*
X255224Y174764D01*
X255231Y174661D01*
X255233Y174557D01*
X255240Y174538D01*
X255241Y174519D01*
X255280Y174423D01*
X255315Y174325D01*
X255327Y174310D01*
X255335Y174291D01*
X255403Y174213D01*
X255467Y174132D01*
X255483Y174121D01*
X255496Y174106D01*
X255637Y174014D01*
X256316Y173667D01*
X256315Y173666D01*
X255636Y174012D01*
X255617Y174018D01*
X255600Y174029D01*
X255500Y174055D01*
X255401Y174087D01*
X255382Y174087D01*
X255362Y174092D01*
X255259Y174085D01*
X255156Y174083D01*
X255137Y174076D01*
X255117Y174075D01*
X255021Y174036D01*
X254924Y174001D01*
X254908Y173989D01*
X254890Y173981D01*
X254812Y173913D01*
X254730Y173849D01*
X254719Y173833D01*
X254704Y173820D01*
X254612Y173679D01*
X252215Y168976D01*
X250156Y170025D01*
X249659Y170473D01*
X249548Y170643D01*
X249519Y170676D01*
X249497Y170714D01*
X249437Y170766D01*
X249383Y170825D01*
X249344Y170847D01*
X249311Y170876D01*
X249238Y170906D01*
X249168Y170945D01*
X249125Y170953D01*
X249084Y170970D01*
X249005Y170975D01*
X248926Y170990D01*
X248883Y170984D01*
X248839Y170987D01*
X248696Y170957D01*
X248683Y170955D01*
X248680Y170954D01*
X248675Y170953D01*
X247785Y170664D01*
X244433Y172371D01*
X244412Y172378D01*
X244379Y172396D01*
X242773Y173062D01*
X242541Y173294D01*
X242511Y173315D01*
X242488Y173342D01*
X242348Y173434D01*
X239297Y174988D01*
X238608Y177109D01*
X238565Y177193D01*
X238527Y177281D01*
X238505Y177309D01*
X238495Y177327D01*
X238472Y177350D01*
X238423Y177412D01*
X235835Y180000D01*
X234829Y182427D01*
X234829Y184967D01*
X234823Y185005D01*
X234826Y185042D01*
X234803Y185125D01*
X234790Y185210D01*
X234772Y185243D01*
X234762Y185280D01*
X234714Y185352D01*
X234674Y185427D01*
X234647Y185453D01*
X234626Y185485D01*
X234558Y185537D01*
X234496Y185597D01*
X234462Y185613D01*
X234432Y185636D01*
X234351Y185664D01*
X234273Y185700D01*
X234235Y185704D01*
X234199Y185717D01*
X234114Y185718D01*
X234029Y185727D01*
X233991Y185719D01*
X233953Y185720D01*
X233872Y185693D01*
X233788Y185675D01*
X233756Y185655D01*
X233719Y185644D01*
X233650Y185593D01*
X233577Y185549D01*
X233552Y185520D01*
X233522Y185497D01*
X233419Y185365D01*
X233417Y185362D01*
X232126Y183254D01*
X227122Y186321D01*
X230059Y191114D01*
X231130Y190458D01*
X233182Y189201D01*
X233516Y188849D01*
X233581Y188799D01*
X233640Y188743D01*
X233678Y188726D01*
X233712Y188700D01*
X233789Y188674D01*
X233863Y188640D01*
X233905Y188635D01*
X233945Y188622D01*
X234026Y188622D01*
X234107Y188613D01*
X234149Y188622D01*
X234191Y188622D01*
X234268Y188648D01*
X234348Y188665D01*
X234384Y188687D01*
X234424Y188700D01*
X234489Y188749D01*
X234559Y188791D01*
X234586Y188823D01*
X234620Y188849D01*
X234666Y188916D01*
X234719Y188978D01*
X234735Y189017D01*
X234758Y189052D01*
X234780Y189130D01*
X234811Y189206D01*
X234817Y189261D01*
X234825Y189289D01*
X234823Y189317D01*
X234829Y189373D01*
X234829Y202555D01*
X234828Y202563D01*
X234828Y202567D01*
X234824Y202584D01*
X234815Y202645D01*
X234807Y202736D01*
X234795Y202766D01*
X234790Y202798D01*
X234747Y202878D01*
X234711Y202962D01*
X234685Y202994D01*
X234674Y203015D01*
X234651Y203037D01*
X234606Y203093D01*
X225963Y211736D01*
X225905Y211778D01*
X225853Y211828D01*
X225806Y211850D01*
X225763Y211880D01*
X225695Y211901D01*
X225630Y211931D01*
X225578Y211937D01*
X225528Y211952D01*
X225457Y211950D01*
X225385Y211958D01*
X225335Y211947D01*
X225282Y211946D01*
X225215Y211921D01*
X225145Y211906D01*
X225100Y211879D01*
X225051Y211861D01*
X224995Y211817D01*
X224934Y211780D01*
X224900Y211740D01*
X224859Y211708D01*
X224821Y211647D01*
X224774Y211593D01*
X224755Y211545D01*
X224726Y211501D01*
X224709Y211431D01*
X224682Y211365D01*
X224674Y211293D01*
X224666Y211262D01*
X224668Y211239D01*
X224664Y211198D01*
X224664Y196832D01*
X224116Y195510D01*
X224097Y195428D01*
X224069Y195350D01*
X224069Y195309D01*
X224060Y195270D01*
X224067Y195187D01*
X224066Y195104D01*
X224079Y195065D01*
X224083Y195025D01*
X224116Y194949D01*
X224142Y194870D01*
X224166Y194837D01*
X224183Y194801D01*
X224239Y194739D01*
X224289Y194672D01*
X224330Y194640D01*
X224349Y194619D01*
X224375Y194605D01*
X224421Y194569D01*
X224919Y194264D01*
X226161Y193503D01*
X227462Y192706D01*
X224127Y187263D01*
X224119Y187245D01*
X224107Y187229D01*
X224073Y187132D01*
X224034Y187036D01*
X224033Y187016D01*
X224026Y186997D01*
X224025Y186894D01*
X224018Y186790D01*
X224023Y186771D01*
X224023Y186751D01*
X224055Y186653D01*
X224082Y186553D01*
X224093Y186536D01*
X224099Y186517D01*
X224161Y186434D01*
X224218Y186348D01*
X224234Y186335D01*
X224246Y186319D01*
X224378Y186217D01*
X225028Y185818D01*
X224630Y185168D01*
X224622Y185149D01*
X224610Y185133D01*
X224576Y185036D01*
X224537Y184940D01*
X224536Y184920D01*
X224529Y184901D01*
X224528Y184798D01*
X224521Y184694D01*
X224527Y184675D01*
X224526Y184655D01*
X224558Y184557D01*
X224585Y184457D01*
X224596Y184440D01*
X224602Y184421D01*
X224664Y184338D01*
X224721Y184252D01*
X224737Y184240D01*
X224749Y184224D01*
X224881Y184121D01*
X225720Y183607D01*
X226962Y182845D01*
X226963Y182845D01*
X230534Y180657D01*
X228746Y177739D01*
X228706Y177642D01*
X228662Y177546D01*
X228660Y177528D01*
X228653Y177511D01*
X228646Y177406D01*
X228635Y177302D01*
X228639Y177284D01*
X228637Y177266D01*
X228665Y177164D01*
X228687Y177062D01*
X228696Y177046D01*
X228701Y177028D01*
X228759Y176941D01*
X228813Y176850D01*
X228827Y176839D01*
X228837Y176823D01*
X228920Y176759D01*
X229000Y176691D01*
X229017Y176684D01*
X229031Y176673D01*
X229130Y176638D01*
X229228Y176599D01*
X229250Y176596D01*
X229264Y176592D01*
X229295Y176591D01*
X229395Y176580D01*
X231900Y176580D01*
X234327Y175575D01*
X236292Y173610D01*
X242179Y167722D01*
X242209Y167702D01*
X242232Y167675D01*
X242306Y167626D01*
X242312Y167620D01*
X242318Y167618D01*
X242372Y167582D01*
X245423Y166028D01*
X245510Y165761D01*
X245519Y165743D01*
X245523Y165723D01*
X245575Y165634D01*
X245622Y165542D01*
X245637Y165528D01*
X245647Y165511D01*
X245725Y165443D01*
X245799Y165371D01*
X245817Y165362D01*
X245832Y165349D01*
X245928Y165309D01*
X246021Y165265D01*
X246041Y165262D01*
X246059Y165255D01*
X246163Y165248D01*
X246265Y165235D01*
X246285Y165239D01*
X246305Y165238D01*
X246469Y165272D01*
X246736Y165359D01*
X250088Y163651D01*
X250109Y163644D01*
X250142Y163626D01*
X251748Y162961D01*
X251981Y162728D01*
X252010Y162708D01*
X252033Y162681D01*
X252173Y162588D01*
X255224Y161034D01*
X256004Y158632D01*
X254297Y155281D01*
X254290Y155260D01*
X254272Y155226D01*
X253606Y153620D01*
X253374Y153388D01*
X253353Y153359D01*
X253326Y153335D01*
X253234Y153195D01*
X251680Y150145D01*
X249278Y149364D01*
X248913Y149550D01*
X248890Y149557D01*
X248870Y149570D01*
X248774Y149595D01*
X248679Y149625D01*
X248655Y149624D01*
X248632Y149630D01*
X248533Y149622D01*
X248433Y149621D01*
X248410Y149613D01*
X248387Y149611D01*
X248295Y149572D01*
X248201Y149539D01*
X248182Y149524D01*
X248160Y149515D01*
X248029Y149410D01*
X245420Y146801D01*
X244857Y146567D01*
X244840Y146557D01*
X244822Y146552D01*
X244736Y146493D01*
X244648Y146438D01*
X244635Y146423D01*
X244620Y146412D01*
X244557Y146328D01*
X244491Y146248D01*
X244484Y146230D01*
X244472Y146215D01*
X244440Y146116D01*
X244403Y146019D01*
X244402Y145999D01*
X244396Y145981D01*
X244397Y145877D01*
X244392Y145773D01*
X244398Y145754D01*
X244398Y145735D01*
X244432Y145637D01*
X244461Y145537D01*
X244472Y145521D01*
X244478Y145503D01*
X244542Y145420D01*
X244601Y145335D01*
X244617Y145323D01*
X244628Y145308D01*
X244763Y145208D01*
X246409Y144242D01*
X246879Y143765D01*
X247210Y143183D01*
X247378Y142536D01*
X247374Y141867D01*
X247196Y141222D01*
X246026Y139229D01*
X241473Y141900D01*
X241455Y141907D01*
X241439Y141919D01*
X241341Y141951D01*
X241244Y141988D01*
X241224Y141989D01*
X241205Y141995D01*
X241102Y141995D01*
X240998Y141999D01*
X240979Y141994D01*
X240959Y141993D01*
X240861Y141960D01*
X240762Y141931D01*
X240746Y141920D01*
X240727Y141913D01*
X240645Y141850D01*
X240560Y141791D01*
X240548Y141775D01*
X240532Y141763D01*
X240432Y141628D01*
X240046Y140971D01*
X239388Y141357D01*
X239369Y141364D01*
X239353Y141376D01*
X239255Y141408D01*
X239158Y141445D01*
X239138Y141446D01*
X239119Y141452D01*
X239016Y141451D01*
X238913Y141456D01*
X238893Y141450D01*
X238873Y141450D01*
X238776Y141416D01*
X238676Y141388D01*
X238660Y141376D01*
X238641Y141370D01*
X238559Y141307D01*
X238474Y141248D01*
X238462Y141232D01*
X238446Y141220D01*
X238346Y141085D01*
X235675Y136532D01*
X233681Y137702D01*
X233212Y138178D01*
X233111Y138355D01*
X233084Y138389D01*
X233064Y138428D01*
X233007Y138484D01*
X232957Y138546D01*
X232920Y138570D01*
X232889Y138601D01*
X232817Y138635D01*
X232749Y138678D01*
X232707Y138689D01*
X232667Y138708D01*
X232588Y138718D01*
X232511Y138738D01*
X232467Y138734D01*
X232423Y138740D01*
X232279Y138719D01*
X232266Y138718D01*
X232262Y138716D01*
X232257Y138715D01*
X231352Y138480D01*
X228031Y140428D01*
X228000Y140440D01*
X227937Y140475D01*
X226816Y140939D01*
X226398Y141358D01*
X226387Y141365D01*
X226379Y141376D01*
X226244Y141476D01*
X223136Y143300D01*
X222499Y145744D01*
X223848Y148044D01*
X223890Y148153D01*
X223935Y148262D01*
X223935Y148269D01*
X223937Y148273D01*
X223938Y148290D01*
X223953Y148429D01*
X223953Y153714D01*
X224959Y156141D01*
X226816Y157999D01*
X229244Y159005D01*
X229837Y159005D01*
X229853Y159007D01*
X229868Y159005D01*
X229974Y159027D01*
X230080Y159044D01*
X230094Y159052D01*
X230109Y159055D01*
X230202Y159109D01*
X230297Y159160D01*
X230308Y159171D01*
X230322Y159179D01*
X230393Y159260D01*
X230466Y159338D01*
X230473Y159352D01*
X230484Y159364D01*
X230525Y159464D01*
X230570Y159561D01*
X230572Y159577D01*
X230578Y159592D01*
X230585Y159699D01*
X230597Y159805D01*
X230594Y159821D01*
X230595Y159837D01*
X230561Y160001D01*
X230300Y160803D01*
X230257Y160888D01*
X230219Y160975D01*
X230197Y161003D01*
X230187Y161022D01*
X230164Y161045D01*
X230115Y161106D01*
X228073Y163148D01*
X227999Y163201D01*
X227930Y163260D01*
X227900Y163272D01*
X227873Y163291D01*
X227786Y163318D01*
X227702Y163352D01*
X227661Y163357D01*
X227638Y163364D01*
X227606Y163363D01*
X227535Y163371D01*
X220244Y163371D01*
X220239Y163370D01*
X220233Y163371D01*
X220067Y163350D01*
X218147Y162889D01*
X217538Y163262D01*
X217452Y163297D01*
X217370Y163339D01*
X217339Y163343D01*
X217310Y163355D01*
X217218Y163361D01*
X217126Y163374D01*
X217096Y163368D01*
X217065Y163370D01*
X216975Y163346D01*
X216884Y163330D01*
X216857Y163315D01*
X216827Y163307D01*
X216750Y163255D01*
X216669Y163210D01*
X216648Y163188D01*
X216622Y163171D01*
X216565Y163097D01*
X216503Y163029D01*
X216491Y163001D01*
X216472Y162976D01*
X216441Y162889D01*
X216404Y162804D01*
X216398Y162765D01*
X216391Y162744D01*
X216390Y162712D01*
X216380Y162638D01*
X216373Y162443D01*
X216179Y161803D01*
X214374Y158903D01*
X208745Y162407D01*
X208727Y162414D01*
X208711Y162426D01*
X208614Y162461D01*
X208518Y162501D01*
X208498Y162502D01*
X208479Y162509D01*
X208376Y162511D01*
X208273Y162518D01*
X208253Y162513D01*
X208234Y162514D01*
X208135Y162482D01*
X208035Y162456D01*
X208018Y162445D01*
X207999Y162439D01*
X207916Y162378D01*
X207829Y162322D01*
X207817Y162306D01*
X207800Y162294D01*
X207697Y162163D01*
X206891Y160869D01*
X206884Y160850D01*
X206871Y160835D01*
X206837Y160738D01*
X206797Y160642D01*
X206795Y160622D01*
X206789Y160603D01*
X206787Y160500D01*
X206780Y160396D01*
X206785Y160377D01*
X206784Y160357D01*
X206816Y160258D01*
X206842Y160158D01*
X206852Y160142D01*
X206858Y160123D01*
X206920Y160039D01*
X206976Y159952D01*
X206992Y159940D01*
X207004Y159924D01*
X207135Y159820D01*
X212764Y156317D01*
X210959Y153417D01*
X210470Y152960D01*
X209880Y152645D01*
X209229Y152493D01*
X209124Y152497D01*
X209004Y152481D01*
X208888Y152467D01*
X208884Y152466D01*
X208880Y152465D01*
X208772Y152413D01*
X208665Y152362D01*
X208662Y152359D01*
X208659Y152357D01*
X208574Y152273D01*
X208488Y152191D01*
X208487Y152188D01*
X208484Y152185D01*
X208430Y152078D01*
X208375Y151973D01*
X208374Y151969D01*
X208373Y151965D01*
X208356Y151847D01*
X208337Y151730D01*
X208338Y151725D01*
X208337Y151722D01*
X208340Y151708D01*
X208357Y151563D01*
X208914Y149170D01*
X208745Y148899D01*
X208723Y148847D01*
X208693Y148799D01*
X208676Y148734D01*
X208650Y148672D01*
X208646Y148616D01*
X208633Y148561D01*
X208638Y148494D01*
X208633Y148426D01*
X208647Y148372D01*
X208652Y148316D01*
X208678Y148254D01*
X208695Y148188D01*
X208726Y148141D01*
X208748Y148089D01*
X208813Y148009D01*
X208830Y147983D01*
X208840Y147974D01*
X208853Y147958D01*
X218208Y138603D01*
X218260Y138565D01*
X218307Y138520D01*
X218360Y138494D01*
X218408Y138460D01*
X218470Y138441D01*
X218528Y138412D01*
X218586Y138405D01*
X218643Y138387D01*
X218708Y138389D01*
X218772Y138381D01*
X218855Y138393D01*
X218889Y138394D01*
X218907Y138400D01*
X218938Y138405D01*
X220503Y138813D01*
X223824Y136864D01*
X223855Y136852D01*
X223918Y136817D01*
X225039Y136353D01*
X225457Y135934D01*
X225468Y135927D01*
X225476Y135916D01*
X225610Y135816D01*
X228719Y133992D01*
X228790Y133720D01*
X228798Y133702D01*
X228801Y133682D01*
X228848Y133590D01*
X228890Y133495D01*
X228903Y133481D01*
X228912Y133463D01*
X228986Y133390D01*
X229056Y133314D01*
X229073Y133304D01*
X229088Y133290D01*
X229180Y133245D01*
X229271Y133195D01*
X229291Y133191D01*
X229309Y133183D01*
X229411Y133169D01*
X229513Y133151D01*
X229533Y133154D01*
X229553Y133151D01*
X229719Y133175D01*
X229991Y133246D01*
X233312Y131298D01*
X233342Y131286D01*
X233406Y131251D01*
X234526Y130787D01*
X234945Y130368D01*
X234956Y130360D01*
X234964Y130350D01*
X235098Y130250D01*
X238207Y128426D01*
X238843Y125982D01*
X236895Y122661D01*
X236883Y122630D01*
X236848Y122567D01*
X236384Y121446D01*
X235965Y121028D01*
X235958Y121017D01*
X235947Y121009D01*
X235847Y120875D01*
X234023Y117766D01*
X232439Y117353D01*
X232332Y117306D01*
X232223Y117260D01*
X232218Y117255D01*
X232214Y117254D01*
X232201Y117242D01*
X232092Y117155D01*
X231986Y117049D01*
X229639Y116076D01*
X229583Y116042D01*
X229523Y116016D01*
X229458Y115964D01*
X229429Y115946D01*
X229417Y115931D01*
X229392Y115911D01*
X229226Y115746D01*
X227261Y113781D01*
X225566Y113079D01*
X225562Y113076D01*
X225558Y113075D01*
X225457Y113011D01*
X225357Y112949D01*
X225354Y112945D01*
X225350Y112943D01*
X225276Y112851D01*
X225200Y112760D01*
X225199Y112755D01*
X225196Y112752D01*
X225154Y112640D01*
X225112Y112530D01*
X225112Y112525D01*
X225110Y112521D01*
X225107Y112402D01*
X225102Y112284D01*
X225103Y112280D01*
X225103Y112275D01*
X225137Y112161D01*
X225170Y112048D01*
X225173Y112044D01*
X225174Y112040D01*
X225243Y111943D01*
X225310Y111846D01*
X225314Y111843D01*
X225317Y111839D01*
X225447Y111734D01*
X227111Y110670D01*
X227562Y110176D01*
X227870Y109582D01*
X228014Y108929D01*
X227983Y108260D01*
X227781Y107623D01*
X226536Y105675D01*
X222089Y108519D01*
X222071Y108527D01*
X222055Y108540D01*
X221958Y108576D01*
X221863Y108617D01*
X221843Y108618D01*
X221824Y108625D01*
X221721Y108628D01*
X221618Y108637D01*
X221598Y108632D01*
X221579Y108633D01*
X221480Y108603D01*
X221379Y108578D01*
X221362Y108567D01*
X221343Y108561D01*
X221259Y108501D01*
X221172Y108446D01*
X221159Y108430D01*
X221143Y108419D01*
X221037Y108288D01*
X220627Y107646D01*
X219984Y108057D01*
X219966Y108064D01*
X219950Y108077D01*
X219853Y108113D01*
X219758Y108154D01*
X219738Y108156D01*
X219719Y108162D01*
X219616Y108166D01*
X219513Y108174D01*
X219494Y108169D01*
X219474Y108170D01*
X219375Y108140D01*
X219274Y108115D01*
X219257Y108104D01*
X219238Y108099D01*
X219154Y108039D01*
X219067Y107983D01*
X219054Y107967D01*
X219038Y107956D01*
X218932Y107825D01*
X216089Y103378D01*
X214141Y104624D01*
X213690Y105118D01*
X213597Y105298D01*
X213571Y105333D01*
X213552Y105373D01*
X213497Y105431D01*
X213450Y105495D01*
X213414Y105520D01*
X213384Y105552D01*
X213313Y105590D01*
X213248Y105635D01*
X213205Y105647D01*
X213167Y105668D01*
X213088Y105681D01*
X213011Y105704D01*
X212967Y105702D01*
X212924Y105709D01*
X212779Y105694D01*
X212766Y105693D01*
X212762Y105692D01*
X212757Y105691D01*
X211843Y105490D01*
X208644Y107536D01*
X208616Y107548D01*
X208526Y107598D01*
X207618Y107974D01*
X207070Y108522D01*
X207065Y108525D01*
X206942Y108625D01*
X203819Y110622D01*
X203276Y113089D01*
X205322Y116288D01*
X205334Y116317D01*
X205384Y116407D01*
X205760Y117315D01*
X206308Y117862D01*
X206312Y117867D01*
X206411Y117990D01*
X208408Y121114D01*
X209666Y121391D01*
X209675Y121394D01*
X209684Y121395D01*
X209788Y121439D01*
X209895Y121482D01*
X209902Y121487D01*
X209910Y121491D01*
X210041Y121596D01*
X212749Y124304D01*
X212761Y124320D01*
X212777Y124333D01*
X212833Y124420D01*
X212893Y124504D01*
X212899Y124523D01*
X212910Y124540D01*
X212935Y124640D01*
X212965Y124739D01*
X212965Y124759D01*
X212970Y124778D01*
X212962Y124881D01*
X212959Y124985D01*
X212952Y125003D01*
X212951Y125023D01*
X212910Y125118D01*
X212875Y125216D01*
X212862Y125231D01*
X212854Y125250D01*
X212749Y125381D01*
X198306Y139825D01*
X198303Y139826D01*
X198301Y139829D01*
X198170Y139933D01*
X191681Y143972D01*
X191658Y143981D01*
X191639Y143995D01*
X191545Y144028D01*
X191454Y144066D01*
X191430Y144068D01*
X191407Y144076D01*
X191307Y144076D01*
X191208Y144083D01*
X191185Y144077D01*
X191161Y144077D01*
X191066Y144046D01*
X190970Y144021D01*
X190950Y144008D01*
X190927Y144001D01*
X190848Y143941D01*
X190764Y143887D01*
X190749Y143868D01*
X190730Y143853D01*
X190628Y143720D01*
X186182Y136403D01*
X186145Y136310D01*
X186102Y136219D01*
X186099Y136196D01*
X186090Y136175D01*
X186084Y136074D01*
X186073Y135975D01*
X186077Y135952D01*
X186076Y135929D01*
X186102Y135832D01*
X186123Y135734D01*
X186134Y135714D01*
X186140Y135692D01*
X186196Y135608D01*
X186247Y135522D01*
X186264Y135507D01*
X186277Y135487D01*
X186357Y135426D01*
X186433Y135360D01*
X186458Y135348D01*
X186472Y135337D01*
X186503Y135327D01*
X186584Y135288D01*
X187299Y135041D01*
X190332Y132987D01*
X190287Y132921D01*
X190287Y132920D01*
X189771Y132159D01*
X189256Y131398D01*
X188740Y130637D01*
X188225Y129876D01*
X188225Y129875D01*
X186753Y127702D01*
X186745Y127684D01*
X186732Y127668D01*
X186693Y127572D01*
X186650Y127478D01*
X186648Y127459D01*
X186640Y127440D01*
X186635Y127337D01*
X186623Y127234D01*
X186628Y127214D01*
X186627Y127195D01*
X186654Y127095D01*
X186676Y126994D01*
X186686Y126977D01*
X186692Y126957D01*
X186749Y126872D01*
X186803Y126783D01*
X186818Y126770D01*
X186829Y126753D01*
X186957Y126645D01*
X187588Y126217D01*
X187488Y126069D01*
X187161Y125585D01*
X187152Y125567D01*
X187139Y125552D01*
X187101Y125456D01*
X187058Y125362D01*
X187055Y125342D01*
X187048Y125324D01*
X187042Y125221D01*
X187031Y125118D01*
X187035Y125098D01*
X187034Y125078D01*
X187061Y124979D01*
X187084Y124877D01*
X187094Y124860D01*
X187099Y124841D01*
X187157Y124755D01*
X187210Y124666D01*
X187225Y124653D01*
X187237Y124637D01*
X187364Y124528D01*
X192854Y120811D01*
X191775Y119218D01*
X191260Y118457D01*
X190939Y117983D01*
X190433Y117545D01*
X189832Y117253D01*
X189175Y117126D01*
X189070Y117134D01*
X188953Y117123D01*
X188833Y117113D01*
X188829Y117112D01*
X188825Y117111D01*
X188718Y117064D01*
X188607Y117017D01*
X188604Y117014D01*
X188600Y117012D01*
X188512Y116932D01*
X188424Y116853D01*
X188422Y116849D01*
X188418Y116846D01*
X188360Y116741D01*
X188302Y116639D01*
X188301Y116635D01*
X188299Y116631D01*
X188278Y116514D01*
X188255Y116398D01*
X188255Y116393D01*
X188255Y116389D01*
X188256Y116376D01*
X188268Y116230D01*
X188733Y113818D01*
X188714Y113790D01*
X188684Y113726D01*
X188646Y113666D01*
X188633Y113615D01*
X188611Y113567D01*
X188603Y113496D01*
X188586Y113427D01*
X188590Y113375D01*
X188584Y113322D01*
X188599Y113253D01*
X188605Y113182D01*
X188625Y113134D01*
X188637Y113082D01*
X188673Y113021D01*
X188701Y112956D01*
X188747Y112899D01*
X188763Y112871D01*
X188781Y112856D01*
X188806Y112825D01*
X196647Y104984D01*
X196721Y104931D01*
X196790Y104872D01*
X196820Y104859D01*
X196846Y104841D01*
X196933Y104814D01*
X197018Y104780D01*
X197059Y104775D01*
X197081Y104768D01*
X197114Y104769D01*
X197185Y104761D01*
X197534Y104761D01*
X197583Y104769D01*
X197634Y104768D01*
X197704Y104789D01*
X197776Y104801D01*
X197821Y104824D01*
X197869Y104839D01*
X197929Y104882D01*
X197994Y104916D01*
X198028Y104952D01*
X198069Y104982D01*
X198145Y105076D01*
X198163Y105094D01*
X198167Y105102D01*
X198175Y105112D01*
X198549Y105697D01*
X201016Y106239D01*
X204215Y104194D01*
X204243Y104181D01*
X204334Y104132D01*
X205241Y103756D01*
X205789Y103208D01*
X205794Y103204D01*
X205917Y103105D01*
X209040Y101107D01*
X209101Y100833D01*
X209108Y100814D01*
X209110Y100794D01*
X209154Y100700D01*
X209192Y100604D01*
X209205Y100589D01*
X209213Y100571D01*
X209284Y100495D01*
X209351Y100416D01*
X209368Y100406D01*
X209382Y100392D01*
X209473Y100343D01*
X209561Y100289D01*
X209581Y100285D01*
X209598Y100276D01*
X209701Y100258D01*
X209802Y100236D01*
X209821Y100238D01*
X209841Y100235D01*
X210008Y100253D01*
X210283Y100313D01*
X213482Y98267D01*
X213510Y98255D01*
X213601Y98205D01*
X214508Y97829D01*
X215056Y97282D01*
X215061Y97278D01*
X215184Y97179D01*
X218307Y95181D01*
X218850Y92714D01*
X217247Y90208D01*
X217235Y90180D01*
X217185Y90089D01*
X216366Y88112D01*
X215149Y86895D01*
X215146Y86890D01*
X215046Y86767D01*
X213718Y84689D01*
X212943Y84519D01*
X212934Y84515D01*
X212925Y84515D01*
X212886Y84498D01*
X212861Y84494D01*
X212802Y84463D01*
X212714Y84428D01*
X212707Y84422D01*
X212699Y84418D01*
X212662Y84389D01*
X212643Y84379D01*
X212623Y84358D01*
X212568Y84314D01*
X210980Y82726D01*
X209015Y80761D01*
X206588Y79755D01*
X206059Y79755D01*
X206030Y79751D01*
X206001Y79753D01*
X205909Y79731D01*
X205816Y79716D01*
X205790Y79702D01*
X205762Y79695D01*
X205682Y79645D01*
X205599Y79600D01*
X205579Y79579D01*
X205554Y79563D01*
X205495Y79490D01*
X205430Y79422D01*
X205417Y79395D01*
X205399Y79373D01*
X205366Y79285D01*
X205326Y79199D01*
X205323Y79170D01*
X205313Y79142D01*
X205309Y79048D01*
X205299Y78955D01*
X205305Y78926D01*
X205304Y78896D01*
X205331Y78806D01*
X205351Y78714D01*
X205366Y78689D01*
X205375Y78661D01*
X205429Y78584D01*
X205477Y78503D01*
X205500Y78484D01*
X205517Y78460D01*
X205647Y78354D01*
X206928Y77529D01*
X207377Y77033D01*
X207683Y76438D01*
X207824Y75784D01*
X207791Y75116D01*
X207587Y74479D01*
X206335Y72536D01*
X201898Y75396D01*
X201880Y75404D01*
X201864Y75416D01*
X201767Y75453D01*
X201672Y75494D01*
X201652Y75496D01*
X201634Y75503D01*
X201531Y75506D01*
X201427Y75515D01*
X201408Y75510D01*
X201388Y75511D01*
X201289Y75481D01*
X201188Y75457D01*
X201171Y75446D01*
X201152Y75440D01*
X201068Y75381D01*
X200980Y75325D01*
X200968Y75310D01*
X200951Y75298D01*
X200846Y75168D01*
X200432Y74527D01*
X199791Y74940D01*
X199773Y74948D01*
X199758Y74961D01*
X199661Y74997D01*
X199566Y75038D01*
X199546Y75040D01*
X199527Y75047D01*
X199424Y75051D01*
X199321Y75059D01*
X199301Y75055D01*
X199281Y75055D01*
X199182Y75026D01*
X199082Y75001D01*
X199065Y74991D01*
X199046Y74985D01*
X198961Y74925D01*
X198874Y74870D01*
X198861Y74854D01*
X198845Y74843D01*
X198739Y74713D01*
X195880Y70276D01*
X193937Y71528D01*
X193487Y72023D01*
X193395Y72204D01*
X193369Y72239D01*
X193350Y72279D01*
X193296Y72338D01*
X193248Y72402D01*
X193212Y72427D01*
X193182Y72459D01*
X193112Y72497D01*
X193047Y72543D01*
X193005Y72555D01*
X192966Y72576D01*
X192887Y72589D01*
X192811Y72612D01*
X192767Y72610D01*
X192723Y72617D01*
X192579Y72602D01*
X192565Y72602D01*
X192562Y72601D01*
X192557Y72600D01*
X191642Y72402D01*
X188456Y74456D01*
X188428Y74468D01*
X188334Y74519D01*
X187445Y74888D01*
X186885Y75448D01*
X186876Y75454D01*
X186759Y75549D01*
X183635Y77562D01*
X183101Y80031D01*
X185155Y83218D01*
X185167Y83245D01*
X185218Y83339D01*
X185587Y84228D01*
X186146Y84788D01*
X186153Y84797D01*
X186248Y84914D01*
X188261Y88038D01*
X189491Y88304D01*
X189500Y88308D01*
X189511Y88308D01*
X189614Y88352D01*
X189719Y88394D01*
X189727Y88401D01*
X189737Y88405D01*
X189868Y88510D01*
X189999Y88641D01*
X190037Y88694D01*
X190083Y88741D01*
X190123Y88814D01*
X190143Y88840D01*
X190148Y88859D01*
X190164Y88888D01*
X190667Y90101D01*
X191517Y90952D01*
X191544Y90989D01*
X191578Y91020D01*
X191616Y91089D01*
X191661Y91152D01*
X191674Y91195D01*
X191697Y91236D01*
X191710Y91312D01*
X191733Y91387D01*
X191732Y91433D01*
X191740Y91478D01*
X191729Y91555D01*
X191727Y91633D01*
X191711Y91676D01*
X191705Y91721D01*
X191669Y91791D01*
X191643Y91864D01*
X191614Y91900D01*
X191593Y91940D01*
X191537Y91995D01*
X191489Y92056D01*
X191450Y92081D01*
X191417Y92113D01*
X191298Y92179D01*
X191282Y92189D01*
X191277Y92190D01*
X191270Y92194D01*
X190392Y92557D01*
X188428Y94522D01*
X178649Y104301D01*
X178627Y104316D01*
X178538Y104393D01*
X174032Y107443D01*
X174016Y107451D01*
X174003Y107462D01*
X173905Y107502D01*
X173808Y107547D01*
X173791Y107548D01*
X173776Y107555D01*
X173609Y107574D01*
X173512Y107575D01*
X173510Y107575D01*
X173508Y107575D01*
X172195Y107575D01*
X170986Y108084D01*
X170984Y108084D01*
X170982Y108086D01*
X169986Y108498D01*
X169904Y108517D01*
X169823Y108545D01*
X169784Y108545D01*
X169747Y108554D01*
X169662Y108546D01*
X169577Y108547D01*
X169540Y108535D01*
X169502Y108531D01*
X169424Y108497D01*
X169344Y108470D01*
X169313Y108447D01*
X169277Y108431D01*
X169215Y108374D01*
X169147Y108323D01*
X169116Y108283D01*
X169096Y108265D01*
X169081Y108238D01*
X169044Y108190D01*
X168644Y107531D01*
X168640Y107522D01*
X168634Y107514D01*
X168594Y107408D01*
X168552Y107303D01*
X168551Y107293D01*
X168548Y107284D01*
X168544Y107171D01*
X168537Y107057D01*
X168540Y107048D01*
X168539Y107038D01*
X168572Y106929D01*
X168602Y106820D01*
X168607Y106812D01*
X168610Y106802D01*
X168675Y106710D01*
X168739Y106615D01*
X168746Y106609D01*
X168752Y106602D01*
X168882Y106496D01*
X171541Y104782D01*
X168083Y99417D01*
X168075Y99398D01*
X168063Y99383D01*
X168026Y99286D01*
X167985Y99191D01*
X167983Y99171D01*
X167976Y99153D01*
X167973Y99049D01*
X167964Y98946D01*
X167969Y98927D01*
X167968Y98907D01*
X167998Y98808D01*
X168022Y98707D01*
X168033Y98690D01*
X168039Y98671D01*
X168098Y98587D01*
X168154Y98499D01*
X168169Y98487D01*
X168181Y98470D01*
X168311Y98364D01*
X168952Y97951D01*
X168539Y97310D01*
X168531Y97292D01*
X168518Y97276D01*
X168482Y97179D01*
X168441Y97085D01*
X168439Y97065D01*
X168432Y97046D01*
X168428Y96943D01*
X168419Y96839D01*
X168424Y96820D01*
X168424Y96800D01*
X168453Y96701D01*
X168478Y96600D01*
X168488Y96584D01*
X168494Y96565D01*
X168554Y96480D01*
X168609Y96393D01*
X168625Y96380D01*
X168636Y96364D01*
X168766Y96258D01*
X174339Y92667D01*
X172488Y89795D01*
X171993Y89346D01*
X171398Y89040D01*
X170744Y88899D01*
X170639Y88904D01*
X170521Y88890D01*
X170403Y88878D01*
X170399Y88877D01*
X170395Y88876D01*
X170287Y88826D01*
X170179Y88776D01*
X170176Y88774D01*
X170172Y88772D01*
X170087Y88690D01*
X169999Y88608D01*
X169997Y88605D01*
X169994Y88602D01*
X169939Y88498D01*
X169882Y88392D01*
X169882Y88388D01*
X169880Y88384D01*
X169861Y88267D01*
X169841Y88150D01*
X169841Y88145D01*
X169841Y88141D01*
X169843Y88128D01*
X169858Y87983D01*
X170377Y85581D01*
X170267Y85410D01*
X170242Y85353D01*
X170208Y85301D01*
X170193Y85241D01*
X170169Y85185D01*
X170163Y85123D01*
X170148Y85062D01*
X170153Y85001D01*
X170148Y84940D01*
X170162Y84879D01*
X170167Y84817D01*
X170191Y84761D01*
X170206Y84701D01*
X170239Y84648D01*
X170264Y84591D01*
X170320Y84521D01*
X170337Y84493D01*
X170351Y84482D01*
X170368Y84460D01*
X183071Y71757D01*
X183079Y71751D01*
X183197Y71656D01*
X184003Y71136D01*
X184031Y71124D01*
X184124Y71072D01*
X185014Y70704D01*
X185574Y70144D01*
X185583Y70138D01*
X185700Y70043D01*
X188824Y68029D01*
X188883Y67754D01*
X188890Y67736D01*
X188892Y67716D01*
X188935Y67622D01*
X188973Y67525D01*
X188986Y67510D01*
X188994Y67492D01*
X189065Y67417D01*
X189132Y67337D01*
X189149Y67327D01*
X189162Y67312D01*
X189253Y67263D01*
X189342Y67209D01*
X189361Y67205D01*
X189379Y67196D01*
X189481Y67178D01*
X189582Y67155D01*
X189602Y67157D01*
X189621Y67154D01*
X189788Y67171D01*
X190063Y67231D01*
X193249Y65177D01*
X193277Y65165D01*
X193370Y65114D01*
X194260Y64745D01*
X194820Y64185D01*
X194829Y64179D01*
X194946Y64084D01*
X198070Y62071D01*
X198604Y59602D01*
X196550Y56416D01*
X196538Y56388D01*
X196487Y56294D01*
X196118Y55405D01*
X195558Y54845D01*
X195552Y54836D01*
X195457Y54719D01*
X193444Y51595D01*
X190975Y51061D01*
X190646Y51273D01*
X190588Y51298D01*
X190536Y51332D01*
X190476Y51347D01*
X190420Y51372D01*
X190358Y51377D01*
X190297Y51392D01*
X190236Y51387D01*
X190175Y51393D01*
X190114Y51378D01*
X190052Y51373D01*
X189996Y51349D01*
X189936Y51334D01*
X189883Y51301D01*
X189826Y51277D01*
X189756Y51221D01*
X189728Y51203D01*
X189717Y51190D01*
X189695Y51172D01*
X188229Y49706D01*
X186264Y47741D01*
X185136Y47273D01*
X185032Y47209D01*
X184931Y47147D01*
X184929Y47145D01*
X184927Y47144D01*
X184848Y47049D01*
X184773Y46959D01*
X184772Y46957D01*
X184770Y46954D01*
X184727Y46842D01*
X184683Y46730D01*
X184682Y46727D01*
X184682Y46725D01*
X184676Y46605D01*
X184670Y46485D01*
X184671Y46482D01*
X184671Y46479D01*
X184705Y46363D01*
X184737Y46248D01*
X184739Y46245D01*
X184740Y46243D01*
X184808Y46144D01*
X184876Y46045D01*
X184879Y46043D01*
X184880Y46041D01*
X184888Y46035D01*
X185005Y45937D01*
X187436Y44315D01*
X187877Y43813D01*
X188174Y43213D01*
X188305Y42557D01*
X188262Y41890D01*
X188047Y41256D01*
X186765Y39333D01*
X182373Y42262D01*
X182355Y42270D01*
X182340Y42283D01*
X182243Y42321D01*
X182149Y42363D01*
X182129Y42365D01*
X182111Y42373D01*
X182007Y42378D01*
X181904Y42388D01*
X181885Y42384D01*
X181865Y42385D01*
X181765Y42357D01*
X181664Y42334D01*
X181647Y42324D01*
X181628Y42318D01*
X181543Y42260D01*
X181454Y42206D01*
X181442Y42191D01*
X181425Y42179D01*
X181317Y42051D01*
X180894Y41416D01*
X180260Y41840D01*
X180241Y41848D01*
X180226Y41861D01*
X180130Y41898D01*
X180036Y41941D01*
X180016Y41943D01*
X179997Y41950D01*
X179894Y41956D01*
X179791Y41966D01*
X179771Y41962D01*
X179752Y41963D01*
X179652Y41935D01*
X179551Y41912D01*
X179534Y41901D01*
X179515Y41896D01*
X179429Y41837D01*
X179341Y41784D01*
X179328Y41768D01*
X179312Y41757D01*
X179204Y41629D01*
X176275Y37237D01*
X174352Y38519D01*
X173911Y39022D01*
X173821Y39204D01*
X173795Y39240D01*
X173778Y39280D01*
X173742Y39319D01*
X173724Y39350D01*
X173705Y39366D01*
X173677Y39404D01*
X173642Y39430D01*
X173612Y39462D01*
X173554Y39495D01*
X173537Y39510D01*
X173524Y39515D01*
X173478Y39548D01*
X173436Y39561D01*
X173398Y39582D01*
X173320Y39597D01*
X173309Y39601D01*
X173304Y39602D01*
X173243Y39621D01*
X173199Y39620D01*
X173156Y39628D01*
X173011Y39615D01*
X172997Y39615D01*
X172994Y39614D01*
X172989Y39613D01*
X172071Y39430D01*
X168945Y41515D01*
X168923Y41525D01*
X168814Y41585D01*
X168001Y41922D01*
X167385Y42537D01*
X167366Y42551D01*
X167269Y42632D01*
X164146Y44715D01*
X163652Y47192D01*
X165010Y49228D01*
X165017Y49243D01*
X165027Y49256D01*
X165067Y49356D01*
X165111Y49452D01*
X165113Y49469D01*
X165119Y49484D01*
X165138Y49651D01*
X165138Y51375D01*
X166143Y53802D01*
X168108Y55767D01*
X169315Y56974D01*
X171280Y58939D01*
X173708Y59945D01*
X174364Y59945D01*
X174435Y59956D01*
X174507Y59958D01*
X174556Y59976D01*
X174607Y59984D01*
X174670Y60018D01*
X174738Y60043D01*
X174779Y60075D01*
X174825Y60100D01*
X174874Y60151D01*
X174930Y60196D01*
X174958Y60240D01*
X174994Y60278D01*
X175024Y60343D01*
X175063Y60403D01*
X175076Y60454D01*
X175098Y60501D01*
X175105Y60572D01*
X175123Y60642D01*
X175119Y60694D01*
X175125Y60745D01*
X175109Y60816D01*
X175104Y60887D01*
X175083Y60935D01*
X175072Y60986D01*
X175036Y61047D01*
X175008Y61113D01*
X174963Y61169D01*
X174946Y61197D01*
X174928Y61212D01*
X174903Y61244D01*
X174677Y61470D01*
X174469Y61678D01*
X174460Y61684D01*
X174343Y61780D01*
X173722Y62180D01*
X173702Y62274D01*
X173698Y62284D01*
X173697Y62294D01*
X173653Y62398D01*
X173611Y62503D01*
X173605Y62511D01*
X173601Y62520D01*
X173496Y62651D01*
X161937Y74210D01*
X161896Y74240D01*
X161862Y74276D01*
X161797Y74311D01*
X161737Y74354D01*
X161689Y74369D01*
X161645Y74392D01*
X161572Y74405D01*
X161502Y74426D01*
X161452Y74425D01*
X161403Y74433D01*
X161330Y74422D01*
X161256Y74420D01*
X161209Y74403D01*
X161160Y74395D01*
X161094Y74361D01*
X161025Y74336D01*
X160986Y74304D01*
X160942Y74281D01*
X160890Y74228D01*
X160833Y74182D01*
X160806Y74140D01*
X160771Y74104D01*
X160740Y74037D01*
X160700Y73975D01*
X160688Y73927D01*
X160666Y73881D01*
X160646Y73761D01*
X160640Y73736D01*
X160640Y73728D01*
X160638Y73716D01*
X160631Y73585D01*
X160421Y72950D01*
X158545Y70095D01*
X153004Y73735D01*
X152986Y73743D01*
X152971Y73756D01*
X152874Y73793D01*
X152780Y73835D01*
X152760Y73837D01*
X152741Y73844D01*
X152638Y73849D01*
X152535Y73858D01*
X152515Y73854D01*
X152495Y73855D01*
X152396Y73826D01*
X152295Y73802D01*
X152278Y73792D01*
X152259Y73786D01*
X152174Y73727D01*
X152086Y73673D01*
X152073Y73657D01*
X152057Y73646D01*
X151950Y73517D01*
X151113Y72243D01*
X151105Y72225D01*
X151093Y72210D01*
X151055Y72113D01*
X151013Y72018D01*
X151011Y71999D01*
X151004Y71980D01*
X151000Y71877D01*
X150990Y71774D01*
X150995Y71754D01*
X150994Y71734D01*
X151023Y71635D01*
X151046Y71534D01*
X151057Y71517D01*
X151062Y71498D01*
X151121Y71413D01*
X151176Y71325D01*
X151191Y71312D01*
X151202Y71296D01*
X151332Y71189D01*
X156873Y67549D01*
X154997Y64694D01*
X154498Y64249D01*
X153900Y63949D01*
X153245Y63813D01*
X153141Y63819D01*
X153021Y63806D01*
X152904Y63795D01*
X152900Y63794D01*
X152896Y63793D01*
X152787Y63744D01*
X152679Y63695D01*
X152676Y63693D01*
X152672Y63691D01*
X152586Y63610D01*
X152498Y63529D01*
X152496Y63525D01*
X152493Y63523D01*
X152436Y63417D01*
X152379Y63314D01*
X152379Y63310D01*
X152377Y63306D01*
X152357Y63188D01*
X152336Y63072D01*
X152336Y63067D01*
X152335Y63063D01*
X152338Y63050D01*
X152351Y62905D01*
X152625Y61583D01*
X152627Y61577D01*
X152628Y61567D01*
X152795Y60844D01*
X152802Y60763D01*
X152802Y60732D01*
X152806Y60719D01*
X152809Y60697D01*
X152849Y60499D01*
X152802Y60426D01*
X152775Y60366D01*
X152739Y60311D01*
X152715Y60232D01*
X152701Y60201D01*
X152700Y60182D01*
X152690Y60151D01*
X152501Y59157D01*
X152498Y59044D01*
X152492Y58929D01*
X152494Y58919D01*
X152494Y58912D01*
X152501Y58889D01*
X152529Y58766D01*
X153388Y56285D01*
X153348Y55622D01*
X153352Y55587D01*
X153350Y55567D01*
X153358Y55530D01*
X153360Y55507D01*
X153370Y55393D01*
X153373Y55385D01*
X153374Y55377D01*
X153421Y55273D01*
X153467Y55167D01*
X153473Y55159D01*
X153476Y55153D01*
X153491Y55137D01*
X153572Y55036D01*
X153718Y54891D01*
X153744Y54873D01*
X153793Y54826D01*
X154456Y54320D01*
X154627Y54026D01*
X154637Y54013D01*
X154644Y53998D01*
X154749Y53868D01*
X154990Y53628D01*
X155312Y52858D01*
X155329Y52831D01*
X155356Y52770D01*
X155776Y52048D01*
X155821Y51711D01*
X155825Y51695D01*
X155826Y51679D01*
X155872Y51522D01*
X155872Y51520D01*
X155873Y51518D01*
X156004Y51204D01*
X156007Y50369D01*
X156012Y50338D01*
X156014Y50271D01*
X156125Y49443D01*
X156038Y49115D01*
X156036Y49099D01*
X156030Y49084D01*
X156012Y48917D01*
X156014Y48577D01*
X155809Y48077D01*
X155783Y47965D01*
X155755Y47853D01*
X155755Y47845D01*
X155754Y47838D01*
X155765Y47722D01*
X155774Y47608D01*
X155777Y47601D01*
X155777Y47593D01*
X155825Y47487D01*
X155870Y47381D01*
X155876Y47374D01*
X155878Y47369D01*
X155893Y47353D01*
X155975Y47250D01*
X165946Y37279D01*
X165965Y37266D01*
X166062Y37184D01*
X169185Y35102D01*
X169240Y34826D01*
X169247Y34807D01*
X169249Y34787D01*
X169290Y34692D01*
X169326Y34596D01*
X169339Y34580D01*
X169347Y34562D01*
X169416Y34485D01*
X169482Y34405D01*
X169499Y34394D01*
X169512Y34380D01*
X169602Y34329D01*
X169690Y34274D01*
X169709Y34269D01*
X169727Y34259D01*
X169828Y34240D01*
X169929Y34216D01*
X169949Y34218D01*
X169968Y34214D01*
X170135Y34228D01*
X170411Y34284D01*
X178336Y28998D01*
X178831Y26522D01*
X173546Y18597D01*
X171069Y18102D01*
X163144Y23387D01*
X163089Y23663D01*
X163082Y23682D01*
X163080Y23701D01*
X163039Y23796D01*
X163003Y23893D01*
X162990Y23909D01*
X162982Y23927D01*
X162913Y24004D01*
X162847Y24084D01*
X162830Y24094D01*
X162817Y24109D01*
X162727Y24160D01*
X162639Y24215D01*
X162620Y24220D01*
X162602Y24229D01*
X162501Y24248D01*
X162400Y24273D01*
X162380Y24271D01*
X162361Y24275D01*
X162194Y24260D01*
X161918Y24205D01*
X158791Y26290D01*
X158769Y26300D01*
X158660Y26360D01*
X157847Y26697D01*
X157232Y27313D01*
X157213Y27326D01*
X157116Y27408D01*
X153993Y29490D01*
X153773Y30590D01*
X153767Y30606D01*
X153766Y30622D01*
X153724Y30720D01*
X153686Y30821D01*
X153676Y30833D01*
X153670Y30848D01*
X153565Y30979D01*
X152684Y31860D01*
X152626Y31902D01*
X152574Y31951D01*
X152527Y31973D01*
X152485Y32004D01*
X152416Y32025D01*
X152351Y32055D01*
X152299Y32061D01*
X152249Y32076D01*
X152178Y32074D01*
X152107Y32082D01*
X152056Y32071D01*
X152004Y32070D01*
X151936Y32045D01*
X151866Y32030D01*
X151822Y32003D01*
X151773Y31985D01*
X151717Y31940D01*
X151655Y31903D01*
X151621Y31864D01*
X151581Y31831D01*
X151542Y31771D01*
X151495Y31717D01*
X151476Y31668D01*
X151448Y31624D01*
X151430Y31555D01*
X151403Y31488D01*
X151395Y31417D01*
X151387Y31386D01*
X151389Y31363D01*
X151385Y31322D01*
X151385Y21041D01*
X150427Y18728D01*
X150412Y18664D01*
X150387Y18603D01*
X150378Y18521D01*
X150371Y18489D01*
X150372Y18469D01*
X150369Y18437D01*
X150369Y-28792D01*
X148697Y-32829D01*
X148691Y-32853D01*
X148679Y-32875D01*
X148663Y-32972D01*
X148640Y-33069D01*
X148643Y-33093D01*
X148639Y-33117D01*
X148654Y-33215D01*
X148664Y-33313D01*
X148674Y-33336D01*
X148677Y-33360D01*
X148723Y-33448D01*
X148764Y-33538D01*
X148780Y-33556D01*
X148792Y-33578D01*
X148863Y-33646D01*
X148930Y-33719D01*
X148952Y-33731D01*
X148969Y-33748D01*
X149059Y-33790D01*
X149145Y-33838D01*
X149170Y-33842D01*
X149192Y-33853D01*
X149358Y-33880D01*
X155448Y-34220D01*
X155461Y-34219D01*
X155474Y-34221D01*
X155583Y-34206D01*
G37*
G36*
X139730Y69195D02*
X139730Y69195D01*
X139752Y69196D01*
X139758Y69198D01*
X139768Y69199D01*
X142050Y69671D01*
X142159Y69713D01*
X142272Y69755D01*
X142276Y69758D01*
X142279Y69760D01*
X142370Y69835D01*
X142464Y69910D01*
X142466Y69914D01*
X142469Y69916D01*
X142531Y70016D01*
X142595Y70118D01*
X142596Y70122D01*
X142599Y70125D01*
X142626Y70241D01*
X142654Y70357D01*
X142654Y70361D01*
X142655Y70365D01*
X142644Y70483D01*
X142634Y70602D01*
X142632Y70606D01*
X142632Y70610D01*
X142626Y70622D01*
X142575Y70759D01*
X142528Y70853D01*
X142393Y71508D01*
X142431Y72176D01*
X142641Y72811D01*
X144517Y75666D01*
X150058Y72026D01*
X150076Y72018D01*
X150091Y72005D01*
X150188Y71968D01*
X150282Y71926D01*
X150302Y71924D01*
X150321Y71917D01*
X150424Y71912D01*
X150527Y71903D01*
X150547Y71907D01*
X150567Y71906D01*
X150666Y71935D01*
X150767Y71959D01*
X150784Y71969D01*
X150803Y71975D01*
X150888Y72034D01*
X150976Y72088D01*
X150989Y72103D01*
X151005Y72115D01*
X151112Y72244D01*
X151949Y73518D01*
X151957Y73536D01*
X151969Y73551D01*
X152007Y73648D01*
X152049Y73742D01*
X152051Y73762D01*
X152058Y73781D01*
X152062Y73884D01*
X152072Y73987D01*
X152067Y74007D01*
X152068Y74027D01*
X152039Y74126D01*
X152016Y74227D01*
X152005Y74244D01*
X152000Y74263D01*
X151941Y74348D01*
X151886Y74436D01*
X151871Y74449D01*
X151860Y74465D01*
X151730Y74572D01*
X146189Y78212D01*
X147983Y80943D01*
X147997Y80974D01*
X148017Y81000D01*
X148047Y81085D01*
X148084Y81168D01*
X148087Y81201D01*
X148097Y81232D01*
X148098Y81323D01*
X148107Y81413D01*
X148099Y81445D01*
X148099Y81478D01*
X148071Y81564D01*
X148051Y81652D01*
X148033Y81680D01*
X148023Y81712D01*
X147969Y81785D01*
X147921Y81861D01*
X147896Y81883D01*
X147876Y81909D01*
X147743Y82012D01*
X146372Y82846D01*
X146051Y83285D01*
X146004Y83331D01*
X145965Y83383D01*
X145899Y83434D01*
X145876Y83457D01*
X145858Y83466D01*
X145832Y83486D01*
X145056Y83957D01*
X144274Y85026D01*
X143504Y86078D01*
X143194Y87349D01*
X143194Y87350D01*
X142881Y88630D01*
X143081Y89916D01*
X143081Y89917D01*
X143283Y91227D01*
X143975Y92365D01*
X143976Y92365D01*
X160295Y119231D01*
X160296Y119231D01*
X160774Y120018D01*
X160786Y120049D01*
X160825Y120118D01*
X161123Y120827D01*
X161412Y121113D01*
X161418Y121120D01*
X161425Y121126D01*
X161527Y121259D01*
X182095Y155118D01*
X182099Y155125D01*
X182104Y155132D01*
X182171Y155285D01*
X182296Y155683D01*
X182783Y156265D01*
X182799Y156294D01*
X182849Y156358D01*
X183322Y157136D01*
X183322Y157137D01*
X190777Y169409D01*
X190797Y169458D01*
X190825Y169502D01*
X190840Y169560D01*
X190853Y169589D01*
X190854Y169601D01*
X190869Y169637D01*
X190872Y169690D01*
X190885Y169740D01*
X190879Y169812D01*
X190884Y169883D01*
X190870Y169933D01*
X190866Y169986D01*
X190838Y170051D01*
X190819Y170120D01*
X190790Y170164D01*
X190770Y170212D01*
X190698Y170301D01*
X190682Y170325D01*
X190674Y170331D01*
X190665Y170343D01*
X190035Y170972D01*
X189961Y171025D01*
X189892Y171085D01*
X189862Y171097D01*
X189836Y171116D01*
X189749Y171143D01*
X189664Y171177D01*
X189623Y171181D01*
X189601Y171188D01*
X189568Y171187D01*
X189497Y171195D01*
X87969Y171195D01*
X87900Y171184D01*
X87831Y171183D01*
X87780Y171164D01*
X87726Y171156D01*
X87665Y171123D01*
X87599Y171099D01*
X87557Y171066D01*
X87509Y171040D01*
X87461Y170990D01*
X87406Y170947D01*
X87377Y170901D01*
X87340Y170862D01*
X87310Y170799D01*
X87272Y170741D01*
X87259Y170688D01*
X87236Y170639D01*
X87228Y170570D01*
X87211Y170502D01*
X87215Y170448D01*
X87209Y170395D01*
X87224Y170327D01*
X87229Y170257D01*
X87254Y170186D01*
X87261Y170154D01*
X87272Y170135D01*
X87285Y170099D01*
X95855Y152599D01*
X95893Y152546D01*
X95923Y152487D01*
X95978Y152425D01*
X95998Y152398D01*
X96013Y152387D01*
X96035Y152363D01*
X96659Y151812D01*
X96687Y151795D01*
X96762Y151736D01*
X97351Y151372D01*
X97634Y150979D01*
X97635Y150978D01*
X97635Y150977D01*
X97748Y150853D01*
X98111Y150532D01*
X98415Y149911D01*
X98434Y149884D01*
X98481Y149801D01*
X98885Y149239D01*
X98996Y148768D01*
X98997Y148767D01*
X98997Y148765D01*
X99054Y148607D01*
X112494Y121160D01*
X112519Y121126D01*
X112535Y121087D01*
X112632Y120966D01*
X112637Y120960D01*
X112638Y120959D01*
X112640Y120957D01*
X112701Y120895D01*
X113116Y119895D01*
X113125Y119879D01*
X113135Y119851D01*
X113612Y118879D01*
X113617Y118792D01*
X113627Y118751D01*
X113627Y118709D01*
X113670Y118560D01*
X113672Y118552D01*
X113673Y118550D01*
X113674Y118548D01*
X113707Y118467D01*
X113707Y117495D01*
X113710Y117476D01*
X113708Y117458D01*
X113730Y117355D01*
X113747Y117252D01*
X113756Y117236D01*
X113759Y117217D01*
X113813Y117127D01*
X113862Y117035D01*
X113875Y117022D01*
X113885Y117006D01*
X114006Y116890D01*
X114654Y116395D01*
X114713Y116294D01*
X114738Y116264D01*
X114755Y116229D01*
X114868Y116105D01*
X114955Y116028D01*
X115419Y115081D01*
X115431Y115065D01*
X115444Y115034D01*
X115973Y114123D01*
X115989Y114007D01*
X116000Y113970D01*
X116003Y113931D01*
X116060Y113773D01*
X132565Y80067D01*
X132603Y80013D01*
X132633Y79955D01*
X132689Y79893D01*
X132708Y79866D01*
X132724Y79855D01*
X132746Y79830D01*
X133710Y78980D01*
X133722Y78973D01*
X133737Y78957D01*
X134630Y78240D01*
X134640Y78220D01*
X134670Y78182D01*
X134692Y78139D01*
X134778Y78044D01*
X134792Y78026D01*
X134798Y78022D01*
X134805Y78015D01*
X134821Y78000D01*
X135325Y76971D01*
X135333Y76960D01*
X135341Y76940D01*
X135891Y75935D01*
X135894Y75913D01*
X135907Y75866D01*
X135910Y75818D01*
X135954Y75698D01*
X135960Y75676D01*
X135963Y75670D01*
X135967Y75660D01*
X138930Y69609D01*
X138958Y69570D01*
X138977Y69527D01*
X139028Y69471D01*
X139072Y69409D01*
X139111Y69381D01*
X139144Y69346D01*
X139210Y69309D01*
X139271Y69264D01*
X139317Y69250D01*
X139359Y69227D01*
X139434Y69213D01*
X139506Y69191D01*
X139554Y69192D01*
X139601Y69183D01*
X139730Y69195D01*
G37*
G36*
X86216Y103396D02*
X86216Y103396D01*
X86307Y103403D01*
X86337Y103416D01*
X86369Y103421D01*
X86450Y103463D01*
X86534Y103499D01*
X86566Y103525D01*
X86587Y103536D01*
X86609Y103559D01*
X86665Y103604D01*
X89942Y106881D01*
X89971Y106921D01*
X90007Y106955D01*
X90042Y107021D01*
X90086Y107081D01*
X90100Y107128D01*
X90123Y107171D01*
X90136Y107245D01*
X90158Y107316D01*
X90157Y107365D01*
X90165Y107414D01*
X90153Y107487D01*
X90152Y107562D01*
X90135Y107608D01*
X90127Y107657D01*
X90075Y107770D01*
X90067Y107793D01*
X90062Y107799D01*
X90058Y107809D01*
X89822Y108205D01*
X90424Y110587D01*
X90434Y110705D01*
X90446Y110824D01*
X90445Y110828D01*
X90445Y110832D01*
X90418Y110946D01*
X90390Y111063D01*
X90388Y111067D01*
X90387Y111071D01*
X90324Y111171D01*
X90261Y111273D01*
X90258Y111275D01*
X90256Y111279D01*
X90163Y111354D01*
X90072Y111430D01*
X90068Y111431D01*
X90065Y111434D01*
X89953Y111476D01*
X89843Y111519D01*
X89838Y111519D01*
X89835Y111520D01*
X89821Y111521D01*
X89676Y111535D01*
X89571Y111533D01*
X88922Y111697D01*
X88338Y112024D01*
X87859Y112490D01*
X86110Y115424D01*
X91804Y118819D01*
X91820Y118832D01*
X91838Y118840D01*
X91913Y118911D01*
X91992Y118977D01*
X92003Y118994D01*
X92017Y119008D01*
X92066Y119099D01*
X92120Y119187D01*
X92125Y119207D01*
X92134Y119224D01*
X92152Y119326D01*
X92174Y119427D01*
X92172Y119447D01*
X92176Y119467D01*
X92160Y119569D01*
X92149Y119672D01*
X92141Y119690D01*
X92138Y119710D01*
X92068Y119863D01*
X91678Y120518D01*
X92333Y120908D01*
X92348Y120921D01*
X92366Y120929D01*
X92442Y121000D01*
X92521Y121067D01*
X92531Y121084D01*
X92546Y121097D01*
X92595Y121188D01*
X92649Y121277D01*
X92653Y121296D01*
X92663Y121314D01*
X92680Y121416D01*
X92703Y121517D01*
X92701Y121537D01*
X92704Y121556D01*
X92689Y121658D01*
X92678Y121761D01*
X92670Y121780D01*
X92667Y121799D01*
X92597Y121952D01*
X89329Y127435D01*
X92474Y129310D01*
X92757Y129390D01*
X92837Y129427D01*
X92920Y129457D01*
X92948Y129479D01*
X92980Y129494D01*
X93043Y129555D01*
X93112Y129610D01*
X93132Y129640D01*
X93158Y129664D01*
X93199Y129742D01*
X93247Y129816D01*
X93255Y129850D01*
X93272Y129882D01*
X93286Y129969D01*
X93308Y130054D01*
X93305Y130090D01*
X93311Y130125D01*
X93296Y130212D01*
X93290Y130299D01*
X93275Y130343D01*
X93270Y130367D01*
X93256Y130395D01*
X93233Y130457D01*
X91606Y133782D01*
X91566Y133837D01*
X91536Y133897D01*
X91495Y133936D01*
X91463Y133982D01*
X91408Y134022D01*
X91360Y134069D01*
X91309Y134094D01*
X91264Y134127D01*
X91199Y134147D01*
X91139Y134177D01*
X91083Y134184D01*
X91029Y134200D01*
X90962Y134199D01*
X90895Y134208D01*
X90840Y134197D01*
X90784Y134195D01*
X90720Y134172D01*
X90653Y134159D01*
X90583Y134123D01*
X90552Y134112D01*
X90536Y134099D01*
X90504Y134083D01*
X83594Y129544D01*
X83580Y129531D01*
X83473Y129446D01*
X79724Y125696D01*
X77759Y123731D01*
X75331Y122726D01*
X59796Y122726D01*
X59691Y122708D01*
X59584Y122696D01*
X59566Y122688D01*
X59553Y122686D01*
X59526Y122672D01*
X59429Y122631D01*
X58887Y122333D01*
X58843Y122299D01*
X58793Y122272D01*
X58746Y122223D01*
X58693Y122181D01*
X58662Y122135D01*
X58624Y122094D01*
X58595Y122032D01*
X58558Y121976D01*
X58544Y121922D01*
X58520Y121871D01*
X58513Y121804D01*
X58495Y121738D01*
X58499Y121682D01*
X58493Y121627D01*
X58508Y121560D01*
X58512Y121492D01*
X58533Y121441D01*
X58545Y121386D01*
X58580Y121328D01*
X58606Y121265D01*
X58643Y121223D01*
X58672Y121175D01*
X58723Y121131D01*
X58768Y121080D01*
X58816Y121052D01*
X58858Y121015D01*
X58921Y120990D01*
X58980Y120955D01*
X59035Y120944D01*
X59087Y120923D01*
X59191Y120912D01*
X59221Y120905D01*
X59233Y120907D01*
X59253Y120905D01*
X64580Y120905D01*
X67007Y119899D01*
X68972Y117934D01*
X72652Y114254D01*
X72748Y114185D01*
X72846Y114114D01*
X72850Y114112D01*
X72852Y114111D01*
X72861Y114108D01*
X73003Y114055D01*
X74527Y113669D01*
X76383Y110556D01*
X76390Y110548D01*
X76394Y110539D01*
X76499Y110408D01*
X76940Y109966D01*
X77387Y108888D01*
X77404Y108860D01*
X77436Y108789D01*
X79405Y105487D01*
X79336Y105214D01*
X79334Y105194D01*
X79327Y105176D01*
X79324Y105072D01*
X79315Y104969D01*
X79320Y104950D01*
X79319Y104930D01*
X79349Y104831D01*
X79373Y104730D01*
X79384Y104713D01*
X79389Y104694D01*
X79449Y104610D01*
X79505Y104522D01*
X79520Y104510D01*
X79531Y104493D01*
X79615Y104432D01*
X79695Y104367D01*
X79714Y104360D01*
X79730Y104348D01*
X79887Y104290D01*
X80160Y104221D01*
X80439Y103752D01*
X80479Y103705D01*
X80511Y103651D01*
X80558Y103611D01*
X80597Y103564D01*
X80651Y103532D01*
X80698Y103491D01*
X80755Y103468D01*
X80807Y103437D01*
X80868Y103423D01*
X80926Y103399D01*
X81015Y103390D01*
X81047Y103382D01*
X81065Y103384D01*
X81093Y103381D01*
X86126Y103381D01*
X86216Y103396D01*
G37*
G36*
X53979Y120919D02*
X53979Y120919D01*
X54066Y120925D01*
X54100Y120939D01*
X54136Y120944D01*
X54213Y120985D01*
X54294Y121019D01*
X54321Y121043D01*
X54353Y121060D01*
X54413Y121123D01*
X54479Y121180D01*
X54497Y121212D01*
X54522Y121238D01*
X54559Y121317D01*
X54603Y121393D01*
X54611Y121428D01*
X54626Y121461D01*
X54636Y121548D01*
X54653Y121634D01*
X54649Y121670D01*
X54653Y121705D01*
X54635Y121791D01*
X54624Y121878D01*
X54606Y121921D01*
X54601Y121946D01*
X54585Y121973D01*
X54560Y122033D01*
X52880Y125088D01*
X52866Y125107D01*
X52856Y125128D01*
X52752Y125259D01*
X52422Y125589D01*
X51879Y126900D01*
X51864Y126924D01*
X51843Y126975D01*
X49988Y130349D01*
X50066Y130619D01*
X50069Y130639D01*
X50076Y130658D01*
X50084Y130761D01*
X50096Y130863D01*
X50092Y130883D01*
X50093Y130903D01*
X50067Y131003D01*
X50046Y131104D01*
X50036Y131122D01*
X50031Y131141D01*
X49974Y131227D01*
X49922Y131317D01*
X49907Y131330D01*
X49896Y131347D01*
X49815Y131411D01*
X49737Y131478D01*
X49718Y131486D01*
X49703Y131498D01*
X49548Y131563D01*
X49278Y131641D01*
X47581Y134727D01*
X47566Y134746D01*
X47557Y134768D01*
X47452Y134899D01*
X46939Y135412D01*
X46865Y135465D01*
X46795Y135525D01*
X46765Y135537D01*
X46739Y135556D01*
X46652Y135583D01*
X46567Y135617D01*
X46526Y135621D01*
X46504Y135628D01*
X46472Y135627D01*
X46400Y135635D01*
X41852Y135635D01*
X41766Y135621D01*
X41679Y135615D01*
X41645Y135601D01*
X41610Y135596D01*
X41532Y135555D01*
X41452Y135521D01*
X41424Y135497D01*
X41392Y135480D01*
X41332Y135417D01*
X41266Y135360D01*
X41248Y135328D01*
X41223Y135302D01*
X41186Y135223D01*
X41142Y135147D01*
X41135Y135112D01*
X41119Y135079D01*
X41110Y134992D01*
X41092Y134906D01*
X41096Y134870D01*
X41092Y134835D01*
X41111Y134749D01*
X41121Y134662D01*
X41139Y134619D01*
X41144Y134594D01*
X41160Y134568D01*
X41185Y134507D01*
X41245Y134398D01*
X36619Y131856D01*
X36604Y131843D01*
X36585Y131836D01*
X36507Y131768D01*
X36426Y131704D01*
X36415Y131687D01*
X36400Y131674D01*
X36348Y131585D01*
X36291Y131498D01*
X36286Y131479D01*
X36276Y131462D01*
X36255Y131360D01*
X36228Y131260D01*
X36230Y131240D01*
X36226Y131221D01*
X36238Y131118D01*
X36245Y131015D01*
X36253Y130997D01*
X36255Y130977D01*
X36319Y130822D01*
X37053Y129486D01*
X37066Y129471D01*
X37073Y129452D01*
X37141Y129374D01*
X37205Y129293D01*
X37222Y129282D01*
X37235Y129267D01*
X37324Y129215D01*
X37411Y129158D01*
X37430Y129153D01*
X37447Y129143D01*
X37549Y129121D01*
X37648Y129095D01*
X37668Y129097D01*
X37688Y129093D01*
X37791Y129105D01*
X37894Y129112D01*
X37912Y129119D01*
X37932Y129122D01*
X38087Y129186D01*
X42713Y131729D01*
X43826Y129704D01*
X43986Y129054D01*
X43981Y128851D01*
X43988Y128807D01*
X43985Y128764D01*
X44005Y128687D01*
X44016Y128607D01*
X44036Y128568D01*
X44047Y128526D01*
X44091Y128459D01*
X44127Y128388D01*
X44158Y128357D01*
X44182Y128320D01*
X44245Y128271D01*
X44301Y128215D01*
X44341Y128195D01*
X44375Y128168D01*
X44510Y128112D01*
X44522Y128106D01*
X44526Y128106D01*
X44530Y128104D01*
X45429Y127843D01*
X47125Y124757D01*
X47140Y124738D01*
X47149Y124716D01*
X47254Y124585D01*
X50712Y121128D01*
X50786Y121075D01*
X50855Y121015D01*
X50885Y121003D01*
X50912Y120984D01*
X50999Y120957D01*
X51083Y120923D01*
X51124Y120919D01*
X51147Y120912D01*
X51179Y120913D01*
X51250Y120905D01*
X53893Y120905D01*
X53979Y120919D01*
G37*
G36*
X121556Y53331D02*
X121556Y53331D01*
X121659Y53343D01*
X121677Y53352D01*
X121697Y53355D01*
X121848Y53426D01*
X127495Y56900D01*
X128270Y55640D01*
X128317Y55586D01*
X128356Y55526D01*
X128397Y55494D01*
X128431Y55454D01*
X128493Y55418D01*
X128549Y55374D01*
X128598Y55356D01*
X128643Y55329D01*
X128713Y55314D01*
X128780Y55290D01*
X128833Y55289D01*
X128884Y55278D01*
X128955Y55287D01*
X129026Y55285D01*
X129076Y55301D01*
X129128Y55307D01*
X129193Y55337D01*
X129261Y55359D01*
X129303Y55390D01*
X129351Y55412D01*
X129402Y55461D01*
X129460Y55503D01*
X129505Y55560D01*
X129528Y55582D01*
X129539Y55603D01*
X129564Y55635D01*
X130182Y56621D01*
X130203Y56672D01*
X130233Y56718D01*
X130250Y56785D01*
X130277Y56848D01*
X130281Y56903D01*
X130295Y56957D01*
X130290Y57025D01*
X130295Y57093D01*
X130281Y57147D01*
X130277Y57202D01*
X130241Y57302D01*
X130234Y57331D01*
X130227Y57342D01*
X130220Y57360D01*
X126926Y64086D01*
X126905Y64117D01*
X126891Y64151D01*
X126834Y64216D01*
X126784Y64287D01*
X126754Y64309D01*
X126729Y64337D01*
X126655Y64381D01*
X126585Y64431D01*
X126549Y64443D01*
X126517Y64461D01*
X126433Y64479D01*
X126350Y64505D01*
X126313Y64504D01*
X126277Y64512D01*
X126191Y64502D01*
X126104Y64500D01*
X126069Y64487D01*
X126032Y64483D01*
X125877Y64419D01*
X125561Y64246D01*
X125303Y64218D01*
X125280Y64211D01*
X125256Y64211D01*
X125094Y64164D01*
X124855Y64065D01*
X124265Y64065D01*
X124184Y64052D01*
X124102Y64048D01*
X124064Y64032D01*
X124023Y64026D01*
X123950Y63987D01*
X123874Y63957D01*
X123842Y63930D01*
X123805Y63911D01*
X123749Y63851D01*
X123686Y63798D01*
X123664Y63762D01*
X123636Y63732D01*
X123601Y63658D01*
X123559Y63587D01*
X123550Y63547D01*
X123532Y63509D01*
X123523Y63427D01*
X123505Y63347D01*
X123510Y63306D01*
X123505Y63265D01*
X123523Y63184D01*
X123531Y63102D01*
X123549Y63065D01*
X123557Y63024D01*
X123600Y62954D01*
X123634Y62879D01*
X123669Y62837D01*
X123684Y62813D01*
X123706Y62794D01*
X123742Y62751D01*
X124109Y62404D01*
X125899Y59495D01*
X120252Y56021D01*
X120237Y56008D01*
X120219Y56000D01*
X120145Y55928D01*
X120066Y55860D01*
X120056Y55843D01*
X120042Y55829D01*
X119994Y55738D01*
X119941Y55648D01*
X119937Y55629D01*
X119928Y55611D01*
X119912Y55509D01*
X119891Y55407D01*
X119893Y55388D01*
X119890Y55368D01*
X119907Y55266D01*
X119919Y55163D01*
X119928Y55145D01*
X119931Y55126D01*
X120003Y54974D01*
X120801Y53676D01*
X120814Y53661D01*
X120823Y53643D01*
X120848Y53616D01*
X120862Y53593D01*
X120905Y53557D01*
X120962Y53490D01*
X120979Y53480D01*
X120993Y53466D01*
X121039Y53442D01*
X121049Y53433D01*
X121079Y53421D01*
X121085Y53418D01*
X121174Y53365D01*
X121194Y53361D01*
X121211Y53352D01*
X121275Y53342D01*
X121277Y53341D01*
X121289Y53340D01*
X121313Y53336D01*
X121415Y53314D01*
X121435Y53317D01*
X121454Y53314D01*
X121556Y53331D01*
G37*
%LPC*%
G36*
X65598Y151324D02*
X65598Y151324D01*
X65388Y151959D01*
X65349Y152627D01*
X65485Y153282D01*
X65785Y153880D01*
X66230Y154379D01*
X69291Y156390D01*
X72378Y151691D01*
X67473Y148469D01*
X65598Y151324D01*
G37*
%LPD*%
%LPC*%
G36*
X82801Y120975D02*
X82801Y120975D01*
X82619Y121619D01*
X82609Y122288D01*
X82773Y122936D01*
X83100Y123520D01*
X83566Y124000D01*
X86712Y125875D01*
X89591Y121046D01*
X84550Y118041D01*
X82801Y120975D01*
G37*
%LPD*%
%LPC*%
G36*
X189702Y126624D02*
X189702Y126624D01*
X192355Y130542D01*
X192854Y131279D01*
X195887Y129226D01*
X196325Y128720D01*
X196617Y128119D01*
X196744Y127462D01*
X196696Y126794D01*
X196477Y126162D01*
X196414Y126069D01*
X195899Y125308D01*
X195898Y125308D01*
X195383Y124547D01*
X194868Y123786D01*
X194868Y123785D01*
X194562Y123334D01*
X189702Y126624D01*
G37*
%LPD*%
%LPC*%
G36*
X171056Y98406D02*
X171056Y98406D01*
X174102Y103132D01*
X177180Y101148D01*
X177629Y100652D01*
X177935Y100057D01*
X178077Y99404D01*
X178044Y98735D01*
X177839Y98098D01*
X175989Y95227D01*
X171056Y98406D01*
G37*
%LPD*%
%LPC*%
G36*
X190849Y195096D02*
X190849Y195096D01*
X190849Y198759D01*
X191022Y199405D01*
X191356Y199984D01*
X191829Y200457D01*
X192409Y200792D01*
X193055Y200965D01*
X196471Y200965D01*
X196471Y195096D01*
X190849Y195096D01*
G37*
%LPD*%
%LPC*%
G36*
X157829Y194563D02*
X157829Y194563D01*
X157829Y198225D01*
X158002Y198872D01*
X158336Y199451D01*
X158809Y199924D01*
X159389Y200259D01*
X160035Y200432D01*
X163451Y200432D01*
X163451Y194563D01*
X157829Y194563D01*
G37*
%LPD*%
%LPC*%
G36*
X122269Y194563D02*
X122269Y194563D01*
X122269Y198225D01*
X122442Y198872D01*
X122776Y199451D01*
X123249Y199924D01*
X123829Y200259D01*
X124475Y200432D01*
X127891Y200432D01*
X127891Y194563D01*
X122269Y194563D01*
G37*
%LPD*%
%LPC*%
G36*
X84169Y193318D02*
X84169Y193318D01*
X84169Y196980D01*
X84342Y197627D01*
X84676Y198206D01*
X85149Y198679D01*
X85729Y199014D01*
X86375Y199187D01*
X89791Y199187D01*
X89791Y193318D01*
X84169Y193318D01*
G37*
%LPD*%
%LPC*%
G36*
X43023Y179809D02*
X43023Y179809D01*
X42840Y180452D01*
X42829Y181121D01*
X42992Y181770D01*
X43318Y182354D01*
X43783Y182835D01*
X46926Y184715D01*
X49813Y179891D01*
X44777Y176878D01*
X43023Y179809D01*
G37*
%LPD*%
%LPC*%
G36*
X101443Y83822D02*
X101443Y83822D01*
X101260Y84465D01*
X101249Y85134D01*
X101412Y85783D01*
X101738Y86367D01*
X102203Y86848D01*
X105346Y88728D01*
X108233Y83904D01*
X103197Y80891D01*
X101443Y83822D01*
G37*
%LPD*%
%LPC*%
G36*
X75474Y66019D02*
X75474Y66019D01*
X77491Y67146D01*
X78140Y67310D01*
X78809Y67301D01*
X79453Y67119D01*
X80027Y66776D01*
X80494Y66297D01*
X81621Y64279D01*
X77678Y62075D01*
X75474Y66019D01*
G37*
%LPD*%
%LPC*%
G36*
X53837Y102823D02*
X53837Y102823D01*
X55823Y104007D01*
X56466Y104189D01*
X57135Y104198D01*
X57784Y104034D01*
X58368Y103708D01*
X58847Y103241D01*
X60031Y101256D01*
X56150Y98943D01*
X53837Y102823D01*
G37*
%LPD*%
%LPC*%
G36*
X94177Y33124D02*
X94177Y33124D01*
X96168Y34297D01*
X96813Y34476D01*
X97482Y34482D01*
X98130Y34314D01*
X98712Y33985D01*
X99189Y33516D01*
X100362Y31525D01*
X96470Y29232D01*
X94177Y33124D01*
G37*
%LPD*%
%LPC*%
G36*
X54630Y229590D02*
X54630Y229590D01*
X54630Y234108D01*
X56941Y234108D01*
X57588Y233935D01*
X58167Y233600D01*
X58640Y233127D01*
X58974Y232548D01*
X59148Y231902D01*
X59148Y229590D01*
X54630Y229590D01*
G37*
%LPD*%
%LPC*%
G36*
X91431Y227678D02*
X91431Y227678D01*
X91431Y232195D01*
X93743Y232195D01*
X94389Y232022D01*
X94968Y231687D01*
X95441Y231214D01*
X95776Y230635D01*
X95949Y229989D01*
X95949Y227678D01*
X91431Y227678D01*
G37*
%LPD*%
%LPC*%
G36*
X129531Y227652D02*
X129531Y227652D01*
X129531Y232170D01*
X131843Y232170D01*
X132489Y231997D01*
X133068Y231662D01*
X133541Y231189D01*
X133876Y230610D01*
X134049Y229964D01*
X134049Y227652D01*
X129531Y227652D01*
G37*
%LPD*%
%LPC*%
G36*
X165088Y227629D02*
X165088Y227629D01*
X165088Y232146D01*
X167399Y232146D01*
X168045Y231973D01*
X168625Y231639D01*
X169098Y231166D01*
X169432Y230586D01*
X169605Y229940D01*
X169605Y227629D01*
X165088Y227629D01*
G37*
%LPD*%
%LPC*%
G36*
X201282Y227605D02*
X201282Y227605D01*
X201282Y232122D01*
X203593Y232122D01*
X204240Y231949D01*
X204819Y231615D01*
X205292Y231142D01*
X205626Y230562D01*
X205800Y229916D01*
X205800Y227605D01*
X201282Y227605D01*
G37*
%LPD*%
%LPC*%
G36*
X69948Y60402D02*
X69948Y60402D01*
X69783Y61051D01*
X69793Y61720D01*
X69975Y62364D01*
X70317Y62938D01*
X70797Y63405D01*
X72815Y64532D01*
X75019Y60589D01*
X71075Y58385D01*
X69948Y60402D01*
G37*
%LPD*%
%LPC*%
G36*
X48470Y97055D02*
X48470Y97055D01*
X48288Y97699D01*
X48278Y98368D01*
X48443Y99016D01*
X48769Y99600D01*
X49235Y100080D01*
X51221Y101263D01*
X53534Y97383D01*
X49653Y95070D01*
X48470Y97055D01*
G37*
%LPD*%
%LPC*%
G36*
X17874Y166943D02*
X17874Y166943D01*
X19925Y168010D01*
X20578Y168155D01*
X21246Y168126D01*
X21884Y167924D01*
X22448Y167565D01*
X22900Y167072D01*
X23968Y165022D01*
X19960Y162936D01*
X17874Y166943D01*
G37*
%LPD*%
%LPC*%
G36*
X47066Y229590D02*
X47066Y229590D01*
X47066Y231902D01*
X47239Y232548D01*
X47574Y233127D01*
X48047Y233600D01*
X48626Y233935D01*
X49272Y234108D01*
X51584Y234108D01*
X51584Y229590D01*
X47066Y229590D01*
G37*
%LPD*%
%LPC*%
G36*
X258364Y174333D02*
X258364Y174333D01*
X260415Y178358D01*
X262474Y177308D01*
X262971Y176861D01*
X263336Y176300D01*
X263542Y175664D01*
X263577Y174995D01*
X263438Y174341D01*
X262389Y172282D01*
X258364Y174333D01*
G37*
%LPD*%
%LPC*%
G36*
X12184Y161493D02*
X12184Y161493D01*
X12039Y162146D01*
X12068Y162815D01*
X12269Y163453D01*
X12629Y164017D01*
X13122Y164469D01*
X15172Y165536D01*
X17258Y161529D01*
X13251Y159443D01*
X12184Y161493D01*
G37*
%LPD*%
%LPC*%
G36*
X88779Y27384D02*
X88779Y27384D01*
X88600Y28029D01*
X88595Y28698D01*
X88762Y29346D01*
X89092Y29928D01*
X89560Y30405D01*
X91552Y31578D01*
X93845Y27686D01*
X89952Y25393D01*
X88779Y27384D01*
G37*
%LPD*%
%LPC*%
G36*
X201020Y67169D02*
X201020Y67169D01*
X200383Y67374D01*
X198440Y68626D01*
X200887Y72423D01*
X204685Y69976D01*
X203433Y68033D01*
X202937Y67583D01*
X202342Y67278D01*
X201688Y67136D01*
X201020Y67169D01*
G37*
%LPD*%
%LPC*%
G36*
X221240Y100290D02*
X221240Y100290D01*
X220602Y100492D01*
X218655Y101737D01*
X221089Y105543D01*
X224895Y103109D01*
X223649Y101162D01*
X223155Y100711D01*
X222561Y100403D01*
X221908Y100259D01*
X221240Y100290D01*
G37*
%LPD*%
%LPC*%
G36*
X256989Y166544D02*
X256989Y166544D01*
X254930Y167593D01*
X256981Y171618D01*
X261006Y169567D01*
X259957Y167508D01*
X259509Y167011D01*
X258948Y166646D01*
X258312Y166440D01*
X257643Y166405D01*
X256989Y166544D01*
G37*
%LPD*%
%LPC*%
G36*
X181366Y34050D02*
X181366Y34050D01*
X180732Y34264D01*
X178809Y35547D01*
X181316Y39305D01*
X185074Y36799D01*
X183792Y34876D01*
X183289Y34434D01*
X182690Y34138D01*
X182034Y34007D01*
X181366Y34050D01*
G37*
%LPD*%
%LPC*%
G36*
X240941Y133644D02*
X240941Y133644D01*
X240296Y133821D01*
X238302Y134991D01*
X240588Y138887D01*
X244485Y136601D01*
X243315Y134608D01*
X242839Y134138D01*
X242257Y133807D01*
X241610Y133639D01*
X240941Y133644D01*
G37*
%LPD*%
D10*
G36*
X50104Y172926D02*
X45376Y180826D01*
X53700Y185808D01*
X58428Y177908D01*
X50104Y172926D01*
G37*
G36*
X58060Y159632D02*
X53332Y167532D01*
X61656Y172514D01*
X66384Y164614D01*
X58060Y159632D01*
G37*
G36*
X72961Y144743D02*
X67905Y152438D01*
X76013Y157765D01*
X81069Y150070D01*
X72961Y144743D01*
G37*
G36*
X81467Y131795D02*
X76411Y139490D01*
X84519Y144817D01*
X89575Y137122D01*
X81467Y131795D01*
G37*
G36*
X89870Y114079D02*
X85155Y121987D01*
X93488Y126955D01*
X98203Y119047D01*
X89870Y114079D01*
G37*
G36*
X97803Y100772D02*
X93088Y108680D01*
X101421Y113648D01*
X106136Y105740D01*
X97803Y100772D01*
G37*
D11*
G36*
X106305Y16429D02*
X100274Y12876D01*
X96721Y18907D01*
X102752Y22460D01*
X106305Y16429D01*
G37*
G36*
X100722Y25907D02*
X94691Y22354D01*
X91138Y28385D01*
X97169Y31938D01*
X100722Y25907D01*
G37*
G36*
X106906Y37673D02*
X112937Y41226D01*
X116490Y35195D01*
X110459Y31642D01*
X106906Y37673D01*
G37*
G36*
X112489Y28195D02*
X118520Y31748D01*
X122073Y25717D01*
X116042Y22164D01*
X112489Y28195D01*
G37*
G36*
X87220Y49053D02*
X81111Y45638D01*
X77696Y51747D01*
X83805Y55162D01*
X87220Y49053D01*
G37*
G36*
X81853Y58655D02*
X75744Y55240D01*
X72329Y61349D01*
X78438Y64764D01*
X81853Y58655D01*
G37*
G36*
X88304Y70277D02*
X94413Y73692D01*
X97828Y67583D01*
X91719Y64168D01*
X88304Y70277D01*
G37*
G36*
X93670Y60675D02*
X99779Y64090D01*
X103194Y57981D01*
X97085Y54566D01*
X93670Y60675D01*
G37*
G36*
X66053Y86192D02*
X60041Y82608D01*
X56457Y88620D01*
X62469Y92204D01*
X66053Y86192D01*
G37*
G36*
X60420Y95640D02*
X54408Y92056D01*
X50824Y98068D01*
X56836Y101652D01*
X60420Y95640D01*
G37*
G36*
X66543Y107439D02*
X72555Y111023D01*
X76139Y105011D01*
X70127Y101427D01*
X66543Y107439D01*
G37*
G36*
X72176Y97990D02*
X78188Y101574D01*
X81772Y95562D01*
X75760Y91978D01*
X72176Y97990D01*
G37*
G36*
X46738Y119134D02*
X40605Y115761D01*
X37232Y121894D01*
X43365Y125267D01*
X46738Y119134D01*
G37*
G36*
X41438Y128774D02*
X35305Y125401D01*
X31932Y131534D01*
X38065Y134907D01*
X41438Y128774D01*
G37*
G36*
X47969Y140350D02*
X54102Y143723D01*
X57475Y137590D01*
X51342Y134217D01*
X47969Y140350D01*
G37*
G36*
X53268Y130710D02*
X59401Y134083D01*
X62774Y127950D01*
X56641Y124577D01*
X53268Y130710D01*
G37*
G36*
X29112Y149636D02*
X22904Y146404D01*
X19672Y152612D01*
X25880Y155844D01*
X29112Y149636D01*
G37*
G36*
X24033Y159393D02*
X17825Y156161D01*
X14593Y162369D01*
X20801Y165601D01*
X24033Y159393D01*
G37*
G36*
X30825Y170819D02*
X37033Y174051D01*
X40265Y167843D01*
X34057Y164611D01*
X30825Y170819D01*
G37*
G36*
X35904Y161062D02*
X42112Y164294D01*
X45344Y158086D01*
X39136Y154854D01*
X35904Y161062D01*
G37*
D10*
G36*
X108524Y76939D02*
X103796Y84839D01*
X112120Y89821D01*
X116848Y81921D01*
X108524Y76939D01*
G37*
G36*
X116480Y63645D02*
X111752Y71545D01*
X120076Y76527D01*
X124804Y68627D01*
X116480Y63645D01*
G37*
G36*
X118682Y47861D02*
X113857Y55703D01*
X122120Y60787D01*
X126945Y52945D01*
X118682Y47861D01*
G37*
G36*
X126800Y34667D02*
X121975Y42509D01*
X130238Y47593D01*
X135063Y39751D01*
X126800Y34667D01*
G37*
X91314Y191795D03*
X106806Y191795D03*
X129414Y193040D03*
X144906Y193040D03*
X164974Y193040D03*
X180466Y193040D03*
D12*
X53107Y217067D03*
X53107Y228067D03*
X71407Y228067D03*
X71407Y217067D03*
X89908Y215154D03*
X89908Y226154D03*
X108208Y226154D03*
X108208Y215154D03*
X128008Y215129D03*
X128008Y226129D03*
X146308Y226129D03*
X146308Y215129D03*
X163565Y215106D03*
X163565Y226106D03*
X181865Y226106D03*
X181865Y215106D03*
X199759Y215082D03*
X199759Y226082D03*
X218059Y226082D03*
X218059Y215082D03*
D10*
X197994Y193573D03*
X213486Y193573D03*
X55754Y195580D03*
X71246Y195580D03*
G36*
X218486Y184428D02*
X223297Y192278D01*
X231568Y187208D01*
X226757Y179358D01*
X218486Y184428D01*
G37*
G36*
X210392Y171219D02*
X215203Y179069D01*
X223474Y173999D01*
X218663Y166149D01*
X210392Y171219D01*
G37*
G36*
X200742Y160171D02*
X205608Y167988D01*
X213844Y162861D01*
X208978Y155044D01*
X200742Y160171D01*
G37*
G36*
X192556Y147019D02*
X197422Y154836D01*
X205658Y149709D01*
X200792Y141892D01*
X192556Y147019D01*
G37*
G36*
X180989Y125125D02*
X186152Y132749D01*
X194185Y127309D01*
X189022Y119685D01*
X180989Y125125D01*
G37*
G36*
X172304Y112296D02*
X177467Y119920D01*
X185500Y114480D01*
X180337Y106856D01*
X172304Y112296D01*
G37*
D11*
G36*
X241807Y177132D02*
X244985Y183368D01*
X251221Y180190D01*
X248043Y173954D01*
X241807Y177132D01*
G37*
G36*
X251608Y172138D02*
X254786Y178374D01*
X261022Y175196D01*
X257844Y168960D01*
X251608Y172138D01*
G37*
G36*
X252714Y158891D02*
X249536Y152655D01*
X243300Y155833D01*
X246478Y162069D01*
X252714Y158891D01*
G37*
G36*
X242913Y163884D02*
X239735Y157648D01*
X233499Y160826D01*
X236677Y167062D01*
X242913Y163884D01*
G37*
G36*
X225769Y145291D02*
X229311Y151327D01*
X235347Y147785D01*
X231805Y141749D01*
X225769Y145291D01*
G37*
G36*
X235256Y139725D02*
X238798Y145761D01*
X244834Y142219D01*
X241292Y136183D01*
X235256Y139725D01*
G37*
G36*
X235574Y126435D02*
X232032Y120399D01*
X225996Y123941D01*
X229538Y129977D01*
X235574Y126435D01*
G37*
G36*
X226086Y132001D02*
X222544Y125965D01*
X216508Y129507D01*
X220050Y135543D01*
X226086Y132001D01*
G37*
G36*
X206525Y112511D02*
X210297Y118407D01*
X216193Y114635D01*
X212421Y108739D01*
X206525Y112511D01*
G37*
G36*
X215792Y106585D02*
X219564Y112481D01*
X225460Y108709D01*
X221688Y102813D01*
X215792Y106585D01*
G37*
G36*
X215601Y93292D02*
X211829Y87396D01*
X205933Y91168D01*
X209705Y97064D01*
X215601Y93292D01*
G37*
G36*
X206334Y99218D02*
X202562Y93322D01*
X196666Y97094D01*
X200438Y102990D01*
X206334Y99218D01*
G37*
G36*
X186349Y79441D02*
X190140Y85324D01*
X196023Y81533D01*
X192232Y75650D01*
X186349Y79441D01*
G37*
G36*
X195595Y73482D02*
X199386Y79365D01*
X205269Y75574D01*
X201478Y69691D01*
X195595Y73482D01*
G37*
G36*
X195356Y60192D02*
X191565Y54309D01*
X185682Y58100D01*
X189473Y63983D01*
X195356Y60192D01*
G37*
G36*
X186110Y66151D02*
X182319Y60268D01*
X176436Y64059D01*
X180227Y69942D01*
X186110Y66151D01*
G37*
G36*
X166889Y46552D02*
X170773Y52374D01*
X176595Y48490D01*
X172711Y42668D01*
X166889Y46552D01*
G37*
G36*
X176041Y40448D02*
X179925Y46270D01*
X185747Y42386D01*
X181863Y36564D01*
X176041Y40448D01*
G37*
G36*
X175593Y27162D02*
X171709Y21340D01*
X165887Y25224D01*
X169771Y31046D01*
X175593Y27162D01*
G37*
G36*
X166442Y33265D02*
X162558Y27443D01*
X156736Y31327D01*
X160620Y37149D01*
X166442Y33265D01*
G37*
D10*
G36*
X144949Y71696D02*
X150005Y79391D01*
X158113Y74064D01*
X153057Y66369D01*
X144949Y71696D01*
G37*
G36*
X136444Y58748D02*
X141500Y66443D01*
X149608Y61116D01*
X144552Y53421D01*
X136444Y58748D01*
G37*
G36*
X162380Y96709D02*
X167368Y104448D01*
X175522Y99193D01*
X170534Y91454D01*
X162380Y96709D01*
G37*
G36*
X153988Y83687D02*
X158976Y91426D01*
X167130Y86171D01*
X162142Y78432D01*
X153988Y83687D01*
G37*
D13*
X114300Y-11430D02*
X114300Y-26670D01*
X139700Y-26670D02*
X139700Y-11430D01*
X165100Y-11430D02*
X165100Y-26670D01*
D14*
X74017Y129330D02*
X82993Y138306D01*
X74017Y129330D02*
X58021Y129330D01*
X89178Y96776D02*
X99612Y107210D01*
X89178Y96776D02*
X76974Y96776D01*
X107520Y59328D02*
X118278Y70086D01*
X107520Y59328D02*
X98432Y59328D01*
X128519Y41130D02*
X128519Y36050D01*
X119426Y26956D01*
X117281Y26956D01*
X40624Y159574D02*
X41070Y160020D01*
X53805Y160020D01*
X59858Y166073D01*
X71246Y177800D02*
X71246Y195580D01*
X71246Y177800D02*
X71246Y177462D01*
X74656Y180872D01*
X71246Y177462D02*
X59858Y166073D01*
X71407Y195741D02*
X71407Y217067D01*
X71407Y195741D02*
X71246Y195580D01*
X143467Y60604D02*
X143467Y47878D01*
X147742Y43602D01*
X148275Y45610D02*
X161589Y32296D01*
X180383Y65105D02*
X160559Y84929D01*
X180383Y65105D02*
X181273Y65105D01*
X194134Y98156D02*
X178902Y113388D01*
X194134Y98156D02*
X201500Y98156D01*
X216716Y130754D02*
X199107Y148364D01*
X216716Y130754D02*
X221297Y130754D01*
X220693Y169975D02*
X216933Y173735D01*
X230586Y169975D02*
X238206Y162355D01*
X230586Y169975D02*
X220693Y169975D01*
X213486Y193573D02*
X218059Y198146D01*
X218059Y215082D01*
X181865Y215106D02*
X181865Y194439D01*
X180466Y193040D01*
X146308Y194442D02*
X146308Y215129D01*
X146308Y194442D02*
X144906Y193040D01*
X106806Y191795D02*
X106806Y213752D01*
X108208Y215154D01*
X106806Y191795D02*
X106806Y183006D01*
X101600Y177800D02*
X71246Y177800D01*
X101600Y177800D02*
X139700Y177800D01*
X190500Y177800D01*
X187468Y182880D02*
X185420Y182880D01*
X197628Y172720D02*
X200168Y172720D01*
X197628Y172720D02*
X187468Y182880D01*
X197628Y172720D02*
X199425Y170923D01*
X200045Y170303D01*
X213486Y186038D02*
X213486Y193573D01*
X213486Y186038D02*
X200168Y172720D01*
X180466Y187834D02*
X180466Y193040D01*
X180466Y187834D02*
X185420Y182880D01*
X190500Y177800D01*
X144906Y183006D02*
X144906Y193040D01*
X144906Y183006D02*
X139700Y177800D01*
X106806Y183006D02*
X101600Y177800D01*
X198120Y149351D02*
X199107Y148364D01*
X188206Y152455D02*
X199425Y170923D01*
X188206Y152455D02*
X166701Y117054D01*
X149610Y88919D01*
X91837Y145786D02*
X74656Y180872D01*
X107102Y117154D02*
X107102Y112161D01*
X102152Y107210D01*
X99612Y107210D01*
X107102Y117154D02*
X92757Y146448D01*
X109602Y111943D02*
X128487Y73378D01*
X129467Y73915D02*
X139886Y52640D01*
X84103Y139105D02*
X88081Y143083D01*
X84103Y139105D02*
X82993Y138306D01*
X88081Y143083D02*
X91837Y145786D01*
X92757Y146448D02*
X88081Y143083D01*
X104718Y109109D02*
X109602Y111943D01*
X104718Y109109D02*
X102882Y109109D01*
X99612Y107210D01*
X119344Y70670D02*
X123541Y70670D01*
X119344Y70670D02*
X118278Y70086D01*
X123541Y70670D02*
X129467Y73915D01*
X128487Y73378D02*
X123541Y70670D01*
X139886Y52640D02*
X145323Y46177D01*
X144151Y55012D02*
X128519Y41130D01*
X142240Y43439D02*
X143532Y44586D01*
X145323Y46177D01*
X158107Y83437D02*
X160559Y84929D01*
X156275Y84863D02*
X149610Y88919D01*
X150927Y87805D02*
X158107Y83437D01*
X178758Y113047D02*
X178902Y113388D01*
X173529Y114180D02*
X166701Y117054D01*
X173529Y114180D01*
X176069Y114180D02*
X178758Y113047D01*
X176069Y114180D02*
X173529Y114180D01*
X194608Y150450D02*
X198120Y149351D01*
X194608Y150450D02*
X191178Y151525D01*
X189044Y152193D01*
X188206Y152455D01*
X128519Y41130D02*
X127130Y39671D01*
X129150Y37747D01*
X142870Y25233D02*
X142240Y22860D01*
X142870Y25233D02*
X146813Y40101D01*
X149404Y49867D01*
X147742Y43602D02*
X146813Y40101D01*
X147742Y43602D02*
X148275Y45610D01*
X149404Y49867D02*
X128519Y41130D01*
D15*
X142240Y43439D02*
X142240Y22860D01*
X143532Y44586D02*
X144151Y55012D01*
X143467Y60604D02*
X129150Y37747D01*
D14*
X142870Y60007D02*
X143467Y60604D01*
X142870Y60007D02*
X142870Y25233D01*
X216933Y172609D02*
X216933Y173735D01*
X203477Y173735D01*
X200045Y170303D01*
D15*
X143467Y60604D02*
X143026Y59932D01*
D14*
X143467Y60604D02*
X145323Y58748D01*
X145323Y46177D01*
D16*
X142240Y22860D02*
X142240Y-16510D01*
D14*
X111698Y36434D02*
X104952Y43180D01*
X89678Y43180D01*
X82458Y50400D01*
X93066Y68930D02*
X88900Y73096D01*
X88900Y73660D01*
X86360Y76200D01*
X71120Y76200D01*
X61255Y86065D01*
X61255Y87406D01*
X71341Y106225D02*
X63266Y114300D01*
X48199Y114300D01*
X41985Y120514D01*
X52722Y138970D02*
X49452Y142240D01*
X33276Y142240D01*
X24392Y151124D01*
D17*
X180894Y41417D02*
X180894Y28656D01*
X185674Y23876D01*
X185674Y21336D01*
X170942Y6604D01*
X165354Y6604D01*
X162560Y6604D01*
D18*
X165354Y6604D02*
X165354Y-18542D01*
X164846Y-19050D01*
D14*
X89908Y215154D02*
X89287Y215775D01*
X86493Y215775D01*
X74201Y228067D01*
X71407Y228067D01*
X108208Y226154D02*
X110843Y223520D01*
X114300Y223520D01*
X121920Y215900D01*
X121920Y215129D01*
X128008Y215129D01*
X146308Y226129D02*
X148917Y223520D01*
X152400Y223520D01*
X160814Y215106D01*
X163565Y215106D01*
X181865Y226106D02*
X184450Y223520D01*
X187960Y223520D01*
X193040Y218440D01*
X193040Y215900D01*
X196809Y212131D01*
X199759Y215082D01*
X53107Y217067D02*
X33020Y196980D01*
X33020Y171856D01*
X35545Y169331D01*
X230558Y152400D02*
X230558Y146538D01*
X246640Y157362D02*
X248007Y157362D01*
X246640Y157362D02*
X241679Y152400D01*
X230558Y152400D01*
X230785Y125188D02*
X228245Y122648D01*
X226788Y122648D01*
X223520Y119380D01*
X217166Y119380D01*
X211359Y113573D01*
X196266Y86360D02*
X196266Y85567D01*
X191186Y80487D01*
X210767Y91853D02*
X210767Y92230D01*
X210767Y91853D02*
X205274Y86360D01*
X196266Y86360D01*
X175022Y53340D02*
X171742Y50061D01*
X171742Y47521D01*
X188328Y59146D02*
X190519Y59146D01*
X188328Y59146D02*
X182522Y53340D01*
X175022Y53340D01*
X241434Y183741D02*
X241434Y205606D01*
X241434Y183741D02*
X246514Y178661D01*
X220330Y226710D02*
X218687Y226710D01*
X218059Y226082D01*
X220330Y226710D02*
X241434Y205606D01*
D18*
X101513Y17668D02*
X114300Y4882D01*
X114300Y-19050D01*
M02*
