G04 EAGLE Gerber RS-274X export*
G75*
%MOMM*%
%FSLAX34Y34*%
%LPD*%
%INSilkscreen Bottom*%
%IPPOS*%
%AMOC8*
5,1,8,0,0,1.08239X$1,22.5*%
G01*
%ADD10C,0.127000*%
%ADD11C,0.101600*%
%ADD12C,0.200000*%


D10*
X53517Y161108D02*
X44530Y176124D01*
X58243Y184332D02*
X67230Y169316D01*
D11*
X35901Y154436D02*
X34567Y156664D01*
X35901Y154437D02*
X35954Y154353D01*
X36010Y154270D01*
X36069Y154190D01*
X36131Y154112D01*
X36196Y154037D01*
X36264Y153964D01*
X36334Y153894D01*
X36408Y153827D01*
X36483Y153762D01*
X36561Y153701D01*
X36642Y153642D01*
X36724Y153587D01*
X36809Y153535D01*
X36896Y153486D01*
X36984Y153440D01*
X37074Y153398D01*
X37166Y153359D01*
X37259Y153324D01*
X37353Y153293D01*
X37448Y153265D01*
X37545Y153241D01*
X37642Y153220D01*
X37740Y153203D01*
X37839Y153190D01*
X37938Y153181D01*
X38037Y153176D01*
X38137Y153174D01*
X38236Y153176D01*
X38335Y153182D01*
X38434Y153192D01*
X38533Y153206D01*
X38631Y153223D01*
X38728Y153244D01*
X38824Y153269D01*
X38920Y153297D01*
X39014Y153329D01*
X39106Y153365D01*
X39198Y153404D01*
X39288Y153447D01*
X39376Y153493D01*
X39462Y153542D01*
X45032Y156875D01*
X45031Y156875D02*
X45116Y156928D01*
X45198Y156984D01*
X45278Y157043D01*
X45356Y157105D01*
X45431Y157170D01*
X45504Y157238D01*
X45574Y157308D01*
X45641Y157382D01*
X45706Y157457D01*
X45767Y157535D01*
X45826Y157616D01*
X45881Y157698D01*
X45933Y157783D01*
X45982Y157870D01*
X46028Y157958D01*
X46070Y158048D01*
X46109Y158140D01*
X46144Y158233D01*
X46175Y158327D01*
X46203Y158422D01*
X46227Y158519D01*
X46248Y158616D01*
X46265Y158714D01*
X46278Y158813D01*
X46287Y158912D01*
X46292Y159011D01*
X46294Y159111D01*
X46292Y159210D01*
X46286Y159309D01*
X46276Y159408D01*
X46262Y159507D01*
X46245Y159605D01*
X46224Y159702D01*
X46199Y159798D01*
X46171Y159894D01*
X46139Y159988D01*
X46103Y160080D01*
X46064Y160172D01*
X46021Y160262D01*
X45975Y160350D01*
X45926Y160436D01*
X45926Y160437D02*
X44593Y162665D01*
X40123Y165077D02*
X40684Y169195D01*
X30659Y163195D01*
X32325Y160410D02*
X28992Y165980D01*
D10*
X67257Y147706D02*
X76865Y133079D01*
X90223Y141854D02*
X80615Y156481D01*
D11*
X58118Y127846D02*
X59544Y125676D01*
X59600Y125594D01*
X59660Y125514D01*
X59722Y125436D01*
X59787Y125361D01*
X59855Y125289D01*
X59926Y125219D01*
X59999Y125152D01*
X60075Y125087D01*
X60154Y125026D01*
X60234Y124968D01*
X60317Y124913D01*
X60402Y124861D01*
X60489Y124812D01*
X60577Y124767D01*
X60668Y124725D01*
X60759Y124687D01*
X60852Y124652D01*
X60947Y124621D01*
X61042Y124593D01*
X61139Y124569D01*
X61236Y124549D01*
X61334Y124533D01*
X61433Y124520D01*
X61532Y124511D01*
X61631Y124506D01*
X61731Y124505D01*
X61830Y124508D01*
X61930Y124514D01*
X62029Y124524D01*
X62127Y124538D01*
X62225Y124556D01*
X62322Y124577D01*
X62418Y124602D01*
X62513Y124631D01*
X62607Y124664D01*
X62700Y124700D01*
X62791Y124739D01*
X62881Y124782D01*
X62969Y124829D01*
X63055Y124878D01*
X63139Y124931D01*
X68565Y128495D01*
X68564Y128495D02*
X68646Y128551D01*
X68726Y128611D01*
X68804Y128673D01*
X68879Y128738D01*
X68951Y128806D01*
X69021Y128877D01*
X69088Y128950D01*
X69152Y129026D01*
X69214Y129105D01*
X69272Y129185D01*
X69327Y129268D01*
X69379Y129353D01*
X69428Y129440D01*
X69473Y129528D01*
X69515Y129618D01*
X69553Y129710D01*
X69588Y129803D01*
X69619Y129898D01*
X69647Y129993D01*
X69671Y130090D01*
X69691Y130187D01*
X69707Y130285D01*
X69720Y130384D01*
X69729Y130483D01*
X69734Y130582D01*
X69735Y130682D01*
X69732Y130781D01*
X69726Y130881D01*
X69716Y130979D01*
X69702Y131078D01*
X69684Y131176D01*
X69663Y131273D01*
X69638Y131369D01*
X69609Y131464D01*
X69576Y131558D01*
X69540Y131651D01*
X69501Y131742D01*
X69458Y131832D01*
X69412Y131920D01*
X69362Y132006D01*
X69309Y132090D01*
X69309Y132091D02*
X67884Y134261D01*
X63527Y140893D02*
X63467Y140981D01*
X63404Y141067D01*
X63337Y141150D01*
X63268Y141231D01*
X63195Y141309D01*
X63120Y141385D01*
X63042Y141458D01*
X62962Y141528D01*
X62879Y141595D01*
X62793Y141659D01*
X62706Y141720D01*
X62616Y141777D01*
X62524Y141832D01*
X62430Y141882D01*
X62335Y141930D01*
X62237Y141974D01*
X62138Y142014D01*
X62038Y142050D01*
X61937Y142083D01*
X61834Y142113D01*
X61730Y142138D01*
X61626Y142160D01*
X61521Y142177D01*
X61415Y142191D01*
X61309Y142201D01*
X61202Y142208D01*
X61096Y142210D01*
X60989Y142208D01*
X60882Y142203D01*
X60776Y142194D01*
X60670Y142180D01*
X60565Y142163D01*
X60460Y142142D01*
X60356Y142117D01*
X60254Y142089D01*
X60152Y142057D01*
X60052Y142021D01*
X59952Y141981D01*
X59855Y141938D01*
X59759Y141891D01*
X59665Y141841D01*
X59573Y141787D01*
X59482Y141730D01*
X63528Y140894D02*
X63593Y140791D01*
X63654Y140687D01*
X63712Y140581D01*
X63767Y140473D01*
X63818Y140363D01*
X63865Y140252D01*
X63909Y140139D01*
X63950Y140025D01*
X63986Y139910D01*
X64019Y139793D01*
X64048Y139676D01*
X64073Y139557D01*
X64095Y139438D01*
X64112Y139319D01*
X64126Y139198D01*
X64136Y139078D01*
X64142Y138957D01*
X64144Y138836D01*
X64142Y138715D01*
X64136Y138594D01*
X64127Y138473D01*
X64113Y138353D01*
X64096Y138233D01*
X64075Y138114D01*
X64049Y137996D01*
X64021Y137878D01*
X63988Y137762D01*
X63951Y137646D01*
X63911Y137532D01*
X63868Y137419D01*
X63820Y137308D01*
X63769Y137198D01*
X63715Y137090D01*
X63657Y136984D01*
X63596Y136880D01*
X63531Y136777D01*
X63463Y136677D01*
X63392Y136579D01*
X63318Y136484D01*
X58119Y139670D02*
X58140Y139778D01*
X58166Y139886D01*
X58195Y139992D01*
X58228Y140098D01*
X58265Y140202D01*
X58305Y140305D01*
X58349Y140406D01*
X58396Y140506D01*
X58447Y140604D01*
X58501Y140700D01*
X58559Y140794D01*
X58620Y140886D01*
X58684Y140976D01*
X58751Y141064D01*
X58822Y141149D01*
X58895Y141232D01*
X58971Y141312D01*
X59050Y141389D01*
X59132Y141463D01*
X59216Y141535D01*
X59303Y141603D01*
X59392Y141669D01*
X59483Y141731D01*
X58118Y139670D02*
X55722Y131494D01*
X52158Y136920D01*
D10*
X84301Y117288D02*
X93262Y102256D01*
X106990Y110440D02*
X98029Y125472D01*
D11*
X74305Y97845D02*
X75634Y95615D01*
X75634Y95616D02*
X75687Y95531D01*
X75742Y95449D01*
X75801Y95369D01*
X75863Y95291D01*
X75928Y95216D01*
X75996Y95143D01*
X76066Y95072D01*
X76139Y95005D01*
X76215Y94940D01*
X76293Y94879D01*
X76373Y94820D01*
X76455Y94764D01*
X76540Y94712D01*
X76627Y94663D01*
X76715Y94617D01*
X76805Y94575D01*
X76896Y94536D01*
X76989Y94501D01*
X77084Y94469D01*
X77179Y94441D01*
X77276Y94417D01*
X77373Y94396D01*
X77471Y94379D01*
X77569Y94366D01*
X77668Y94356D01*
X77768Y94351D01*
X77867Y94349D01*
X77967Y94351D01*
X78066Y94357D01*
X78165Y94366D01*
X78263Y94380D01*
X78361Y94397D01*
X78459Y94418D01*
X78555Y94443D01*
X78650Y94471D01*
X78744Y94503D01*
X78837Y94538D01*
X78929Y94577D01*
X79019Y94620D01*
X79107Y94666D01*
X79193Y94715D01*
X79194Y94714D02*
X84769Y98038D01*
X84854Y98091D01*
X84936Y98146D01*
X85016Y98205D01*
X85094Y98267D01*
X85169Y98332D01*
X85242Y98400D01*
X85313Y98470D01*
X85380Y98543D01*
X85445Y98619D01*
X85506Y98697D01*
X85565Y98777D01*
X85621Y98859D01*
X85673Y98944D01*
X85722Y99031D01*
X85768Y99119D01*
X85810Y99209D01*
X85849Y99300D01*
X85884Y99393D01*
X85916Y99488D01*
X85944Y99583D01*
X85968Y99679D01*
X85989Y99777D01*
X86006Y99875D01*
X86019Y99973D01*
X86029Y100072D01*
X86034Y100172D01*
X86036Y100271D01*
X86034Y100370D01*
X86028Y100470D01*
X86019Y100569D01*
X86005Y100667D01*
X85988Y100765D01*
X85967Y100862D01*
X85942Y100959D01*
X85914Y101054D01*
X85882Y101148D01*
X85847Y101241D01*
X85808Y101333D01*
X85765Y101423D01*
X85719Y101511D01*
X85670Y101597D01*
X85670Y101598D02*
X84341Y103828D01*
X72069Y101595D02*
X70408Y104383D01*
X70407Y104383D02*
X70351Y104481D01*
X70298Y104581D01*
X70248Y104683D01*
X70203Y104787D01*
X70161Y104892D01*
X70122Y104999D01*
X70088Y105107D01*
X70057Y105216D01*
X70030Y105326D01*
X70006Y105437D01*
X69987Y105548D01*
X69972Y105661D01*
X69960Y105773D01*
X69953Y105886D01*
X69949Y106000D01*
X69950Y106113D01*
X69954Y106226D01*
X69962Y106339D01*
X69975Y106452D01*
X69991Y106564D01*
X70011Y106675D01*
X70035Y106786D01*
X70063Y106896D01*
X70094Y107005D01*
X70130Y107113D01*
X70169Y107219D01*
X70211Y107324D01*
X70258Y107427D01*
X70308Y107529D01*
X70361Y107629D01*
X70418Y107727D01*
X70479Y107822D01*
X70543Y107916D01*
X70609Y108008D01*
X70680Y108097D01*
X70753Y108183D01*
X70829Y108267D01*
X70908Y108348D01*
X70990Y108427D01*
X71074Y108502D01*
X71161Y108575D01*
X71251Y108644D01*
X71342Y108710D01*
X71437Y108773D01*
X71533Y108833D01*
X71631Y108889D01*
X71731Y108942D01*
X71833Y108992D01*
X71937Y109037D01*
X72042Y109079D01*
X72149Y109118D01*
X72257Y109152D01*
X72366Y109183D01*
X72476Y109210D01*
X72587Y109234D01*
X72698Y109253D01*
X72811Y109268D01*
X72923Y109280D01*
X73036Y109287D01*
X73150Y109291D01*
X73263Y109290D01*
X73376Y109286D01*
X73489Y109278D01*
X73602Y109265D01*
X73714Y109249D01*
X73825Y109229D01*
X73936Y109205D01*
X74046Y109177D01*
X74155Y109146D01*
X74262Y109110D01*
X74369Y109071D01*
X74474Y109029D01*
X74577Y108982D01*
X74679Y108932D01*
X74779Y108879D01*
X74877Y108822D01*
X74972Y108761D01*
X75066Y108697D01*
X75158Y108631D01*
X75247Y108560D01*
X75333Y108487D01*
X75417Y108411D01*
X75498Y108332D01*
X75577Y108250D01*
X75652Y108166D01*
X75725Y108079D01*
X75794Y107989D01*
X75860Y107898D01*
X75923Y107803D01*
X75983Y107707D01*
X80111Y110923D02*
X82105Y107578D01*
X80111Y110923D02*
X80058Y111009D01*
X80001Y111092D01*
X79941Y111173D01*
X79879Y111252D01*
X79813Y111328D01*
X79744Y111402D01*
X79673Y111473D01*
X79599Y111541D01*
X79522Y111606D01*
X79443Y111668D01*
X79361Y111727D01*
X79277Y111783D01*
X79191Y111835D01*
X79103Y111884D01*
X79014Y111930D01*
X78922Y111972D01*
X78829Y112011D01*
X78735Y112046D01*
X78639Y112077D01*
X78542Y112104D01*
X78444Y112128D01*
X78346Y112148D01*
X78246Y112164D01*
X78146Y112176D01*
X78046Y112185D01*
X77945Y112189D01*
X77845Y112190D01*
X77744Y112186D01*
X77644Y112179D01*
X77544Y112168D01*
X77444Y112153D01*
X77345Y112134D01*
X77247Y112111D01*
X77150Y112085D01*
X77054Y112055D01*
X76959Y112021D01*
X76866Y111983D01*
X76774Y111942D01*
X76684Y111897D01*
X76595Y111849D01*
X76509Y111798D01*
X76424Y111743D01*
X76342Y111685D01*
X76262Y111623D01*
X76185Y111559D01*
X76110Y111492D01*
X76038Y111422D01*
X75968Y111349D01*
X75901Y111273D01*
X75838Y111195D01*
X75777Y111115D01*
X75720Y111032D01*
X75666Y110947D01*
X75615Y110860D01*
X75567Y110772D01*
X75524Y110681D01*
X75483Y110589D01*
X75446Y110495D01*
X75413Y110400D01*
X75384Y110304D01*
X75358Y110206D01*
X75336Y110108D01*
X75318Y110009D01*
X75304Y109909D01*
X75294Y109809D01*
X75288Y109709D01*
X75285Y109608D01*
X75286Y109507D01*
X75292Y109407D01*
X75301Y109307D01*
X75314Y109207D01*
X75331Y109108D01*
X75352Y109009D01*
X75376Y108911D01*
X75405Y108815D01*
X75437Y108719D01*
X75473Y108625D01*
X75512Y108533D01*
X75555Y108442D01*
X75601Y108352D01*
X75651Y108265D01*
X75651Y108264D02*
X76980Y106034D01*
D10*
X104115Y37190D02*
X98945Y34145D01*
X109096Y16912D02*
X114266Y19958D01*
D12*
X117629Y41463D02*
X117631Y41527D01*
X117637Y41591D01*
X117647Y41654D01*
X117661Y41717D01*
X117678Y41778D01*
X117700Y41839D01*
X117725Y41897D01*
X117754Y41955D01*
X117786Y42010D01*
X117822Y42063D01*
X117861Y42114D01*
X117903Y42162D01*
X117948Y42208D01*
X117996Y42251D01*
X118046Y42291D01*
X118098Y42327D01*
X118153Y42360D01*
X118210Y42390D01*
X118269Y42416D01*
X118329Y42439D01*
X118390Y42457D01*
X118452Y42472D01*
X118515Y42483D01*
X118579Y42490D01*
X118643Y42493D01*
X118707Y42492D01*
X118771Y42487D01*
X118834Y42478D01*
X118897Y42465D01*
X118959Y42448D01*
X119020Y42428D01*
X119079Y42404D01*
X119137Y42376D01*
X119192Y42344D01*
X119246Y42309D01*
X119298Y42271D01*
X119347Y42230D01*
X119393Y42186D01*
X119436Y42139D01*
X119477Y42089D01*
X119514Y42037D01*
X119548Y41983D01*
X119579Y41926D01*
X119606Y41868D01*
X119629Y41809D01*
X119649Y41748D01*
X119665Y41685D01*
X119677Y41623D01*
X119685Y41559D01*
X119689Y41495D01*
X119689Y41431D01*
X119685Y41367D01*
X119677Y41303D01*
X119665Y41241D01*
X119649Y41178D01*
X119629Y41117D01*
X119606Y41058D01*
X119579Y41000D01*
X119548Y40943D01*
X119514Y40889D01*
X119477Y40837D01*
X119436Y40787D01*
X119393Y40740D01*
X119347Y40696D01*
X119298Y40655D01*
X119246Y40617D01*
X119192Y40582D01*
X119137Y40550D01*
X119079Y40522D01*
X119020Y40498D01*
X118959Y40478D01*
X118897Y40461D01*
X118834Y40448D01*
X118771Y40439D01*
X118707Y40434D01*
X118643Y40433D01*
X118579Y40436D01*
X118515Y40443D01*
X118452Y40454D01*
X118390Y40469D01*
X118329Y40487D01*
X118269Y40510D01*
X118210Y40536D01*
X118153Y40566D01*
X118098Y40599D01*
X118046Y40635D01*
X117996Y40675D01*
X117948Y40718D01*
X117903Y40764D01*
X117861Y40812D01*
X117822Y40863D01*
X117786Y40916D01*
X117754Y40971D01*
X117725Y41029D01*
X117700Y41087D01*
X117678Y41148D01*
X117661Y41209D01*
X117647Y41272D01*
X117637Y41335D01*
X117631Y41399D01*
X117629Y41463D01*
D11*
X114091Y52718D02*
X109808Y59990D01*
X114092Y52718D02*
X114148Y52620D01*
X114200Y52519D01*
X114249Y52417D01*
X114294Y52313D01*
X114335Y52208D01*
X114373Y52101D01*
X114407Y51993D01*
X114438Y51884D01*
X114464Y51774D01*
X114487Y51663D01*
X114505Y51551D01*
X114520Y51438D01*
X114531Y51326D01*
X114538Y51213D01*
X114541Y51099D01*
X114540Y50986D01*
X114535Y50873D01*
X114526Y50760D01*
X114513Y50647D01*
X114496Y50535D01*
X114476Y50424D01*
X114451Y50313D01*
X114423Y50204D01*
X114391Y50095D01*
X114355Y49987D01*
X114315Y49881D01*
X114272Y49777D01*
X114225Y49674D01*
X114174Y49572D01*
X114120Y49473D01*
X114063Y49375D01*
X114002Y49279D01*
X113938Y49186D01*
X113870Y49095D01*
X113800Y49006D01*
X113726Y48920D01*
X113650Y48837D01*
X113570Y48756D01*
X113488Y48678D01*
X113403Y48603D01*
X113316Y48531D01*
X113226Y48462D01*
X113134Y48396D01*
X113039Y48333D01*
X112942Y48274D01*
X112844Y48218D01*
X112743Y48166D01*
X112641Y48117D01*
X112537Y48072D01*
X112432Y48031D01*
X112325Y47993D01*
X112217Y47959D01*
X112108Y47928D01*
X111998Y47902D01*
X111887Y47879D01*
X111775Y47861D01*
X111662Y47846D01*
X111550Y47835D01*
X111437Y47828D01*
X111323Y47825D01*
X111210Y47826D01*
X111097Y47831D01*
X110984Y47840D01*
X110871Y47853D01*
X110759Y47870D01*
X110648Y47890D01*
X110537Y47915D01*
X110428Y47943D01*
X110319Y47975D01*
X110211Y48011D01*
X110105Y48051D01*
X110001Y48094D01*
X109898Y48141D01*
X109796Y48192D01*
X109697Y48246D01*
X109599Y48303D01*
X109503Y48364D01*
X109410Y48428D01*
X109319Y48496D01*
X109230Y48566D01*
X109144Y48640D01*
X109061Y48716D01*
X108980Y48796D01*
X108902Y48878D01*
X108827Y48963D01*
X108755Y49050D01*
X108686Y49140D01*
X108620Y49232D01*
X108557Y49327D01*
X108498Y49424D01*
X108498Y49423D02*
X104215Y56695D01*
X96554Y52183D02*
X96463Y52127D01*
X96375Y52068D01*
X96288Y52006D01*
X96204Y51940D01*
X96122Y51872D01*
X96043Y51800D01*
X95966Y51726D01*
X95892Y51649D01*
X95821Y51569D01*
X95753Y51487D01*
X95688Y51402D01*
X95626Y51316D01*
X95568Y51226D01*
X95512Y51135D01*
X95460Y51042D01*
X95412Y50947D01*
X95367Y50850D01*
X95325Y50752D01*
X95288Y50652D01*
X95253Y50551D01*
X95223Y50449D01*
X95196Y50346D01*
X95173Y50241D01*
X95154Y50136D01*
X95139Y50031D01*
X95127Y49925D01*
X95120Y49818D01*
X95116Y49712D01*
X95117Y49605D01*
X95121Y49498D01*
X95129Y49392D01*
X95141Y49286D01*
X95157Y49180D01*
X95176Y49076D01*
X95200Y48971D01*
X95227Y48868D01*
X95258Y48766D01*
X95293Y48665D01*
X95331Y48566D01*
X95373Y48468D01*
X95419Y48371D01*
X95468Y48276D01*
X95520Y48184D01*
X96554Y52183D02*
X96659Y52242D01*
X96766Y52299D01*
X96875Y52352D01*
X96986Y52401D01*
X97098Y52446D01*
X97211Y52489D01*
X97326Y52527D01*
X97442Y52562D01*
X97559Y52593D01*
X97677Y52620D01*
X97796Y52643D01*
X97915Y52662D01*
X98035Y52678D01*
X98156Y52690D01*
X98277Y52698D01*
X98397Y52701D01*
X98518Y52702D01*
X98639Y52698D01*
X98760Y52690D01*
X98881Y52678D01*
X99001Y52663D01*
X99120Y52643D01*
X99239Y52620D01*
X99357Y52593D01*
X99474Y52562D01*
X99590Y52528D01*
X99705Y52489D01*
X99818Y52447D01*
X99930Y52402D01*
X100041Y52352D01*
X100150Y52300D01*
X100257Y52243D01*
X100362Y52184D01*
X100465Y52121D01*
X100567Y52054D01*
X100666Y51985D01*
X100762Y51912D01*
X100857Y51836D01*
X100949Y51757D01*
X97511Y46720D02*
X97404Y46747D01*
X97298Y46777D01*
X97193Y46812D01*
X97090Y46850D01*
X96987Y46892D01*
X96887Y46937D01*
X96787Y46986D01*
X96690Y47038D01*
X96595Y47094D01*
X96501Y47153D01*
X96410Y47215D01*
X96321Y47280D01*
X96234Y47349D01*
X96150Y47420D01*
X96068Y47495D01*
X95989Y47572D01*
X95913Y47652D01*
X95840Y47734D01*
X95770Y47820D01*
X95702Y47907D01*
X95638Y47997D01*
X95577Y48089D01*
X95519Y48183D01*
X97512Y46719D02*
X105561Y43926D01*
X99968Y40631D01*
D10*
X85502Y69858D02*
X80264Y66931D01*
X90022Y49472D02*
X95259Y52400D01*
D12*
X99109Y73800D02*
X99111Y73864D01*
X99117Y73928D01*
X99127Y73991D01*
X99141Y74054D01*
X99158Y74115D01*
X99180Y74176D01*
X99205Y74234D01*
X99234Y74292D01*
X99266Y74347D01*
X99302Y74400D01*
X99341Y74451D01*
X99383Y74499D01*
X99428Y74545D01*
X99476Y74588D01*
X99526Y74628D01*
X99578Y74664D01*
X99633Y74697D01*
X99690Y74727D01*
X99749Y74753D01*
X99809Y74776D01*
X99870Y74794D01*
X99932Y74809D01*
X99995Y74820D01*
X100059Y74827D01*
X100123Y74830D01*
X100187Y74829D01*
X100251Y74824D01*
X100314Y74815D01*
X100377Y74802D01*
X100439Y74785D01*
X100500Y74765D01*
X100559Y74741D01*
X100617Y74713D01*
X100672Y74681D01*
X100726Y74646D01*
X100778Y74608D01*
X100827Y74567D01*
X100873Y74523D01*
X100916Y74476D01*
X100957Y74426D01*
X100994Y74374D01*
X101028Y74320D01*
X101059Y74263D01*
X101086Y74205D01*
X101109Y74146D01*
X101129Y74085D01*
X101145Y74022D01*
X101157Y73960D01*
X101165Y73896D01*
X101169Y73832D01*
X101169Y73768D01*
X101165Y73704D01*
X101157Y73640D01*
X101145Y73578D01*
X101129Y73515D01*
X101109Y73454D01*
X101086Y73395D01*
X101059Y73337D01*
X101028Y73280D01*
X100994Y73226D01*
X100957Y73174D01*
X100916Y73124D01*
X100873Y73077D01*
X100827Y73033D01*
X100778Y72992D01*
X100726Y72954D01*
X100672Y72919D01*
X100617Y72887D01*
X100559Y72859D01*
X100500Y72835D01*
X100439Y72815D01*
X100377Y72798D01*
X100314Y72785D01*
X100251Y72776D01*
X100187Y72771D01*
X100123Y72770D01*
X100059Y72773D01*
X99995Y72780D01*
X99932Y72791D01*
X99870Y72806D01*
X99809Y72824D01*
X99749Y72847D01*
X99690Y72873D01*
X99633Y72903D01*
X99578Y72936D01*
X99526Y72972D01*
X99476Y73012D01*
X99428Y73055D01*
X99383Y73101D01*
X99341Y73149D01*
X99302Y73200D01*
X99266Y73253D01*
X99234Y73308D01*
X99205Y73366D01*
X99180Y73424D01*
X99158Y73485D01*
X99141Y73546D01*
X99127Y73609D01*
X99117Y73672D01*
X99111Y73736D01*
X99109Y73800D01*
D11*
X95828Y85156D02*
X91711Y92523D01*
X95828Y85156D02*
X95881Y85056D01*
X95931Y84954D01*
X95978Y84851D01*
X96020Y84746D01*
X96059Y84639D01*
X96095Y84532D01*
X96126Y84423D01*
X96154Y84313D01*
X96178Y84202D01*
X96198Y84091D01*
X96214Y83979D01*
X96227Y83866D01*
X96235Y83753D01*
X96239Y83640D01*
X96240Y83527D01*
X96236Y83413D01*
X96229Y83300D01*
X96217Y83188D01*
X96202Y83075D01*
X96183Y82964D01*
X96159Y82853D01*
X96132Y82743D01*
X96101Y82634D01*
X96067Y82526D01*
X96028Y82419D01*
X95986Y82314D01*
X95941Y82210D01*
X95891Y82108D01*
X95838Y82008D01*
X95782Y81910D01*
X95722Y81814D01*
X95659Y81719D01*
X95593Y81628D01*
X95524Y81538D01*
X95451Y81451D01*
X95376Y81367D01*
X95297Y81285D01*
X95216Y81206D01*
X95132Y81130D01*
X95046Y81057D01*
X94957Y80986D01*
X94865Y80920D01*
X94771Y80856D01*
X94676Y80795D01*
X94578Y80738D01*
X94478Y80685D01*
X94376Y80635D01*
X94273Y80588D01*
X94168Y80546D01*
X94062Y80507D01*
X93954Y80471D01*
X93845Y80440D01*
X93735Y80412D01*
X93624Y80388D01*
X93513Y80368D01*
X93401Y80352D01*
X93288Y80339D01*
X93175Y80331D01*
X93062Y80327D01*
X92949Y80326D01*
X92835Y80330D01*
X92722Y80337D01*
X92610Y80349D01*
X92497Y80364D01*
X92386Y80383D01*
X92275Y80407D01*
X92165Y80434D01*
X92056Y80465D01*
X91948Y80499D01*
X91841Y80538D01*
X91736Y80580D01*
X91632Y80625D01*
X91530Y80675D01*
X91430Y80728D01*
X91332Y80784D01*
X91236Y80844D01*
X91141Y80907D01*
X91050Y80973D01*
X90960Y81042D01*
X90873Y81115D01*
X90789Y81190D01*
X90707Y81269D01*
X90628Y81350D01*
X90552Y81434D01*
X90479Y81520D01*
X90408Y81609D01*
X90342Y81701D01*
X90278Y81795D01*
X90217Y81890D01*
X90160Y81988D01*
X90161Y81989D02*
X86044Y89356D01*
X87100Y76560D02*
X84267Y74976D01*
X84167Y74923D01*
X84065Y74873D01*
X83962Y74826D01*
X83857Y74784D01*
X83751Y74745D01*
X83643Y74709D01*
X83534Y74678D01*
X83424Y74650D01*
X83313Y74626D01*
X83202Y74606D01*
X83090Y74590D01*
X82977Y74577D01*
X82864Y74569D01*
X82751Y74565D01*
X82638Y74564D01*
X82524Y74568D01*
X82411Y74575D01*
X82299Y74587D01*
X82186Y74602D01*
X82075Y74621D01*
X81964Y74645D01*
X81854Y74672D01*
X81745Y74703D01*
X81637Y74737D01*
X81530Y74776D01*
X81425Y74818D01*
X81321Y74863D01*
X81219Y74913D01*
X81119Y74966D01*
X81021Y75022D01*
X80925Y75082D01*
X80830Y75145D01*
X80739Y75211D01*
X80649Y75280D01*
X80562Y75353D01*
X80478Y75428D01*
X80396Y75507D01*
X80317Y75588D01*
X80241Y75672D01*
X80168Y75758D01*
X80097Y75847D01*
X80031Y75939D01*
X79967Y76033D01*
X79906Y76128D01*
X79849Y76226D01*
X79796Y76326D01*
X79746Y76428D01*
X79699Y76531D01*
X79657Y76636D01*
X79618Y76742D01*
X79582Y76850D01*
X79551Y76959D01*
X79523Y77069D01*
X79499Y77180D01*
X79479Y77291D01*
X79463Y77403D01*
X79450Y77516D01*
X79442Y77629D01*
X79438Y77742D01*
X79437Y77855D01*
X79441Y77969D01*
X79448Y78082D01*
X79460Y78194D01*
X79475Y78307D01*
X79494Y78418D01*
X79518Y78529D01*
X79545Y78639D01*
X79576Y78748D01*
X79610Y78856D01*
X79649Y78963D01*
X79691Y79068D01*
X79736Y79172D01*
X79786Y79274D01*
X79839Y79374D01*
X79895Y79472D01*
X79955Y79568D01*
X80018Y79663D01*
X80084Y79754D01*
X80153Y79844D01*
X80226Y79931D01*
X80301Y80015D01*
X80380Y80097D01*
X80461Y80176D01*
X80545Y80252D01*
X80631Y80325D01*
X80720Y80396D01*
X80812Y80462D01*
X80906Y80526D01*
X81001Y80587D01*
X81099Y80644D01*
X77999Y84860D02*
X81399Y86760D01*
X77999Y84860D02*
X77912Y84809D01*
X77827Y84755D01*
X77744Y84698D01*
X77664Y84637D01*
X77586Y84573D01*
X77510Y84507D01*
X77438Y84437D01*
X77367Y84365D01*
X77300Y84290D01*
X77236Y84212D01*
X77175Y84132D01*
X77116Y84050D01*
X77061Y83966D01*
X77010Y83879D01*
X76962Y83791D01*
X76917Y83701D01*
X76876Y83609D01*
X76838Y83515D01*
X76804Y83420D01*
X76774Y83324D01*
X76748Y83227D01*
X76725Y83129D01*
X76706Y83030D01*
X76691Y82930D01*
X76680Y82830D01*
X76673Y82730D01*
X76669Y82629D01*
X76670Y82529D01*
X76674Y82428D01*
X76683Y82328D01*
X76695Y82228D01*
X76711Y82128D01*
X76731Y82029D01*
X76755Y81932D01*
X76782Y81835D01*
X76813Y81739D01*
X76848Y81644D01*
X76887Y81551D01*
X76929Y81460D01*
X76975Y81370D01*
X77024Y81282D01*
X77077Y81196D01*
X77132Y81113D01*
X77191Y81031D01*
X77253Y80952D01*
X77319Y80875D01*
X77387Y80801D01*
X77458Y80729D01*
X77531Y80660D01*
X77608Y80595D01*
X77686Y80532D01*
X77767Y80472D01*
X77851Y80416D01*
X77936Y80362D01*
X78024Y80312D01*
X78113Y80266D01*
X78204Y80223D01*
X78297Y80184D01*
X78391Y80148D01*
X78487Y80116D01*
X78583Y80087D01*
X78681Y80063D01*
X78779Y80042D01*
X78879Y80025D01*
X78979Y80012D01*
X79079Y80003D01*
X79179Y79997D01*
X79280Y79996D01*
X79381Y79999D01*
X79481Y80005D01*
X79582Y80015D01*
X79681Y80029D01*
X79780Y80047D01*
X79879Y80069D01*
X79976Y80095D01*
X80072Y80124D01*
X80167Y80157D01*
X80261Y80194D01*
X80354Y80235D01*
X80444Y80279D01*
X80533Y80326D01*
X82800Y81593D01*
D10*
X63754Y106941D02*
X58601Y103869D01*
X68841Y86690D02*
X73995Y89762D01*
D12*
X77246Y111290D02*
X77248Y111354D01*
X77254Y111418D01*
X77264Y111481D01*
X77278Y111544D01*
X77295Y111605D01*
X77317Y111666D01*
X77342Y111724D01*
X77371Y111782D01*
X77403Y111837D01*
X77439Y111890D01*
X77478Y111941D01*
X77520Y111989D01*
X77565Y112035D01*
X77613Y112078D01*
X77663Y112118D01*
X77715Y112154D01*
X77770Y112187D01*
X77827Y112217D01*
X77886Y112243D01*
X77946Y112266D01*
X78007Y112284D01*
X78069Y112299D01*
X78132Y112310D01*
X78196Y112317D01*
X78260Y112320D01*
X78324Y112319D01*
X78388Y112314D01*
X78451Y112305D01*
X78514Y112292D01*
X78576Y112275D01*
X78637Y112255D01*
X78696Y112231D01*
X78754Y112203D01*
X78809Y112171D01*
X78863Y112136D01*
X78915Y112098D01*
X78964Y112057D01*
X79010Y112013D01*
X79053Y111966D01*
X79094Y111916D01*
X79131Y111864D01*
X79165Y111810D01*
X79196Y111753D01*
X79223Y111695D01*
X79246Y111636D01*
X79266Y111575D01*
X79282Y111512D01*
X79294Y111450D01*
X79302Y111386D01*
X79306Y111322D01*
X79306Y111258D01*
X79302Y111194D01*
X79294Y111130D01*
X79282Y111068D01*
X79266Y111005D01*
X79246Y110944D01*
X79223Y110885D01*
X79196Y110827D01*
X79165Y110770D01*
X79131Y110716D01*
X79094Y110664D01*
X79053Y110614D01*
X79010Y110567D01*
X78964Y110523D01*
X78915Y110482D01*
X78863Y110444D01*
X78809Y110409D01*
X78754Y110377D01*
X78696Y110349D01*
X78637Y110325D01*
X78576Y110305D01*
X78514Y110288D01*
X78451Y110275D01*
X78388Y110266D01*
X78324Y110261D01*
X78260Y110260D01*
X78196Y110263D01*
X78132Y110270D01*
X78069Y110281D01*
X78007Y110296D01*
X77946Y110314D01*
X77886Y110337D01*
X77827Y110363D01*
X77770Y110393D01*
X77715Y110426D01*
X77663Y110462D01*
X77613Y110502D01*
X77565Y110545D01*
X77520Y110591D01*
X77478Y110639D01*
X77439Y110690D01*
X77403Y110743D01*
X77371Y110798D01*
X77342Y110856D01*
X77317Y110914D01*
X77295Y110975D01*
X77278Y111036D01*
X77264Y111099D01*
X77254Y111162D01*
X77248Y111226D01*
X77246Y111290D01*
D11*
X73649Y122521D02*
X69328Y129770D01*
X73649Y122521D02*
X73705Y122423D01*
X73758Y122323D01*
X73808Y122221D01*
X73853Y122117D01*
X73895Y122012D01*
X73934Y121905D01*
X73968Y121797D01*
X73999Y121688D01*
X74026Y121578D01*
X74050Y121467D01*
X74069Y121356D01*
X74084Y121243D01*
X74096Y121131D01*
X74103Y121018D01*
X74107Y120904D01*
X74106Y120791D01*
X74102Y120678D01*
X74094Y120565D01*
X74081Y120452D01*
X74065Y120340D01*
X74045Y120229D01*
X74021Y120118D01*
X73993Y120008D01*
X73962Y119899D01*
X73926Y119791D01*
X73887Y119685D01*
X73845Y119580D01*
X73798Y119477D01*
X73748Y119375D01*
X73695Y119275D01*
X73638Y119177D01*
X73577Y119082D01*
X73513Y118988D01*
X73447Y118896D01*
X73376Y118807D01*
X73303Y118721D01*
X73227Y118637D01*
X73148Y118556D01*
X73066Y118477D01*
X72982Y118402D01*
X72895Y118329D01*
X72805Y118260D01*
X72714Y118194D01*
X72619Y118131D01*
X72523Y118071D01*
X72425Y118015D01*
X72325Y117962D01*
X72223Y117912D01*
X72119Y117867D01*
X72014Y117825D01*
X71907Y117786D01*
X71799Y117752D01*
X71690Y117721D01*
X71580Y117694D01*
X71469Y117670D01*
X71358Y117651D01*
X71245Y117636D01*
X71133Y117624D01*
X71020Y117617D01*
X70906Y117613D01*
X70793Y117614D01*
X70680Y117618D01*
X70567Y117626D01*
X70454Y117639D01*
X70342Y117655D01*
X70231Y117675D01*
X70120Y117699D01*
X70010Y117727D01*
X69901Y117758D01*
X69794Y117794D01*
X69687Y117833D01*
X69582Y117875D01*
X69479Y117922D01*
X69377Y117972D01*
X69277Y118025D01*
X69179Y118082D01*
X69084Y118143D01*
X68990Y118207D01*
X68898Y118273D01*
X68809Y118344D01*
X68723Y118417D01*
X68639Y118493D01*
X68558Y118572D01*
X68479Y118654D01*
X68404Y118738D01*
X68331Y118825D01*
X68262Y118915D01*
X68196Y119006D01*
X68133Y119101D01*
X68073Y119197D01*
X63751Y126446D01*
X56951Y122392D02*
X63835Y115915D01*
X58259Y112591D01*
X58602Y115819D02*
X61262Y111358D01*
D10*
X45165Y139950D02*
X39907Y137060D01*
X49542Y119534D02*
X54800Y122424D01*
D12*
X58799Y143790D02*
X58801Y143854D01*
X58807Y143918D01*
X58817Y143981D01*
X58831Y144044D01*
X58848Y144105D01*
X58870Y144166D01*
X58895Y144224D01*
X58924Y144282D01*
X58956Y144337D01*
X58992Y144390D01*
X59031Y144441D01*
X59073Y144489D01*
X59118Y144535D01*
X59166Y144578D01*
X59216Y144618D01*
X59268Y144654D01*
X59323Y144687D01*
X59380Y144717D01*
X59439Y144743D01*
X59499Y144766D01*
X59560Y144784D01*
X59622Y144799D01*
X59685Y144810D01*
X59749Y144817D01*
X59813Y144820D01*
X59877Y144819D01*
X59941Y144814D01*
X60004Y144805D01*
X60067Y144792D01*
X60129Y144775D01*
X60190Y144755D01*
X60249Y144731D01*
X60307Y144703D01*
X60362Y144671D01*
X60416Y144636D01*
X60468Y144598D01*
X60517Y144557D01*
X60563Y144513D01*
X60606Y144466D01*
X60647Y144416D01*
X60684Y144364D01*
X60718Y144310D01*
X60749Y144253D01*
X60776Y144195D01*
X60799Y144136D01*
X60819Y144075D01*
X60835Y144012D01*
X60847Y143950D01*
X60855Y143886D01*
X60859Y143822D01*
X60859Y143758D01*
X60855Y143694D01*
X60847Y143630D01*
X60835Y143568D01*
X60819Y143505D01*
X60799Y143444D01*
X60776Y143385D01*
X60749Y143327D01*
X60718Y143270D01*
X60684Y143216D01*
X60647Y143164D01*
X60606Y143114D01*
X60563Y143067D01*
X60517Y143023D01*
X60468Y142982D01*
X60416Y142944D01*
X60362Y142909D01*
X60307Y142877D01*
X60249Y142849D01*
X60190Y142825D01*
X60129Y142805D01*
X60067Y142788D01*
X60004Y142775D01*
X59941Y142766D01*
X59877Y142761D01*
X59813Y142760D01*
X59749Y142763D01*
X59685Y142770D01*
X59622Y142781D01*
X59560Y142796D01*
X59499Y142814D01*
X59439Y142837D01*
X59380Y142863D01*
X59323Y142893D01*
X59268Y142926D01*
X59216Y142962D01*
X59166Y143002D01*
X59118Y143045D01*
X59073Y143091D01*
X59031Y143139D01*
X58992Y143190D01*
X58956Y143243D01*
X58924Y143298D01*
X58895Y143356D01*
X58870Y143414D01*
X58848Y143475D01*
X58831Y143536D01*
X58817Y143599D01*
X58807Y143662D01*
X58801Y143726D01*
X58799Y143790D01*
D11*
X55597Y155176D02*
X51531Y162571D01*
X55597Y155176D02*
X55650Y155076D01*
X55700Y154974D01*
X55745Y154870D01*
X55787Y154765D01*
X55826Y154658D01*
X55860Y154550D01*
X55891Y154441D01*
X55918Y154331D01*
X55942Y154220D01*
X55961Y154109D01*
X55976Y153996D01*
X55988Y153884D01*
X55995Y153771D01*
X55999Y153657D01*
X55998Y153544D01*
X55994Y153431D01*
X55986Y153318D01*
X55973Y153205D01*
X55957Y153093D01*
X55937Y152982D01*
X55913Y152871D01*
X55885Y152761D01*
X55854Y152652D01*
X55818Y152544D01*
X55779Y152438D01*
X55737Y152333D01*
X55690Y152230D01*
X55640Y152128D01*
X55587Y152028D01*
X55530Y151930D01*
X55469Y151835D01*
X55405Y151741D01*
X55339Y151649D01*
X55268Y151560D01*
X55195Y151474D01*
X55119Y151390D01*
X55040Y151309D01*
X54958Y151230D01*
X54874Y151155D01*
X54787Y151082D01*
X54697Y151013D01*
X54606Y150947D01*
X54511Y150884D01*
X54415Y150824D01*
X54317Y150768D01*
X54217Y150715D01*
X54115Y150665D01*
X54011Y150620D01*
X53906Y150578D01*
X53799Y150539D01*
X53691Y150505D01*
X53582Y150474D01*
X53472Y150447D01*
X53361Y150423D01*
X53250Y150404D01*
X53137Y150389D01*
X53025Y150377D01*
X52912Y150370D01*
X52798Y150366D01*
X52685Y150367D01*
X52572Y150371D01*
X52459Y150379D01*
X52346Y150392D01*
X52234Y150408D01*
X52123Y150428D01*
X52012Y150452D01*
X51902Y150480D01*
X51793Y150511D01*
X51685Y150547D01*
X51579Y150586D01*
X51474Y150628D01*
X51371Y150675D01*
X51269Y150725D01*
X51169Y150779D01*
X51071Y150835D01*
X50976Y150896D01*
X50882Y150960D01*
X50790Y151026D01*
X50701Y151097D01*
X50615Y151170D01*
X50531Y151246D01*
X50450Y151325D01*
X50371Y151407D01*
X50296Y151491D01*
X50223Y151578D01*
X50154Y151668D01*
X50088Y151759D01*
X50025Y151854D01*
X49965Y151950D01*
X49908Y152048D01*
X45843Y159444D01*
X46810Y146641D02*
X43396Y144764D01*
X43308Y144718D01*
X43218Y144675D01*
X43127Y144636D01*
X43034Y144600D01*
X42940Y144568D01*
X42845Y144539D01*
X42748Y144514D01*
X42651Y144493D01*
X42553Y144475D01*
X42455Y144462D01*
X42356Y144452D01*
X42256Y144445D01*
X42157Y144443D01*
X42057Y144444D01*
X41958Y144450D01*
X41859Y144459D01*
X41760Y144472D01*
X41662Y144488D01*
X41565Y144509D01*
X41468Y144533D01*
X41373Y144560D01*
X41278Y144592D01*
X41185Y144627D01*
X41094Y144665D01*
X41003Y144707D01*
X40915Y144753D01*
X40828Y144802D01*
X40743Y144854D01*
X40661Y144909D01*
X40580Y144967D01*
X40502Y145029D01*
X40426Y145093D01*
X40353Y145161D01*
X40282Y145231D01*
X40214Y145303D01*
X40149Y145378D01*
X40087Y145456D01*
X40028Y145536D01*
X39972Y145618D01*
X39919Y145703D01*
X39869Y145789D01*
X39870Y145789D02*
X39244Y146926D01*
X39198Y147014D01*
X39155Y147104D01*
X39116Y147195D01*
X39080Y147288D01*
X39048Y147382D01*
X39019Y147477D01*
X38994Y147574D01*
X38973Y147671D01*
X38955Y147769D01*
X38942Y147867D01*
X38932Y147966D01*
X38925Y148066D01*
X38923Y148165D01*
X38924Y148265D01*
X38930Y148364D01*
X38939Y148463D01*
X38952Y148562D01*
X38968Y148660D01*
X38989Y148757D01*
X39013Y148854D01*
X39040Y148949D01*
X39072Y149044D01*
X39107Y149137D01*
X39145Y149228D01*
X39187Y149319D01*
X39233Y149407D01*
X39282Y149494D01*
X39334Y149579D01*
X39389Y149661D01*
X39447Y149742D01*
X39509Y149820D01*
X39573Y149896D01*
X39641Y149969D01*
X39711Y150040D01*
X39783Y150108D01*
X39859Y150173D01*
X39936Y150235D01*
X40016Y150294D01*
X40098Y150350D01*
X40183Y150403D01*
X40269Y150453D01*
X43682Y152329D01*
X41180Y156881D01*
X35491Y153753D01*
D10*
X28012Y170483D02*
X22690Y167713D01*
X31925Y149972D02*
X37247Y152743D01*
D12*
X41730Y173989D02*
X41732Y174053D01*
X41738Y174117D01*
X41748Y174180D01*
X41762Y174243D01*
X41779Y174304D01*
X41801Y174365D01*
X41826Y174423D01*
X41855Y174481D01*
X41887Y174536D01*
X41923Y174589D01*
X41962Y174640D01*
X42004Y174688D01*
X42049Y174734D01*
X42097Y174777D01*
X42147Y174817D01*
X42199Y174853D01*
X42254Y174886D01*
X42311Y174916D01*
X42370Y174942D01*
X42430Y174965D01*
X42491Y174983D01*
X42553Y174998D01*
X42616Y175009D01*
X42680Y175016D01*
X42744Y175019D01*
X42808Y175018D01*
X42872Y175013D01*
X42935Y175004D01*
X42998Y174991D01*
X43060Y174974D01*
X43121Y174954D01*
X43180Y174930D01*
X43238Y174902D01*
X43293Y174870D01*
X43347Y174835D01*
X43399Y174797D01*
X43448Y174756D01*
X43494Y174712D01*
X43537Y174665D01*
X43578Y174615D01*
X43615Y174563D01*
X43649Y174509D01*
X43680Y174452D01*
X43707Y174394D01*
X43730Y174335D01*
X43750Y174274D01*
X43766Y174211D01*
X43778Y174149D01*
X43786Y174085D01*
X43790Y174021D01*
X43790Y173957D01*
X43786Y173893D01*
X43778Y173829D01*
X43766Y173767D01*
X43750Y173704D01*
X43730Y173643D01*
X43707Y173584D01*
X43680Y173526D01*
X43649Y173469D01*
X43615Y173415D01*
X43578Y173363D01*
X43537Y173313D01*
X43494Y173266D01*
X43448Y173222D01*
X43399Y173181D01*
X43347Y173143D01*
X43293Y173108D01*
X43238Y173076D01*
X43180Y173048D01*
X43121Y173024D01*
X43060Y173004D01*
X42998Y172987D01*
X42935Y172974D01*
X42872Y172965D01*
X42808Y172960D01*
X42744Y172959D01*
X42680Y172962D01*
X42616Y172969D01*
X42553Y172980D01*
X42491Y172995D01*
X42430Y173013D01*
X42370Y173036D01*
X42311Y173062D01*
X42254Y173092D01*
X42199Y173125D01*
X42147Y173161D01*
X42097Y173201D01*
X42049Y173244D01*
X42004Y173290D01*
X41962Y173338D01*
X41923Y173389D01*
X41887Y173442D01*
X41855Y173497D01*
X41826Y173555D01*
X41801Y173613D01*
X41779Y173674D01*
X41762Y173735D01*
X41748Y173798D01*
X41738Y173861D01*
X41732Y173925D01*
X41730Y173989D01*
D11*
X38787Y185468D02*
X34890Y192954D01*
X38787Y185468D02*
X38838Y185366D01*
X38885Y185263D01*
X38928Y185159D01*
X38968Y185053D01*
X39004Y184945D01*
X39036Y184836D01*
X39064Y184727D01*
X39089Y184616D01*
X39109Y184505D01*
X39126Y184393D01*
X39139Y184280D01*
X39148Y184167D01*
X39153Y184054D01*
X39154Y183941D01*
X39151Y183827D01*
X39144Y183714D01*
X39133Y183602D01*
X39118Y183489D01*
X39100Y183377D01*
X39077Y183266D01*
X39051Y183156D01*
X39020Y183047D01*
X38986Y182939D01*
X38948Y182832D01*
X38907Y182727D01*
X38862Y182623D01*
X38813Y182521D01*
X38761Y182420D01*
X38705Y182322D01*
X38646Y182225D01*
X38583Y182130D01*
X38517Y182038D01*
X38448Y181948D01*
X38376Y181861D01*
X38301Y181776D01*
X38223Y181694D01*
X38142Y181614D01*
X38059Y181538D01*
X37973Y181464D01*
X37884Y181394D01*
X37793Y181326D01*
X37700Y181262D01*
X37604Y181201D01*
X37506Y181144D01*
X37407Y181090D01*
X37305Y181039D01*
X37202Y180992D01*
X37098Y180949D01*
X36992Y180909D01*
X36884Y180873D01*
X36775Y180841D01*
X36666Y180813D01*
X36555Y180788D01*
X36444Y180768D01*
X36332Y180751D01*
X36219Y180738D01*
X36106Y180729D01*
X35993Y180724D01*
X35880Y180723D01*
X35766Y180726D01*
X35653Y180733D01*
X35541Y180744D01*
X35428Y180759D01*
X35316Y180777D01*
X35205Y180800D01*
X35095Y180826D01*
X34986Y180857D01*
X34878Y180891D01*
X34771Y180929D01*
X34666Y180970D01*
X34562Y181015D01*
X34460Y181064D01*
X34359Y181116D01*
X34261Y181172D01*
X34164Y181231D01*
X34069Y181294D01*
X33977Y181360D01*
X33887Y181429D01*
X33800Y181501D01*
X33715Y181576D01*
X33633Y181654D01*
X33553Y181735D01*
X33477Y181818D01*
X33403Y181904D01*
X33333Y181993D01*
X33265Y182084D01*
X33201Y182177D01*
X33140Y182273D01*
X33083Y182371D01*
X33029Y182470D01*
X29132Y189956D01*
X26811Y182893D02*
X23356Y181094D01*
X23356Y181095D02*
X23268Y181047D01*
X23183Y180996D01*
X23100Y180942D01*
X23018Y180885D01*
X22939Y180824D01*
X22863Y180761D01*
X22788Y180694D01*
X22717Y180625D01*
X22648Y180554D01*
X22582Y180479D01*
X22518Y180402D01*
X22458Y180323D01*
X22401Y180242D01*
X22347Y180158D01*
X22296Y180073D01*
X22249Y179985D01*
X22205Y179896D01*
X22164Y179805D01*
X22127Y179713D01*
X22094Y179619D01*
X22064Y179524D01*
X22037Y179428D01*
X22015Y179331D01*
X21996Y179234D01*
X21981Y179135D01*
X21970Y179037D01*
X21962Y178937D01*
X21958Y178838D01*
X21959Y178738D01*
X21962Y178639D01*
X21970Y178540D01*
X21982Y178441D01*
X21997Y178343D01*
X22016Y178245D01*
X22039Y178148D01*
X22065Y178052D01*
X22095Y177958D01*
X22129Y177864D01*
X22166Y177772D01*
X22207Y177681D01*
X22251Y177592D01*
X22252Y177592D02*
X22551Y177016D01*
X22605Y176917D01*
X22662Y176819D01*
X22723Y176723D01*
X22787Y176630D01*
X22855Y176539D01*
X22925Y176450D01*
X22999Y176364D01*
X23075Y176281D01*
X23155Y176200D01*
X23237Y176122D01*
X23322Y176047D01*
X23409Y175975D01*
X23499Y175906D01*
X23591Y175840D01*
X23686Y175777D01*
X23783Y175718D01*
X23881Y175662D01*
X23982Y175610D01*
X24084Y175561D01*
X24188Y175516D01*
X24293Y175475D01*
X24400Y175437D01*
X24508Y175403D01*
X24617Y175372D01*
X24727Y175346D01*
X24838Y175323D01*
X24950Y175305D01*
X25063Y175290D01*
X25175Y175279D01*
X25288Y175272D01*
X25402Y175269D01*
X25515Y175270D01*
X25628Y175275D01*
X25741Y175284D01*
X25854Y175297D01*
X25966Y175314D01*
X26077Y175334D01*
X26188Y175359D01*
X26297Y175387D01*
X26406Y175419D01*
X26514Y175455D01*
X26620Y175495D01*
X26724Y175538D01*
X26827Y175585D01*
X26929Y175636D01*
X27028Y175690D01*
X27126Y175747D01*
X27222Y175808D01*
X27315Y175872D01*
X27406Y175940D01*
X27495Y176010D01*
X27581Y176084D01*
X27664Y176160D01*
X27745Y176240D01*
X27823Y176322D01*
X27898Y176407D01*
X27970Y176494D01*
X28039Y176584D01*
X28105Y176676D01*
X28168Y176771D01*
X28227Y176868D01*
X28283Y176966D01*
X28335Y177067D01*
X28384Y177169D01*
X28429Y177273D01*
X28470Y177378D01*
X28508Y177485D01*
X28542Y177593D01*
X28573Y177702D01*
X28599Y177812D01*
X28622Y177923D01*
X28640Y178035D01*
X28655Y178148D01*
X28666Y178260D01*
X28673Y178373D01*
X28676Y178487D01*
X28675Y178600D01*
X28670Y178713D01*
X28661Y178826D01*
X28648Y178939D01*
X28631Y179051D01*
X28611Y179162D01*
X28586Y179273D01*
X28558Y179382D01*
X28526Y179491D01*
X28490Y179599D01*
X28450Y179705D01*
X28407Y179809D01*
X28360Y179912D01*
X28309Y180014D01*
X28310Y180013D02*
X26811Y182893D01*
X26743Y183019D01*
X26672Y183143D01*
X26597Y183266D01*
X26519Y183386D01*
X26438Y183503D01*
X26354Y183619D01*
X26266Y183732D01*
X26175Y183843D01*
X26081Y183951D01*
X25985Y184056D01*
X25885Y184159D01*
X25783Y184259D01*
X25678Y184356D01*
X25570Y184451D01*
X25460Y184542D01*
X25347Y184630D01*
X25232Y184715D01*
X25114Y184797D01*
X24995Y184876D01*
X24873Y184951D01*
X24749Y185023D01*
X24623Y185091D01*
X24496Y185156D01*
X24367Y185217D01*
X24236Y185275D01*
X24103Y185329D01*
X23969Y185380D01*
X23834Y185427D01*
X23697Y185470D01*
X23560Y185509D01*
X23421Y185544D01*
X23282Y185576D01*
X23141Y185604D01*
X23000Y185628D01*
X22858Y185648D01*
X22716Y185664D01*
X22573Y185676D01*
X22431Y185684D01*
X22288Y185688D01*
X22144Y185689D01*
X22001Y185685D01*
X21858Y185677D01*
X21716Y185666D01*
X21573Y185651D01*
X21432Y185631D01*
X21290Y185608D01*
X21150Y185581D01*
X21010Y185550D01*
X20871Y185515D01*
X20733Y185476D01*
X20597Y185434D01*
X20461Y185388D01*
X20327Y185338D01*
X20194Y185284D01*
X20063Y185227D01*
X19934Y185166D01*
X19806Y185102D01*
D10*
X102950Y80137D02*
X111937Y65121D01*
X125650Y73329D02*
X116663Y88345D01*
D11*
X92987Y60677D02*
X94321Y58449D01*
X94321Y58450D02*
X94374Y58366D01*
X94430Y58283D01*
X94489Y58203D01*
X94551Y58125D01*
X94616Y58050D01*
X94684Y57977D01*
X94754Y57907D01*
X94828Y57840D01*
X94903Y57775D01*
X94981Y57714D01*
X95062Y57655D01*
X95144Y57600D01*
X95229Y57548D01*
X95316Y57499D01*
X95404Y57453D01*
X95494Y57411D01*
X95586Y57372D01*
X95679Y57337D01*
X95773Y57306D01*
X95868Y57278D01*
X95965Y57254D01*
X96062Y57233D01*
X96160Y57216D01*
X96259Y57203D01*
X96358Y57194D01*
X96457Y57189D01*
X96557Y57187D01*
X96656Y57189D01*
X96755Y57195D01*
X96854Y57205D01*
X96953Y57219D01*
X97051Y57236D01*
X97148Y57257D01*
X97244Y57282D01*
X97340Y57310D01*
X97434Y57342D01*
X97526Y57378D01*
X97618Y57417D01*
X97708Y57460D01*
X97796Y57506D01*
X97882Y57555D01*
X103452Y60888D01*
X103451Y60888D02*
X103536Y60941D01*
X103618Y60997D01*
X103698Y61056D01*
X103776Y61118D01*
X103851Y61183D01*
X103924Y61251D01*
X103994Y61321D01*
X104061Y61395D01*
X104126Y61470D01*
X104187Y61548D01*
X104246Y61629D01*
X104301Y61711D01*
X104353Y61796D01*
X104402Y61883D01*
X104448Y61971D01*
X104490Y62061D01*
X104529Y62153D01*
X104564Y62246D01*
X104595Y62340D01*
X104623Y62435D01*
X104647Y62532D01*
X104668Y62629D01*
X104685Y62727D01*
X104698Y62826D01*
X104707Y62925D01*
X104712Y63024D01*
X104714Y63124D01*
X104712Y63223D01*
X104706Y63322D01*
X104696Y63421D01*
X104682Y63520D01*
X104665Y63618D01*
X104644Y63715D01*
X104619Y63811D01*
X104591Y63907D01*
X104559Y64001D01*
X104523Y64093D01*
X104484Y64185D01*
X104441Y64275D01*
X104395Y64363D01*
X104346Y64449D01*
X104346Y64450D02*
X103013Y66678D01*
X99438Y72651D02*
X92973Y65756D01*
X89640Y71326D01*
X92868Y70989D02*
X88412Y68322D01*
D10*
X113069Y50992D02*
X122239Y36087D01*
X135851Y44462D02*
X126681Y59367D01*
D11*
X103345Y31412D02*
X104706Y29201D01*
X104760Y29117D01*
X104817Y29035D01*
X104877Y28956D01*
X104939Y28879D01*
X105005Y28805D01*
X105074Y28733D01*
X105145Y28663D01*
X105219Y28597D01*
X105296Y28533D01*
X105375Y28473D01*
X105456Y28415D01*
X105539Y28361D01*
X105624Y28310D01*
X105712Y28262D01*
X105800Y28217D01*
X105891Y28176D01*
X105983Y28139D01*
X106077Y28105D01*
X106171Y28074D01*
X106267Y28048D01*
X106364Y28025D01*
X106461Y28005D01*
X106560Y27990D01*
X106658Y27978D01*
X106758Y27970D01*
X106857Y27966D01*
X106956Y27965D01*
X107056Y27969D01*
X107155Y27976D01*
X107254Y27987D01*
X107352Y28002D01*
X107450Y28020D01*
X107547Y28043D01*
X107643Y28069D01*
X107738Y28098D01*
X107831Y28131D01*
X107924Y28168D01*
X108015Y28208D01*
X108104Y28252D01*
X108192Y28299D01*
X108277Y28350D01*
X108278Y28350D02*
X113806Y31751D01*
X113890Y31805D01*
X113972Y31862D01*
X114051Y31922D01*
X114128Y31984D01*
X114202Y32050D01*
X114274Y32119D01*
X114344Y32190D01*
X114410Y32264D01*
X114474Y32341D01*
X114534Y32420D01*
X114592Y32501D01*
X114646Y32584D01*
X114697Y32669D01*
X114745Y32757D01*
X114790Y32846D01*
X114831Y32936D01*
X114868Y33028D01*
X114902Y33122D01*
X114933Y33216D01*
X114959Y33312D01*
X114982Y33409D01*
X115002Y33506D01*
X115017Y33605D01*
X115029Y33703D01*
X115037Y33803D01*
X115041Y33902D01*
X115042Y34001D01*
X115038Y34101D01*
X115031Y34200D01*
X115020Y34299D01*
X115005Y34397D01*
X114987Y34495D01*
X114964Y34592D01*
X114938Y34688D01*
X114909Y34783D01*
X114876Y34876D01*
X114839Y34969D01*
X114798Y35060D01*
X114755Y35149D01*
X114708Y35237D01*
X114657Y35322D01*
X114657Y35323D02*
X113297Y37534D01*
X101058Y35130D02*
X99017Y38447D01*
X99017Y38448D02*
X98966Y38533D01*
X98919Y38621D01*
X98876Y38710D01*
X98835Y38801D01*
X98798Y38894D01*
X98765Y38987D01*
X98736Y39082D01*
X98710Y39178D01*
X98687Y39275D01*
X98669Y39373D01*
X98654Y39471D01*
X98643Y39570D01*
X98636Y39669D01*
X98632Y39769D01*
X98633Y39868D01*
X98637Y39967D01*
X98645Y40067D01*
X98657Y40165D01*
X98672Y40264D01*
X98692Y40361D01*
X98715Y40458D01*
X98741Y40554D01*
X98772Y40648D01*
X98806Y40742D01*
X98843Y40834D01*
X98884Y40924D01*
X98929Y41013D01*
X98977Y41101D01*
X99028Y41186D01*
X99082Y41269D01*
X99140Y41350D01*
X99200Y41429D01*
X99264Y41506D01*
X99330Y41580D01*
X99400Y41651D01*
X99472Y41720D01*
X99546Y41786D01*
X99623Y41848D01*
X99702Y41908D01*
X99784Y41965D01*
X99868Y42019D01*
X100974Y42700D01*
X100974Y42699D02*
X101059Y42750D01*
X101147Y42797D01*
X101236Y42841D01*
X101327Y42881D01*
X101420Y42918D01*
X101513Y42951D01*
X101608Y42980D01*
X101704Y43006D01*
X101801Y43029D01*
X101899Y43047D01*
X101997Y43062D01*
X102096Y43073D01*
X102195Y43080D01*
X102295Y43084D01*
X102394Y43083D01*
X102493Y43079D01*
X102593Y43071D01*
X102691Y43059D01*
X102790Y43044D01*
X102887Y43024D01*
X102984Y43001D01*
X103080Y42975D01*
X103174Y42944D01*
X103268Y42910D01*
X103360Y42873D01*
X103451Y42832D01*
X103539Y42787D01*
X103627Y42739D01*
X103712Y42688D01*
X103795Y42634D01*
X103876Y42576D01*
X103955Y42516D01*
X104032Y42452D01*
X104106Y42386D01*
X104177Y42316D01*
X104246Y42244D01*
X104312Y42170D01*
X104374Y42093D01*
X104434Y42014D01*
X104491Y41932D01*
X104545Y41848D01*
X104546Y41849D02*
X106586Y38531D01*
X111009Y41252D01*
X107608Y46781D01*
D10*
X107810Y183804D02*
X90310Y183804D01*
X90310Y199786D02*
X107810Y199786D01*
D11*
X104488Y165262D02*
X101892Y165262D01*
X104488Y165262D02*
X104587Y165264D01*
X104687Y165270D01*
X104786Y165279D01*
X104884Y165292D01*
X104982Y165309D01*
X105080Y165330D01*
X105176Y165355D01*
X105271Y165383D01*
X105365Y165415D01*
X105458Y165450D01*
X105550Y165489D01*
X105640Y165532D01*
X105728Y165577D01*
X105815Y165627D01*
X105899Y165679D01*
X105982Y165735D01*
X106062Y165793D01*
X106140Y165855D01*
X106215Y165920D01*
X106288Y165988D01*
X106358Y166058D01*
X106426Y166131D01*
X106491Y166206D01*
X106553Y166284D01*
X106611Y166364D01*
X106667Y166447D01*
X106719Y166531D01*
X106769Y166618D01*
X106814Y166706D01*
X106857Y166796D01*
X106896Y166888D01*
X106931Y166981D01*
X106963Y167075D01*
X106991Y167170D01*
X107016Y167266D01*
X107037Y167364D01*
X107054Y167462D01*
X107067Y167560D01*
X107076Y167659D01*
X107082Y167759D01*
X107084Y167858D01*
X107085Y167858D02*
X107085Y174350D01*
X107084Y174350D02*
X107082Y174449D01*
X107076Y174549D01*
X107067Y174648D01*
X107054Y174746D01*
X107037Y174844D01*
X107016Y174942D01*
X106991Y175038D01*
X106963Y175133D01*
X106931Y175227D01*
X106896Y175320D01*
X106857Y175412D01*
X106814Y175502D01*
X106769Y175590D01*
X106719Y175677D01*
X106667Y175761D01*
X106611Y175844D01*
X106553Y175924D01*
X106491Y176002D01*
X106426Y176077D01*
X106358Y176150D01*
X106288Y176220D01*
X106215Y176288D01*
X106140Y176353D01*
X106062Y176415D01*
X105982Y176473D01*
X105899Y176529D01*
X105815Y176581D01*
X105728Y176631D01*
X105640Y176676D01*
X105550Y176719D01*
X105458Y176758D01*
X105365Y176793D01*
X105271Y176825D01*
X105176Y176853D01*
X105080Y176878D01*
X104982Y176899D01*
X104884Y176916D01*
X104786Y176929D01*
X104687Y176938D01*
X104587Y176944D01*
X104488Y176946D01*
X101892Y176946D01*
X97526Y171753D02*
X93632Y171753D01*
X93533Y171751D01*
X93433Y171745D01*
X93334Y171736D01*
X93236Y171723D01*
X93138Y171706D01*
X93040Y171685D01*
X92944Y171660D01*
X92849Y171632D01*
X92755Y171600D01*
X92662Y171565D01*
X92570Y171526D01*
X92480Y171483D01*
X92392Y171438D01*
X92305Y171388D01*
X92221Y171336D01*
X92138Y171280D01*
X92058Y171222D01*
X91980Y171160D01*
X91905Y171095D01*
X91832Y171027D01*
X91762Y170957D01*
X91694Y170884D01*
X91629Y170809D01*
X91567Y170731D01*
X91509Y170651D01*
X91453Y170568D01*
X91401Y170484D01*
X91351Y170397D01*
X91306Y170309D01*
X91263Y170219D01*
X91224Y170127D01*
X91189Y170034D01*
X91157Y169940D01*
X91129Y169845D01*
X91104Y169749D01*
X91083Y169651D01*
X91066Y169553D01*
X91053Y169455D01*
X91044Y169356D01*
X91038Y169256D01*
X91036Y169157D01*
X91035Y169157D02*
X91035Y168508D01*
X91037Y168395D01*
X91043Y168282D01*
X91053Y168169D01*
X91067Y168056D01*
X91084Y167944D01*
X91106Y167833D01*
X91131Y167723D01*
X91161Y167613D01*
X91194Y167505D01*
X91231Y167398D01*
X91271Y167292D01*
X91316Y167188D01*
X91364Y167085D01*
X91415Y166984D01*
X91470Y166885D01*
X91528Y166788D01*
X91590Y166693D01*
X91655Y166600D01*
X91723Y166510D01*
X91794Y166422D01*
X91869Y166336D01*
X91946Y166253D01*
X92026Y166173D01*
X92109Y166096D01*
X92195Y166021D01*
X92283Y165950D01*
X92373Y165882D01*
X92466Y165817D01*
X92561Y165755D01*
X92658Y165697D01*
X92757Y165642D01*
X92858Y165591D01*
X92961Y165543D01*
X93065Y165498D01*
X93171Y165458D01*
X93278Y165421D01*
X93386Y165388D01*
X93496Y165358D01*
X93606Y165333D01*
X93717Y165311D01*
X93829Y165294D01*
X93942Y165280D01*
X94055Y165270D01*
X94168Y165264D01*
X94281Y165262D01*
X94394Y165264D01*
X94507Y165270D01*
X94620Y165280D01*
X94733Y165294D01*
X94845Y165311D01*
X94956Y165333D01*
X95066Y165358D01*
X95176Y165388D01*
X95284Y165421D01*
X95391Y165458D01*
X95497Y165498D01*
X95601Y165543D01*
X95704Y165591D01*
X95805Y165642D01*
X95904Y165697D01*
X96001Y165755D01*
X96096Y165817D01*
X96189Y165882D01*
X96279Y165950D01*
X96367Y166021D01*
X96453Y166096D01*
X96536Y166173D01*
X96616Y166253D01*
X96693Y166336D01*
X96768Y166422D01*
X96839Y166510D01*
X96907Y166600D01*
X96972Y166693D01*
X97034Y166788D01*
X97092Y166885D01*
X97147Y166984D01*
X97198Y167085D01*
X97246Y167188D01*
X97291Y167292D01*
X97331Y167398D01*
X97368Y167505D01*
X97401Y167613D01*
X97431Y167723D01*
X97456Y167833D01*
X97478Y167944D01*
X97495Y168056D01*
X97509Y168169D01*
X97519Y168282D01*
X97525Y168395D01*
X97527Y168508D01*
X97526Y168508D02*
X97526Y171753D01*
X97527Y171753D02*
X97525Y171896D01*
X97519Y172039D01*
X97509Y172182D01*
X97495Y172324D01*
X97478Y172466D01*
X97456Y172608D01*
X97431Y172749D01*
X97401Y172889D01*
X97368Y173028D01*
X97331Y173166D01*
X97290Y173303D01*
X97246Y173439D01*
X97197Y173574D01*
X97145Y173707D01*
X97090Y173839D01*
X97030Y173969D01*
X96967Y174098D01*
X96901Y174225D01*
X96831Y174350D01*
X96758Y174472D01*
X96681Y174593D01*
X96601Y174712D01*
X96518Y174828D01*
X96432Y174943D01*
X96343Y175054D01*
X96250Y175164D01*
X96155Y175270D01*
X96056Y175374D01*
X95955Y175475D01*
X95851Y175574D01*
X95745Y175669D01*
X95635Y175762D01*
X95524Y175851D01*
X95409Y175937D01*
X95293Y176020D01*
X95174Y176100D01*
X95053Y176177D01*
X94931Y176250D01*
X94806Y176320D01*
X94679Y176386D01*
X94550Y176449D01*
X94420Y176509D01*
X94288Y176564D01*
X94155Y176616D01*
X94020Y176665D01*
X93884Y176709D01*
X93747Y176750D01*
X93609Y176787D01*
X93470Y176820D01*
X93330Y176850D01*
X93189Y176875D01*
X93047Y176897D01*
X92905Y176914D01*
X92763Y176928D01*
X92620Y176938D01*
X92477Y176944D01*
X92334Y176946D01*
D10*
X128410Y185049D02*
X145910Y185049D01*
X145910Y201031D02*
X128410Y201031D01*
D11*
X139992Y166507D02*
X142588Y166507D01*
X142687Y166509D01*
X142787Y166515D01*
X142886Y166524D01*
X142984Y166537D01*
X143082Y166554D01*
X143180Y166575D01*
X143276Y166600D01*
X143371Y166628D01*
X143465Y166660D01*
X143558Y166695D01*
X143650Y166734D01*
X143740Y166777D01*
X143828Y166822D01*
X143915Y166872D01*
X143999Y166924D01*
X144082Y166980D01*
X144162Y167038D01*
X144240Y167100D01*
X144315Y167165D01*
X144388Y167233D01*
X144458Y167303D01*
X144526Y167376D01*
X144591Y167451D01*
X144653Y167529D01*
X144711Y167609D01*
X144767Y167692D01*
X144819Y167776D01*
X144869Y167863D01*
X144914Y167951D01*
X144957Y168041D01*
X144996Y168133D01*
X145031Y168226D01*
X145063Y168320D01*
X145091Y168415D01*
X145116Y168511D01*
X145137Y168609D01*
X145154Y168707D01*
X145167Y168805D01*
X145176Y168904D01*
X145182Y169004D01*
X145184Y169103D01*
X145185Y169103D02*
X145185Y175595D01*
X145184Y175595D02*
X145182Y175694D01*
X145176Y175794D01*
X145167Y175893D01*
X145154Y175991D01*
X145137Y176089D01*
X145116Y176187D01*
X145091Y176283D01*
X145063Y176378D01*
X145031Y176472D01*
X144996Y176565D01*
X144957Y176657D01*
X144914Y176747D01*
X144869Y176835D01*
X144819Y176922D01*
X144767Y177006D01*
X144711Y177089D01*
X144653Y177169D01*
X144591Y177247D01*
X144526Y177322D01*
X144458Y177395D01*
X144388Y177465D01*
X144315Y177533D01*
X144240Y177598D01*
X144162Y177660D01*
X144082Y177718D01*
X143999Y177774D01*
X143915Y177826D01*
X143828Y177876D01*
X143740Y177921D01*
X143650Y177964D01*
X143558Y178003D01*
X143465Y178038D01*
X143371Y178070D01*
X143276Y178098D01*
X143180Y178123D01*
X143082Y178144D01*
X142984Y178161D01*
X142886Y178174D01*
X142787Y178183D01*
X142687Y178189D01*
X142588Y178191D01*
X139992Y178191D01*
X135626Y178191D02*
X135626Y176893D01*
X135626Y178191D02*
X129135Y178191D01*
X132381Y166507D01*
D10*
X163970Y185049D02*
X181470Y185049D01*
X181470Y201031D02*
X163970Y201031D01*
D11*
X175552Y166507D02*
X178148Y166507D01*
X178247Y166509D01*
X178347Y166515D01*
X178446Y166524D01*
X178544Y166537D01*
X178642Y166554D01*
X178740Y166575D01*
X178836Y166600D01*
X178931Y166628D01*
X179025Y166660D01*
X179118Y166695D01*
X179210Y166734D01*
X179300Y166777D01*
X179388Y166822D01*
X179475Y166872D01*
X179559Y166924D01*
X179642Y166980D01*
X179722Y167038D01*
X179800Y167100D01*
X179875Y167165D01*
X179948Y167233D01*
X180018Y167303D01*
X180086Y167376D01*
X180151Y167451D01*
X180213Y167529D01*
X180271Y167609D01*
X180327Y167692D01*
X180379Y167776D01*
X180429Y167863D01*
X180474Y167951D01*
X180517Y168041D01*
X180556Y168133D01*
X180591Y168226D01*
X180623Y168320D01*
X180651Y168415D01*
X180676Y168511D01*
X180697Y168609D01*
X180714Y168707D01*
X180727Y168805D01*
X180736Y168904D01*
X180742Y169004D01*
X180744Y169103D01*
X180745Y169103D02*
X180745Y175595D01*
X180744Y175595D02*
X180742Y175694D01*
X180736Y175794D01*
X180727Y175893D01*
X180714Y175991D01*
X180697Y176089D01*
X180676Y176187D01*
X180651Y176283D01*
X180623Y176378D01*
X180591Y176472D01*
X180556Y176565D01*
X180517Y176657D01*
X180474Y176747D01*
X180429Y176835D01*
X180379Y176922D01*
X180327Y177006D01*
X180271Y177089D01*
X180213Y177169D01*
X180151Y177247D01*
X180086Y177322D01*
X180018Y177395D01*
X179948Y177465D01*
X179875Y177533D01*
X179800Y177598D01*
X179722Y177660D01*
X179642Y177718D01*
X179559Y177774D01*
X179475Y177826D01*
X179388Y177876D01*
X179300Y177921D01*
X179210Y177964D01*
X179118Y178003D01*
X179025Y178038D01*
X178931Y178070D01*
X178836Y178098D01*
X178740Y178123D01*
X178642Y178144D01*
X178544Y178161D01*
X178446Y178174D01*
X178347Y178183D01*
X178247Y178189D01*
X178148Y178191D01*
X175552Y178191D01*
X171187Y169753D02*
X171185Y169866D01*
X171179Y169979D01*
X171169Y170092D01*
X171155Y170205D01*
X171138Y170317D01*
X171116Y170428D01*
X171091Y170538D01*
X171061Y170648D01*
X171028Y170756D01*
X170991Y170863D01*
X170951Y170969D01*
X170906Y171073D01*
X170858Y171176D01*
X170807Y171277D01*
X170752Y171376D01*
X170694Y171473D01*
X170632Y171568D01*
X170567Y171661D01*
X170499Y171751D01*
X170428Y171839D01*
X170353Y171925D01*
X170276Y172008D01*
X170196Y172088D01*
X170113Y172165D01*
X170027Y172240D01*
X169939Y172311D01*
X169849Y172379D01*
X169756Y172444D01*
X169661Y172506D01*
X169564Y172564D01*
X169465Y172619D01*
X169364Y172670D01*
X169261Y172718D01*
X169157Y172763D01*
X169051Y172803D01*
X168944Y172840D01*
X168836Y172873D01*
X168726Y172903D01*
X168616Y172928D01*
X168505Y172950D01*
X168393Y172967D01*
X168280Y172981D01*
X168167Y172991D01*
X168054Y172997D01*
X167941Y172999D01*
X167828Y172997D01*
X167715Y172991D01*
X167602Y172981D01*
X167489Y172967D01*
X167377Y172950D01*
X167266Y172928D01*
X167156Y172903D01*
X167046Y172873D01*
X166938Y172840D01*
X166831Y172803D01*
X166725Y172763D01*
X166621Y172718D01*
X166518Y172670D01*
X166417Y172619D01*
X166318Y172564D01*
X166221Y172506D01*
X166126Y172444D01*
X166033Y172379D01*
X165943Y172311D01*
X165855Y172240D01*
X165769Y172165D01*
X165686Y172088D01*
X165606Y172008D01*
X165529Y171925D01*
X165454Y171839D01*
X165383Y171751D01*
X165315Y171661D01*
X165250Y171568D01*
X165188Y171473D01*
X165130Y171376D01*
X165075Y171277D01*
X165024Y171176D01*
X164976Y171073D01*
X164931Y170969D01*
X164891Y170863D01*
X164854Y170756D01*
X164821Y170648D01*
X164791Y170538D01*
X164766Y170428D01*
X164744Y170317D01*
X164727Y170205D01*
X164713Y170092D01*
X164703Y169979D01*
X164697Y169866D01*
X164695Y169753D01*
X164697Y169640D01*
X164703Y169527D01*
X164713Y169414D01*
X164727Y169301D01*
X164744Y169189D01*
X164766Y169078D01*
X164791Y168968D01*
X164821Y168858D01*
X164854Y168750D01*
X164891Y168643D01*
X164931Y168537D01*
X164976Y168433D01*
X165024Y168330D01*
X165075Y168229D01*
X165130Y168130D01*
X165188Y168033D01*
X165250Y167938D01*
X165315Y167845D01*
X165383Y167755D01*
X165454Y167667D01*
X165529Y167581D01*
X165606Y167498D01*
X165686Y167418D01*
X165769Y167341D01*
X165855Y167266D01*
X165943Y167195D01*
X166033Y167127D01*
X166126Y167062D01*
X166221Y167000D01*
X166318Y166942D01*
X166417Y166887D01*
X166518Y166836D01*
X166621Y166788D01*
X166725Y166743D01*
X166831Y166703D01*
X166938Y166666D01*
X167046Y166633D01*
X167156Y166603D01*
X167266Y166578D01*
X167377Y166556D01*
X167489Y166539D01*
X167602Y166525D01*
X167715Y166515D01*
X167828Y166509D01*
X167941Y166507D01*
X168054Y166509D01*
X168167Y166515D01*
X168280Y166525D01*
X168393Y166539D01*
X168505Y166556D01*
X168616Y166578D01*
X168726Y166603D01*
X168836Y166633D01*
X168944Y166666D01*
X169051Y166703D01*
X169157Y166743D01*
X169261Y166788D01*
X169364Y166836D01*
X169465Y166887D01*
X169564Y166942D01*
X169661Y167000D01*
X169756Y167062D01*
X169849Y167127D01*
X169939Y167195D01*
X170027Y167266D01*
X170113Y167341D01*
X170196Y167418D01*
X170276Y167498D01*
X170353Y167581D01*
X170428Y167667D01*
X170499Y167755D01*
X170567Y167845D01*
X170632Y167938D01*
X170694Y168033D01*
X170752Y168130D01*
X170807Y168229D01*
X170858Y168330D01*
X170906Y168433D01*
X170951Y168537D01*
X170991Y168643D01*
X171028Y168750D01*
X171061Y168858D01*
X171091Y168968D01*
X171116Y169078D01*
X171138Y169189D01*
X171155Y169301D01*
X171169Y169414D01*
X171179Y169527D01*
X171185Y169640D01*
X171187Y169753D01*
X170537Y175595D02*
X170535Y175696D01*
X170529Y175796D01*
X170519Y175896D01*
X170506Y175996D01*
X170488Y176095D01*
X170467Y176194D01*
X170442Y176291D01*
X170413Y176388D01*
X170380Y176483D01*
X170344Y176577D01*
X170304Y176669D01*
X170261Y176760D01*
X170214Y176849D01*
X170164Y176936D01*
X170110Y177022D01*
X170053Y177105D01*
X169993Y177185D01*
X169930Y177264D01*
X169863Y177340D01*
X169794Y177413D01*
X169722Y177483D01*
X169648Y177551D01*
X169571Y177616D01*
X169491Y177677D01*
X169409Y177736D01*
X169325Y177791D01*
X169239Y177843D01*
X169151Y177892D01*
X169061Y177937D01*
X168969Y177979D01*
X168876Y178017D01*
X168781Y178051D01*
X168686Y178082D01*
X168589Y178109D01*
X168491Y178132D01*
X168392Y178152D01*
X168292Y178167D01*
X168192Y178179D01*
X168092Y178187D01*
X167991Y178191D01*
X167891Y178191D01*
X167790Y178187D01*
X167690Y178179D01*
X167590Y178167D01*
X167490Y178152D01*
X167391Y178132D01*
X167293Y178109D01*
X167196Y178082D01*
X167101Y178051D01*
X167006Y178017D01*
X166913Y177979D01*
X166821Y177937D01*
X166731Y177892D01*
X166643Y177843D01*
X166557Y177791D01*
X166473Y177736D01*
X166391Y177677D01*
X166311Y177616D01*
X166234Y177551D01*
X166160Y177483D01*
X166088Y177413D01*
X166019Y177340D01*
X165952Y177264D01*
X165889Y177185D01*
X165829Y177105D01*
X165772Y177022D01*
X165718Y176936D01*
X165668Y176849D01*
X165621Y176760D01*
X165578Y176669D01*
X165538Y176577D01*
X165502Y176483D01*
X165469Y176388D01*
X165440Y176291D01*
X165415Y176194D01*
X165394Y176095D01*
X165376Y175996D01*
X165363Y175896D01*
X165353Y175796D01*
X165347Y175696D01*
X165345Y175595D01*
X165347Y175494D01*
X165353Y175394D01*
X165363Y175294D01*
X165376Y175194D01*
X165394Y175095D01*
X165415Y174996D01*
X165440Y174899D01*
X165469Y174802D01*
X165502Y174707D01*
X165538Y174613D01*
X165578Y174521D01*
X165621Y174430D01*
X165668Y174341D01*
X165718Y174254D01*
X165772Y174168D01*
X165829Y174085D01*
X165889Y174005D01*
X165952Y173926D01*
X166019Y173850D01*
X166088Y173777D01*
X166160Y173707D01*
X166234Y173639D01*
X166311Y173574D01*
X166391Y173513D01*
X166473Y173454D01*
X166557Y173399D01*
X166643Y173347D01*
X166731Y173298D01*
X166821Y173253D01*
X166913Y173211D01*
X167006Y173173D01*
X167101Y173139D01*
X167196Y173108D01*
X167293Y173081D01*
X167391Y173058D01*
X167490Y173038D01*
X167590Y173023D01*
X167690Y173011D01*
X167790Y173003D01*
X167891Y172999D01*
X167991Y172999D01*
X168092Y173003D01*
X168192Y173011D01*
X168292Y173023D01*
X168392Y173038D01*
X168491Y173058D01*
X168589Y173081D01*
X168686Y173108D01*
X168781Y173139D01*
X168876Y173173D01*
X168969Y173211D01*
X169061Y173253D01*
X169151Y173298D01*
X169239Y173347D01*
X169325Y173399D01*
X169409Y173454D01*
X169491Y173513D01*
X169571Y173574D01*
X169648Y173639D01*
X169722Y173707D01*
X169794Y173777D01*
X169863Y173850D01*
X169930Y173926D01*
X169993Y174005D01*
X170053Y174085D01*
X170110Y174168D01*
X170164Y174254D01*
X170214Y174341D01*
X170261Y174430D01*
X170304Y174521D01*
X170344Y174613D01*
X170380Y174707D01*
X170413Y174802D01*
X170442Y174899D01*
X170467Y174996D01*
X170488Y175095D01*
X170506Y175194D01*
X170519Y175294D01*
X170529Y175394D01*
X170535Y175494D01*
X170537Y175595D01*
D10*
X65257Y232567D02*
X59257Y232567D01*
X59257Y212567D02*
X65257Y212567D01*
D12*
X78927Y228867D02*
X78929Y228931D01*
X78935Y228995D01*
X78945Y229058D01*
X78959Y229121D01*
X78976Y229182D01*
X78998Y229243D01*
X79023Y229301D01*
X79052Y229359D01*
X79084Y229414D01*
X79120Y229467D01*
X79159Y229518D01*
X79201Y229566D01*
X79246Y229612D01*
X79294Y229655D01*
X79344Y229695D01*
X79396Y229731D01*
X79451Y229764D01*
X79508Y229794D01*
X79567Y229820D01*
X79627Y229843D01*
X79688Y229861D01*
X79750Y229876D01*
X79813Y229887D01*
X79877Y229894D01*
X79941Y229897D01*
X80005Y229896D01*
X80069Y229891D01*
X80132Y229882D01*
X80195Y229869D01*
X80257Y229852D01*
X80318Y229832D01*
X80377Y229808D01*
X80435Y229780D01*
X80490Y229748D01*
X80544Y229713D01*
X80596Y229675D01*
X80645Y229634D01*
X80691Y229590D01*
X80734Y229543D01*
X80775Y229493D01*
X80812Y229441D01*
X80846Y229387D01*
X80877Y229330D01*
X80904Y229272D01*
X80927Y229213D01*
X80947Y229152D01*
X80963Y229089D01*
X80975Y229027D01*
X80983Y228963D01*
X80987Y228899D01*
X80987Y228835D01*
X80983Y228771D01*
X80975Y228707D01*
X80963Y228645D01*
X80947Y228582D01*
X80927Y228521D01*
X80904Y228462D01*
X80877Y228404D01*
X80846Y228347D01*
X80812Y228293D01*
X80775Y228241D01*
X80734Y228191D01*
X80691Y228144D01*
X80645Y228100D01*
X80596Y228059D01*
X80544Y228021D01*
X80490Y227986D01*
X80435Y227954D01*
X80377Y227926D01*
X80318Y227902D01*
X80257Y227882D01*
X80195Y227865D01*
X80132Y227852D01*
X80069Y227843D01*
X80005Y227838D01*
X79941Y227837D01*
X79877Y227840D01*
X79813Y227847D01*
X79750Y227858D01*
X79688Y227873D01*
X79627Y227891D01*
X79567Y227914D01*
X79508Y227940D01*
X79451Y227970D01*
X79396Y228003D01*
X79344Y228039D01*
X79294Y228079D01*
X79246Y228122D01*
X79201Y228168D01*
X79159Y228216D01*
X79120Y228267D01*
X79084Y228320D01*
X79052Y228375D01*
X79023Y228433D01*
X78998Y228491D01*
X78976Y228552D01*
X78959Y228613D01*
X78945Y228676D01*
X78935Y228739D01*
X78929Y228803D01*
X78927Y228867D01*
D11*
X81734Y240883D02*
X81734Y249323D01*
X81734Y240883D02*
X81732Y240770D01*
X81726Y240657D01*
X81716Y240544D01*
X81702Y240431D01*
X81685Y240319D01*
X81663Y240208D01*
X81638Y240098D01*
X81608Y239988D01*
X81575Y239880D01*
X81538Y239773D01*
X81498Y239667D01*
X81453Y239563D01*
X81405Y239460D01*
X81354Y239359D01*
X81299Y239260D01*
X81241Y239163D01*
X81179Y239068D01*
X81114Y238975D01*
X81046Y238885D01*
X80975Y238797D01*
X80900Y238711D01*
X80823Y238628D01*
X80743Y238548D01*
X80660Y238471D01*
X80574Y238396D01*
X80486Y238325D01*
X80396Y238257D01*
X80303Y238192D01*
X80208Y238130D01*
X80111Y238072D01*
X80012Y238017D01*
X79911Y237966D01*
X79808Y237918D01*
X79704Y237873D01*
X79598Y237833D01*
X79491Y237796D01*
X79383Y237763D01*
X79273Y237733D01*
X79163Y237708D01*
X79052Y237686D01*
X78940Y237669D01*
X78827Y237655D01*
X78714Y237645D01*
X78601Y237639D01*
X78488Y237637D01*
X78375Y237639D01*
X78262Y237645D01*
X78149Y237655D01*
X78036Y237669D01*
X77924Y237686D01*
X77813Y237708D01*
X77703Y237733D01*
X77593Y237763D01*
X77485Y237796D01*
X77378Y237833D01*
X77272Y237873D01*
X77168Y237918D01*
X77065Y237966D01*
X76964Y238017D01*
X76865Y238072D01*
X76768Y238130D01*
X76673Y238192D01*
X76580Y238257D01*
X76490Y238325D01*
X76402Y238396D01*
X76316Y238471D01*
X76233Y238548D01*
X76153Y238628D01*
X76076Y238711D01*
X76001Y238797D01*
X75930Y238885D01*
X75862Y238975D01*
X75797Y239068D01*
X75735Y239163D01*
X75677Y239260D01*
X75622Y239359D01*
X75571Y239460D01*
X75523Y239563D01*
X75478Y239667D01*
X75438Y239773D01*
X75401Y239880D01*
X75368Y239988D01*
X75338Y240098D01*
X75313Y240208D01*
X75291Y240319D01*
X75274Y240431D01*
X75260Y240544D01*
X75250Y240657D01*
X75244Y240770D01*
X75242Y240883D01*
X75242Y249323D01*
X69921Y246726D02*
X66676Y249323D01*
X66676Y237637D01*
X69921Y237637D02*
X63430Y237637D01*
D10*
X96058Y230654D02*
X102058Y230654D01*
X102058Y210654D02*
X96058Y210654D01*
D12*
X115728Y226954D02*
X115730Y227018D01*
X115736Y227082D01*
X115746Y227145D01*
X115760Y227208D01*
X115777Y227269D01*
X115799Y227330D01*
X115824Y227388D01*
X115853Y227446D01*
X115885Y227501D01*
X115921Y227554D01*
X115960Y227605D01*
X116002Y227653D01*
X116047Y227699D01*
X116095Y227742D01*
X116145Y227782D01*
X116197Y227818D01*
X116252Y227851D01*
X116309Y227881D01*
X116368Y227907D01*
X116428Y227930D01*
X116489Y227948D01*
X116551Y227963D01*
X116614Y227974D01*
X116678Y227981D01*
X116742Y227984D01*
X116806Y227983D01*
X116870Y227978D01*
X116933Y227969D01*
X116996Y227956D01*
X117058Y227939D01*
X117119Y227919D01*
X117178Y227895D01*
X117236Y227867D01*
X117291Y227835D01*
X117345Y227800D01*
X117397Y227762D01*
X117446Y227721D01*
X117492Y227677D01*
X117535Y227630D01*
X117576Y227580D01*
X117613Y227528D01*
X117647Y227474D01*
X117678Y227417D01*
X117705Y227359D01*
X117728Y227300D01*
X117748Y227239D01*
X117764Y227176D01*
X117776Y227114D01*
X117784Y227050D01*
X117788Y226986D01*
X117788Y226922D01*
X117784Y226858D01*
X117776Y226794D01*
X117764Y226732D01*
X117748Y226669D01*
X117728Y226608D01*
X117705Y226549D01*
X117678Y226491D01*
X117647Y226434D01*
X117613Y226380D01*
X117576Y226328D01*
X117535Y226278D01*
X117492Y226231D01*
X117446Y226187D01*
X117397Y226146D01*
X117345Y226108D01*
X117291Y226073D01*
X117236Y226041D01*
X117178Y226013D01*
X117119Y225989D01*
X117058Y225969D01*
X116996Y225952D01*
X116933Y225939D01*
X116870Y225930D01*
X116806Y225925D01*
X116742Y225924D01*
X116678Y225927D01*
X116614Y225934D01*
X116551Y225945D01*
X116489Y225960D01*
X116428Y225978D01*
X116368Y226001D01*
X116309Y226027D01*
X116252Y226057D01*
X116197Y226090D01*
X116145Y226126D01*
X116095Y226166D01*
X116047Y226209D01*
X116002Y226255D01*
X115960Y226303D01*
X115921Y226354D01*
X115885Y226407D01*
X115853Y226462D01*
X115824Y226520D01*
X115799Y226578D01*
X115777Y226639D01*
X115760Y226700D01*
X115746Y226763D01*
X115736Y226826D01*
X115730Y226890D01*
X115728Y226954D01*
D11*
X118535Y238971D02*
X118535Y247410D01*
X118535Y238971D02*
X118533Y238858D01*
X118527Y238745D01*
X118517Y238632D01*
X118503Y238519D01*
X118486Y238407D01*
X118464Y238296D01*
X118439Y238186D01*
X118409Y238076D01*
X118376Y237968D01*
X118339Y237861D01*
X118299Y237755D01*
X118254Y237651D01*
X118206Y237548D01*
X118155Y237447D01*
X118100Y237348D01*
X118042Y237251D01*
X117980Y237156D01*
X117915Y237063D01*
X117847Y236973D01*
X117776Y236885D01*
X117701Y236799D01*
X117624Y236716D01*
X117544Y236636D01*
X117461Y236559D01*
X117375Y236484D01*
X117287Y236413D01*
X117197Y236345D01*
X117104Y236280D01*
X117009Y236218D01*
X116912Y236160D01*
X116813Y236105D01*
X116712Y236054D01*
X116609Y236006D01*
X116505Y235961D01*
X116399Y235921D01*
X116292Y235884D01*
X116184Y235851D01*
X116074Y235821D01*
X115964Y235796D01*
X115853Y235774D01*
X115741Y235757D01*
X115628Y235743D01*
X115515Y235733D01*
X115402Y235727D01*
X115289Y235725D01*
X115176Y235727D01*
X115063Y235733D01*
X114950Y235743D01*
X114837Y235757D01*
X114725Y235774D01*
X114614Y235796D01*
X114504Y235821D01*
X114394Y235851D01*
X114286Y235884D01*
X114179Y235921D01*
X114073Y235961D01*
X113969Y236006D01*
X113866Y236054D01*
X113765Y236105D01*
X113666Y236160D01*
X113569Y236218D01*
X113474Y236280D01*
X113381Y236345D01*
X113291Y236413D01*
X113203Y236484D01*
X113117Y236559D01*
X113034Y236636D01*
X112954Y236716D01*
X112877Y236799D01*
X112802Y236885D01*
X112731Y236973D01*
X112663Y237063D01*
X112598Y237156D01*
X112536Y237251D01*
X112478Y237348D01*
X112423Y237447D01*
X112372Y237548D01*
X112324Y237651D01*
X112279Y237755D01*
X112239Y237861D01*
X112202Y237968D01*
X112169Y238076D01*
X112139Y238186D01*
X112114Y238296D01*
X112092Y238407D01*
X112075Y238519D01*
X112061Y238632D01*
X112051Y238745D01*
X112045Y238858D01*
X112043Y238971D01*
X112043Y247410D01*
X106723Y247410D02*
X106723Y246112D01*
X106723Y247410D02*
X100231Y247410D01*
X103477Y235725D01*
D10*
X134158Y230629D02*
X140158Y230629D01*
X140158Y210629D02*
X134158Y210629D01*
D12*
X153828Y226929D02*
X153830Y226993D01*
X153836Y227057D01*
X153846Y227120D01*
X153860Y227183D01*
X153877Y227244D01*
X153899Y227305D01*
X153924Y227363D01*
X153953Y227421D01*
X153985Y227476D01*
X154021Y227529D01*
X154060Y227580D01*
X154102Y227628D01*
X154147Y227674D01*
X154195Y227717D01*
X154245Y227757D01*
X154297Y227793D01*
X154352Y227826D01*
X154409Y227856D01*
X154468Y227882D01*
X154528Y227905D01*
X154589Y227923D01*
X154651Y227938D01*
X154714Y227949D01*
X154778Y227956D01*
X154842Y227959D01*
X154906Y227958D01*
X154970Y227953D01*
X155033Y227944D01*
X155096Y227931D01*
X155158Y227914D01*
X155219Y227894D01*
X155278Y227870D01*
X155336Y227842D01*
X155391Y227810D01*
X155445Y227775D01*
X155497Y227737D01*
X155546Y227696D01*
X155592Y227652D01*
X155635Y227605D01*
X155676Y227555D01*
X155713Y227503D01*
X155747Y227449D01*
X155778Y227392D01*
X155805Y227334D01*
X155828Y227275D01*
X155848Y227214D01*
X155864Y227151D01*
X155876Y227089D01*
X155884Y227025D01*
X155888Y226961D01*
X155888Y226897D01*
X155884Y226833D01*
X155876Y226769D01*
X155864Y226707D01*
X155848Y226644D01*
X155828Y226583D01*
X155805Y226524D01*
X155778Y226466D01*
X155747Y226409D01*
X155713Y226355D01*
X155676Y226303D01*
X155635Y226253D01*
X155592Y226206D01*
X155546Y226162D01*
X155497Y226121D01*
X155445Y226083D01*
X155391Y226048D01*
X155336Y226016D01*
X155278Y225988D01*
X155219Y225964D01*
X155158Y225944D01*
X155096Y225927D01*
X155033Y225914D01*
X154970Y225905D01*
X154906Y225900D01*
X154842Y225899D01*
X154778Y225902D01*
X154714Y225909D01*
X154651Y225920D01*
X154589Y225935D01*
X154528Y225953D01*
X154468Y225976D01*
X154409Y226002D01*
X154352Y226032D01*
X154297Y226065D01*
X154245Y226101D01*
X154195Y226141D01*
X154147Y226184D01*
X154102Y226230D01*
X154060Y226278D01*
X154021Y226329D01*
X153985Y226382D01*
X153953Y226437D01*
X153924Y226495D01*
X153899Y226553D01*
X153877Y226614D01*
X153860Y226675D01*
X153846Y226738D01*
X153836Y226801D01*
X153830Y226865D01*
X153828Y226929D01*
D11*
X156635Y238945D02*
X156635Y247385D01*
X156635Y238945D02*
X156633Y238832D01*
X156627Y238719D01*
X156617Y238606D01*
X156603Y238493D01*
X156586Y238381D01*
X156564Y238270D01*
X156539Y238160D01*
X156509Y238050D01*
X156476Y237942D01*
X156439Y237835D01*
X156399Y237729D01*
X156354Y237625D01*
X156306Y237522D01*
X156255Y237421D01*
X156200Y237322D01*
X156142Y237225D01*
X156080Y237130D01*
X156015Y237037D01*
X155947Y236947D01*
X155876Y236859D01*
X155801Y236773D01*
X155724Y236690D01*
X155644Y236610D01*
X155561Y236533D01*
X155475Y236458D01*
X155387Y236387D01*
X155297Y236319D01*
X155204Y236254D01*
X155109Y236192D01*
X155012Y236134D01*
X154913Y236079D01*
X154812Y236028D01*
X154709Y235980D01*
X154605Y235935D01*
X154499Y235895D01*
X154392Y235858D01*
X154284Y235825D01*
X154174Y235795D01*
X154064Y235770D01*
X153953Y235748D01*
X153841Y235731D01*
X153728Y235717D01*
X153615Y235707D01*
X153502Y235701D01*
X153389Y235699D01*
X153276Y235701D01*
X153163Y235707D01*
X153050Y235717D01*
X152937Y235731D01*
X152825Y235748D01*
X152714Y235770D01*
X152604Y235795D01*
X152494Y235825D01*
X152386Y235858D01*
X152279Y235895D01*
X152173Y235935D01*
X152069Y235980D01*
X151966Y236028D01*
X151865Y236079D01*
X151766Y236134D01*
X151669Y236192D01*
X151574Y236254D01*
X151481Y236319D01*
X151391Y236387D01*
X151303Y236458D01*
X151217Y236533D01*
X151134Y236610D01*
X151054Y236690D01*
X150977Y236773D01*
X150902Y236859D01*
X150831Y236947D01*
X150763Y237037D01*
X150698Y237130D01*
X150636Y237225D01*
X150578Y237322D01*
X150523Y237421D01*
X150472Y237522D01*
X150424Y237625D01*
X150379Y237729D01*
X150339Y237835D01*
X150302Y237942D01*
X150269Y238050D01*
X150239Y238160D01*
X150214Y238270D01*
X150192Y238381D01*
X150175Y238493D01*
X150161Y238606D01*
X150151Y238719D01*
X150145Y238832D01*
X150143Y238945D01*
X150143Y247385D01*
X144823Y238945D02*
X144821Y239058D01*
X144815Y239171D01*
X144805Y239284D01*
X144791Y239397D01*
X144774Y239509D01*
X144752Y239620D01*
X144727Y239730D01*
X144697Y239840D01*
X144664Y239948D01*
X144627Y240055D01*
X144587Y240161D01*
X144542Y240265D01*
X144494Y240368D01*
X144443Y240469D01*
X144388Y240568D01*
X144330Y240665D01*
X144268Y240760D01*
X144203Y240853D01*
X144135Y240943D01*
X144064Y241031D01*
X143989Y241117D01*
X143912Y241200D01*
X143832Y241280D01*
X143749Y241357D01*
X143663Y241432D01*
X143575Y241503D01*
X143485Y241571D01*
X143392Y241636D01*
X143297Y241698D01*
X143200Y241756D01*
X143101Y241811D01*
X143000Y241862D01*
X142897Y241910D01*
X142793Y241955D01*
X142687Y241995D01*
X142580Y242032D01*
X142472Y242065D01*
X142362Y242095D01*
X142252Y242120D01*
X142141Y242142D01*
X142029Y242159D01*
X141916Y242173D01*
X141803Y242183D01*
X141690Y242189D01*
X141577Y242191D01*
X141464Y242189D01*
X141351Y242183D01*
X141238Y242173D01*
X141125Y242159D01*
X141013Y242142D01*
X140902Y242120D01*
X140792Y242095D01*
X140682Y242065D01*
X140574Y242032D01*
X140467Y241995D01*
X140361Y241955D01*
X140257Y241910D01*
X140154Y241862D01*
X140053Y241811D01*
X139954Y241756D01*
X139857Y241698D01*
X139762Y241636D01*
X139669Y241571D01*
X139579Y241503D01*
X139491Y241432D01*
X139405Y241357D01*
X139322Y241280D01*
X139242Y241200D01*
X139165Y241117D01*
X139090Y241031D01*
X139019Y240943D01*
X138951Y240853D01*
X138886Y240760D01*
X138824Y240665D01*
X138766Y240568D01*
X138711Y240469D01*
X138660Y240368D01*
X138612Y240265D01*
X138567Y240161D01*
X138527Y240055D01*
X138490Y239948D01*
X138457Y239840D01*
X138427Y239730D01*
X138402Y239620D01*
X138380Y239509D01*
X138363Y239397D01*
X138349Y239284D01*
X138339Y239171D01*
X138333Y239058D01*
X138331Y238945D01*
X138333Y238832D01*
X138339Y238719D01*
X138349Y238606D01*
X138363Y238493D01*
X138380Y238381D01*
X138402Y238270D01*
X138427Y238160D01*
X138457Y238050D01*
X138490Y237942D01*
X138527Y237835D01*
X138567Y237729D01*
X138612Y237625D01*
X138660Y237522D01*
X138711Y237421D01*
X138766Y237322D01*
X138824Y237225D01*
X138886Y237130D01*
X138951Y237037D01*
X139019Y236947D01*
X139090Y236859D01*
X139165Y236773D01*
X139242Y236690D01*
X139322Y236610D01*
X139405Y236533D01*
X139491Y236458D01*
X139579Y236387D01*
X139669Y236319D01*
X139762Y236254D01*
X139857Y236192D01*
X139954Y236134D01*
X140053Y236079D01*
X140154Y236028D01*
X140257Y235980D01*
X140361Y235935D01*
X140467Y235895D01*
X140574Y235858D01*
X140682Y235825D01*
X140792Y235795D01*
X140902Y235770D01*
X141013Y235748D01*
X141125Y235731D01*
X141238Y235717D01*
X141351Y235707D01*
X141464Y235701D01*
X141577Y235699D01*
X141690Y235701D01*
X141803Y235707D01*
X141916Y235717D01*
X142029Y235731D01*
X142141Y235748D01*
X142252Y235770D01*
X142362Y235795D01*
X142472Y235825D01*
X142580Y235858D01*
X142687Y235895D01*
X142793Y235935D01*
X142897Y235980D01*
X143000Y236028D01*
X143101Y236079D01*
X143200Y236134D01*
X143297Y236192D01*
X143392Y236254D01*
X143485Y236319D01*
X143575Y236387D01*
X143663Y236458D01*
X143749Y236533D01*
X143832Y236610D01*
X143912Y236690D01*
X143989Y236773D01*
X144064Y236859D01*
X144135Y236947D01*
X144203Y237037D01*
X144268Y237130D01*
X144330Y237225D01*
X144388Y237322D01*
X144443Y237421D01*
X144494Y237522D01*
X144542Y237625D01*
X144587Y237729D01*
X144627Y237835D01*
X144664Y237942D01*
X144697Y238050D01*
X144727Y238160D01*
X144752Y238270D01*
X144774Y238381D01*
X144791Y238493D01*
X144805Y238606D01*
X144815Y238719D01*
X144821Y238832D01*
X144823Y238945D01*
X144174Y244788D02*
X144172Y244889D01*
X144166Y244989D01*
X144156Y245089D01*
X144143Y245189D01*
X144125Y245288D01*
X144104Y245387D01*
X144079Y245484D01*
X144050Y245581D01*
X144017Y245676D01*
X143981Y245770D01*
X143941Y245863D01*
X143898Y245954D01*
X143851Y246043D01*
X143800Y246130D01*
X143747Y246215D01*
X143690Y246298D01*
X143630Y246379D01*
X143566Y246457D01*
X143500Y246533D01*
X143431Y246606D01*
X143359Y246677D01*
X143285Y246745D01*
X143207Y246809D01*
X143128Y246871D01*
X143046Y246930D01*
X142962Y246985D01*
X142876Y247037D01*
X142787Y247086D01*
X142697Y247131D01*
X142606Y247173D01*
X142512Y247211D01*
X142418Y247245D01*
X142322Y247276D01*
X142225Y247303D01*
X142127Y247326D01*
X142028Y247346D01*
X141928Y247361D01*
X141828Y247373D01*
X141728Y247381D01*
X141627Y247385D01*
X141527Y247385D01*
X141426Y247381D01*
X141326Y247373D01*
X141226Y247361D01*
X141126Y247346D01*
X141027Y247326D01*
X140929Y247303D01*
X140832Y247276D01*
X140736Y247245D01*
X140642Y247211D01*
X140548Y247173D01*
X140457Y247131D01*
X140367Y247086D01*
X140279Y247037D01*
X140192Y246985D01*
X140108Y246930D01*
X140026Y246871D01*
X139947Y246809D01*
X139869Y246745D01*
X139795Y246677D01*
X139723Y246606D01*
X139654Y246533D01*
X139588Y246457D01*
X139524Y246379D01*
X139464Y246298D01*
X139407Y246215D01*
X139354Y246130D01*
X139303Y246043D01*
X139256Y245954D01*
X139213Y245863D01*
X139173Y245770D01*
X139137Y245676D01*
X139104Y245581D01*
X139075Y245484D01*
X139050Y245387D01*
X139029Y245288D01*
X139011Y245189D01*
X138998Y245089D01*
X138988Y244989D01*
X138982Y244889D01*
X138980Y244788D01*
X138982Y244687D01*
X138988Y244587D01*
X138998Y244487D01*
X139011Y244387D01*
X139029Y244288D01*
X139050Y244189D01*
X139075Y244092D01*
X139104Y243995D01*
X139137Y243900D01*
X139173Y243806D01*
X139213Y243713D01*
X139256Y243622D01*
X139303Y243533D01*
X139354Y243446D01*
X139407Y243361D01*
X139464Y243278D01*
X139524Y243197D01*
X139588Y243119D01*
X139654Y243043D01*
X139723Y242970D01*
X139795Y242899D01*
X139869Y242831D01*
X139947Y242767D01*
X140026Y242705D01*
X140108Y242646D01*
X140192Y242591D01*
X140279Y242539D01*
X140367Y242490D01*
X140457Y242445D01*
X140548Y242403D01*
X140642Y242365D01*
X140736Y242331D01*
X140832Y242300D01*
X140929Y242273D01*
X141027Y242250D01*
X141126Y242230D01*
X141226Y242215D01*
X141326Y242203D01*
X141426Y242195D01*
X141527Y242191D01*
X141627Y242191D01*
X141728Y242195D01*
X141828Y242203D01*
X141928Y242215D01*
X142028Y242230D01*
X142127Y242250D01*
X142225Y242273D01*
X142322Y242300D01*
X142418Y242331D01*
X142512Y242365D01*
X142606Y242403D01*
X142697Y242445D01*
X142787Y242490D01*
X142875Y242539D01*
X142962Y242591D01*
X143046Y242646D01*
X143128Y242705D01*
X143207Y242767D01*
X143285Y242831D01*
X143359Y242899D01*
X143431Y242970D01*
X143500Y243043D01*
X143566Y243119D01*
X143630Y243197D01*
X143690Y243278D01*
X143747Y243361D01*
X143800Y243446D01*
X143851Y243533D01*
X143898Y243622D01*
X143941Y243713D01*
X143981Y243806D01*
X144017Y243900D01*
X144050Y243995D01*
X144079Y244092D01*
X144104Y244189D01*
X144125Y244288D01*
X144143Y244387D01*
X144156Y244487D01*
X144166Y244587D01*
X144172Y244687D01*
X144174Y244788D01*
D10*
X169715Y230606D02*
X175715Y230606D01*
X175715Y210606D02*
X169715Y210606D01*
D12*
X189385Y226906D02*
X189387Y226970D01*
X189393Y227034D01*
X189403Y227097D01*
X189417Y227160D01*
X189434Y227221D01*
X189456Y227282D01*
X189481Y227340D01*
X189510Y227398D01*
X189542Y227453D01*
X189578Y227506D01*
X189617Y227557D01*
X189659Y227605D01*
X189704Y227651D01*
X189752Y227694D01*
X189802Y227734D01*
X189854Y227770D01*
X189909Y227803D01*
X189966Y227833D01*
X190025Y227859D01*
X190085Y227882D01*
X190146Y227900D01*
X190208Y227915D01*
X190271Y227926D01*
X190335Y227933D01*
X190399Y227936D01*
X190463Y227935D01*
X190527Y227930D01*
X190590Y227921D01*
X190653Y227908D01*
X190715Y227891D01*
X190776Y227871D01*
X190835Y227847D01*
X190893Y227819D01*
X190948Y227787D01*
X191002Y227752D01*
X191054Y227714D01*
X191103Y227673D01*
X191149Y227629D01*
X191192Y227582D01*
X191233Y227532D01*
X191270Y227480D01*
X191304Y227426D01*
X191335Y227369D01*
X191362Y227311D01*
X191385Y227252D01*
X191405Y227191D01*
X191421Y227128D01*
X191433Y227066D01*
X191441Y227002D01*
X191445Y226938D01*
X191445Y226874D01*
X191441Y226810D01*
X191433Y226746D01*
X191421Y226684D01*
X191405Y226621D01*
X191385Y226560D01*
X191362Y226501D01*
X191335Y226443D01*
X191304Y226386D01*
X191270Y226332D01*
X191233Y226280D01*
X191192Y226230D01*
X191149Y226183D01*
X191103Y226139D01*
X191054Y226098D01*
X191002Y226060D01*
X190948Y226025D01*
X190893Y225993D01*
X190835Y225965D01*
X190776Y225941D01*
X190715Y225921D01*
X190653Y225904D01*
X190590Y225891D01*
X190527Y225882D01*
X190463Y225877D01*
X190399Y225876D01*
X190335Y225879D01*
X190271Y225886D01*
X190208Y225897D01*
X190146Y225912D01*
X190085Y225930D01*
X190025Y225953D01*
X189966Y225979D01*
X189909Y226009D01*
X189854Y226042D01*
X189802Y226078D01*
X189752Y226118D01*
X189704Y226161D01*
X189659Y226207D01*
X189617Y226255D01*
X189578Y226306D01*
X189542Y226359D01*
X189510Y226414D01*
X189481Y226472D01*
X189456Y226530D01*
X189434Y226591D01*
X189417Y226652D01*
X189403Y226715D01*
X189393Y226778D01*
X189387Y226842D01*
X189385Y226906D01*
D11*
X192192Y238922D02*
X192192Y247361D01*
X192192Y238922D02*
X192190Y238809D01*
X192184Y238696D01*
X192174Y238583D01*
X192160Y238470D01*
X192143Y238358D01*
X192121Y238247D01*
X192096Y238137D01*
X192066Y238027D01*
X192033Y237919D01*
X191996Y237812D01*
X191956Y237706D01*
X191911Y237602D01*
X191863Y237499D01*
X191812Y237398D01*
X191757Y237299D01*
X191699Y237202D01*
X191637Y237107D01*
X191572Y237014D01*
X191504Y236924D01*
X191433Y236836D01*
X191358Y236750D01*
X191281Y236667D01*
X191201Y236587D01*
X191118Y236510D01*
X191032Y236435D01*
X190944Y236364D01*
X190854Y236296D01*
X190761Y236231D01*
X190666Y236169D01*
X190569Y236111D01*
X190470Y236056D01*
X190369Y236005D01*
X190266Y235957D01*
X190162Y235912D01*
X190056Y235872D01*
X189949Y235835D01*
X189841Y235802D01*
X189731Y235772D01*
X189621Y235747D01*
X189510Y235725D01*
X189398Y235708D01*
X189285Y235694D01*
X189172Y235684D01*
X189059Y235678D01*
X188946Y235676D01*
X188833Y235678D01*
X188720Y235684D01*
X188607Y235694D01*
X188494Y235708D01*
X188382Y235725D01*
X188271Y235747D01*
X188161Y235772D01*
X188051Y235802D01*
X187943Y235835D01*
X187836Y235872D01*
X187730Y235912D01*
X187626Y235957D01*
X187523Y236005D01*
X187422Y236056D01*
X187323Y236111D01*
X187226Y236169D01*
X187131Y236231D01*
X187038Y236296D01*
X186948Y236364D01*
X186860Y236435D01*
X186774Y236510D01*
X186691Y236587D01*
X186611Y236667D01*
X186534Y236750D01*
X186459Y236836D01*
X186388Y236924D01*
X186320Y237014D01*
X186255Y237107D01*
X186193Y237202D01*
X186135Y237299D01*
X186080Y237398D01*
X186029Y237499D01*
X185981Y237602D01*
X185936Y237706D01*
X185896Y237812D01*
X185859Y237919D01*
X185826Y238027D01*
X185796Y238137D01*
X185771Y238247D01*
X185749Y238358D01*
X185732Y238470D01*
X185718Y238583D01*
X185708Y238696D01*
X185702Y238809D01*
X185700Y238922D01*
X185700Y247361D01*
X177783Y240869D02*
X173887Y240869D01*
X177783Y240869D02*
X177882Y240871D01*
X177982Y240877D01*
X178081Y240886D01*
X178179Y240899D01*
X178277Y240917D01*
X178375Y240937D01*
X178471Y240962D01*
X178567Y240990D01*
X178661Y241022D01*
X178754Y241057D01*
X178845Y241096D01*
X178935Y241139D01*
X179024Y241185D01*
X179110Y241234D01*
X179195Y241286D01*
X179277Y241342D01*
X179357Y241401D01*
X179435Y241462D01*
X179511Y241527D01*
X179584Y241595D01*
X179654Y241665D01*
X179722Y241738D01*
X179787Y241814D01*
X179848Y241892D01*
X179907Y241972D01*
X179963Y242054D01*
X180015Y242139D01*
X180064Y242225D01*
X180110Y242314D01*
X180153Y242404D01*
X180192Y242495D01*
X180227Y242588D01*
X180259Y242682D01*
X180287Y242778D01*
X180312Y242874D01*
X180332Y242972D01*
X180350Y243070D01*
X180363Y243168D01*
X180372Y243267D01*
X180378Y243367D01*
X180380Y243466D01*
X180379Y243466D02*
X180379Y244115D01*
X180377Y244228D01*
X180371Y244341D01*
X180361Y244454D01*
X180347Y244567D01*
X180330Y244679D01*
X180308Y244790D01*
X180283Y244900D01*
X180253Y245010D01*
X180220Y245118D01*
X180183Y245225D01*
X180143Y245331D01*
X180098Y245435D01*
X180050Y245538D01*
X179999Y245639D01*
X179944Y245738D01*
X179886Y245835D01*
X179824Y245930D01*
X179759Y246023D01*
X179691Y246113D01*
X179620Y246201D01*
X179545Y246287D01*
X179468Y246370D01*
X179388Y246450D01*
X179305Y246527D01*
X179219Y246602D01*
X179131Y246673D01*
X179041Y246741D01*
X178948Y246806D01*
X178853Y246868D01*
X178756Y246926D01*
X178657Y246981D01*
X178556Y247032D01*
X178453Y247080D01*
X178349Y247125D01*
X178243Y247165D01*
X178136Y247202D01*
X178028Y247235D01*
X177918Y247265D01*
X177808Y247290D01*
X177697Y247312D01*
X177585Y247329D01*
X177472Y247343D01*
X177359Y247353D01*
X177246Y247359D01*
X177133Y247361D01*
X177020Y247359D01*
X176907Y247353D01*
X176794Y247343D01*
X176681Y247329D01*
X176569Y247312D01*
X176458Y247290D01*
X176348Y247265D01*
X176238Y247235D01*
X176130Y247202D01*
X176023Y247165D01*
X175917Y247125D01*
X175813Y247080D01*
X175710Y247032D01*
X175609Y246981D01*
X175510Y246926D01*
X175413Y246868D01*
X175318Y246806D01*
X175225Y246741D01*
X175135Y246673D01*
X175047Y246602D01*
X174961Y246527D01*
X174878Y246450D01*
X174798Y246370D01*
X174721Y246287D01*
X174646Y246201D01*
X174575Y246113D01*
X174507Y246023D01*
X174442Y245930D01*
X174380Y245835D01*
X174322Y245738D01*
X174267Y245639D01*
X174216Y245538D01*
X174168Y245435D01*
X174123Y245331D01*
X174083Y245225D01*
X174046Y245118D01*
X174013Y245010D01*
X173983Y244900D01*
X173958Y244790D01*
X173936Y244679D01*
X173919Y244567D01*
X173905Y244454D01*
X173895Y244341D01*
X173889Y244228D01*
X173887Y244115D01*
X173887Y240869D01*
X173889Y240726D01*
X173895Y240583D01*
X173905Y240440D01*
X173919Y240298D01*
X173936Y240156D01*
X173958Y240014D01*
X173983Y239873D01*
X174013Y239733D01*
X174046Y239594D01*
X174083Y239456D01*
X174124Y239319D01*
X174168Y239183D01*
X174217Y239048D01*
X174269Y238914D01*
X174324Y238783D01*
X174384Y238652D01*
X174447Y238524D01*
X174513Y238397D01*
X174583Y238272D01*
X174656Y238149D01*
X174733Y238028D01*
X174813Y237909D01*
X174896Y237793D01*
X174982Y237679D01*
X175072Y237567D01*
X175164Y237458D01*
X175260Y237351D01*
X175358Y237247D01*
X175459Y237146D01*
X175563Y237048D01*
X175670Y236952D01*
X175779Y236860D01*
X175891Y236770D01*
X176005Y236684D01*
X176121Y236601D01*
X176240Y236521D01*
X176361Y236444D01*
X176484Y236371D01*
X176609Y236301D01*
X176736Y236235D01*
X176864Y236172D01*
X176995Y236112D01*
X177126Y236057D01*
X177260Y236005D01*
X177395Y235956D01*
X177531Y235912D01*
X177668Y235871D01*
X177806Y235834D01*
X177945Y235801D01*
X178085Y235771D01*
X178226Y235746D01*
X178368Y235724D01*
X178510Y235707D01*
X178652Y235693D01*
X178795Y235683D01*
X178938Y235677D01*
X179081Y235675D01*
D10*
X205909Y230582D02*
X211909Y230582D01*
X211909Y210582D02*
X205909Y210582D01*
D12*
X225579Y226882D02*
X225581Y226946D01*
X225587Y227010D01*
X225597Y227073D01*
X225611Y227136D01*
X225628Y227197D01*
X225650Y227258D01*
X225675Y227316D01*
X225704Y227374D01*
X225736Y227429D01*
X225772Y227482D01*
X225811Y227533D01*
X225853Y227581D01*
X225898Y227627D01*
X225946Y227670D01*
X225996Y227710D01*
X226048Y227746D01*
X226103Y227779D01*
X226160Y227809D01*
X226219Y227835D01*
X226279Y227858D01*
X226340Y227876D01*
X226402Y227891D01*
X226465Y227902D01*
X226529Y227909D01*
X226593Y227912D01*
X226657Y227911D01*
X226721Y227906D01*
X226784Y227897D01*
X226847Y227884D01*
X226909Y227867D01*
X226970Y227847D01*
X227029Y227823D01*
X227087Y227795D01*
X227142Y227763D01*
X227196Y227728D01*
X227248Y227690D01*
X227297Y227649D01*
X227343Y227605D01*
X227386Y227558D01*
X227427Y227508D01*
X227464Y227456D01*
X227498Y227402D01*
X227529Y227345D01*
X227556Y227287D01*
X227579Y227228D01*
X227599Y227167D01*
X227615Y227104D01*
X227627Y227042D01*
X227635Y226978D01*
X227639Y226914D01*
X227639Y226850D01*
X227635Y226786D01*
X227627Y226722D01*
X227615Y226660D01*
X227599Y226597D01*
X227579Y226536D01*
X227556Y226477D01*
X227529Y226419D01*
X227498Y226362D01*
X227464Y226308D01*
X227427Y226256D01*
X227386Y226206D01*
X227343Y226159D01*
X227297Y226115D01*
X227248Y226074D01*
X227196Y226036D01*
X227142Y226001D01*
X227087Y225969D01*
X227029Y225941D01*
X226970Y225917D01*
X226909Y225897D01*
X226847Y225880D01*
X226784Y225867D01*
X226721Y225858D01*
X226657Y225853D01*
X226593Y225852D01*
X226529Y225855D01*
X226465Y225862D01*
X226402Y225873D01*
X226340Y225888D01*
X226279Y225906D01*
X226219Y225929D01*
X226160Y225955D01*
X226103Y225985D01*
X226048Y226018D01*
X225996Y226054D01*
X225946Y226094D01*
X225898Y226137D01*
X225853Y226183D01*
X225811Y226231D01*
X225772Y226282D01*
X225736Y226335D01*
X225704Y226390D01*
X225675Y226448D01*
X225650Y226506D01*
X225628Y226567D01*
X225611Y226628D01*
X225597Y226691D01*
X225587Y226754D01*
X225581Y226818D01*
X225579Y226882D01*
D11*
X228386Y238898D02*
X228386Y247337D01*
X228386Y238898D02*
X228384Y238785D01*
X228378Y238672D01*
X228368Y238559D01*
X228354Y238446D01*
X228337Y238334D01*
X228315Y238223D01*
X228290Y238113D01*
X228260Y238003D01*
X228227Y237895D01*
X228190Y237788D01*
X228150Y237682D01*
X228105Y237578D01*
X228057Y237475D01*
X228006Y237374D01*
X227951Y237275D01*
X227893Y237178D01*
X227831Y237083D01*
X227766Y236990D01*
X227698Y236900D01*
X227627Y236812D01*
X227552Y236726D01*
X227475Y236643D01*
X227395Y236563D01*
X227312Y236486D01*
X227226Y236411D01*
X227138Y236340D01*
X227048Y236272D01*
X226955Y236207D01*
X226860Y236145D01*
X226763Y236087D01*
X226664Y236032D01*
X226563Y235981D01*
X226460Y235933D01*
X226356Y235888D01*
X226250Y235848D01*
X226143Y235811D01*
X226035Y235778D01*
X225925Y235748D01*
X225815Y235723D01*
X225704Y235701D01*
X225592Y235684D01*
X225479Y235670D01*
X225366Y235660D01*
X225253Y235654D01*
X225140Y235652D01*
X225027Y235654D01*
X224914Y235660D01*
X224801Y235670D01*
X224688Y235684D01*
X224576Y235701D01*
X224465Y235723D01*
X224355Y235748D01*
X224245Y235778D01*
X224137Y235811D01*
X224030Y235848D01*
X223924Y235888D01*
X223820Y235933D01*
X223717Y235981D01*
X223616Y236032D01*
X223517Y236087D01*
X223420Y236145D01*
X223325Y236207D01*
X223232Y236272D01*
X223142Y236340D01*
X223054Y236411D01*
X222968Y236486D01*
X222885Y236563D01*
X222805Y236643D01*
X222728Y236726D01*
X222653Y236812D01*
X222582Y236900D01*
X222514Y236990D01*
X222449Y237083D01*
X222387Y237178D01*
X222329Y237275D01*
X222274Y237374D01*
X222223Y237475D01*
X222175Y237578D01*
X222130Y237682D01*
X222090Y237788D01*
X222053Y237895D01*
X222020Y238003D01*
X221990Y238113D01*
X221965Y238223D01*
X221943Y238334D01*
X221926Y238446D01*
X221912Y238559D01*
X221902Y238672D01*
X221896Y238785D01*
X221894Y238898D01*
X221894Y247337D01*
X216574Y244741D02*
X213328Y247337D01*
X213328Y235652D01*
X216574Y235652D02*
X210082Y235652D01*
X205143Y241495D02*
X205140Y241725D01*
X205132Y241955D01*
X205118Y242184D01*
X205099Y242413D01*
X205074Y242642D01*
X205044Y242870D01*
X205009Y243097D01*
X204968Y243323D01*
X204922Y243548D01*
X204870Y243772D01*
X204813Y243995D01*
X204751Y244216D01*
X204683Y244436D01*
X204610Y244654D01*
X204532Y244870D01*
X204449Y245085D01*
X204361Y245297D01*
X204267Y245507D01*
X204169Y245715D01*
X204168Y245714D02*
X204135Y245804D01*
X204099Y245893D01*
X204059Y245980D01*
X204015Y246066D01*
X203968Y246150D01*
X203918Y246232D01*
X203864Y246312D01*
X203808Y246389D01*
X203748Y246465D01*
X203685Y246538D01*
X203620Y246608D01*
X203551Y246676D01*
X203480Y246740D01*
X203407Y246802D01*
X203331Y246861D01*
X203253Y246917D01*
X203172Y246970D01*
X203090Y247019D01*
X203006Y247065D01*
X202920Y247108D01*
X202832Y247147D01*
X202743Y247183D01*
X202652Y247215D01*
X202560Y247243D01*
X202467Y247268D01*
X202373Y247289D01*
X202279Y247306D01*
X202184Y247320D01*
X202088Y247329D01*
X201992Y247335D01*
X201896Y247337D01*
X201800Y247335D01*
X201704Y247329D01*
X201608Y247320D01*
X201513Y247306D01*
X201419Y247289D01*
X201325Y247268D01*
X201232Y247243D01*
X201140Y247215D01*
X201050Y247183D01*
X200960Y247147D01*
X200873Y247108D01*
X200786Y247065D01*
X200702Y247019D01*
X200620Y246970D01*
X200539Y246917D01*
X200461Y246861D01*
X200385Y246802D01*
X200312Y246740D01*
X200241Y246676D01*
X200172Y246608D01*
X200107Y246538D01*
X200044Y246465D01*
X199984Y246389D01*
X199928Y246312D01*
X199874Y246232D01*
X199824Y246150D01*
X199777Y246066D01*
X199733Y245981D01*
X199693Y245893D01*
X199657Y245804D01*
X199624Y245714D01*
X199624Y245715D02*
X199526Y245507D01*
X199432Y245297D01*
X199344Y245085D01*
X199261Y244870D01*
X199183Y244654D01*
X199110Y244436D01*
X199042Y244216D01*
X198980Y243995D01*
X198923Y243772D01*
X198871Y243548D01*
X198825Y243323D01*
X198784Y243097D01*
X198749Y242870D01*
X198719Y242642D01*
X198694Y242413D01*
X198675Y242184D01*
X198661Y241955D01*
X198653Y241725D01*
X198650Y241495D01*
X205143Y241495D02*
X205140Y241265D01*
X205132Y241035D01*
X205118Y240806D01*
X205099Y240577D01*
X205074Y240348D01*
X205044Y240120D01*
X205009Y239893D01*
X204968Y239667D01*
X204922Y239442D01*
X204870Y239218D01*
X204813Y238995D01*
X204751Y238774D01*
X204683Y238554D01*
X204610Y238336D01*
X204532Y238120D01*
X204449Y237905D01*
X204361Y237693D01*
X204267Y237483D01*
X204169Y237275D01*
X204168Y237275D02*
X204135Y237185D01*
X204099Y237096D01*
X204059Y237008D01*
X204015Y236923D01*
X203968Y236839D01*
X203918Y236757D01*
X203864Y236677D01*
X203808Y236600D01*
X203748Y236524D01*
X203685Y236451D01*
X203620Y236381D01*
X203551Y236313D01*
X203480Y236249D01*
X203407Y236187D01*
X203331Y236128D01*
X203253Y236072D01*
X203172Y236019D01*
X203090Y235970D01*
X203006Y235924D01*
X202919Y235881D01*
X202832Y235842D01*
X202742Y235806D01*
X202652Y235774D01*
X202560Y235746D01*
X202467Y235721D01*
X202373Y235700D01*
X202279Y235683D01*
X202184Y235669D01*
X202088Y235660D01*
X201992Y235654D01*
X201896Y235652D01*
X199624Y237275D02*
X199526Y237483D01*
X199432Y237693D01*
X199344Y237905D01*
X199261Y238120D01*
X199183Y238336D01*
X199110Y238554D01*
X199042Y238774D01*
X198980Y238995D01*
X198923Y239218D01*
X198871Y239442D01*
X198825Y239667D01*
X198784Y239893D01*
X198749Y240120D01*
X198719Y240348D01*
X198694Y240577D01*
X198675Y240806D01*
X198661Y241035D01*
X198653Y241265D01*
X198650Y241495D01*
X199624Y237275D02*
X199657Y237185D01*
X199693Y237096D01*
X199733Y237008D01*
X199777Y236923D01*
X199824Y236839D01*
X199874Y236757D01*
X199928Y236677D01*
X199984Y236600D01*
X200044Y236524D01*
X200107Y236451D01*
X200172Y236381D01*
X200241Y236313D01*
X200312Y236249D01*
X200385Y236187D01*
X200461Y236128D01*
X200539Y236072D01*
X200620Y236019D01*
X200702Y235970D01*
X200786Y235924D01*
X200873Y235881D01*
X200960Y235842D01*
X201050Y235806D01*
X201140Y235774D01*
X201232Y235746D01*
X201325Y235721D01*
X201419Y235700D01*
X201513Y235683D01*
X201608Y235669D01*
X201704Y235660D01*
X201800Y235654D01*
X201896Y235652D01*
X204493Y238249D02*
X199300Y244741D01*
D10*
X196990Y185582D02*
X214490Y185582D01*
X214490Y201564D02*
X196990Y201564D01*
D11*
X208572Y167040D02*
X211168Y167040D01*
X211168Y167041D02*
X211267Y167043D01*
X211367Y167049D01*
X211466Y167058D01*
X211564Y167071D01*
X211662Y167088D01*
X211760Y167109D01*
X211856Y167134D01*
X211951Y167162D01*
X212045Y167194D01*
X212138Y167229D01*
X212230Y167268D01*
X212320Y167311D01*
X212408Y167356D01*
X212495Y167406D01*
X212579Y167458D01*
X212662Y167514D01*
X212742Y167572D01*
X212820Y167634D01*
X212895Y167699D01*
X212968Y167767D01*
X213038Y167837D01*
X213106Y167910D01*
X213171Y167985D01*
X213233Y168063D01*
X213291Y168143D01*
X213347Y168226D01*
X213399Y168310D01*
X213449Y168397D01*
X213494Y168485D01*
X213537Y168575D01*
X213576Y168667D01*
X213611Y168760D01*
X213643Y168854D01*
X213671Y168949D01*
X213696Y169045D01*
X213717Y169143D01*
X213734Y169241D01*
X213747Y169339D01*
X213756Y169438D01*
X213762Y169538D01*
X213764Y169637D01*
X213765Y169637D02*
X213765Y176128D01*
X213764Y176128D02*
X213762Y176227D01*
X213756Y176327D01*
X213747Y176426D01*
X213734Y176524D01*
X213717Y176622D01*
X213696Y176720D01*
X213671Y176816D01*
X213643Y176911D01*
X213611Y177005D01*
X213576Y177098D01*
X213537Y177190D01*
X213494Y177280D01*
X213449Y177368D01*
X213399Y177455D01*
X213347Y177539D01*
X213291Y177622D01*
X213233Y177702D01*
X213171Y177780D01*
X213106Y177855D01*
X213038Y177928D01*
X212968Y177998D01*
X212895Y178066D01*
X212820Y178131D01*
X212742Y178193D01*
X212662Y178251D01*
X212579Y178307D01*
X212495Y178359D01*
X212408Y178409D01*
X212320Y178454D01*
X212230Y178497D01*
X212138Y178536D01*
X212045Y178571D01*
X211951Y178603D01*
X211856Y178631D01*
X211760Y178656D01*
X211662Y178677D01*
X211564Y178694D01*
X211466Y178707D01*
X211367Y178716D01*
X211267Y178722D01*
X211168Y178724D01*
X208572Y178724D01*
X201610Y172233D02*
X197715Y172233D01*
X201610Y172234D02*
X201709Y172236D01*
X201809Y172242D01*
X201908Y172251D01*
X202006Y172264D01*
X202104Y172281D01*
X202202Y172302D01*
X202298Y172327D01*
X202393Y172355D01*
X202487Y172387D01*
X202580Y172422D01*
X202672Y172461D01*
X202762Y172504D01*
X202850Y172549D01*
X202937Y172599D01*
X203021Y172651D01*
X203104Y172707D01*
X203184Y172765D01*
X203262Y172827D01*
X203337Y172892D01*
X203410Y172960D01*
X203480Y173030D01*
X203548Y173103D01*
X203613Y173178D01*
X203675Y173256D01*
X203733Y173336D01*
X203789Y173419D01*
X203841Y173503D01*
X203891Y173590D01*
X203936Y173678D01*
X203979Y173768D01*
X204018Y173860D01*
X204053Y173953D01*
X204085Y174047D01*
X204113Y174142D01*
X204138Y174238D01*
X204159Y174336D01*
X204176Y174434D01*
X204189Y174532D01*
X204198Y174631D01*
X204204Y174731D01*
X204206Y174830D01*
X204206Y175479D01*
X204207Y175479D02*
X204205Y175592D01*
X204199Y175705D01*
X204189Y175818D01*
X204175Y175931D01*
X204158Y176043D01*
X204136Y176154D01*
X204111Y176264D01*
X204081Y176374D01*
X204048Y176482D01*
X204011Y176589D01*
X203971Y176695D01*
X203926Y176799D01*
X203878Y176902D01*
X203827Y177003D01*
X203772Y177102D01*
X203714Y177199D01*
X203652Y177294D01*
X203587Y177387D01*
X203519Y177477D01*
X203448Y177565D01*
X203373Y177651D01*
X203296Y177734D01*
X203216Y177814D01*
X203133Y177891D01*
X203047Y177966D01*
X202959Y178037D01*
X202869Y178105D01*
X202776Y178170D01*
X202681Y178232D01*
X202584Y178290D01*
X202485Y178345D01*
X202384Y178396D01*
X202281Y178444D01*
X202177Y178489D01*
X202071Y178529D01*
X201964Y178566D01*
X201856Y178599D01*
X201746Y178629D01*
X201636Y178654D01*
X201525Y178676D01*
X201413Y178693D01*
X201300Y178707D01*
X201187Y178717D01*
X201074Y178723D01*
X200961Y178725D01*
X200848Y178723D01*
X200735Y178717D01*
X200622Y178707D01*
X200509Y178693D01*
X200397Y178676D01*
X200286Y178654D01*
X200176Y178629D01*
X200066Y178599D01*
X199958Y178566D01*
X199851Y178529D01*
X199745Y178489D01*
X199641Y178444D01*
X199538Y178396D01*
X199437Y178345D01*
X199338Y178290D01*
X199241Y178232D01*
X199146Y178170D01*
X199053Y178105D01*
X198963Y178037D01*
X198875Y177966D01*
X198789Y177891D01*
X198706Y177814D01*
X198626Y177734D01*
X198549Y177651D01*
X198474Y177565D01*
X198403Y177477D01*
X198335Y177387D01*
X198270Y177294D01*
X198208Y177199D01*
X198150Y177102D01*
X198095Y177003D01*
X198044Y176902D01*
X197996Y176799D01*
X197951Y176695D01*
X197911Y176589D01*
X197874Y176482D01*
X197841Y176374D01*
X197811Y176264D01*
X197786Y176154D01*
X197764Y176043D01*
X197747Y175931D01*
X197733Y175818D01*
X197723Y175705D01*
X197717Y175592D01*
X197715Y175479D01*
X197715Y172233D01*
X197717Y172090D01*
X197723Y171947D01*
X197733Y171804D01*
X197747Y171662D01*
X197764Y171520D01*
X197786Y171378D01*
X197811Y171237D01*
X197841Y171097D01*
X197874Y170958D01*
X197911Y170820D01*
X197952Y170683D01*
X197996Y170547D01*
X198045Y170412D01*
X198097Y170279D01*
X198152Y170147D01*
X198212Y170017D01*
X198275Y169888D01*
X198341Y169761D01*
X198411Y169637D01*
X198484Y169514D01*
X198561Y169393D01*
X198641Y169274D01*
X198724Y169158D01*
X198810Y169043D01*
X198899Y168932D01*
X198992Y168822D01*
X199087Y168716D01*
X199186Y168612D01*
X199287Y168511D01*
X199391Y168412D01*
X199497Y168317D01*
X199607Y168224D01*
X199718Y168135D01*
X199833Y168049D01*
X199949Y167966D01*
X200068Y167886D01*
X200189Y167809D01*
X200311Y167736D01*
X200436Y167666D01*
X200563Y167600D01*
X200692Y167537D01*
X200822Y167477D01*
X200954Y167422D01*
X201087Y167370D01*
X201222Y167321D01*
X201358Y167277D01*
X201495Y167236D01*
X201633Y167199D01*
X201772Y167166D01*
X201912Y167136D01*
X202053Y167111D01*
X202195Y167089D01*
X202337Y167072D01*
X202479Y167058D01*
X202622Y167048D01*
X202765Y167042D01*
X202908Y167040D01*
D10*
X72250Y187589D02*
X54750Y187589D01*
X54750Y203571D02*
X72250Y203571D01*
D11*
X72047Y169047D02*
X74643Y169047D01*
X74742Y169049D01*
X74842Y169055D01*
X74941Y169064D01*
X75039Y169077D01*
X75137Y169094D01*
X75235Y169115D01*
X75331Y169140D01*
X75426Y169168D01*
X75520Y169200D01*
X75613Y169235D01*
X75705Y169274D01*
X75795Y169317D01*
X75883Y169362D01*
X75970Y169412D01*
X76054Y169464D01*
X76137Y169520D01*
X76217Y169578D01*
X76295Y169640D01*
X76370Y169705D01*
X76443Y169773D01*
X76513Y169843D01*
X76581Y169916D01*
X76646Y169991D01*
X76708Y170069D01*
X76766Y170149D01*
X76822Y170232D01*
X76874Y170316D01*
X76924Y170403D01*
X76969Y170491D01*
X77012Y170581D01*
X77051Y170673D01*
X77086Y170766D01*
X77118Y170860D01*
X77146Y170955D01*
X77171Y171051D01*
X77192Y171149D01*
X77209Y171247D01*
X77222Y171345D01*
X77231Y171444D01*
X77237Y171544D01*
X77239Y171643D01*
X77240Y171643D02*
X77240Y178135D01*
X77239Y178135D02*
X77237Y178234D01*
X77231Y178334D01*
X77222Y178433D01*
X77209Y178531D01*
X77192Y178629D01*
X77171Y178727D01*
X77146Y178823D01*
X77118Y178918D01*
X77086Y179012D01*
X77051Y179105D01*
X77012Y179197D01*
X76969Y179287D01*
X76924Y179375D01*
X76874Y179462D01*
X76822Y179546D01*
X76766Y179629D01*
X76708Y179709D01*
X76646Y179787D01*
X76581Y179862D01*
X76513Y179935D01*
X76443Y180005D01*
X76370Y180073D01*
X76295Y180138D01*
X76217Y180200D01*
X76137Y180258D01*
X76054Y180314D01*
X75970Y180366D01*
X75883Y180416D01*
X75795Y180461D01*
X75705Y180504D01*
X75613Y180543D01*
X75520Y180578D01*
X75426Y180610D01*
X75331Y180638D01*
X75235Y180663D01*
X75137Y180684D01*
X75039Y180701D01*
X74941Y180714D01*
X74842Y180723D01*
X74742Y180729D01*
X74643Y180731D01*
X72047Y180731D01*
X67681Y178135D02*
X64436Y180731D01*
X64436Y169047D01*
X67681Y169047D02*
X61190Y169047D01*
X56252Y174889D02*
X56249Y175119D01*
X56241Y175349D01*
X56227Y175578D01*
X56208Y175807D01*
X56183Y176036D01*
X56153Y176264D01*
X56118Y176491D01*
X56077Y176717D01*
X56031Y176942D01*
X55979Y177166D01*
X55922Y177389D01*
X55860Y177610D01*
X55792Y177830D01*
X55719Y178048D01*
X55641Y178264D01*
X55558Y178478D01*
X55470Y178691D01*
X55377Y178901D01*
X55278Y179108D01*
X55245Y179198D01*
X55209Y179287D01*
X55169Y179375D01*
X55125Y179460D01*
X55078Y179544D01*
X55028Y179626D01*
X54974Y179706D01*
X54918Y179783D01*
X54858Y179859D01*
X54795Y179932D01*
X54730Y180002D01*
X54661Y180070D01*
X54590Y180134D01*
X54517Y180196D01*
X54441Y180255D01*
X54363Y180311D01*
X54282Y180364D01*
X54200Y180413D01*
X54116Y180459D01*
X54029Y180502D01*
X53942Y180541D01*
X53852Y180577D01*
X53762Y180609D01*
X53670Y180637D01*
X53577Y180662D01*
X53483Y180683D01*
X53389Y180700D01*
X53294Y180714D01*
X53198Y180723D01*
X53102Y180729D01*
X53006Y180731D01*
X52910Y180729D01*
X52814Y180723D01*
X52718Y180714D01*
X52623Y180700D01*
X52529Y180683D01*
X52435Y180662D01*
X52342Y180637D01*
X52250Y180609D01*
X52160Y180577D01*
X52070Y180541D01*
X51983Y180502D01*
X51896Y180459D01*
X51812Y180413D01*
X51730Y180364D01*
X51649Y180311D01*
X51571Y180255D01*
X51495Y180196D01*
X51422Y180134D01*
X51351Y180070D01*
X51282Y180002D01*
X51217Y179932D01*
X51154Y179859D01*
X51094Y179784D01*
X51038Y179706D01*
X50984Y179626D01*
X50934Y179544D01*
X50887Y179460D01*
X50844Y179375D01*
X50803Y179287D01*
X50767Y179198D01*
X50734Y179108D01*
X50735Y179108D02*
X50636Y178900D01*
X50543Y178690D01*
X50455Y178478D01*
X50372Y178264D01*
X50294Y178047D01*
X50221Y177829D01*
X50153Y177610D01*
X50091Y177388D01*
X50034Y177166D01*
X49982Y176942D01*
X49936Y176717D01*
X49895Y176491D01*
X49860Y176263D01*
X49830Y176036D01*
X49805Y175807D01*
X49786Y175578D01*
X49772Y175349D01*
X49764Y175119D01*
X49761Y174889D01*
X56252Y174889D02*
X56249Y174659D01*
X56241Y174429D01*
X56227Y174200D01*
X56208Y173971D01*
X56183Y173742D01*
X56153Y173514D01*
X56118Y173287D01*
X56077Y173061D01*
X56031Y172836D01*
X55979Y172612D01*
X55922Y172389D01*
X55860Y172168D01*
X55792Y171948D01*
X55719Y171730D01*
X55641Y171514D01*
X55558Y171300D01*
X55470Y171088D01*
X55377Y170877D01*
X55278Y170670D01*
X55245Y170580D01*
X55209Y170491D01*
X55168Y170403D01*
X55125Y170318D01*
X55078Y170234D01*
X55028Y170152D01*
X54974Y170072D01*
X54918Y169995D01*
X54858Y169919D01*
X54795Y169846D01*
X54730Y169776D01*
X54661Y169708D01*
X54590Y169644D01*
X54517Y169582D01*
X54441Y169523D01*
X54363Y169467D01*
X54282Y169414D01*
X54200Y169365D01*
X54116Y169319D01*
X54029Y169276D01*
X53942Y169237D01*
X53852Y169201D01*
X53762Y169169D01*
X53670Y169141D01*
X53577Y169116D01*
X53483Y169095D01*
X53389Y169078D01*
X53294Y169064D01*
X53198Y169055D01*
X53102Y169049D01*
X53006Y169047D01*
X50734Y170670D02*
X50635Y170877D01*
X50542Y171088D01*
X50454Y171300D01*
X50371Y171514D01*
X50293Y171730D01*
X50220Y171948D01*
X50152Y172168D01*
X50090Y172389D01*
X50033Y172612D01*
X49981Y172836D01*
X49935Y173061D01*
X49894Y173287D01*
X49859Y173514D01*
X49829Y173742D01*
X49804Y173971D01*
X49785Y174200D01*
X49771Y174429D01*
X49763Y174659D01*
X49760Y174889D01*
X50734Y170670D02*
X50767Y170580D01*
X50803Y170491D01*
X50844Y170403D01*
X50887Y170318D01*
X50934Y170234D01*
X50984Y170152D01*
X51038Y170072D01*
X51094Y169994D01*
X51154Y169919D01*
X51217Y169846D01*
X51282Y169776D01*
X51351Y169708D01*
X51422Y169644D01*
X51495Y169582D01*
X51571Y169523D01*
X51649Y169467D01*
X51730Y169414D01*
X51812Y169365D01*
X51896Y169319D01*
X51983Y169276D01*
X52070Y169237D01*
X52160Y169201D01*
X52250Y169169D01*
X52342Y169141D01*
X52435Y169116D01*
X52529Y169095D01*
X52623Y169078D01*
X52718Y169064D01*
X52814Y169055D01*
X52910Y169049D01*
X53006Y169047D01*
X55602Y171643D02*
X50409Y178135D01*
D10*
X209595Y175928D02*
X218738Y190849D01*
X232365Y182499D02*
X223222Y167577D01*
D11*
X212785Y194259D02*
X214141Y196473D01*
X214192Y196558D01*
X214239Y196646D01*
X214282Y196735D01*
X214323Y196826D01*
X214359Y196919D01*
X214392Y197013D01*
X214422Y197108D01*
X214448Y197204D01*
X214470Y197301D01*
X214488Y197398D01*
X214503Y197497D01*
X214513Y197596D01*
X214521Y197695D01*
X214524Y197794D01*
X214523Y197894D01*
X214519Y197993D01*
X214511Y198092D01*
X214499Y198191D01*
X214483Y198289D01*
X214463Y198387D01*
X214440Y198483D01*
X214413Y198579D01*
X214383Y198674D01*
X214349Y198767D01*
X214311Y198859D01*
X214270Y198950D01*
X214225Y199038D01*
X214177Y199126D01*
X214126Y199211D01*
X214071Y199294D01*
X214013Y199375D01*
X213953Y199454D01*
X213889Y199530D01*
X213822Y199604D01*
X213753Y199675D01*
X213681Y199744D01*
X213606Y199809D01*
X213529Y199872D01*
X213450Y199932D01*
X213368Y199989D01*
X213284Y200042D01*
X213284Y200043D02*
X207750Y203435D01*
X207749Y203434D02*
X207664Y203485D01*
X207576Y203532D01*
X207487Y203575D01*
X207396Y203616D01*
X207303Y203652D01*
X207209Y203685D01*
X207114Y203715D01*
X207018Y203741D01*
X206921Y203763D01*
X206824Y203781D01*
X206725Y203796D01*
X206626Y203806D01*
X206527Y203814D01*
X206428Y203817D01*
X206328Y203816D01*
X206229Y203812D01*
X206130Y203804D01*
X206031Y203792D01*
X205933Y203776D01*
X205835Y203756D01*
X205739Y203733D01*
X205643Y203706D01*
X205548Y203676D01*
X205455Y203642D01*
X205363Y203604D01*
X205272Y203563D01*
X205184Y203518D01*
X205096Y203470D01*
X205011Y203419D01*
X204928Y203364D01*
X204847Y203307D01*
X204768Y203246D01*
X204692Y203182D01*
X204618Y203115D01*
X204547Y203046D01*
X204478Y202974D01*
X204413Y202899D01*
X204350Y202822D01*
X204290Y202743D01*
X204233Y202661D01*
X204180Y202577D01*
X204179Y202578D02*
X202823Y200364D01*
X202756Y195285D02*
X198846Y193875D01*
X208808Y187770D01*
X210504Y190537D02*
X207112Y185002D01*
X196784Y185539D02*
X192874Y184129D01*
X202836Y178024D01*
X204532Y180791D02*
X201140Y175257D01*
D10*
X201040Y166591D02*
X191792Y151734D01*
X205360Y143289D02*
X214608Y158146D01*
D11*
X195110Y170043D02*
X196482Y172247D01*
X196533Y172333D01*
X196580Y172420D01*
X196625Y172509D01*
X196666Y172600D01*
X196703Y172692D01*
X196737Y172785D01*
X196767Y172880D01*
X196793Y172976D01*
X196816Y173073D01*
X196835Y173171D01*
X196850Y173269D01*
X196862Y173368D01*
X196870Y173467D01*
X196873Y173566D01*
X196874Y173666D01*
X196870Y173765D01*
X196862Y173864D01*
X196851Y173963D01*
X196836Y174061D01*
X196817Y174159D01*
X196795Y174256D01*
X196768Y174352D01*
X196739Y174447D01*
X196705Y174540D01*
X196668Y174632D01*
X196627Y174723D01*
X196583Y174812D01*
X196536Y174900D01*
X196485Y174985D01*
X196431Y175069D01*
X196374Y175150D01*
X196314Y175230D01*
X196251Y175306D01*
X196185Y175381D01*
X196116Y175452D01*
X196044Y175521D01*
X195970Y175588D01*
X195894Y175651D01*
X195814Y175711D01*
X195733Y175769D01*
X195650Y175823D01*
X190139Y179253D01*
X190139Y179254D02*
X190054Y179305D01*
X189967Y179352D01*
X189877Y179397D01*
X189787Y179437D01*
X189694Y179475D01*
X189601Y179508D01*
X189506Y179539D01*
X189410Y179565D01*
X189313Y179588D01*
X189216Y179607D01*
X189117Y179622D01*
X189019Y179634D01*
X188919Y179642D01*
X188820Y179645D01*
X188720Y179646D01*
X188621Y179642D01*
X188522Y179634D01*
X188423Y179623D01*
X188325Y179608D01*
X188227Y179589D01*
X188130Y179567D01*
X188034Y179540D01*
X187939Y179511D01*
X187846Y179477D01*
X187753Y179440D01*
X187662Y179399D01*
X187573Y179355D01*
X187486Y179308D01*
X187400Y179257D01*
X187317Y179203D01*
X187235Y179146D01*
X187156Y179086D01*
X187079Y179023D01*
X187005Y178957D01*
X186933Y178888D01*
X186864Y178816D01*
X186798Y178742D01*
X186734Y178665D01*
X186674Y178586D01*
X186616Y178505D01*
X186562Y178421D01*
X186563Y178421D02*
X185191Y176217D01*
X185088Y171139D02*
X181169Y169756D01*
X191088Y163581D01*
X189373Y160826D02*
X192803Y166337D01*
X174957Y159777D02*
X174902Y159685D01*
X174851Y159591D01*
X174803Y159496D01*
X174759Y159399D01*
X174718Y159300D01*
X174681Y159200D01*
X174647Y159099D01*
X174618Y158997D01*
X174592Y158893D01*
X174569Y158789D01*
X174551Y158684D01*
X174536Y158578D01*
X174526Y158472D01*
X174519Y158365D01*
X174516Y158259D01*
X174517Y158152D01*
X174522Y158045D01*
X174531Y157939D01*
X174543Y157833D01*
X174560Y157728D01*
X174580Y157623D01*
X174605Y157519D01*
X174633Y157416D01*
X174664Y157314D01*
X174700Y157214D01*
X174739Y157114D01*
X174781Y157017D01*
X174828Y156920D01*
X174877Y156826D01*
X174930Y156733D01*
X174987Y156643D01*
X175047Y156554D01*
X175109Y156468D01*
X175175Y156384D01*
X175244Y156303D01*
X175316Y156224D01*
X175391Y156148D01*
X175469Y156075D01*
X175549Y156004D01*
X175631Y155937D01*
X175717Y155872D01*
X175804Y155811D01*
X175893Y155753D01*
X174957Y159776D02*
X175022Y159878D01*
X175091Y159977D01*
X175163Y160075D01*
X175238Y160170D01*
X175317Y160262D01*
X175398Y160352D01*
X175482Y160439D01*
X175568Y160523D01*
X175658Y160605D01*
X175750Y160684D01*
X175844Y160759D01*
X175941Y160832D01*
X176040Y160901D01*
X176141Y160968D01*
X176245Y161030D01*
X176350Y161090D01*
X176457Y161146D01*
X176566Y161199D01*
X176677Y161248D01*
X176789Y161293D01*
X176903Y161335D01*
X177017Y161373D01*
X177133Y161408D01*
X177250Y161438D01*
X177368Y161465D01*
X177487Y161488D01*
X177607Y161507D01*
X177727Y161523D01*
X177847Y161534D01*
X177968Y161542D01*
X178089Y161546D01*
X178210Y161545D01*
X178331Y161541D01*
X178452Y161533D01*
X178572Y161521D01*
X178692Y161506D01*
X178812Y161486D01*
X178930Y161463D01*
X179048Y161435D01*
X178337Y155378D02*
X178230Y155352D01*
X178122Y155330D01*
X178013Y155312D01*
X177903Y155298D01*
X177793Y155287D01*
X177683Y155281D01*
X177573Y155278D01*
X177462Y155279D01*
X177352Y155284D01*
X177242Y155293D01*
X177132Y155306D01*
X177023Y155323D01*
X176914Y155344D01*
X176806Y155368D01*
X176700Y155396D01*
X176594Y155428D01*
X176489Y155463D01*
X176386Y155503D01*
X176284Y155546D01*
X176184Y155592D01*
X176085Y155642D01*
X175989Y155695D01*
X175894Y155752D01*
X178337Y155379D02*
X186763Y156633D01*
X183333Y151122D01*
D10*
X181533Y131528D02*
X171722Y117037D01*
X184956Y108077D02*
X194767Y122568D01*
D11*
X175740Y135205D02*
X177196Y137355D01*
X177250Y137438D01*
X177301Y137523D01*
X177348Y137611D01*
X177393Y137700D01*
X177433Y137790D01*
X177471Y137883D01*
X177504Y137976D01*
X177535Y138071D01*
X177561Y138167D01*
X177584Y138264D01*
X177603Y138361D01*
X177618Y138460D01*
X177630Y138558D01*
X177638Y138657D01*
X177641Y138757D01*
X177642Y138856D01*
X177638Y138956D01*
X177630Y139055D01*
X177619Y139154D01*
X177604Y139252D01*
X177585Y139350D01*
X177563Y139446D01*
X177537Y139542D01*
X177507Y139637D01*
X177473Y139731D01*
X177436Y139823D01*
X177396Y139914D01*
X177352Y140003D01*
X177304Y140091D01*
X177253Y140176D01*
X177199Y140260D01*
X177142Y140341D01*
X177082Y140420D01*
X177019Y140497D01*
X176953Y140571D01*
X176884Y140643D01*
X176813Y140712D01*
X176738Y140779D01*
X176662Y140842D01*
X176583Y140902D01*
X176501Y140960D01*
X176502Y140960D02*
X171127Y144599D01*
X171044Y144654D01*
X170958Y144705D01*
X170871Y144752D01*
X170782Y144797D01*
X170691Y144837D01*
X170599Y144875D01*
X170505Y144908D01*
X170410Y144939D01*
X170314Y144965D01*
X170218Y144988D01*
X170120Y145007D01*
X170022Y145022D01*
X169923Y145034D01*
X169824Y145042D01*
X169724Y145045D01*
X169625Y145046D01*
X169525Y145042D01*
X169426Y145034D01*
X169327Y145023D01*
X169229Y145008D01*
X169131Y144989D01*
X169034Y144967D01*
X168938Y144940D01*
X168843Y144911D01*
X168750Y144877D01*
X168657Y144840D01*
X168567Y144799D01*
X168477Y144755D01*
X168390Y144708D01*
X168304Y144657D01*
X168221Y144603D01*
X168139Y144546D01*
X168060Y144486D01*
X167983Y144423D01*
X167909Y144357D01*
X167837Y144288D01*
X167768Y144216D01*
X167702Y144142D01*
X167638Y144065D01*
X167578Y143986D01*
X167521Y143905D01*
X166065Y141755D01*
X165768Y136685D02*
X161798Y135453D01*
X171473Y128902D01*
X169654Y126215D02*
X173293Y131590D01*
X166885Y122125D02*
X165065Y119438D01*
X165066Y119437D02*
X165001Y119344D01*
X164932Y119254D01*
X164861Y119166D01*
X164786Y119081D01*
X164709Y118998D01*
X164629Y118918D01*
X164546Y118841D01*
X164460Y118767D01*
X164372Y118696D01*
X164281Y118628D01*
X164188Y118563D01*
X164093Y118501D01*
X163996Y118443D01*
X163897Y118388D01*
X163796Y118337D01*
X163693Y118289D01*
X163589Y118245D01*
X163483Y118205D01*
X163376Y118168D01*
X163267Y118135D01*
X163158Y118106D01*
X163047Y118081D01*
X162936Y118059D01*
X162824Y118042D01*
X162712Y118028D01*
X162599Y118019D01*
X162486Y118013D01*
X162372Y118011D01*
X162259Y118013D01*
X162146Y118019D01*
X162033Y118029D01*
X161921Y118043D01*
X161809Y118061D01*
X161698Y118083D01*
X161587Y118109D01*
X161478Y118138D01*
X161370Y118172D01*
X161262Y118209D01*
X161157Y118249D01*
X161053Y118294D01*
X160950Y118342D01*
X160849Y118394D01*
X160750Y118449D01*
X160653Y118507D01*
X160558Y118569D01*
X160465Y118634D01*
X160375Y118703D01*
X160287Y118774D01*
X160202Y118849D01*
X160119Y118926D01*
X160039Y119006D01*
X159962Y119089D01*
X159888Y119175D01*
X159817Y119263D01*
X159749Y119354D01*
X159684Y119447D01*
X159622Y119542D01*
X159564Y119639D01*
X159509Y119738D01*
X159458Y119839D01*
X159410Y119942D01*
X159366Y120046D01*
X159326Y120152D01*
X159289Y120259D01*
X159256Y120368D01*
X159227Y120477D01*
X159202Y120588D01*
X159180Y120699D01*
X159163Y120811D01*
X159149Y120923D01*
X159140Y121036D01*
X159134Y121149D01*
X159132Y121263D01*
X159134Y121376D01*
X159140Y121489D01*
X159150Y121602D01*
X159164Y121714D01*
X159182Y121826D01*
X159204Y121937D01*
X159230Y122048D01*
X159259Y122157D01*
X159293Y122265D01*
X159330Y122373D01*
X159370Y122478D01*
X159415Y122582D01*
X159463Y122685D01*
X159515Y122786D01*
X159570Y122885D01*
X159628Y122982D01*
X159690Y123077D01*
X155026Y125451D02*
X157210Y128676D01*
X155026Y125450D02*
X154972Y125366D01*
X154920Y125279D01*
X154872Y125191D01*
X154827Y125101D01*
X154786Y125009D01*
X154749Y124915D01*
X154715Y124821D01*
X154685Y124725D01*
X154658Y124627D01*
X154636Y124529D01*
X154617Y124430D01*
X154602Y124331D01*
X154591Y124231D01*
X154584Y124130D01*
X154580Y124030D01*
X154581Y123929D01*
X154585Y123828D01*
X154594Y123728D01*
X154606Y123628D01*
X154622Y123529D01*
X154642Y123430D01*
X154666Y123332D01*
X154694Y123236D01*
X154725Y123140D01*
X154760Y123045D01*
X154799Y122952D01*
X154841Y122861D01*
X154886Y122771D01*
X154936Y122684D01*
X154988Y122598D01*
X155044Y122514D01*
X155103Y122432D01*
X155165Y122353D01*
X155230Y122276D01*
X155298Y122202D01*
X155369Y122131D01*
X155443Y122062D01*
X155519Y121996D01*
X155598Y121934D01*
X155679Y121874D01*
X155763Y121818D01*
X155848Y121764D01*
X155936Y121715D01*
X156025Y121668D01*
X156116Y121625D01*
X156209Y121586D01*
X156303Y121550D01*
X156398Y121518D01*
X156495Y121490D01*
X156593Y121465D01*
X156691Y121445D01*
X156790Y121428D01*
X156890Y121415D01*
X156990Y121406D01*
X157091Y121400D01*
X157192Y121399D01*
X157292Y121402D01*
X157393Y121408D01*
X157493Y121418D01*
X157593Y121433D01*
X157692Y121451D01*
X157790Y121473D01*
X157887Y121498D01*
X157983Y121528D01*
X158079Y121561D01*
X158172Y121598D01*
X158264Y121638D01*
X158355Y121682D01*
X158444Y121730D01*
X158531Y121780D01*
X158616Y121835D01*
X158698Y121892D01*
X158779Y121953D01*
X158857Y122016D01*
X158932Y122083D01*
X159005Y122153D01*
X159075Y122225D01*
X159142Y122300D01*
X159206Y122377D01*
X159268Y122457D01*
X159326Y122540D01*
X159326Y122539D02*
X160782Y124689D01*
D10*
X254809Y160798D02*
X257533Y166144D01*
X239712Y175224D02*
X236988Y169878D01*
D12*
X243808Y149380D02*
X243810Y149444D01*
X243816Y149508D01*
X243826Y149571D01*
X243840Y149634D01*
X243857Y149695D01*
X243879Y149756D01*
X243904Y149814D01*
X243933Y149872D01*
X243965Y149927D01*
X244001Y149980D01*
X244040Y150031D01*
X244082Y150079D01*
X244127Y150125D01*
X244175Y150168D01*
X244225Y150208D01*
X244277Y150244D01*
X244332Y150277D01*
X244389Y150307D01*
X244448Y150333D01*
X244508Y150356D01*
X244569Y150374D01*
X244631Y150389D01*
X244694Y150400D01*
X244758Y150407D01*
X244822Y150410D01*
X244886Y150409D01*
X244950Y150404D01*
X245013Y150395D01*
X245076Y150382D01*
X245138Y150365D01*
X245199Y150345D01*
X245258Y150321D01*
X245316Y150293D01*
X245371Y150261D01*
X245425Y150226D01*
X245477Y150188D01*
X245526Y150147D01*
X245572Y150103D01*
X245615Y150056D01*
X245656Y150006D01*
X245693Y149954D01*
X245727Y149900D01*
X245758Y149843D01*
X245785Y149785D01*
X245808Y149726D01*
X245828Y149665D01*
X245844Y149602D01*
X245856Y149540D01*
X245864Y149476D01*
X245868Y149412D01*
X245868Y149348D01*
X245864Y149284D01*
X245856Y149220D01*
X245844Y149158D01*
X245828Y149095D01*
X245808Y149034D01*
X245785Y148975D01*
X245758Y148917D01*
X245727Y148860D01*
X245693Y148806D01*
X245656Y148754D01*
X245615Y148704D01*
X245572Y148657D01*
X245526Y148613D01*
X245477Y148572D01*
X245425Y148534D01*
X245371Y148499D01*
X245316Y148467D01*
X245258Y148439D01*
X245199Y148415D01*
X245138Y148395D01*
X245076Y148378D01*
X245013Y148365D01*
X244950Y148356D01*
X244886Y148351D01*
X244822Y148350D01*
X244758Y148353D01*
X244694Y148360D01*
X244631Y148371D01*
X244569Y148386D01*
X244508Y148404D01*
X244448Y148427D01*
X244389Y148453D01*
X244332Y148483D01*
X244277Y148516D01*
X244225Y148552D01*
X244175Y148592D01*
X244127Y148635D01*
X244082Y148681D01*
X244040Y148729D01*
X244001Y148780D01*
X243965Y148833D01*
X243933Y148888D01*
X243904Y148946D01*
X243879Y149004D01*
X243857Y149065D01*
X243840Y149126D01*
X243826Y149189D01*
X243816Y149252D01*
X243810Y149316D01*
X243808Y149380D01*
D11*
X265345Y170310D02*
X272865Y166478D01*
X272965Y166425D01*
X273063Y166368D01*
X273159Y166308D01*
X273253Y166245D01*
X273344Y166178D01*
X273434Y166109D01*
X273521Y166036D01*
X273605Y165960D01*
X273686Y165881D01*
X273765Y165800D01*
X273841Y165716D01*
X273914Y165629D01*
X273983Y165539D01*
X274050Y165448D01*
X274113Y165354D01*
X274173Y165258D01*
X274230Y165160D01*
X274283Y165060D01*
X274333Y164958D01*
X274379Y164854D01*
X274421Y164749D01*
X274460Y164643D01*
X274495Y164535D01*
X274526Y164426D01*
X274554Y164316D01*
X274577Y164205D01*
X274597Y164094D01*
X274613Y163982D01*
X274625Y163869D01*
X274633Y163756D01*
X274637Y163643D01*
X274637Y163529D01*
X274633Y163416D01*
X274625Y163303D01*
X274613Y163190D01*
X274597Y163078D01*
X274577Y162967D01*
X274554Y162856D01*
X274526Y162746D01*
X274495Y162637D01*
X274460Y162529D01*
X274421Y162423D01*
X274379Y162318D01*
X274333Y162214D01*
X274283Y162112D01*
X274230Y162012D01*
X274173Y161914D01*
X274113Y161818D01*
X274050Y161724D01*
X273983Y161633D01*
X273914Y161543D01*
X273841Y161456D01*
X273765Y161372D01*
X273686Y161291D01*
X273605Y161212D01*
X273521Y161136D01*
X273434Y161063D01*
X273344Y160994D01*
X273253Y160927D01*
X273159Y160864D01*
X273063Y160804D01*
X272965Y160747D01*
X272865Y160694D01*
X272763Y160644D01*
X272659Y160598D01*
X272554Y160556D01*
X272448Y160517D01*
X272340Y160482D01*
X272231Y160451D01*
X272121Y160423D01*
X272010Y160400D01*
X271899Y160380D01*
X271787Y160364D01*
X271674Y160352D01*
X271561Y160344D01*
X271448Y160340D01*
X271334Y160340D01*
X271221Y160344D01*
X271108Y160352D01*
X270995Y160364D01*
X270883Y160380D01*
X270772Y160400D01*
X270661Y160423D01*
X270551Y160451D01*
X270442Y160482D01*
X270334Y160517D01*
X270228Y160556D01*
X270123Y160598D01*
X270019Y160644D01*
X269917Y160694D01*
X269918Y160694D02*
X262398Y164526D01*
X262297Y158606D02*
X258509Y156893D01*
X268921Y151588D01*
X270395Y154480D02*
X267447Y148696D01*
X257107Y148421D02*
X253320Y146708D01*
X263731Y141402D01*
X262258Y138510D02*
X265205Y144295D01*
D10*
X240815Y133390D02*
X237778Y128215D01*
X220528Y138336D02*
X223564Y143511D01*
D12*
X226118Y117408D02*
X226120Y117472D01*
X226126Y117536D01*
X226136Y117599D01*
X226150Y117662D01*
X226167Y117723D01*
X226189Y117784D01*
X226214Y117842D01*
X226243Y117900D01*
X226275Y117955D01*
X226311Y118008D01*
X226350Y118059D01*
X226392Y118107D01*
X226437Y118153D01*
X226485Y118196D01*
X226535Y118236D01*
X226587Y118272D01*
X226642Y118305D01*
X226699Y118335D01*
X226758Y118361D01*
X226818Y118384D01*
X226879Y118402D01*
X226941Y118417D01*
X227004Y118428D01*
X227068Y118435D01*
X227132Y118438D01*
X227196Y118437D01*
X227260Y118432D01*
X227323Y118423D01*
X227386Y118410D01*
X227448Y118393D01*
X227509Y118373D01*
X227568Y118349D01*
X227626Y118321D01*
X227681Y118289D01*
X227735Y118254D01*
X227787Y118216D01*
X227836Y118175D01*
X227882Y118131D01*
X227925Y118084D01*
X227966Y118034D01*
X228003Y117982D01*
X228037Y117928D01*
X228068Y117871D01*
X228095Y117813D01*
X228118Y117754D01*
X228138Y117693D01*
X228154Y117630D01*
X228166Y117568D01*
X228174Y117504D01*
X228178Y117440D01*
X228178Y117376D01*
X228174Y117312D01*
X228166Y117248D01*
X228154Y117186D01*
X228138Y117123D01*
X228118Y117062D01*
X228095Y117003D01*
X228068Y116945D01*
X228037Y116888D01*
X228003Y116834D01*
X227966Y116782D01*
X227925Y116732D01*
X227882Y116685D01*
X227836Y116641D01*
X227787Y116600D01*
X227735Y116562D01*
X227681Y116527D01*
X227626Y116495D01*
X227568Y116467D01*
X227509Y116443D01*
X227448Y116423D01*
X227386Y116406D01*
X227323Y116393D01*
X227260Y116384D01*
X227196Y116379D01*
X227132Y116378D01*
X227068Y116381D01*
X227004Y116388D01*
X226941Y116399D01*
X226879Y116414D01*
X226818Y116432D01*
X226758Y116455D01*
X226699Y116481D01*
X226642Y116511D01*
X226587Y116544D01*
X226535Y116580D01*
X226485Y116620D01*
X226437Y116663D01*
X226392Y116709D01*
X226350Y116757D01*
X226311Y116808D01*
X226275Y116861D01*
X226243Y116916D01*
X226214Y116974D01*
X226189Y117032D01*
X226167Y117093D01*
X226150Y117154D01*
X226136Y117217D01*
X226126Y117280D01*
X226120Y117344D01*
X226118Y117408D01*
D11*
X248861Y137085D02*
X256140Y132814D01*
X256140Y132815D02*
X256236Y132756D01*
X256331Y132693D01*
X256423Y132628D01*
X256513Y132559D01*
X256601Y132487D01*
X256686Y132412D01*
X256768Y132334D01*
X256848Y132253D01*
X256924Y132170D01*
X256998Y132084D01*
X257069Y131996D01*
X257136Y131905D01*
X257201Y131811D01*
X257262Y131716D01*
X257319Y131618D01*
X257374Y131519D01*
X257424Y131418D01*
X257472Y131315D01*
X257515Y131210D01*
X257555Y131104D01*
X257591Y130996D01*
X257623Y130888D01*
X257652Y130778D01*
X257677Y130668D01*
X257698Y130556D01*
X257714Y130444D01*
X257728Y130332D01*
X257737Y130219D01*
X257742Y130106D01*
X257743Y129992D01*
X257740Y129879D01*
X257733Y129766D01*
X257723Y129653D01*
X257708Y129541D01*
X257690Y129429D01*
X257667Y129318D01*
X257641Y129208D01*
X257611Y129099D01*
X257577Y128990D01*
X257539Y128884D01*
X257498Y128778D01*
X257453Y128674D01*
X257404Y128572D01*
X257352Y128471D01*
X257297Y128372D01*
X257238Y128276D01*
X257175Y128181D01*
X257110Y128089D01*
X257041Y127999D01*
X256969Y127911D01*
X256894Y127826D01*
X256816Y127744D01*
X256736Y127664D01*
X256652Y127588D01*
X256566Y127514D01*
X256478Y127443D01*
X256387Y127376D01*
X256293Y127311D01*
X256198Y127250D01*
X256100Y127193D01*
X256001Y127138D01*
X255900Y127088D01*
X255797Y127040D01*
X255692Y126997D01*
X255586Y126957D01*
X255479Y126921D01*
X255370Y126889D01*
X255260Y126860D01*
X255150Y126835D01*
X255038Y126814D01*
X254926Y126798D01*
X254814Y126784D01*
X254701Y126775D01*
X254588Y126770D01*
X254474Y126769D01*
X254361Y126772D01*
X254248Y126779D01*
X254135Y126789D01*
X254023Y126804D01*
X253911Y126822D01*
X253800Y126845D01*
X253690Y126871D01*
X253581Y126901D01*
X253472Y126935D01*
X253366Y126973D01*
X253260Y127014D01*
X253156Y127059D01*
X253054Y127108D01*
X252953Y127160D01*
X252854Y127215D01*
X252855Y127215D02*
X245576Y131486D01*
X245123Y125583D02*
X241241Y124097D01*
X251320Y118184D01*
X252962Y120984D02*
X249677Y115384D01*
X236334Y109960D02*
X236243Y110015D01*
X236154Y110074D01*
X236067Y110136D01*
X235983Y110202D01*
X235901Y110270D01*
X235821Y110341D01*
X235745Y110415D01*
X235671Y110492D01*
X235600Y110572D01*
X235531Y110654D01*
X235466Y110738D01*
X235404Y110825D01*
X235345Y110914D01*
X235290Y111005D01*
X235238Y111098D01*
X235189Y111193D01*
X235144Y111290D01*
X235102Y111388D01*
X235064Y111488D01*
X235030Y111589D01*
X234999Y111691D01*
X234972Y111794D01*
X234949Y111899D01*
X234930Y112004D01*
X234915Y112109D01*
X234903Y112215D01*
X234895Y112322D01*
X234891Y112428D01*
X234892Y112535D01*
X234896Y112642D01*
X234903Y112748D01*
X234915Y112854D01*
X234931Y112960D01*
X234950Y113064D01*
X234974Y113169D01*
X235001Y113272D01*
X235031Y113374D01*
X235066Y113475D01*
X235104Y113574D01*
X235146Y113673D01*
X235191Y113769D01*
X235240Y113864D01*
X235293Y113957D01*
X235292Y113957D02*
X235355Y114060D01*
X235421Y114162D01*
X235491Y114261D01*
X235563Y114358D01*
X235639Y114452D01*
X235717Y114544D01*
X235799Y114633D01*
X235884Y114720D01*
X235971Y114804D01*
X236061Y114885D01*
X236153Y114963D01*
X236248Y115038D01*
X236345Y115110D01*
X236445Y115179D01*
X236547Y115245D01*
X236650Y115307D01*
X236756Y115366D01*
X236864Y115421D01*
X236973Y115473D01*
X237084Y115522D01*
X237196Y115566D01*
X237310Y115608D01*
X237425Y115645D01*
X237541Y115679D01*
X237659Y115709D01*
X237777Y115735D01*
X237896Y115757D01*
X238015Y115776D01*
X238135Y115790D01*
X238256Y115801D01*
X238377Y115808D01*
X238498Y115811D01*
X238619Y115810D01*
X238740Y115805D01*
X238860Y115796D01*
X238981Y115784D01*
X239101Y115767D01*
X239220Y115747D01*
X239339Y115723D01*
X238786Y109649D02*
X238679Y109621D01*
X238571Y109596D01*
X238463Y109575D01*
X238354Y109558D01*
X238244Y109545D01*
X238134Y109535D01*
X238024Y109530D01*
X237913Y109528D01*
X237803Y109530D01*
X237692Y109536D01*
X237582Y109546D01*
X237473Y109560D01*
X237364Y109578D01*
X237255Y109599D01*
X237148Y109625D01*
X237041Y109654D01*
X236936Y109687D01*
X236832Y109723D01*
X236729Y109763D01*
X236627Y109807D01*
X236527Y109854D01*
X236429Y109905D01*
X236333Y109959D01*
X238786Y109650D02*
X247178Y111124D01*
X243893Y105525D01*
D10*
X221104Y100041D02*
X217871Y94987D01*
X201022Y105762D02*
X204255Y110817D01*
D12*
X205804Y84596D02*
X205806Y84660D01*
X205812Y84724D01*
X205822Y84787D01*
X205836Y84850D01*
X205853Y84911D01*
X205875Y84972D01*
X205900Y85030D01*
X205929Y85088D01*
X205961Y85143D01*
X205997Y85196D01*
X206036Y85247D01*
X206078Y85295D01*
X206123Y85341D01*
X206171Y85384D01*
X206221Y85424D01*
X206273Y85460D01*
X206328Y85493D01*
X206385Y85523D01*
X206444Y85549D01*
X206504Y85572D01*
X206565Y85590D01*
X206627Y85605D01*
X206690Y85616D01*
X206754Y85623D01*
X206818Y85626D01*
X206882Y85625D01*
X206946Y85620D01*
X207009Y85611D01*
X207072Y85598D01*
X207134Y85581D01*
X207195Y85561D01*
X207254Y85537D01*
X207312Y85509D01*
X207367Y85477D01*
X207421Y85442D01*
X207473Y85404D01*
X207522Y85363D01*
X207568Y85319D01*
X207611Y85272D01*
X207652Y85222D01*
X207689Y85170D01*
X207723Y85116D01*
X207754Y85059D01*
X207781Y85001D01*
X207804Y84942D01*
X207824Y84881D01*
X207840Y84818D01*
X207852Y84756D01*
X207860Y84692D01*
X207864Y84628D01*
X207864Y84564D01*
X207860Y84500D01*
X207852Y84436D01*
X207840Y84374D01*
X207824Y84311D01*
X207804Y84250D01*
X207781Y84191D01*
X207754Y84133D01*
X207723Y84076D01*
X207689Y84022D01*
X207652Y83970D01*
X207611Y83920D01*
X207568Y83873D01*
X207522Y83829D01*
X207473Y83788D01*
X207421Y83750D01*
X207367Y83715D01*
X207312Y83683D01*
X207254Y83655D01*
X207195Y83631D01*
X207134Y83611D01*
X207072Y83594D01*
X207009Y83581D01*
X206946Y83572D01*
X206882Y83567D01*
X206818Y83566D01*
X206754Y83569D01*
X206690Y83576D01*
X206627Y83587D01*
X206565Y83602D01*
X206504Y83620D01*
X206444Y83643D01*
X206385Y83669D01*
X206328Y83699D01*
X206273Y83732D01*
X206221Y83768D01*
X206171Y83808D01*
X206123Y83851D01*
X206078Y83897D01*
X206036Y83945D01*
X205997Y83996D01*
X205961Y84049D01*
X205929Y84104D01*
X205900Y84162D01*
X205875Y84220D01*
X205853Y84281D01*
X205836Y84342D01*
X205822Y84405D01*
X205812Y84468D01*
X205806Y84532D01*
X205804Y84596D01*
D11*
X229286Y103425D02*
X236396Y98878D01*
X236490Y98815D01*
X236582Y98749D01*
X236672Y98680D01*
X236759Y98608D01*
X236844Y98532D01*
X236926Y98454D01*
X237005Y98373D01*
X237082Y98290D01*
X237155Y98203D01*
X237226Y98115D01*
X237293Y98023D01*
X237357Y97930D01*
X237418Y97834D01*
X237475Y97736D01*
X237529Y97637D01*
X237579Y97535D01*
X237626Y97432D01*
X237669Y97327D01*
X237709Y97221D01*
X237744Y97114D01*
X237776Y97005D01*
X237805Y96895D01*
X237829Y96785D01*
X237849Y96673D01*
X237866Y96561D01*
X237879Y96448D01*
X237887Y96336D01*
X237892Y96222D01*
X237893Y96109D01*
X237890Y95996D01*
X237883Y95883D01*
X237871Y95770D01*
X237857Y95658D01*
X237838Y95546D01*
X237815Y95435D01*
X237788Y95325D01*
X237758Y95216D01*
X237723Y95108D01*
X237685Y95001D01*
X237644Y94896D01*
X237598Y94792D01*
X237549Y94690D01*
X237497Y94589D01*
X237441Y94491D01*
X237382Y94394D01*
X237319Y94300D01*
X237253Y94208D01*
X237184Y94118D01*
X237112Y94031D01*
X237036Y93946D01*
X236958Y93864D01*
X236877Y93785D01*
X236794Y93708D01*
X236707Y93635D01*
X236619Y93564D01*
X236527Y93497D01*
X236434Y93433D01*
X236338Y93372D01*
X236240Y93315D01*
X236141Y93261D01*
X236039Y93211D01*
X235936Y93164D01*
X235831Y93121D01*
X235725Y93081D01*
X235618Y93046D01*
X235509Y93014D01*
X235399Y92985D01*
X235289Y92961D01*
X235177Y92941D01*
X235065Y92924D01*
X234952Y92911D01*
X234840Y92903D01*
X234726Y92898D01*
X234613Y92897D01*
X234500Y92900D01*
X234387Y92907D01*
X234274Y92919D01*
X234162Y92933D01*
X234050Y92952D01*
X233939Y92975D01*
X233829Y93002D01*
X233720Y93032D01*
X233612Y93067D01*
X233505Y93105D01*
X233400Y93146D01*
X233296Y93192D01*
X233194Y93241D01*
X233093Y93293D01*
X232995Y93349D01*
X232898Y93408D01*
X232898Y93409D02*
X225788Y97956D01*
X225110Y92074D02*
X221173Y90739D01*
X231017Y84443D01*
X229269Y81708D02*
X232766Y87178D01*
X226607Y77547D02*
X224859Y74813D01*
X224859Y74812D02*
X224796Y74718D01*
X224730Y74626D01*
X224661Y74536D01*
X224589Y74449D01*
X224513Y74364D01*
X224435Y74282D01*
X224354Y74203D01*
X224271Y74126D01*
X224184Y74053D01*
X224096Y73982D01*
X224004Y73915D01*
X223911Y73851D01*
X223815Y73790D01*
X223717Y73733D01*
X223618Y73679D01*
X223516Y73629D01*
X223413Y73582D01*
X223308Y73539D01*
X223202Y73499D01*
X223095Y73464D01*
X222986Y73432D01*
X222876Y73403D01*
X222766Y73379D01*
X222654Y73359D01*
X222542Y73342D01*
X222429Y73329D01*
X222317Y73321D01*
X222203Y73316D01*
X222090Y73315D01*
X221977Y73318D01*
X221864Y73325D01*
X221751Y73337D01*
X221639Y73351D01*
X221527Y73370D01*
X221416Y73393D01*
X221306Y73420D01*
X221197Y73450D01*
X221089Y73485D01*
X220982Y73523D01*
X220877Y73564D01*
X220773Y73610D01*
X220671Y73659D01*
X220570Y73711D01*
X220472Y73767D01*
X220375Y73826D01*
X220281Y73889D01*
X220189Y73955D01*
X220099Y74024D01*
X220012Y74096D01*
X219927Y74172D01*
X219845Y74250D01*
X219766Y74331D01*
X219689Y74414D01*
X219616Y74501D01*
X219545Y74589D01*
X219478Y74681D01*
X219414Y74774D01*
X219353Y74870D01*
X219296Y74968D01*
X219242Y75067D01*
X219192Y75169D01*
X219145Y75272D01*
X219102Y75377D01*
X219062Y75483D01*
X219027Y75590D01*
X218995Y75699D01*
X218966Y75809D01*
X218942Y75919D01*
X218922Y76031D01*
X218905Y76143D01*
X218892Y76256D01*
X218884Y76368D01*
X218879Y76482D01*
X218878Y76595D01*
X218881Y76708D01*
X218888Y76821D01*
X218900Y76934D01*
X218914Y77046D01*
X218933Y77158D01*
X218956Y77269D01*
X218983Y77379D01*
X219013Y77488D01*
X219048Y77596D01*
X219086Y77703D01*
X219127Y77808D01*
X219173Y77912D01*
X219222Y78014D01*
X219274Y78115D01*
X219330Y78213D01*
X219389Y78310D01*
X214664Y80562D02*
X216763Y83843D01*
X214664Y80561D02*
X214612Y80475D01*
X214562Y80387D01*
X214517Y80298D01*
X214474Y80206D01*
X214436Y80113D01*
X214400Y80019D01*
X214369Y79923D01*
X214341Y79826D01*
X214318Y79729D01*
X214297Y79630D01*
X214281Y79530D01*
X214269Y79430D01*
X214260Y79330D01*
X214256Y79229D01*
X214255Y79129D01*
X214258Y79028D01*
X214266Y78928D01*
X214277Y78828D01*
X214292Y78728D01*
X214310Y78629D01*
X214333Y78531D01*
X214359Y78434D01*
X214389Y78337D01*
X214423Y78243D01*
X214461Y78149D01*
X214502Y78057D01*
X214546Y77967D01*
X214594Y77878D01*
X214646Y77792D01*
X214701Y77707D01*
X214759Y77625D01*
X214820Y77545D01*
X214884Y77467D01*
X214951Y77392D01*
X215021Y77320D01*
X215094Y77250D01*
X215170Y77184D01*
X215248Y77120D01*
X215328Y77059D01*
X215411Y77002D01*
X215496Y76947D01*
X215582Y76896D01*
X215671Y76849D01*
X215762Y76805D01*
X215854Y76764D01*
X215948Y76728D01*
X216043Y76694D01*
X216139Y76665D01*
X216236Y76639D01*
X216335Y76617D01*
X216434Y76599D01*
X216534Y76585D01*
X216634Y76574D01*
X216734Y76568D01*
X216835Y76565D01*
X216936Y76566D01*
X217036Y76572D01*
X217136Y76581D01*
X217236Y76594D01*
X217336Y76610D01*
X217434Y76631D01*
X217532Y76656D01*
X217629Y76684D01*
X217724Y76716D01*
X217818Y76751D01*
X217911Y76791D01*
X218002Y76834D01*
X218092Y76880D01*
X218179Y76930D01*
X218265Y76983D01*
X218348Y77039D01*
X218429Y77099D01*
X218508Y77162D01*
X218584Y77227D01*
X218658Y77296D01*
X218729Y77367D01*
X218797Y77442D01*
X218863Y77518D01*
X218925Y77597D01*
X218984Y77679D01*
X219040Y77763D01*
X220439Y79951D01*
D10*
X200883Y66921D02*
X197633Y61878D01*
X180822Y72712D02*
X184072Y77755D01*
D12*
X185530Y51526D02*
X185532Y51590D01*
X185538Y51654D01*
X185548Y51717D01*
X185562Y51780D01*
X185579Y51841D01*
X185601Y51902D01*
X185626Y51960D01*
X185655Y52018D01*
X185687Y52073D01*
X185723Y52126D01*
X185762Y52177D01*
X185804Y52225D01*
X185849Y52271D01*
X185897Y52314D01*
X185947Y52354D01*
X185999Y52390D01*
X186054Y52423D01*
X186111Y52453D01*
X186170Y52479D01*
X186230Y52502D01*
X186291Y52520D01*
X186353Y52535D01*
X186416Y52546D01*
X186480Y52553D01*
X186544Y52556D01*
X186608Y52555D01*
X186672Y52550D01*
X186735Y52541D01*
X186798Y52528D01*
X186860Y52511D01*
X186921Y52491D01*
X186980Y52467D01*
X187038Y52439D01*
X187093Y52407D01*
X187147Y52372D01*
X187199Y52334D01*
X187248Y52293D01*
X187294Y52249D01*
X187337Y52202D01*
X187378Y52152D01*
X187415Y52100D01*
X187449Y52046D01*
X187480Y51989D01*
X187507Y51931D01*
X187530Y51872D01*
X187550Y51811D01*
X187566Y51748D01*
X187578Y51686D01*
X187586Y51622D01*
X187590Y51558D01*
X187590Y51494D01*
X187586Y51430D01*
X187578Y51366D01*
X187566Y51304D01*
X187550Y51241D01*
X187530Y51180D01*
X187507Y51121D01*
X187480Y51063D01*
X187449Y51006D01*
X187415Y50952D01*
X187378Y50900D01*
X187337Y50850D01*
X187294Y50803D01*
X187248Y50759D01*
X187199Y50718D01*
X187147Y50680D01*
X187093Y50645D01*
X187038Y50613D01*
X186980Y50585D01*
X186921Y50561D01*
X186860Y50541D01*
X186798Y50524D01*
X186735Y50511D01*
X186672Y50502D01*
X186608Y50497D01*
X186544Y50496D01*
X186480Y50499D01*
X186416Y50506D01*
X186353Y50517D01*
X186291Y50532D01*
X186230Y50550D01*
X186170Y50573D01*
X186111Y50599D01*
X186054Y50629D01*
X185999Y50662D01*
X185947Y50698D01*
X185897Y50738D01*
X185849Y50781D01*
X185804Y50827D01*
X185762Y50875D01*
X185723Y50926D01*
X185687Y50979D01*
X185655Y51034D01*
X185626Y51092D01*
X185601Y51150D01*
X185579Y51211D01*
X185562Y51272D01*
X185548Y51335D01*
X185538Y51398D01*
X185532Y51462D01*
X185530Y51526D01*
D11*
X209077Y70276D02*
X216171Y65704D01*
X216266Y65641D01*
X216357Y65575D01*
X216447Y65506D01*
X216534Y65433D01*
X216618Y65358D01*
X216700Y65279D01*
X216779Y65198D01*
X216855Y65114D01*
X216928Y65028D01*
X216999Y64939D01*
X217065Y64847D01*
X217129Y64753D01*
X217190Y64658D01*
X217247Y64560D01*
X217300Y64460D01*
X217350Y64358D01*
X217397Y64255D01*
X217439Y64150D01*
X217478Y64043D01*
X217514Y63936D01*
X217545Y63827D01*
X217573Y63717D01*
X217597Y63606D01*
X217617Y63495D01*
X217633Y63383D01*
X217646Y63270D01*
X217654Y63157D01*
X217658Y63044D01*
X217659Y62931D01*
X217655Y62817D01*
X217648Y62704D01*
X217636Y62592D01*
X217621Y62479D01*
X217602Y62368D01*
X217578Y62257D01*
X217551Y62147D01*
X217520Y62038D01*
X217486Y61930D01*
X217447Y61823D01*
X217405Y61718D01*
X217360Y61614D01*
X217310Y61512D01*
X217257Y61412D01*
X217201Y61314D01*
X217141Y61218D01*
X217078Y61123D01*
X217012Y61032D01*
X216943Y60942D01*
X216870Y60855D01*
X216795Y60771D01*
X216716Y60689D01*
X216635Y60610D01*
X216551Y60534D01*
X216465Y60461D01*
X216376Y60390D01*
X216284Y60324D01*
X216190Y60260D01*
X216095Y60199D01*
X215997Y60142D01*
X215897Y60089D01*
X215795Y60039D01*
X215692Y59992D01*
X215587Y59950D01*
X215481Y59911D01*
X215373Y59875D01*
X215264Y59844D01*
X215154Y59816D01*
X215043Y59792D01*
X214932Y59772D01*
X214820Y59756D01*
X214707Y59743D01*
X214594Y59735D01*
X214481Y59731D01*
X214368Y59730D01*
X214254Y59734D01*
X214141Y59741D01*
X214029Y59753D01*
X213916Y59768D01*
X213805Y59787D01*
X213694Y59811D01*
X213584Y59838D01*
X213475Y59869D01*
X213367Y59903D01*
X213260Y59942D01*
X213155Y59984D01*
X213051Y60029D01*
X212949Y60079D01*
X212849Y60132D01*
X212751Y60188D01*
X212655Y60248D01*
X212654Y60247D02*
X205560Y64819D01*
X204861Y58940D02*
X200920Y57618D01*
X210742Y51288D01*
X208984Y48560D02*
X212501Y54017D01*
X204126Y45815D02*
X195079Y48555D01*
X204126Y45815D02*
X200609Y40358D01*
X199481Y43402D02*
X203847Y40588D01*
D10*
X181225Y33804D02*
X177896Y28812D01*
X161257Y39909D02*
X164586Y44901D01*
D12*
X165632Y18636D02*
X165634Y18700D01*
X165640Y18764D01*
X165650Y18827D01*
X165664Y18890D01*
X165681Y18951D01*
X165703Y19012D01*
X165728Y19070D01*
X165757Y19128D01*
X165789Y19183D01*
X165825Y19236D01*
X165864Y19287D01*
X165906Y19335D01*
X165951Y19381D01*
X165999Y19424D01*
X166049Y19464D01*
X166101Y19500D01*
X166156Y19533D01*
X166213Y19563D01*
X166272Y19589D01*
X166332Y19612D01*
X166393Y19630D01*
X166455Y19645D01*
X166518Y19656D01*
X166582Y19663D01*
X166646Y19666D01*
X166710Y19665D01*
X166774Y19660D01*
X166837Y19651D01*
X166900Y19638D01*
X166962Y19621D01*
X167023Y19601D01*
X167082Y19577D01*
X167140Y19549D01*
X167195Y19517D01*
X167249Y19482D01*
X167301Y19444D01*
X167350Y19403D01*
X167396Y19359D01*
X167439Y19312D01*
X167480Y19262D01*
X167517Y19210D01*
X167551Y19156D01*
X167582Y19099D01*
X167609Y19041D01*
X167632Y18982D01*
X167652Y18921D01*
X167668Y18858D01*
X167680Y18796D01*
X167688Y18732D01*
X167692Y18668D01*
X167692Y18604D01*
X167688Y18540D01*
X167680Y18476D01*
X167668Y18414D01*
X167652Y18351D01*
X167632Y18290D01*
X167609Y18231D01*
X167582Y18173D01*
X167551Y18116D01*
X167517Y18062D01*
X167480Y18010D01*
X167439Y17960D01*
X167396Y17913D01*
X167350Y17869D01*
X167301Y17828D01*
X167249Y17790D01*
X167195Y17755D01*
X167140Y17723D01*
X167082Y17695D01*
X167023Y17671D01*
X166962Y17651D01*
X166900Y17634D01*
X166837Y17621D01*
X166774Y17612D01*
X166710Y17607D01*
X166646Y17606D01*
X166582Y17609D01*
X166518Y17616D01*
X166455Y17627D01*
X166393Y17642D01*
X166332Y17660D01*
X166272Y17683D01*
X166213Y17709D01*
X166156Y17739D01*
X166101Y17772D01*
X166049Y17808D01*
X165999Y17848D01*
X165951Y17891D01*
X165906Y17937D01*
X165864Y17985D01*
X165825Y18036D01*
X165789Y18089D01*
X165757Y18144D01*
X165728Y18202D01*
X165703Y18260D01*
X165681Y18321D01*
X165664Y18382D01*
X165650Y18445D01*
X165640Y18508D01*
X165634Y18572D01*
X165632Y18636D01*
D11*
X189471Y37030D02*
X196492Y32347D01*
X196492Y32348D02*
X196585Y32283D01*
X196676Y32215D01*
X196764Y32144D01*
X196850Y32071D01*
X196934Y31994D01*
X197014Y31914D01*
X197092Y31832D01*
X197167Y31746D01*
X197238Y31659D01*
X197307Y31569D01*
X197373Y31476D01*
X197435Y31382D01*
X197494Y31285D01*
X197549Y31186D01*
X197601Y31085D01*
X197649Y30983D01*
X197694Y30879D01*
X197735Y30773D01*
X197773Y30666D01*
X197807Y30558D01*
X197836Y30449D01*
X197862Y30338D01*
X197885Y30227D01*
X197903Y30116D01*
X197917Y30003D01*
X197928Y29890D01*
X197934Y29777D01*
X197937Y29664D01*
X197936Y29551D01*
X197930Y29438D01*
X197921Y29325D01*
X197908Y29212D01*
X197891Y29100D01*
X197870Y28989D01*
X197845Y28878D01*
X197816Y28769D01*
X197783Y28660D01*
X197747Y28553D01*
X197707Y28447D01*
X197663Y28342D01*
X197616Y28239D01*
X197565Y28138D01*
X197511Y28039D01*
X197453Y27941D01*
X197392Y27846D01*
X197327Y27753D01*
X197259Y27662D01*
X197188Y27574D01*
X197115Y27488D01*
X197038Y27404D01*
X196958Y27324D01*
X196876Y27246D01*
X196790Y27171D01*
X196703Y27100D01*
X196613Y27031D01*
X196520Y26965D01*
X196426Y26903D01*
X196329Y26844D01*
X196230Y26789D01*
X196129Y26737D01*
X196027Y26689D01*
X195923Y26644D01*
X195817Y26603D01*
X195710Y26565D01*
X195602Y26531D01*
X195493Y26502D01*
X195383Y26476D01*
X195271Y26453D01*
X195160Y26435D01*
X195047Y26421D01*
X194934Y26410D01*
X194821Y26404D01*
X194708Y26401D01*
X194595Y26402D01*
X194482Y26408D01*
X194369Y26417D01*
X194256Y26430D01*
X194144Y26447D01*
X194033Y26468D01*
X193922Y26493D01*
X193813Y26522D01*
X193704Y26555D01*
X193597Y26591D01*
X193491Y26631D01*
X193386Y26675D01*
X193283Y26722D01*
X193182Y26773D01*
X193083Y26827D01*
X192985Y26885D01*
X192890Y26946D01*
X185869Y31629D01*
X185078Y25762D02*
X181116Y24502D01*
X190838Y18018D01*
X189037Y15318D02*
X192639Y20719D01*
X186296Y11209D02*
X184135Y7968D01*
X184136Y7968D02*
X184079Y7886D01*
X184019Y7807D01*
X183956Y7730D01*
X183890Y7655D01*
X183822Y7583D01*
X183750Y7514D01*
X183677Y7447D01*
X183600Y7383D01*
X183521Y7323D01*
X183440Y7265D01*
X183357Y7210D01*
X183272Y7159D01*
X183185Y7111D01*
X183096Y7066D01*
X183005Y7025D01*
X182913Y6987D01*
X182820Y6953D01*
X182725Y6923D01*
X182629Y6896D01*
X182533Y6873D01*
X182435Y6853D01*
X182337Y6837D01*
X182238Y6825D01*
X182139Y6817D01*
X182039Y6813D01*
X181940Y6812D01*
X181841Y6815D01*
X181741Y6823D01*
X181642Y6833D01*
X181544Y6848D01*
X181446Y6866D01*
X181349Y6889D01*
X181253Y6914D01*
X181158Y6944D01*
X181064Y6977D01*
X180972Y7014D01*
X180881Y7054D01*
X180791Y7097D01*
X180704Y7144D01*
X180618Y7195D01*
X180534Y7248D01*
X179454Y7969D01*
X179454Y7968D02*
X179372Y8025D01*
X179293Y8085D01*
X179216Y8148D01*
X179141Y8214D01*
X179069Y8282D01*
X179000Y8354D01*
X178933Y8427D01*
X178869Y8504D01*
X178809Y8583D01*
X178751Y8664D01*
X178696Y8747D01*
X178645Y8832D01*
X178597Y8919D01*
X178552Y9008D01*
X178511Y9099D01*
X178473Y9191D01*
X178439Y9284D01*
X178409Y9379D01*
X178382Y9475D01*
X178359Y9571D01*
X178339Y9669D01*
X178323Y9767D01*
X178311Y9866D01*
X178303Y9965D01*
X178299Y10065D01*
X178298Y10164D01*
X178301Y10263D01*
X178309Y10363D01*
X178319Y10462D01*
X178334Y10560D01*
X178352Y10658D01*
X178375Y10755D01*
X178400Y10851D01*
X178430Y10946D01*
X178463Y11040D01*
X178500Y11132D01*
X178540Y11223D01*
X178583Y11313D01*
X178630Y11400D01*
X178681Y11486D01*
X178734Y11570D01*
X180895Y14811D01*
X176575Y17692D01*
X172973Y12291D01*
D10*
X135795Y63480D02*
X145403Y78107D01*
X158761Y69332D02*
X149153Y54706D01*
D11*
X139560Y81702D02*
X140985Y83872D01*
X140985Y83873D02*
X141038Y83957D01*
X141088Y84043D01*
X141134Y84131D01*
X141177Y84221D01*
X141216Y84312D01*
X141252Y84405D01*
X141285Y84499D01*
X141314Y84594D01*
X141339Y84690D01*
X141360Y84787D01*
X141378Y84885D01*
X141392Y84983D01*
X141402Y85082D01*
X141408Y85182D01*
X141411Y85281D01*
X141410Y85381D01*
X141405Y85480D01*
X141396Y85579D01*
X141383Y85678D01*
X141367Y85776D01*
X141347Y85873D01*
X141323Y85970D01*
X141295Y86065D01*
X141264Y86160D01*
X141229Y86253D01*
X141191Y86344D01*
X141149Y86435D01*
X141104Y86523D01*
X141055Y86610D01*
X141003Y86695D01*
X140948Y86778D01*
X140890Y86858D01*
X140829Y86937D01*
X140764Y87012D01*
X140697Y87086D01*
X140627Y87157D01*
X140555Y87225D01*
X140480Y87290D01*
X140402Y87352D01*
X140322Y87412D01*
X140240Y87468D01*
X140241Y87468D02*
X134815Y91032D01*
X134816Y91032D02*
X134732Y91085D01*
X134645Y91134D01*
X134557Y91181D01*
X134468Y91224D01*
X134376Y91263D01*
X134284Y91299D01*
X134190Y91332D01*
X134094Y91361D01*
X133998Y91386D01*
X133901Y91407D01*
X133803Y91425D01*
X133705Y91439D01*
X133606Y91449D01*
X133506Y91455D01*
X133407Y91458D01*
X133307Y91457D01*
X133208Y91452D01*
X133109Y91443D01*
X133010Y91430D01*
X132912Y91414D01*
X132815Y91393D01*
X132718Y91370D01*
X132623Y91342D01*
X132528Y91311D01*
X132435Y91276D01*
X132343Y91238D01*
X132253Y91196D01*
X132164Y91151D01*
X132077Y91102D01*
X131993Y91050D01*
X131910Y90995D01*
X131829Y90937D01*
X131751Y90875D01*
X131675Y90811D01*
X131601Y90744D01*
X131531Y90674D01*
X131463Y90601D01*
X131397Y90526D01*
X131335Y90449D01*
X131276Y90369D01*
X131219Y90287D01*
X131220Y90287D02*
X129794Y88117D01*
X129568Y83043D02*
X125616Y81756D01*
X135381Y75341D01*
X137163Y78054D02*
X133599Y72628D01*
X128718Y69926D02*
X119697Y72745D01*
X128718Y69926D02*
X125154Y64500D01*
X128393Y64703D02*
X124053Y67554D01*
D10*
X153298Y88414D02*
X162778Y103124D01*
X176212Y94466D02*
X166732Y79756D01*
D11*
X156903Y106668D02*
X158309Y108850D01*
X158309Y108851D02*
X158361Y108935D01*
X158410Y109022D01*
X158456Y109110D01*
X158498Y109200D01*
X158537Y109292D01*
X158572Y109385D01*
X158604Y109479D01*
X158632Y109575D01*
X158656Y109671D01*
X158677Y109768D01*
X158693Y109866D01*
X158707Y109965D01*
X158716Y110064D01*
X158721Y110163D01*
X158723Y110263D01*
X158721Y110362D01*
X158715Y110461D01*
X158705Y110560D01*
X158692Y110659D01*
X158674Y110757D01*
X158653Y110854D01*
X158629Y110950D01*
X158600Y111046D01*
X158568Y111140D01*
X158533Y111233D01*
X158494Y111324D01*
X158451Y111414D01*
X158405Y111502D01*
X158356Y111589D01*
X158303Y111673D01*
X158247Y111755D01*
X158188Y111835D01*
X158126Y111913D01*
X158061Y111988D01*
X157993Y112061D01*
X157923Y112131D01*
X157850Y112199D01*
X157774Y112263D01*
X157696Y112325D01*
X157616Y112384D01*
X157533Y112439D01*
X152077Y115956D01*
X152078Y115956D02*
X151993Y116008D01*
X151907Y116057D01*
X151818Y116103D01*
X151728Y116145D01*
X151636Y116184D01*
X151543Y116219D01*
X151449Y116251D01*
X151354Y116279D01*
X151257Y116303D01*
X151160Y116324D01*
X151062Y116340D01*
X150963Y116354D01*
X150864Y116363D01*
X150765Y116368D01*
X150665Y116370D01*
X150566Y116368D01*
X150466Y116362D01*
X150367Y116352D01*
X150269Y116339D01*
X150171Y116321D01*
X150074Y116300D01*
X149977Y116276D01*
X149882Y116247D01*
X149788Y116215D01*
X149695Y116180D01*
X149603Y116140D01*
X149514Y116098D01*
X149425Y116052D01*
X149339Y116002D01*
X149255Y115950D01*
X149172Y115894D01*
X149092Y115835D01*
X149014Y115773D01*
X148939Y115708D01*
X148866Y115640D01*
X148796Y115570D01*
X148728Y115497D01*
X148664Y115421D01*
X148602Y115343D01*
X148544Y115262D01*
X148488Y115180D01*
X147082Y112997D01*
X146899Y107921D02*
X142959Y106600D01*
X152780Y100270D01*
X154538Y102998D02*
X151022Y97542D01*
X148346Y93391D02*
X146237Y90117D01*
X146236Y90118D02*
X146181Y90035D01*
X146122Y89955D01*
X146060Y89877D01*
X145996Y89801D01*
X145928Y89728D01*
X145858Y89658D01*
X145785Y89590D01*
X145710Y89525D01*
X145632Y89463D01*
X145552Y89404D01*
X145470Y89348D01*
X145386Y89296D01*
X145299Y89246D01*
X145211Y89200D01*
X145121Y89158D01*
X145030Y89118D01*
X144937Y89083D01*
X144843Y89051D01*
X144747Y89022D01*
X144651Y88998D01*
X144554Y88977D01*
X144456Y88959D01*
X144357Y88946D01*
X144258Y88936D01*
X144159Y88930D01*
X144060Y88928D01*
X143960Y88930D01*
X143861Y88935D01*
X143762Y88944D01*
X143663Y88958D01*
X143565Y88974D01*
X143468Y88995D01*
X143372Y89019D01*
X143276Y89047D01*
X143182Y89079D01*
X143089Y89114D01*
X142997Y89153D01*
X142907Y89195D01*
X142819Y89241D01*
X142732Y89290D01*
X142648Y89342D01*
X142648Y89341D02*
X141557Y90044D01*
X141557Y90045D02*
X141474Y90100D01*
X141394Y90159D01*
X141316Y90221D01*
X141240Y90285D01*
X141167Y90353D01*
X141097Y90423D01*
X141029Y90496D01*
X140964Y90571D01*
X140902Y90649D01*
X140843Y90729D01*
X140787Y90811D01*
X140735Y90895D01*
X140685Y90982D01*
X140639Y91070D01*
X140596Y91160D01*
X140557Y91251D01*
X140522Y91344D01*
X140490Y91438D01*
X140461Y91534D01*
X140437Y91630D01*
X140416Y91727D01*
X140398Y91825D01*
X140385Y91924D01*
X140375Y92023D01*
X140369Y92122D01*
X140367Y92221D01*
X140369Y92321D01*
X140374Y92420D01*
X140383Y92519D01*
X140397Y92618D01*
X140413Y92716D01*
X140434Y92813D01*
X140458Y92909D01*
X140486Y93005D01*
X140518Y93099D01*
X140553Y93192D01*
X140592Y93284D01*
X140634Y93374D01*
X140680Y93462D01*
X140729Y93549D01*
X140781Y93633D01*
X142890Y96907D01*
X138525Y99720D01*
X135009Y94264D01*
M02*
