G04 EAGLE Gerber RS-274X export*
G75*
%MOMM*%
%FSLAX34Y34*%
%LPD*%
%INSolderpaste Bottom*%
%IPPOS*%
%AMOC8*
5,1,8,0,0,1.08239X$1,22.5*%
G01*
%ADD10R,0.920900X0.970200*%
%ADD11R,0.700000X0.700000*%
%ADD12R,0.700000X0.700000*%


D10*
G36*
X50104Y172926D02*
X45376Y180826D01*
X53700Y185808D01*
X58428Y177908D01*
X50104Y172926D01*
G37*
G36*
X58060Y159632D02*
X53332Y167532D01*
X61656Y172514D01*
X66384Y164614D01*
X58060Y159632D01*
G37*
G36*
X72961Y144743D02*
X67905Y152438D01*
X76013Y157765D01*
X81069Y150070D01*
X72961Y144743D01*
G37*
G36*
X81467Y131795D02*
X76411Y139490D01*
X84519Y144817D01*
X89575Y137122D01*
X81467Y131795D01*
G37*
G36*
X89870Y114079D02*
X85155Y121987D01*
X93488Y126955D01*
X98203Y119047D01*
X89870Y114079D01*
G37*
G36*
X97803Y100772D02*
X93088Y108680D01*
X101421Y113648D01*
X106136Y105740D01*
X97803Y100772D01*
G37*
D11*
G36*
X106305Y16429D02*
X100274Y12876D01*
X96721Y18907D01*
X102752Y22460D01*
X106305Y16429D01*
G37*
G36*
X100722Y25907D02*
X94691Y22354D01*
X91138Y28385D01*
X97169Y31938D01*
X100722Y25907D01*
G37*
G36*
X106906Y37673D02*
X112937Y41226D01*
X116490Y35195D01*
X110459Y31642D01*
X106906Y37673D01*
G37*
G36*
X112489Y28195D02*
X118520Y31748D01*
X122073Y25717D01*
X116042Y22164D01*
X112489Y28195D01*
G37*
G36*
X87220Y49053D02*
X81111Y45638D01*
X77696Y51747D01*
X83805Y55162D01*
X87220Y49053D01*
G37*
G36*
X81853Y58655D02*
X75744Y55240D01*
X72329Y61349D01*
X78438Y64764D01*
X81853Y58655D01*
G37*
G36*
X88304Y70277D02*
X94413Y73692D01*
X97828Y67583D01*
X91719Y64168D01*
X88304Y70277D01*
G37*
G36*
X93670Y60675D02*
X99779Y64090D01*
X103194Y57981D01*
X97085Y54566D01*
X93670Y60675D01*
G37*
G36*
X66053Y86192D02*
X60041Y82608D01*
X56457Y88620D01*
X62469Y92204D01*
X66053Y86192D01*
G37*
G36*
X60420Y95640D02*
X54408Y92056D01*
X50824Y98068D01*
X56836Y101652D01*
X60420Y95640D01*
G37*
G36*
X66543Y107439D02*
X72555Y111023D01*
X76139Y105011D01*
X70127Y101427D01*
X66543Y107439D01*
G37*
G36*
X72176Y97990D02*
X78188Y101574D01*
X81772Y95562D01*
X75760Y91978D01*
X72176Y97990D01*
G37*
G36*
X46738Y119134D02*
X40605Y115761D01*
X37232Y121894D01*
X43365Y125267D01*
X46738Y119134D01*
G37*
G36*
X41438Y128774D02*
X35305Y125401D01*
X31932Y131534D01*
X38065Y134907D01*
X41438Y128774D01*
G37*
G36*
X47969Y140350D02*
X54102Y143723D01*
X57475Y137590D01*
X51342Y134217D01*
X47969Y140350D01*
G37*
G36*
X53268Y130710D02*
X59401Y134083D01*
X62774Y127950D01*
X56641Y124577D01*
X53268Y130710D01*
G37*
G36*
X29112Y149636D02*
X22904Y146404D01*
X19672Y152612D01*
X25880Y155844D01*
X29112Y149636D01*
G37*
G36*
X24033Y159393D02*
X17825Y156161D01*
X14593Y162369D01*
X20801Y165601D01*
X24033Y159393D01*
G37*
G36*
X30825Y170819D02*
X37033Y174051D01*
X40265Y167843D01*
X34057Y164611D01*
X30825Y170819D01*
G37*
G36*
X35904Y161062D02*
X42112Y164294D01*
X45344Y158086D01*
X39136Y154854D01*
X35904Y161062D01*
G37*
D10*
G36*
X108524Y76939D02*
X103796Y84839D01*
X112120Y89821D01*
X116848Y81921D01*
X108524Y76939D01*
G37*
G36*
X116480Y63645D02*
X111752Y71545D01*
X120076Y76527D01*
X124804Y68627D01*
X116480Y63645D01*
G37*
G36*
X118682Y47861D02*
X113857Y55703D01*
X122120Y60787D01*
X126945Y52945D01*
X118682Y47861D01*
G37*
G36*
X126800Y34667D02*
X121975Y42509D01*
X130238Y47593D01*
X135063Y39751D01*
X126800Y34667D01*
G37*
X91314Y191795D03*
X106806Y191795D03*
X129414Y193040D03*
X144906Y193040D03*
X164974Y193040D03*
X180466Y193040D03*
D12*
X53107Y217067D03*
X53107Y228067D03*
X71407Y228067D03*
X71407Y217067D03*
X89908Y215154D03*
X89908Y226154D03*
X108208Y226154D03*
X108208Y215154D03*
X128008Y215129D03*
X128008Y226129D03*
X146308Y226129D03*
X146308Y215129D03*
X163565Y215106D03*
X163565Y226106D03*
X181865Y226106D03*
X181865Y215106D03*
X199759Y215082D03*
X199759Y226082D03*
X218059Y226082D03*
X218059Y215082D03*
D10*
X197994Y193573D03*
X213486Y193573D03*
X55754Y195580D03*
X71246Y195580D03*
G36*
X218486Y184428D02*
X223297Y192278D01*
X231568Y187208D01*
X226757Y179358D01*
X218486Y184428D01*
G37*
G36*
X210392Y171219D02*
X215203Y179069D01*
X223474Y173999D01*
X218663Y166149D01*
X210392Y171219D01*
G37*
G36*
X200742Y160171D02*
X205608Y167988D01*
X213844Y162861D01*
X208978Y155044D01*
X200742Y160171D01*
G37*
G36*
X192556Y147019D02*
X197422Y154836D01*
X205658Y149709D01*
X200792Y141892D01*
X192556Y147019D01*
G37*
G36*
X180989Y125125D02*
X186152Y132749D01*
X194185Y127309D01*
X189022Y119685D01*
X180989Y125125D01*
G37*
G36*
X172304Y112296D02*
X177467Y119920D01*
X185500Y114480D01*
X180337Y106856D01*
X172304Y112296D01*
G37*
D11*
G36*
X241807Y177132D02*
X244985Y183368D01*
X251221Y180190D01*
X248043Y173954D01*
X241807Y177132D01*
G37*
G36*
X251608Y172138D02*
X254786Y178374D01*
X261022Y175196D01*
X257844Y168960D01*
X251608Y172138D01*
G37*
G36*
X252714Y158891D02*
X249536Y152655D01*
X243300Y155833D01*
X246478Y162069D01*
X252714Y158891D01*
G37*
G36*
X242913Y163884D02*
X239735Y157648D01*
X233499Y160826D01*
X236677Y167062D01*
X242913Y163884D01*
G37*
G36*
X225769Y145291D02*
X229311Y151327D01*
X235347Y147785D01*
X231805Y141749D01*
X225769Y145291D01*
G37*
G36*
X235256Y139725D02*
X238798Y145761D01*
X244834Y142219D01*
X241292Y136183D01*
X235256Y139725D01*
G37*
G36*
X235574Y126435D02*
X232032Y120399D01*
X225996Y123941D01*
X229538Y129977D01*
X235574Y126435D01*
G37*
G36*
X226086Y132001D02*
X222544Y125965D01*
X216508Y129507D01*
X220050Y135543D01*
X226086Y132001D01*
G37*
G36*
X206525Y112511D02*
X210297Y118407D01*
X216193Y114635D01*
X212421Y108739D01*
X206525Y112511D01*
G37*
G36*
X215792Y106585D02*
X219564Y112481D01*
X225460Y108709D01*
X221688Y102813D01*
X215792Y106585D01*
G37*
G36*
X215601Y93292D02*
X211829Y87396D01*
X205933Y91168D01*
X209705Y97064D01*
X215601Y93292D01*
G37*
G36*
X206334Y99218D02*
X202562Y93322D01*
X196666Y97094D01*
X200438Y102990D01*
X206334Y99218D01*
G37*
G36*
X186349Y79441D02*
X190140Y85324D01*
X196023Y81533D01*
X192232Y75650D01*
X186349Y79441D01*
G37*
G36*
X195595Y73482D02*
X199386Y79365D01*
X205269Y75574D01*
X201478Y69691D01*
X195595Y73482D01*
G37*
G36*
X195356Y60192D02*
X191565Y54309D01*
X185682Y58100D01*
X189473Y63983D01*
X195356Y60192D01*
G37*
G36*
X186110Y66151D02*
X182319Y60268D01*
X176436Y64059D01*
X180227Y69942D01*
X186110Y66151D01*
G37*
G36*
X166889Y46552D02*
X170773Y52374D01*
X176595Y48490D01*
X172711Y42668D01*
X166889Y46552D01*
G37*
G36*
X176041Y40448D02*
X179925Y46270D01*
X185747Y42386D01*
X181863Y36564D01*
X176041Y40448D01*
G37*
G36*
X175593Y27162D02*
X171709Y21340D01*
X165887Y25224D01*
X169771Y31046D01*
X175593Y27162D01*
G37*
G36*
X166442Y33265D02*
X162558Y27443D01*
X156736Y31327D01*
X160620Y37149D01*
X166442Y33265D01*
G37*
D10*
G36*
X144949Y71696D02*
X150005Y79391D01*
X158113Y74064D01*
X153057Y66369D01*
X144949Y71696D01*
G37*
G36*
X136444Y58748D02*
X141500Y66443D01*
X149608Y61116D01*
X144552Y53421D01*
X136444Y58748D01*
G37*
G36*
X162380Y96709D02*
X167368Y104448D01*
X175522Y99193D01*
X170534Y91454D01*
X162380Y96709D01*
G37*
G36*
X153988Y83687D02*
X158976Y91426D01*
X167130Y86171D01*
X162142Y78432D01*
X153988Y83687D01*
G37*
M02*
